<svg id="eqk8jyyjpxvk1" xmlns="http://www.w3.org/2000/svg" xmlns:xlink="http://www.w3.org/1999/xlink" viewBox="0 0 1366 520" shape-rendering="geometricPrecision" text-rendering="geometricPrecision"><style><![CDATA[#eqk8jyyjpxvk4_to {animation: eqk8jyyjpxvk4_to__to 4s alternate infinite}@keyframes eqk8jyyjpxvk4_to__to { 0% {transform: translate(544px,364.299988px)} 100% {transform: translate(602.667770px,415.899988px)} }#eqk8jyyjpxvk6_to {animation: eqk8jyyjpxvk6_to__to 4s alternate infinite}@keyframes eqk8jyyjpxvk6_to__to { 0% {transform: translate(215.315760px,717.192740px)} 100% {transform: translate(175.039690px,775.163695px)} }#eqk8jyyjpxvk8_to {animation: eqk8jyyjpxvk8_to__to 4s alternate infinite}@keyframes eqk8jyyjpxvk8_to__to { 0% {transform: translate(-98.109785px,470.793569px)} 100% {transform: translate(-55.166191px,457.155480px)} }#eqk8jyyjpxvk10_to {animation: eqk8jyyjpxvk10_to__to 4s alternate infinite}@keyframes eqk8jyyjpxvk10_to__to { 0% {transform: translate(-93.074300px,234.168000px)} 33.333333% {transform: translate(-59.239953px,225.063090px)} 50% {transform: translate(-55.718821px,189.833680px)} 66.666667% {transform: translate(-15.760700px,169.172967px)} 100% {transform: translate(-63.263160px,207.591614px)} }#eqk8jyyjpxvk12_to {animation: eqk8jyyjpxvk12_to__to 4s alternate infinite}@keyframes eqk8jyyjpxvk12_to__to { 0% {transform: translate(-36.050000px,349.556000px)} 50% {transform: translate(7.965645px,396.406004px)} 100% {transform: translate(52.038280px,486.428900px)} }#eqk8jyyjpxvk14_to {animation: eqk8jyyjpxvk14_to__to 4s alternate infinite}@keyframes eqk8jyyjpxvk14_to__to { 0% {transform: translate(795.299988px,78.800003px)} 50% {transform: translate(813.939938px,48.500003px)} 100% {transform: translate(825.002088px,134.884003px)} }#eqk8jyyjpxvk16_to {animation: eqk8jyyjpxvk16_to__to 4s alternate infinite}@keyframes eqk8jyyjpxvk16_to__to { 0% {transform: translate(1038.599976px,159.100006px)} 33.333333% {transform: translate(1081.849976px,118.099998px)} 66.666667% {transform: translate(1133.902818px,83.000003px)} 100% {transform: translate(1075.116119px,38.755088px)} }#eqk8jyyjpxvk18_tr {animation: eqk8jyyjpxvk18_tr__tr 4s alternate infinite}@keyframes eqk8jyyjpxvk18_tr__tr { 0% {transform: translate(924.504499px,220.280285px) rotate(0deg)} 100% {transform: translate(924.504499px,220.280285px) rotate(360deg)} }#eqk8jyyjpxvk20_tr {animation: eqk8jyyjpxvk20_tr__tr 4s alternate infinite}@keyframes eqk8jyyjpxvk20_tr__tr { 0% {transform: translate(1064.799988px,243.499992px) rotate(0deg)} 100% {transform: translate(1064.799988px,243.499992px) rotate(720deg)} }#eqk8jyyjpxvk22_tr {animation: eqk8jyyjpxvk22_tr__tr 4s alternate infinite}@keyframes eqk8jyyjpxvk22_tr__tr { 0% {transform: translate(490.300003px,99.999996px) rotate(0deg)} 100% {transform: translate(490.300003px,99.999996px) rotate(360deg)} }#eqk8jyyjpxvk24_tr {animation: eqk8jyyjpxvk24_tr__tr 4s alternate infinite}@keyframes eqk8jyyjpxvk24_tr__tr { 0% {transform: translate(1313.799988px,94.700001px) rotate(0deg)} 100% {transform: translate(1313.799988px,94.700001px) rotate(1440deg)} }#eqk8jyyjpxvk26_to {animation: eqk8jyyjpxvk26_to__to 4s alternate infinite}@keyframes eqk8jyyjpxvk26_to__to { 0% {transform: translate(1174.829856px,198.399169px)} 33.333333% {transform: translate(1206.587676px,232.288227px)} 70% {transform: translate(1259.409041px,285.590634px)} 100% {transform: translate(1319.286266px,291.542734px)} }#eqk8jyyjpxvk28_to {animation: eqk8jyyjpxvk28_to__to 4s alternate infinite}@keyframes eqk8jyyjpxvk28_to__to { 0% {transform: translate(728.905718px,321.264688px)} 50% {transform: translate(780.216858px,240.299988px)} 100% {transform: translate(830.190948px,283.429948px)} }#eqk8jyyjpxvk30_to {animation: eqk8jyyjpxvk30_to__to 4s alternate infinite}@keyframes eqk8jyyjpxvk30_to__to { 0% {transform: translate(75.011210px,278.642234px)} 50% {transform: translate(166.489013px,253.533440px)} 100% {transform: translate(69.863275px,283.950510px)} }#eqk8jyyjpxvk32_tr {animation: eqk8jyyjpxvk32_tr__tr 4s alternate infinite}@keyframes eqk8jyyjpxvk32_tr__tr { 0% {transform: translate(-67.806414px,363.912110px) rotate(-21.253472deg)} 100% {transform: translate(-67.806414px,363.912110px) rotate(-14.068018deg)} }#eqk8jyyjpxvk34_to {animation: eqk8jyyjpxvk34_to__to 4s alternate infinite}@keyframes eqk8jyyjpxvk34_to__to { 0% {transform: translate(324.743000px,1050.740000px)} 100% {transform: translate(270.546711px,1098.924075px)} }#eqk8jyyjpxvk35_ts {animation: eqk8jyyjpxvk35_ts__ts 4s alternate infinite}@keyframes eqk8jyyjpxvk35_ts__ts { 0% {transform: translate(1064.849915px,418.241928px) scale(1,1)} 16.666667% {transform: translate(1064.849915px,418.241928px) scale(1.200000,1.200000)} 33.333333% {transform: translate(1064.849915px,418.241928px) scale(1,1)} 50% {transform: translate(1064.849915px,418.241928px) scale(1.200000,1.200000)} 66.666667% {transform: translate(1064.849915px,418.241928px) scale(1,1)} 83.333333% {transform: translate(1064.849915px,418.241928px) scale(1.200000,1.200000)} 100% {transform: translate(1064.849915px,418.241928px) scale(1,1)} }#eqk8jyyjpxvk36_ts {animation: eqk8jyyjpxvk36_ts__ts 4s alternate infinite}@keyframes eqk8jyyjpxvk36_ts__ts { 0% {transform: translate(1196.088806px,94.752590px) scale(1,1)} 16.666667% {transform: translate(1196.088806px,94.752590px) scale(1.200000,1.200000)} 33.333333% {transform: translate(1196.088806px,94.752590px) scale(1,1)} 50% {transform: translate(1196.088806px,94.752590px) scale(1.200000,1.200000)} 66.666667% {transform: translate(1196.088806px,94.752590px) scale(1,1)} 83.333333% {transform: translate(1196.088806px,94.752590px) scale(1.200000,1.200000)} 100% {transform: translate(1196.088806px,94.752590px) scale(1,1)} }#eqk8jyyjpxvk37_ts {animation: eqk8jyyjpxvk37_ts__ts 4s alternate infinite}@keyframes eqk8jyyjpxvk37_ts__ts { 0% {transform: translate(351.157700px,440.152176px) scale(1,1)} 16.666667% {transform: translate(351.157700px,440.152176px) scale(1.200000,1.200000)} 33.333333% {transform: translate(351.157700px,440.152176px) scale(1,1)} 50% {transform: translate(351.157700px,440.152176px) scale(1.200000,1.200000)} 66.666667% {transform: translate(351.157700px,440.152176px) scale(1,1)} 83.333333% {transform: translate(351.157700px,440.152176px) scale(1.200000,1.200000)} 100% {transform: translate(351.157700px,440.152176px) scale(1,1)} }#eqk8jyyjpxvk38_ts {animation: eqk8jyyjpxvk38_ts__ts 4s alternate infinite}@keyframes eqk8jyyjpxvk38_ts__ts { 0% {transform: translate(960.304535px,94.691734px) scale(1,1)} 16.666667% {transform: translate(960.304535px,94.691734px) scale(1.200000,1.200000)} 33.333333% {transform: translate(960.304535px,94.691734px) scale(1,1)} 50% {transform: translate(960.304535px,94.691734px) scale(1.200000,1.200000)} 66.666667% {transform: translate(960.304535px,94.691734px) scale(1,1)} 83.333333% {transform: translate(960.304535px,94.691734px) scale(1.200000,1.200000)} 100% {transform: translate(960.304535px,94.691734px) scale(1,1)} }]]></style><rect id="eqk8jyyjpxvk2" width="1366" height="520" rx="0" ry="0" transform="matrix(1 0 0 1 -0.10000000000002 0.19999999999999)" fill="rgb(209,207,207)" stroke="none" stroke-width="1"/><g id="eqk8jyyjpxvk3"><g id="eqk8jyyjpxvk4_to" transform="translate(544,364.299988)"><circle id="eqk8jyyjpxvk4" r="89" transform="translate(0,0.000012)" fill="rgb(0,255,0)" stroke="none" stroke-width="1"/></g></g><g id="eqk8jyyjpxvk5"><g id="eqk8jyyjpxvk6_to" transform="translate(215.315760,717.192740)"><rect id="eqk8jyyjpxvk6" width="118.800000" height="118.800000" rx="0" ry="0" transform="rotate(-66.801409) scale(0.999951,0.999951) translate(608.900000,122)" fill="rgb(0,0,255)" stroke="none" stroke-width="1"/></g></g><g id="eqk8jyyjpxvk7"><g id="eqk8jyyjpxvk8_to" transform="translate(-98.109785,470.793569)"><rect id="eqk8jyyjpxvk8" width="139.046363" height="138.801658" rx="0" ry="0" transform="rotate(-66.801409) scale(0.999951,0.999951) translate(269.225484,184)" fill="rgb(0,0,255)" stroke="none" stroke-width="1"/></g></g><g id="eqk8jyyjpxvk9"><g id="eqk8jyyjpxvk10_to" transform="translate(-93.074300,234.168000)"><rect id="eqk8jyyjpxvk10" width="65.300000" height="65.300000" rx="0" ry="0" transform="rotate(-16.630098) scale(1.000029,1.000029) translate(721.900000,402.800000)" fill="rgb(0,0,255)" stroke="none" stroke-width="1"/></g></g><g id="eqk8jyyjpxvk11"><g id="eqk8jyyjpxvk12_to" transform="translate(-36.050000,349.556000)"><rect id="eqk8jyyjpxvk12" width="30.800000" height="30.800000" rx="0" ry="0" transform="rotate(-16.611989) skewX(-0) skewY(0) scale(1.000039,1.000039) translate(1163.800000,282.800000)" fill="rgb(0,0,255)" stroke="none" stroke-width="1"/></g></g><g id="eqk8jyyjpxvk13"><g id="eqk8jyyjpxvk14_to" transform="translate(795.299988,78.800003)"><circle id="eqk8jyyjpxvk14" r="48.500000" transform="translate(0.000012,-0.000003)" fill="rgb(0,255,0)" stroke="none" stroke-width="1"/></g></g><g id="eqk8jyyjpxvk15"><g id="eqk8jyyjpxvk16_to" transform="translate(1038.599976,159.100006)"><circle id="eqk8jyyjpxvk16" r="17" transform="translate(0.000024,-0.000006)" fill="rgb(0,255,0)" stroke="none" stroke-width="1"/></g></g><g id="eqk8jyyjpxvk17"><g id="eqk8jyyjpxvk18_tr" transform="translate(924.504499,220.280285) rotate(0)"><polygon id="eqk8jyyjpxvk18" points="960.300000,172.500000 939.800000,243.500000 888.700000,190.300000" transform="translate(-924.500000,-208)" fill="rgb(255,255,0)" stroke="none" stroke-width="1"/></g></g><g id="eqk8jyyjpxvk19"><g id="eqk8jyyjpxvk20_tr" transform="translate(1064.799988,243.499992) rotate(0)"><polygon id="eqk8jyyjpxvk20" points="1096.900000,275.300000 1032.700000,259.200000 1078.700000,211.700000" transform="translate(-1064.799988,-243.499992)" fill="rgb(255,255,0)" stroke="none" stroke-width="1"/></g></g><g id="eqk8jyyjpxvk21"><g id="eqk8jyyjpxvk22_tr" transform="translate(490.300003,99.999996) rotate(0)"><polygon id="eqk8jyyjpxvk22" points="556.500000,118.700000 424.100000,170.200000 445.700000,29.800000" transform="translate(-490.300003,-99.999996)" fill="rgb(255,255,0)" stroke="none" stroke-width="1"/></g></g><g id="eqk8jyyjpxvk23"><g id="eqk8jyyjpxvk24_tr" transform="translate(1313.799988,94.700001) rotate(0)"><polygon id="eqk8jyyjpxvk24" points="1330.600000,105.100000 1297,110.600000 1309.100000,78.800000" transform="translate(-1313.799988,-94.700001)" fill="rgb(255,255,0)" stroke="none" stroke-width="1"/></g></g><g id="eqk8jyyjpxvk25"><g id="eqk8jyyjpxvk26_to" transform="translate(1174.829856,198.399169)"><circle id="eqk8jyyjpxvk26" r="17" transform="translate(0.000024,0.000006)" fill="rgb(0,255,0)" stroke="none" stroke-width="1"/></g></g><g id="eqk8jyyjpxvk27"><g id="eqk8jyyjpxvk28_to" transform="translate(728.905718,321.264688)"><circle id="eqk8jyyjpxvk28" r="35" transform="translate(0.000012,0.000012)" fill="rgb(0,255,0)" stroke="none" stroke-width="1"/></g></g><g id="eqk8jyyjpxvk29"><g id="eqk8jyyjpxvk30_to" transform="translate(75.011210,278.642234)"><rect id="eqk8jyyjpxvk30" width="34.100000" height="160" rx="0" ry="0" transform="rotate(-80.200459) scale(0.999991,0.999991) translate(186,14.800000)" fill="rgb(255,0,255)" stroke="none" stroke-width="1"/></g></g><g id="eqk8jyyjpxvk31"><g id="eqk8jyyjpxvk32_tr" transform="translate(-67.806414,363.912110) rotate(-21.253472)"><rect id="eqk8jyyjpxvk32" width="160" height="34" rx="0" ry="0" transform="scale(1.000015,1.000015) translate(857,326.100000)" fill="rgb(255,0,255)" stroke="none" stroke-width="1"/></g></g><g id="eqk8jyyjpxvk33"><g id="eqk8jyyjpxvk34_to" transform="translate(324.743000,1050.740000)"><rect id="eqk8jyyjpxvk34" width="18.100000" height="85" rx="0" ry="0" transform="rotate(-50.542890) scale(0.999999,0.999999) translate(1266.200000,138.900000)" fill="rgb(255,0,255)" stroke="none" stroke-width="1"/></g></g><g id="eqk8jyyjpxvk35_ts" transform="translate(1064.849915,418.241928) scale(1,1)"><path id="eqk8jyyjpxvk35" d="M1082.900000,393.400000L1082.900000,393.400000C1074.800000,389.500000,1065,392.900000,1061.100000,401L1061.100000,401.100000L1061,401.100000C1052.900000,397.200000,1043.100000,400.600000,1039.200000,408.700000L1039.200000,408.700000C1035.300000,416.800000,1038.700000,426.600000,1046.800000,430.500000L1046.900000,430.500000L1076.300000,444.700000L1090.500000,415.300000L1090.500000,415.200000C1094.400000,407.100000,1091,397.400000,1082.900000,393.400000Z" transform="translate(-1064.849915,-418.241928)" fill="rgb(255,0,0)" stroke="none" stroke-width="1"/></g><g id="eqk8jyyjpxvk36_ts" transform="translate(1196.088806,94.752590) scale(1,1)"><path id="eqk8jyyjpxvk36" d="M1205.100000,82.300000L1205.100000,82.300000C1201.100000,80.400000,1196.200000,82,1194.200000,86.100000L1194.200000,86.200000L1194.200000,86.200000C1190.100000,84.300000,1185.200000,85.900000,1183.300000,90L1183.300000,90C1181.300000,94.100000,1183,98.900000,1187.100000,100.900000L1187.200000,100.900000L1201.900000,108L1209,93.300000L1209,93.200000C1210.800000,89.200000,1209.100000,84.300000,1205.100000,82.300000Z" transform="translate(-1196.088806,-94.752590)" fill="rgb(255,0,0)" stroke="none" stroke-width="1"/></g><g id="eqk8jyyjpxvk37_ts" transform="translate(351.157700,440.152176) scale(1,1)"><path id="eqk8jyyjpxvk37" d="M414.400000,421.700000L414.400000,421.700000C405.900000,401.300000,382.400000,391.700000,362.100000,400.200000L361.800000,400.300000L361.700000,400C353.200000,379.600000,329.700000,370,309.400000,378.500000L309.400000,378.500000C289,387,279.400000,410.500000,287.900000,430.800000L288,431.100000L318.900000,504.900000L392.700000,474L393,473.900000C413.400000,465.500000,422.900000,442,414.400000,421.700000Z" transform="translate(-351.157700,-440.152176)" fill="rgb(255,0,0)" stroke="none" stroke-width="1"/></g><g id="eqk8jyyjpxvk38_ts" transform="translate(960.304535,94.691734) scale(1,1)"><path id="eqk8jyyjpxvk38" d="M969.400000,70.300000L969.400000,70.300000C960.600000,69.900000,953.100000,76.800000,952.700000,85.600000L952.700000,85.700000L952.600000,85.700000C943.800000,85.300000,936.300000,92.200000,935.900000,101L935.900000,101C935.500000,109.800000,942.400000,117.300000,951.200000,117.700000L951.300000,117.700000L983.300000,119.100000L984.700000,87.100000L984.700000,87C985.200000,78.200000,978.300000,70.700000,969.400000,70.300000Z" transform="translate(-960.304535,-94.691734)" fill="rgb(255,0,0)" stroke="none" stroke-width="1"/></g><g id="eqk8jyyjpxvk39"><path id="eqk8jyyjpxvk40" d="M155,350.600000C135.900000,350.700000,116.900000,350.600000,97.800000,350.600000C78.800000,350.600000,59.900000,350.700000,40.900000,350.500000C38,350.500000,37.600000,351.400000,37.800000,354C39.500000,371.100000,41.100000,388.200000,42.600000,405.300000C44.600000,427.100000,46.500000,448.800000,48.300000,470.600000C48.400000,472.200000,49,472.900000,50.500000,473.300000C65.300000,477.300000,80.200000,481.400000,95,485.500000C96.700000,486,98.300000,485.900000,99.900000,485.400000C114.600000,481.300000,129.400000,477.200000,144.200000,473.300000C146,472.800000,146.500000,472,146.700000,470.300000C148.200000,452.900000,149.800000,435.500000,151.400000,418.100000C153.400000,396.400000,155.200000,374.800000,157.300000,353.100000C157.600000,350.800000,157,350.600000,155,350.600000ZM134.900000,377.800000C134.500000,381.600000,134.100000,385.400000,133.900000,389.200000C133.800000,390.600000,132.800000,390.800000,131.900000,391.200000C121.500000,395.700000,111,400.200000,100.600000,404.600000C100.400000,404.700000,100.200000,404.900000,99.400000,405.400000L109.900000,405.400000C116.600000,405.400000,123.400000,405.400000,130.100000,405.400000C131.900000,405.400000,132.500000,405.700000,132.300000,407.700000C131,421.500000,129.800000,435.400000,128.700000,449.200000C128.600000,450.800000,127.900000,451.500000,126.500000,451.900000C117.400000,454.500000,108.400000,457.100000,99.300000,459.700000C98.300000,460,97.300000,459.900000,96.300000,459.600000C87.200000,457,78,454.400000,68.800000,451.800000C67.400000,451.400000,66.900000,450.700000,66.800000,449.300000C66.300000,442.900000,65.600000,436.500000,64.900000,430.100000C64.700000,428.500000,65.300000,428.200000,66.700000,428.200000C70.300000,428.300000,74,428.300000,77.600000,428.200000C79.100000,428.200000,79.800000,428.600000,79.800000,430.200000C79.900000,432.600000,80.200000,435,80.400000,437.400000C80.500000,439,81.100000,440.100000,82.900000,440.500000C87.400000,441.600000,91.900000,442.900000,96.400000,444.200000C96.800000,444.300000,97.200000,444.500000,97.500000,444.500000C102.900000,443,108.300000,441.500000,113.600000,440C114.600000,439.700000,114.400000,438.600000,114.500000,437.800000C114.900000,432.800000,115.200000,427.700000,115.800000,422.700000C116.100000,420.500000,115.300000,420.100000,113.300000,420.100000C97.900000,420.200000,82.500000,420.100000,67.100000,420.200000C64.900000,420.200000,64,419.700000,63.900000,417.300000C63.800000,414.300000,63.400000,411.300000,63,408.400000C62.700000,406.300000,63.200000,405.100000,65.400000,404.200000C75.500000,400.200000,85.600000,396,95.700000,391.800000C96.400000,391.500000,97.100000,391.100000,97.900000,390.700000C97.800000,390.500000,97.800000,390.300000,97.700000,390.200000C86.600000,390.200000,75.500000,390.100000,64.400000,390.300000C62.100000,390.300000,61.300000,389.600000,61.200000,387.400000C61.100000,384.200000,60.600000,381.100000,60.200000,377.900000C60,376.300000,60.200000,375.600000,62.200000,375.600000C85.700000,375.600000,109.300000,375.600000,132.800000,375.500000C134.600000,375.500000,135,376.100000,134.900000,377.800000Z" fill="rgb(2,115,191)" stroke="none" stroke-width="1"/><path id="eqk8jyyjpxvk41" d="M86.700000,342.300000C83.900000,345.400000,80.300000,345.600000,76.600000,344.600000C73.200000,343.700000,71.900000,341.200000,71.700000,337.900000C71.500000,333,71.300000,328.200000,71.800000,323.300000C72.200000,319,75.100000,316.800000,80,316.800000C85,316.800000,87.700000,319,88.200000,323.400000C88.200000,323.700000,88.200000,324,88.300000,324.200000C88.600000,328.900000,86.800000,330.400000,82.200000,329.100000C81.300000,328.800000,81.400000,328.300000,81.400000,327.600000C81.400000,326.100000,81.400000,324.600000,81.300000,323.100000C81.300000,322.400000,81.200000,321.500000,80.200000,321.400000C79.100000,321.300000,78.800000,322.300000,78.800000,323.100000C78.700000,325.700000,78.800000,328.300000,78.800000,331L78.800000,331C78.800000,333.300000,78.800000,335.700000,78.800000,338C78.800000,338.900000,78.800000,340.100000,80,340.200000C81.400000,340.300000,81.200000,339,81.300000,338.200000C81.400000,337.200000,81.400000,336.100000,81.300000,335.100000C81.200000,333.700000,81.800000,333.200000,83.100000,333.400000C84.800000,333.700000,87.600000,332.400000,88.100000,334.200000C88.800000,336.800000,88.800000,340,86.700000,342.300000Z" fill="rgb(2,115,191)" stroke="none" stroke-width="1"/><path id="eqk8jyyjpxvk42" d="M106.100000,340.900000C105.700000,342.200000,104.900000,343.200000,103.700000,343.800000C100.400000,345.400000,97,345.500000,93.700000,343.800000C91.400000,342.700000,89.600000,337.700000,90.600000,335.500000C91.300000,333.900000,92.800000,335.200000,93.700000,334.800000C96.900000,334,97.500000,335.600000,97.200000,338.200000C97.100000,339.100000,97.100000,340.300000,98.400000,340.300000C99.600000,340.300000,99.800000,339.100000,99.800000,338.200000C99.800000,336.700000,99.500000,335.200000,98.100000,334.300000C96.900000,333.500000,95.900000,332.600000,94.700000,331.900000C90.500000,329.500000,90,325.700000,90.600000,321.500000C90.900000,319.300000,92.400000,318,94.400000,317.400000C97.100000,316.500000,99.900000,316.500000,102.600000,317.700000C105.200000,318.800000,106.700000,322,105.900000,324.700000C105.700000,325.400000,105.300000,325.600000,104.700000,325.600000C103.700000,325.600000,102.600000,325.500000,101.600000,325.600000C100.100000,325.700000,99,325.500000,99.300000,323.600000C99.400000,322.800000,99.200000,321.700000,98.200000,321.700000C97,321.700000,97,322.900000,97,323.800000C97,325,97.500000,325.900000,98.600000,326.600000C99.800000,327.300000,100.900000,328.100000,102.100000,328.900000C106.100000,331.800000,107.500000,336.100000,106.100000,340.900000Z" fill="rgb(2,115,191)" stroke="none" stroke-width="1"/><path id="eqk8jyyjpxvk43" d="M123.800000,340.800000C123.600000,341.400000,123.300000,342,123,342.500000C121,345.100000,115.500000,345.900000,111.800000,344.200000C109.100000,342.900000,107.600000,339.500000,108.300000,336.100000C108.500000,334.800000,108.500000,334.800000,112,334.900000C114.400000,334.200000,115.100000,335.400000,114.800000,338C114.700000,338.800000,114.600000,340.300000,115.500000,340.300000C117,340.400000,116.800000,339,116.900000,337.900000C117.200000,335.900000,116.300000,334.800000,114.800000,333.800000C113.800000,333.200000,112.800000,332.400000,111.800000,331.700000C107.300000,329,107.600000,324.600000,108.400000,320.900000C108.700000,319.400000,109.900000,318.300000,111.400000,317.800000C114.400000,316.600000,117.400000,316.700000,120.400000,317.900000C122.700000,318.900000,124.200000,322.300000,123.500000,324.700000C123.300000,325.600000,122.700000,325.600000,122.100000,325.600000C121.100000,325.600000,120,325.500000,119,325.600000C117.500000,325.700000,116.700000,325.400000,116.900000,323.700000C117,322.800000,117,321.500000,115.700000,321.700000C114.600000,321.900000,114.600000,323,114.700000,324C114.700000,325.300000,115.500000,326.100000,116.400000,326.700000C117.500000,327.400000,118.600000,328.100000,119.600000,328.900000C123.800000,331.900000,125.100000,335.800000,123.800000,340.800000Z" fill="rgb(2,115,191)" stroke="none" stroke-width="1"/></g></svg>