<?xml version="1.0" encoding="utf-8"?>
<!-- Generator: Adobe Illustrator 23.0.1, SVG Export Plug-In . SVG Version: 6.00 Build 0)  -->
<svg version="1.1" id="Layer_1" xmlns="http://www.w3.org/2000/svg" xmlns:xlink="http://www.w3.org/1999/xlink" x="0px" y="0px"
	 viewBox="0 0 480 334" style="enable-background:new 0 0 480 334;" xml:space="preserve">
<style type="text/css">
	.st0{fill:#E5E5E5;}
	.st1{fill:#FEFEFE;}
	.st2{fill:#ACAEB2;}
	.st3{fill:#F4DE86;}
	.st4{fill:#D8A03F;}
	.st5{fill:#FE698E;}
	.st6{fill:#CE4B82;}
	.st7{fill:#9E1B69;}
	.st8{fill:#C8EDFE;}
	.st9{fill:#81C5E5;}
	.st10{fill:#A56D30;}
	.st11{fill:#6E3E0B;}
	.st12{fill:#8EDD56;}
	.st13{fill:#47A731;}
	.st14{fill:#178035;}
	.st15{fill:#177F35;}

	{
		animation: spin 3s infinite linear;
		transform-origin:70 70 ;
	}
	@keyframes spin1{
		0%{transform:translate(70px,70px) rotate(0deg);}
		100%{transform:translate(70px,70px) rotate(360deg);}
	}
	.flower{
	animation: spin 3000ms linear 1 normal forwards
	}
	@keyframes spin { 
		0% {transform: translate(246.700005px,80.627686px) rotate(0deg)}
		100% {transform: translate(246.700005px,80.627686px) rotate(360deg)
	}
</style>
<g>
	<path class="st0" d="M350.3,64.1c0,0.1,0,0.3,0,0.4c-1.3,1-2.7,0.8-4.1,0.7c-0.1,0-0.1,0-0.2,0c-0.2,0-0.3,0.1-0.5,0.1
		c-1.9,0.2-3.8,0.1-5.8,0.1c-3.4,0.1-3.7,0.3-3.7,3.8c0,15.3,0,30.5,0,45.8c0,2.2,0.4,4.4-0.8,6.4c-0.1,0.1-0.2,0.2-0.3,0.3
		c-0.1,0.1-0.2,0.2-0.3,0.2c-0.7,0.6-1.7,0.8-2.6,0.9c-0.8,0.1-1.6,0.1-2.4,0.1c-58.8,0-117.7,0-176.5,0c-1.8,0-3.7,0.2-5.1-1
		c-0.1-0.1-0.2-0.1-0.3-0.2c-0.1-0.1-0.1-0.1-0.2-0.2c-1.1-1.7-0.9-3.7-0.9-5.5c0-15.4,0-30.7,0-46.1c0-4.4-0.1-4.5-4.5-4.5
		c-1.6,0-3.3,0.1-4.9-0.1c-0.1,0-0.3,0-0.4-0.1c-0.1,0-0.2,0-0.3,0h0c-1.4,0-2.8,0.2-4-0.6c0-0.2-0.1-0.3-0.1-0.5c0,0,0-0.1,0-0.1
		c0.8-0.5,1.8-0.3,2.7-0.4c3.3,0,6.6-0.2,9.9,0c2.3,0.1,3-0.7,2.9-2.9c-0.2-3.3-0.1-6.6,0-9.9c0.2-6.4,2.5-11.9,6.9-16.7
		c3.6-3.9,8.2-5.4,12.9-7.1h147.5c0.4,0.5,1,0.5,1.6,0.7c10,2.8,15.9,9.3,17.7,19.6c0.8,4.3,0.4,8.6,0.4,12.8c0,2.7,0.7,3.6,3.5,3.6
		C342.3,63.6,346.3,63,350.3,64.1C350.3,64,350.3,64.1,350.3,64.1z"/>
	<path class="st1" d="M387,318.4c2.8,5.6,0.6,11.7-5.1,14.6c-0.7,0.4-1.4,0.7-2.1,1.1c0-1.6,1.4-1.8,2.3-2.4c4.1-2.7,5.8-6.8,4.6-11
		c-1.4-4.6-4.7-7.1-9.8-7.2c-2.4-0.1-4.8,0-7.2-0.1c-1.3-0.1-2.4-0.3-3.1-1.4c-0.1-0.2-0.2-0.3-0.3-0.5c0-0.1-0.1-0.2-0.1-0.4
		c-0.4-1.7-0.3-3.4-0.3-5.1c0-45.1,0-90.1,0-135.2c0-1.3-0.1-2.6,0.2-3.9c0-0.1,0-0.2,0-0.3c0-0.2,0-0.4,0-0.6
		c-0.1-3.4-0.4-6.7,0.2-10.1c0-0.1,0-0.1,0-0.2c0-0.1,0.1-0.3,0.2-0.4c0.7-1.4,2.1-1.5,3.5-1.6c2.4-0.1,4.8,0,7.2-0.1
		c5.6-0.2,9.7-4.2,9.8-9.6c0.1-5.1-4-9.4-9.4-9.8c-2.7-0.2-5.4,0-8.1-0.1c-1.1,0-2.3-0.1-3.2-0.9c-0.1,0-0.1-0.1-0.2-0.2
		c0,0,0,0,0,0c-0.9-1.5-0.7-3.3-0.7-4.9c0-13.9,0-27.7,0-41.6c0-2.6-0.2-5.2-0.5-7.7c-1-6.8-4.9-11.2-11.4-13.2
		c-1.1-0.4-2.4-0.3-3.1-1.5c10.1,0.7,16,7.6,16.1,19c0.1,16.7,0,33.4,0,50c3.3,0,6.6,0,9.9,0.1c6.8,0.1,11.8,4.6,11.8,10.8
		c0,6.3-4.8,10.8-11.6,11c-3.1,0.1-6.3-0.6-9.4,0.4c0,3.8,0,7.5-0.1,11.3c0,1.3,0.1,2.6,0.1,3.9c0,47.1,0,94.2,0,141.2
		c3.4,1.4,6.9,0.5,10.3,0.6C382,312.5,385.1,314.4,387,318.4z"/>
	<path class="st1" d="M132.2,64.1c-0.4,0.7-1,1-1.7,1.1c-10.1,2.4-13.1,9.4-13.3,18.3c-0.2,8.6,0,17.1-0.1,25.7c0,6.5,0,12.9,0,19.4
		c0,1.5,0.1,3-0.7,4.4c0,0-0.1,0.1-0.1,0.1c0,0.1-0.1,0.1-0.1,0.2c-1,1-2.4,0.9-3.6,0.9c-2.5,0.1-5-0.1-7.5,0.1
		c-5.6,0.4-9.8,4.8-9.6,10c0.2,5.4,4.3,9.3,10,9.4c2.3,0.1,4.6,0,6.9,0.1c1.4,0.1,2.9,0.1,3.6,1.6c0,0.1,0.1,0.2,0.1,0.3
		c0,0.1,0,0.2,0,0.3c0.6,3.4,0.4,6.7,0.2,10.1c0,0.2,0,0.4,0,0.7c0,0.1,0,0.2,0,0.3c0.3,1.3,0.2,2.6,0.2,3.9c0,45,0,90.1,0,135.1
		c0,1.7,0.1,3.4-0.2,5.1c0,0.2-0.1,0.3-0.1,0.5c-0.1,0.2-0.2,0.4-0.3,0.6c-0.7,1-1.9,1.3-3.2,1.3c-2.5,0.1-5,0-7.4,0.1
		c-4.8,0.2-8.1,2.7-9.4,7.3c-1.2,4.1,0.5,8.2,4.4,10.8c1,0.7,2.5,0.9,2.6,2.5c-2.7-1.5-5.7-2.7-7.2-5.9c-3.5-7.6,1.4-15.6,9.8-15.7
		c3.3-0.1,6.7,0.7,10-0.6c0-47.1,0-94.2,0-141.2c0-1.3,0.1-2.6,0.1-3.9c0-3.8,0-7.5-0.1-11.3c-3-1-6.1-0.4-9.1-0.4
		c-7.1-0.2-12-4.6-11.9-11c0-6.3,5-10.8,12.1-10.8c3.2,0,6.4,0,9.6-0.1c0-16.5,0-33,0-49.4c0-3.1,0.1-6.2,1.3-9.1
		C120.2,68,125.1,64.5,132.2,64.1z"/>
	<path class="st0" d="M381.9,332.9c-0.7,0.4-1.4,0.7-2.1,1.1h-277c-2.7-1.5-5.7-2.7-7.2-5.9c-3.5-7.6,1.4-15.6,9.8-15.7
		c3.3-0.1,6.7,0.7,10-0.6c0.3-0.1,0.5-0.3,0.8-0.3c1.1-0.3,2.2-0.2,3.3-0.2c8-0.1,16.1,0.3,24.1-0.3c0.1,0,0.1,0,0.2,0
		c0.2,0,0.3-0.1,0.5-0.1c1.6-0.3,3.2-0.2,4.9-0.2c21.1,0,42.1,0,63.2,0c5.6,0,5.6,0,5.6-5.8c0-21.9,0-43.7,0-65.6
		c0-1.8-0.3-3.6,0.9-5.2c0.1-0.1,0.2-0.2,0.3-0.2h0c0.1-0.1,0.2-0.1,0.4-0.1c0,0,0.1,0,0.1,0c0.1,0,0.2,0.1,0.3,0.1
		c1.4,1.6,1,3.6,1,5.5c0,21.8,0,43.5,0,65.3c0,1.1,0.1,2.2,0,3.3c-0.2,2.5,1,3.3,3.4,3.3c6.1-0.1,12.2,0,18.3,0c1.4,0,2.8,0,4.2,0.3
		h0.6c31.9,0.1,63.8,0,95.7,0h0.1c0,0,0.1,0,0.1,0c0.2,0,0.3,0,0.5,0c7.1-0.5,14.2-0.1,21.3-0.2c0.5,0,1.1,0.1,1.6,0.2
		c0.3,0.1,0.5,0.2,0.7,0.3c3.4,1.4,6.9,0.5,10.3,0.6c4.5,0.1,7.6,2.1,9.5,6C389.8,324,387.6,330,381.9,332.9z"/>
	<path class="st2" d="M148,121.2c1.1,0.7,2.3,0.5,3.5,0.5c59.9,0,119.8,0,179.7,0c1.2,0,2.4,0.2,3.5-0.5c2.4,4,1.7,8.1,0.4,12.1
		c-1.8,1.3-3.8,1-5.8,1c-44.6,0-89.2,0-133.8,0c-14.2,0-28.3,0-42.5,0c-1.8,0-3.6,0.2-5.2-0.9C146.2,129.3,145.6,125.2,148,121.2z"
		/>
	<path class="st3" d="M137.6,129.2c0,1.3,0,2.7-0.8,3.8c0,0-0.1,0.1-0.1,0.1c0,0,0,0,0,0c-0.1,0.1-0.3,0.3-0.5,0.4
		c-6.4,1.2-12.8,1-19.2,0.2c-0.3,0-0.6-0.3-0.8-0.6c0-0.1-0.1-0.1-0.1-0.2c0-16.5,0-33,0-49.4c0-3.1,0.1-6.2,1.3-9.1
		c2.7-6.5,7.6-10,14.7-10.4c0.1,0,0.1,0,0.2,0c1.4,0,2.7,0.1,4.1,0.1h0c0.3,0.3,0.5,0.7,0.7,1c0.4,1,0.4,2.1,0.4,3.2
		C137.6,88.7,137.6,108.9,137.6,129.2z"/>
	<path class="st3" d="M366.6,133.1c0,0.1-0.1,0.1-0.1,0.2c-0.7,0.8-1.8,1-2.8,1c-4.9,0.1-9.9,0.1-14.8,0c-1,0-2-0.2-2.8-0.9
		c0,0-0.1-0.1-0.1-0.1c0,0-0.1-0.1-0.1-0.1c-0.8-1.2-0.8-2.6-0.8-4c0-20.2,0-40.4,0-60.6c0-1.1,0-2.2,0.4-3.2c0.2-0.4,0.4-0.7,0.7-1
		c1.4-0.1,2.8-0.1,4.1-0.2c0,0,0.1,0,0.1,0c10.1,0.7,16,7.6,16.1,19C366.6,99.7,366.5,116.4,366.6,133.1z"/>
	<path class="st4" d="M136.4,133.1c0-23,0-45.9,0.1-68.9c2.9,0,5.8,0,8.7-0.2c2.4-0.2,2.8,0.8,2.8,2.9c-0.1,12.1,0,24.2,0,36.3
		c0,6,0.1,12,0.1,18c0,4-0.1,7.9-0.1,11.9C144,135,140.2,135,136.4,133.1z"/>
	<path class="st4" d="M346.2,64.2c0,22.9,0.1,45.9,0.1,68.8c-3.8,1.9-7.6,1.9-11.5,0c0-4-0.1-7.9-0.1-11.9c0-16.5,0.1-32.9,0.1-49.4
		c0-7.7,0-7.7,7.8-7.7C343.8,64.1,345,64.2,346.2,64.2z"/>
	<path class="st5" d="M367.2,311.8c-0.2,0.1-0.3,0.1-0.5,0.2c-1.9,0.7-3.8,0.3-5.7,0.3c-5.9,0-11.8,0-17.6-0.1
		c-0.1-0.2-0.2-0.3-0.3-0.5c0,0,0,0,0,0v0c0,0,0-0.1,0-0.1c0,0,0,0,0,0c0,0,0,0,0,0c0-0.1,0-0.2-0.1-0.3c0.2-3.7,0-7.3-0.4-11
		c-0.2-2.9-0.5-5.7-0.6-8.6c-0.1-4.1-2.7-6.8-6.8-6.8c-5.1,0-6.7-0.5-7.2-2.2c-0.3-1.2,0-3.1-0.1-5.8c0-3.2-0.3-6.4,0.2-9.5
		c0.1-0.2,0.2-0.3,0.3-0.5c0,0,0-0.1,0.1-0.1c0,0,0-0.1,0.1-0.1c0.5-0.6,1.1-0.9,1.8-1.1c10.4-3.2,12-12.3,10.9-19.9
		c-1.3-9.5-5.3-17.7-11.9-24.5c0,0,0,0,0,0c-0.1-0.1-0.3-0.3-0.4-0.4c-3.1-3.4-5.3-3.3-8.8,0.1c-9,8.9-13.3,19.7-12.7,32.3
		c0.3,5.8,3.1,10,8.7,12.1c1,0.4,2.1,0.6,2.8,1.3c0.1,0.1,0.1,0.1,0.2,0.2c0.2,0.2,0.4,0.5,0.6,0.9c0.5,5.1,1.1,10.3-0.3,15.4
		c0,0.1-0.1,0.2-0.1,0.3c0,0,0,0,0,0.1c-1.1,1.3-2.6,1.5-4.1,1.5c-12,0.1-23.9,0.1-35.9,0c-2.8,0-3.9-0.5-4.3-2.4c0,0,0,0,0,0
		c-0.1-0.6-0.2-1.2-0.2-2.1c0-4.2-0.2-8.4,0.1-12.5c0.1-0.4,0.2-0.7,0.4-0.9c0,0,0,0,0,0c0,0,0,0,0,0c0.5-0.7,1.2-1,2.1-1.3
		c9.4-2.8,12.1-11.6,10.8-20c-1.5-9.6-5.6-18-12.3-25c-0.1-0.1-0.2-0.2-0.2-0.3c-0.1-0.1-0.2-0.1-0.2-0.2c-3.4-2.6-4.9-2.5-8.1,0.4
		c-8.6,7.9-12.5,18-13.2,29.3c-0.4,6.8,1.8,13.2,10.1,15.8c0.6,0.2,1.3,0.4,1.8,0.8c0.1,0.1,0.2,0.1,0.3,0.2
		c0.2,0.2,0.4,0.5,0.5,0.8c0.6,5.1,0.8,10.2-0.1,15.3c0,0,0,0,0,0c-0.1,0.1-0.2,0.3-0.3,0.4c-0.9,1.2-2.4,1.4-3.8,1.5
		c-2.5,0.1-5,0-7.4,0.1c-4.5,0.2-7.3,3-7.7,7.5c-0.2,2.5,0.1,5.1-0.2,7.6c0,0,0,0.1,0,0.1c0,0.2,0,0.3,0,0.5
		c0.2,3.6,0.4,7.2-0.2,10.8c0,0,0,0,0,0.1c0,0.1,0,0.1-0.1,0.1c0,0.1-0.1,0.2-0.2,0.3c-0.1,0.2-0.3,0.3-0.4,0.4
		c-8.3,0-16.5,0-24.8,0.2c-2.6,0-2.3-1.5-2.3-3.1c0-18.9,0-37.9,0-56.8c0-6.2-0.1-12.4-0.1-18.5c0,0-0.1-0.1-0.1-0.1
		c-0.1-0.1-0.1-0.2-0.2-0.3c0,0,0,0,0,0c-0.5-1.1-0.6-2.3-0.6-3.4v0c0-0.8,0-1.7,0-2.5c-0.2-3,0-6-0.1-9c-0.1-7.6-4.5-12-12.1-12.3
		c-5-0.1-10,0-15,0c-11.4,0-22.8,0-34.2,0c-2.6,0-5.2,0.3-7.5,1.7c-2.3,1.4-4.2,3.2-4.7,5.9c-1.2,5.5-1.3,11.1-0.9,16.6
		c0,0.5,0.1,1.1,0.1,1.6c0.1,1,0.2,1.9,0.3,2.9c0.3,1.5,0.3,3,0.3,4.5c0,22.4,0,44.7,0,67.1c0,1.5,0.2,3.1-0.5,4.4
		c-0.2,0.3-0.4,0.7-0.7,1c-0.7,0.6-1.5,0.5-2.3,0.5c-7.7,0-15.3,0-23,0c-0.8,0-1.7,0-2.4-0.3c-0.2-0.1-0.3-0.1-0.5-0.2
		c0-47.1,0-94.2,0-141.2c0-1.3,0.1-2.6,0.1-3.9c0.3-0.3,0.6-0.5,0.9-0.7c0.6-0.3,1.4-0.4,2.1-0.4c1-0.1,2,0,3,0
		c79.9,0,159.7,0,239.6,0c1.7,0,3.5-0.4,5.1,0.5c0.3,0.2,0.6,0.4,0.9,0.6c0,1.3,0.1,2.6,0.1,3.9
		C367.2,217.6,367.2,264.7,367.2,311.8z"/>
	<path class="st6" d="M388.2,144c0,6.3-4.8,10.8-11.6,11c-3.1,0.1-6.3-0.6-9.4,0.4c-0.2,0.2-0.5,0.4-0.7,0.6
		c-1.2,0.7-2.7,0.6-4.1,0.6c-10.8,0-21.6,0-32.4,0c-69.5,0-139,0-208.5,0c-1.8,0-3.7,0.4-5.3-0.6c-0.3-0.1-0.5-0.3-0.7-0.5
		c-3-1-6.1-0.4-9.1-0.4c-7.1-0.2-12-4.6-11.9-11c0-6.3,5-10.8,12.1-10.8c3.2,0,6.4,0,9.6-0.1h0.3c6.7,0,13.3,0,20,0h0.4
		c3.6,0,7.2,0,10.8,0h0.2c2,0,4,0.1,6,0.1h177.7c1.1,0,2.2,0,3.3,0h0.3c3.6,0,7.2,0,10.8,0h0.4c6.7,0,13.3,0,20,0h0.3
		c3.3,0,6.6,0,9.9,0.1C383.2,133.2,388.2,137.7,388.2,144z"/>
	<path class="st7" d="M367.2,155.3c0,3.8,0,7.5-0.1,11.3h-0.9c-32.3,0-64.7,0-97.1,0c-50.9,0-101.8,0-152.8,0h-0.9
		c0-3.8,0-7.5-0.1-11.3c0.2,0,0.4,0,0.6,0c1.3,0,2.6-0.1,3.9-0.1c80.9,0,161.8,0,242.7,0c1.3,0,2.6,0,4,0.1
		C366.8,155.3,367,155.3,367.2,155.3z"/>
	<path class="st8" d="M143.6,311.8c0-12.6-0.1-25.1-0.1-37.7c0-13.3,0-26.5,0-39.8c-0.1-5.4,3.5-9.5,9.1-10.4
		c0.9-0.1,1.8-0.2,2.7-0.2c17.5,0,35-0.1,52.5,0c6.4,0,10.9,3.5,11.7,8.6c0.1,0.5,0.1,1-0.2,1.4c0,24.8,0,49.6,0.1,74.3
		c0,2.9-0.7,3.7-3.6,3.7C191.6,311.8,167.6,311.8,143.6,311.8z"/>
	<path class="st9" d="M219.1,233.8c-1-5.3-5.1-9-10.4-9c-18.2-0.1-36.4,0-54.6,0c-5.4,0-9.2,3.5-10.7,9.5
		c-0.5-6.8-0.8-13.5,0.2-20.2c0.7-5,5.8-8.9,11.3-8.9c17.5-0.1,35.1-0.1,52.6,0c7,0,12,5.2,12,12.2c0,5.5-0.1,11-0.1,16.4
		C219.4,233.9,219.3,233.8,219.1,233.8z"/>
	<path class="st10" d="M246.7,312.2c0-0.1,0.1-0.3,0.1-0.4c1.1-1.1,2.5-1.1,3.9-1.1c29.5,0,59,0,88.5,0c1.1,0,2.2,0,3.2,0.5
		c0.4,0.2,0.7,0.5,0.9,0.8c0,0.1,0,0.2,0,0.3c-8.6,0-17.2,0.1-25.7,0.1c-22.3,0-44.7,0-67,0C249.3,312.3,248,312.2,246.7,312.2z"/>
	<g class="flower">
		<path class="st5" d="M252.7,48.7c2.7,1.8,4.7,4.4,5.9,7.3c0.6,1.5,1.4,2.1,3,2.1c7.6,0.2,13.4,4.5,15.8,11.4
			c2.3,6.6,0.3,13.8-5.4,18.6c-1.3,1.1-1.5,1.8-1,3.4c2.7,7.4,0.4,15.2-5.5,19.5c-6.6,4.8-14.4,4.8-21-0.3c-1.3-1-2.1-1.1-3.3,0
			c-0.9,0.8-2,1.3-3,2c-3.9-1.4-7.2-4-9.8-7.1c-8.3-9.8-11.7-21-7.2-33.4c4.9-13.3,14.8-20.9,28.7-23.5
			C250.9,48.5,251.8,48.8,252.7,48.7z"/>
		<path class="st5" d="M252.7,48.7c-1.9,1.3-4.2,1.1-6.3,1.7c-12.5,3.8-21.3,11.6-24.9,24.3c-3.7,13.5,1.8,27.3,13.4,35.2
			c1.2,0.8,2.7,1.4,3.4,2.8c-6.1,3.2-13.7,2.3-18.7-2.1c-5.6-4.9-7.6-12.1-5-19c0.7-1.9,0.7-2.8-1-4.1c-5.6-4.5-7.5-12.1-5.2-18.7
			c2.4-6.7,8.5-11.3,15.7-11.3c2,0,2.7-0.8,3.5-2.4C232.3,45.6,243.9,42.6,252.7,48.7z"/>
		<path class="st3" d="M247.3,67.6c6.6,1.9,10.9,7.8,10.9,15c0,7.3-4.4,13.2-11.4,15.2c-1.5,0-2.7-0.6-3.8-1.4
			c-9.6-6.7-9.9-20.6,0.6-27.9C244.7,67.7,245.9,67.4,247.3,67.6z"/>
		<path class="st3" d="M247.3,67.6c-6.4,2.6-10.2,7.4-10.6,14.3c-0.4,6.6,2.8,11.7,8.6,14.9c0.5,0.3,1,0.7,1.5,1
			c-6.4,2.2-13.6-0.3-17.6-6c-4-5.6-3.7-13.8,0.7-19.3C234,67.3,241.3,65.2,247.3,67.6z"/>
	</g>
	<path class="st10" d="M246.8,299.8c0-2.5-0.1-5,0-7.5c0.1-5.2,3.7-8.6,9-8.9c3.6-0.1,7.2,0.6,10.7-0.5c1.6-0.7,3.3-0.5,5-0.5
		c2.1,0.1,3.1-0.8,3-2.9c-0.1-3,0-5.9,0-8.9c0-1.3,0-2.6,0.8-3.7c0.3-0.3,0.6-0.3,0.9-0.1c0,4.8,0,9.6-0.1,14.4c0,1.4,0.3,2.2,2,2.2
		c13.3,0,26.5,0,39.8-0.1c0.5,0,0.9-0.3,1.4-0.4c1.6-0.7,3.3-0.6,5-0.5c2.2,0.1,3-0.9,3-3c-0.1-3-0.1-5.9,0-8.9
		c0-1.4-0.1-2.8,1.2-3.8c0.2,0,0.3,0.1,0.5,0.1c0,4.8,0,9.6-0.1,14.3c0,1.7,0.6,2.4,2.2,2.2c0.2,0,0.4,0,0.6,0
		c7.9-0.9,12.3,2.7,11.8,11.8c-0.2,4.5,0.5,9.1,0.4,13.7c0,1,0.3,2-0.5,2.9c0,0-0.2-0.2-0.2-0.2c-1.6-1.9-1-4.2-1.1-6.3
		c-0.1-4.3-0.1-4.4-4.4-4.4c-28.4,0-56.8,0-85.2,0C250.5,301,248.4,301.4,246.8,299.8z"/>
	<path class="st11" d="M246.8,299.8c31.2,0,62.5,0,93.7-0.1c2,0,2.9,0.5,2.8,2.7c-0.2,3.1-0.1,6.2-0.1,9.3c-32.1,0-64.2,0-96.3,0
		C246.8,307.8,246.8,303.8,246.8,299.8z"/>
	<g>
		<path class="st12" d="M276.1,266.9c-0.1-0.1-0.2-0.1-0.4-0.1c-1.6-0.8-1.2-2.4-1.3-3.7c-0.1-3.3,0-6.6-0.1-9.9
			c-0.1-2.7-1.3-4.2-3.2-4.3c-2-0.1-3.3,1.5-3.6,4.3c-0.2,2.5,0.5,5-0.7,7.4c-2,0.9-2.4-0.9-2.9-2c-1.5-3.4-1.8-7-1.3-10.6
			c1.3-10.1,5-19.3,12-26.9c0.6-0.7,1.2-1.4,2.1-1.6c7,7.1,11.2,15.6,12.7,25.4C291,254.1,288.5,264.4,276.1,266.9z"/>
		<path class="st12" d="M330.1,220.5c8.8,8.8,13.1,19.5,12.4,31.9c-0.5,8.2-5.6,12.9-13.6,14.6c0,0-0.2-0.1-0.2-0.1
			c-1-1.1-0.8-2.4-0.8-3.7c-0.1-2.9,0-5.8,0-8.7c0-1.4-0.2-2.8-1.2-3.9c-0.9-1-2-1.7-3.4-1.5c-1.5,0.3-2.4,1.4-2.7,2.9
			c-0.3,1.7-0.2,3.4-0.2,5.1c0,1.3,0.1,2.6-0.7,3.7c-2,0.7-2.4-1-2.9-2.1c-1-2.5-1.5-5.2-1.4-7.9c0.6-9.9,3.8-18.9,9.9-26.7
			C326.5,222.4,327.6,220.4,330.1,220.5z"/>
		<path class="st13" d="M330.1,220.5c-7.8,6.6-11.3,15.4-13.2,25c-0.7,3.5-0.9,7.1,0,10.6c0.5,1.7,0.6,3.6,2.3,4.7
			c1.6,2,1.7,4.1,0,6.1c-8.4-2-12.5-6.5-12.6-15.1c-0.2-13.2,4.7-24.3,14.4-33.2C324.2,215.7,327.2,216.4,330.1,220.5z"/>
		<path class="st13" d="M276.8,219.6c-2,3.8-5.5,6.5-7.3,10.4c-4,8.4-7.3,16.8-5.2,26.4c0.3,1.6,0.6,3.4,2.2,4.4
			c1.7,2.1,1.7,4.1,0,6.2c-9-2.3-13.5-8.1-12.8-17.4c0.9-11.6,5-21.8,13.6-30C271,215.9,272.8,215.9,276.8,219.6z"/>
		<path class="st14" d="M319.2,266.9c0-2,0-4.1,0-6.1c0-2.7,0-5.4,0.1-8c0.1-3.1,2-5.1,4.7-5.1c2.6,0,4.7,2.2,4.8,5.1
			c0.1,4.7,0,9.3,0,14c-0.7,4.6-0.2,9.3-0.3,14c0,2-0.6,3-2.7,2.7c-2.1-0.3-4.4,0.5-6.5-0.5C319.2,277.7,319.2,272.3,319.2,266.9z"
			/>
		<path class="st15" d="M266.4,266.9c0-2.1,0-4.1,0-6.2c0-2.8,0-5.6,0.1-8.3c0.1-2.8,2.1-4.8,4.6-4.8c2.6,0,4.4,2,4.5,4.9
			c0.1,4.8,0.1,9.5,0.1,14.3c-0.1,4.7-0.2,9.3-0.2,14c0,2.1-0.6,2.9-2.7,2.7c-2.1-0.3-4.4,0.5-6.5-0.5
			C266.4,277.7,266.4,272.3,266.4,266.9z"/>
	</g>
</g>
</svg>
