<svg id="flowershop" xmlns="http://www.w3.org/2000/svg" xmlns:xlink="http://www.w3.org/1999/xlink" viewBox="0 0 480 334" shape-rendering="geometricPrecision" text-rendering="geometricPrecision"><style><![CDATA[#flowershop-g2_tr {animation: flowershop-g2_tr__tr 3000ms linear infinite}@keyframes flowershop-g2_tr__tr { 0% {transform: translate(246.700005px,80.627686px) rotate(0deg)} 100% {transform: translate(246.700005px,80.627686px) rotate(360deg)} }#flowershop-g4_ts {animation: flowershop-g4_ts__ts 3000ms linear infinite}@keyframes flowershop-g4_ts__ts { 0% {transform: translate(298.827725px,250.536299px) scale(1,1)} 33.333333% {transform: translate(298.827725px,250.536299px) scale(1,1.5)} 66.666667% {transform: translate(298.827725px,250.536299px) scale(1,1)} 100% {transform: translate(298.827725px,250.536299px) scale(1,1.5)} }]]></style><g id="flowershop-g1"><path id="flowershop-path1" d="M350.300000,64.100000C350.300000,64.200000,350.300000,64.400000,350.300000,64.500000C349,65.500000,347.600000,65.300000,346.200000,65.200000C346.100000,65.200000,346.100000,65.200000,346,65.200000C345.800000,65.200000,345.700000,65.300000,345.500000,65.300000C343.600000,65.500000,341.700000,65.400000,339.700000,65.400000C336.300000,65.500000,336,65.700000,336,69.200000C336,84.500000,336,99.700000,336,115C336,117.200000,336.400000,119.400000,335.200000,121.400000C335.100000,121.500000,335,121.600000,334.900000,121.700000C334.800000,121.800000,334.700000,121.900000,334.600000,121.900000C333.900000,122.500000,332.900000,122.700000,332,122.800000C331.200000,122.900000,330.400000,122.900000,329.600000,122.900000C270.800000,122.900000,211.900000,122.900000,153.100000,122.900000C151.300000,122.900000,149.400000,123.100000,148,121.900000C147.900000,121.800000,147.800000,121.800000,147.700000,121.700000C147.600000,121.600000,147.600000,121.600000,147.500000,121.500000C146.400000,119.800000,146.600000,117.800000,146.600000,116C146.600000,100.600000,146.600000,85.300000,146.600000,69.900000C146.600000,65.500000,146.500000,65.400000,142.100000,65.400000C140.500000,65.400000,138.800000,65.500000,137.200000,65.300000C137.100000,65.300000,136.900000,65.300000,136.800000,65.200000C136.700000,65.200000,136.600000,65.200000,136.500000,65.200000L136.500000,65.200000C135.100000,65.200000,133.700000,65.400000,132.500000,64.600000C132.500000,64.400000,132.400000,64.300000,132.400000,64.100000C132.400000,64.100000,132.400000,64,132.400000,64C133.200000,63.500000,134.200000,63.700000,135.100000,63.600000C138.400000,63.600000,141.700000,63.400000,145,63.600000C147.300000,63.700000,148,62.900000,147.900000,60.700000C147.700000,57.400000,147.800000,54.100000,147.900000,50.800000C148.100000,44.400000,150.400000,38.900000,154.800000,34.100000C158.400000,30.200000,163,28.700000,167.700000,27L315.200000,27C315.600000,27.500000,316.200000,27.500000,316.800000,27.700000C326.800000,30.500000,332.700000,37,334.500000,47.300000C335.300000,51.600000,334.900000,55.900000,334.900000,60.100000C334.900000,62.800000,335.600000,63.700000,338.400000,63.700000C342.300000,63.600000,346.300000,63,350.300000,64.100000C350.300000,64,350.300000,64.100000,350.300000,64.100000Z" fill="rgb(229,229,229)" stroke="none" stroke-width="1"/><path id="flowershop-path2" d="M387,318.400000C389.800000,324,387.600000,330.100000,381.900000,333C381.200000,333.400000,380.500000,333.700000,379.800000,334.100000C379.800000,332.500000,381.200000,332.300000,382.100000,331.700000C386.200000,329,387.900000,324.900000,386.700000,320.700000C385.300000,316.100000,382,313.600000,376.900000,313.500000C374.500000,313.400000,372.100000,313.500000,369.700000,313.400000C368.400000,313.300000,367.300000,313.100000,366.600000,312C366.500000,311.800000,366.400000,311.700000,366.300000,311.500000C366.300000,311.400000,366.200000,311.300000,366.200000,311.100000C365.800000,309.400000,365.900000,307.700000,365.900000,306C365.900000,260.900000,365.900000,215.900000,365.900000,170.800000C365.900000,169.500000,365.800000,168.200000,366.100000,166.900000C366.100000,166.800000,366.100000,166.700000,366.100000,166.600000C366.100000,166.400000,366.100000,166.200000,366.100000,166C366,162.600000,365.700000,159.300000,366.300000,155.900000C366.300000,155.800000,366.300000,155.800000,366.300000,155.700000C366.300000,155.600000,366.400000,155.400000,366.500000,155.300000C367.200000,153.900000,368.600000,153.800000,370,153.700000C372.400000,153.600000,374.800000,153.700000,377.200000,153.600000C382.800000,153.400000,386.900000,149.400000,387,144C387.100000,138.900000,383,134.600000,377.600000,134.200000C374.900000,134,372.200000,134.200000,369.500000,134.100000C368.400000,134.100000,367.200000,134,366.300000,133.200000C366.200000,133.200000,366.200000,133.100000,366.100000,133C366.100000,133,366.100000,133,366.100000,133C365.200000,131.500000,365.400000,129.700000,365.400000,128.100000C365.400000,114.200000,365.400000,100.400000,365.400000,86.500000C365.400000,83.900000,365.200000,81.300000,364.900000,78.800000C363.900000,72,360,67.600000,353.500000,65.600000C352.400000,65.200000,351.100000,65.300000,350.400000,64.100000C360.500000,64.800000,366.400000,71.700000,366.500000,83.100000C366.600000,99.800000,366.500000,116.500000,366.500000,133.100000C369.800000,133.100000,373.100000,133.100000,376.400000,133.200000C383.200000,133.300000,388.200000,137.800000,388.200000,144C388.200000,150.300000,383.400000,154.800000,376.600000,155C373.500000,155.100000,370.300000,154.400000,367.200000,155.400000C367.200000,159.200000,367.200000,162.900000,367.100000,166.700000C367.100000,168,367.200000,169.300000,367.200000,170.600000C367.200000,217.700000,367.200000,264.800000,367.200000,311.800000C370.600000,313.200000,374.100000,312.300000,377.500000,312.400000C382,312.500000,385.100000,314.400000,387,318.400000Z" fill="rgb(254,254,254)" stroke="none" stroke-width="1"/><path id="flowershop-path3" d="M132.200000,64.100000C131.800000,64.800000,131.200000,65.100000,130.500000,65.200000C120.400000,67.600000,117.400000,74.600000,117.200000,83.500000C117,92.100000,117.200000,100.600000,117.100000,109.200000C117.100000,115.700000,117.100000,122.100000,117.100000,128.600000C117.100000,130.100000,117.200000,131.600000,116.400000,133C116.400000,133,116.300000,133.100000,116.300000,133.100000C116.300000,133.200000,116.200000,133.200000,116.200000,133.300000C115.200000,134.300000,113.800000,134.200000,112.600000,134.200000C110.100000,134.300000,107.600000,134.100000,105.100000,134.300000C99.500000,134.700000,95.300000,139.100000,95.500000,144.300000C95.700000,149.700000,99.800000,153.600000,105.500000,153.700000C107.800000,153.800000,110.100000,153.700000,112.400000,153.800000C113.800000,153.900000,115.300000,153.900000,116,155.400000C116,155.500000,116.100000,155.600000,116.100000,155.700000C116.100000,155.800000,116.100000,155.900000,116.100000,156C116.700000,159.400000,116.500000,162.700000,116.300000,166.100000C116.300000,166.300000,116.300000,166.500000,116.300000,166.800000C116.300000,166.900000,116.300000,167,116.300000,167.100000C116.600000,168.400000,116.500000,169.700000,116.500000,171C116.500000,216,116.500000,261.100000,116.500000,306.100000C116.500000,307.800000,116.600000,309.500000,116.300000,311.200000C116.300000,311.400000,116.200000,311.500000,116.200000,311.700000C116.100000,311.900000,116,312.100000,115.900000,312.300000C115.200000,313.300000,114,313.600000,112.700000,313.600000C110.200000,313.700000,107.700000,313.600000,105.300000,313.700000C100.500000,313.900000,97.200000,316.400000,95.900000,321C94.700000,325.100000,96.400000,329.200000,100.300000,331.800000C101.300000,332.500000,102.800000,332.700000,102.900000,334.300000C100.200000,332.800000,97.200000,331.600000,95.700000,328.400000C92.200000,320.800000,97.100000,312.800000,105.500000,312.700000C108.800000,312.600000,112.200000,313.400000,115.500000,312.100000C115.500000,265,115.500000,217.900000,115.500000,170.900000C115.500000,169.600000,115.600000,168.300000,115.600000,167C115.600000,163.200000,115.600000,159.500000,115.500000,155.700000C112.500000,154.700000,109.400000,155.300000,106.400000,155.300000C99.300000,155.100000,94.400000,150.700000,94.500000,144.300000C94.500000,138,99.500000,133.500000,106.600000,133.500000C109.800000,133.500000,113,133.500000,116.200000,133.400000C116.200000,116.900000,116.200000,100.400000,116.200000,84C116.200000,80.900000,116.300000,77.800000,117.500000,74.900000C120.200000,68,125.100000,64.500000,132.200000,64.100000Z" fill="rgb(254,254,254)" stroke="none" stroke-width="1"/><path id="flowershop-path4" d="M381.900000,332.900000C381.200000,333.300000,380.500000,333.600000,379.800000,334L102.800000,334C100.100000,332.500000,97.100000,331.300000,95.600000,328.100000C92.100000,320.500000,97,312.500000,105.400000,312.400000C108.700000,312.300000,112.100000,313.100000,115.400000,311.800000C115.700000,311.700000,115.900000,311.500000,116.200000,311.500000C117.300000,311.200000,118.400000,311.300000,119.500000,311.300000C127.500000,311.200000,135.600000,311.600000,143.600000,311C143.700000,311,143.700000,311,143.800000,311C144,311,144.100000,310.900000,144.300000,310.900000C145.900000,310.600000,147.500000,310.700000,149.200000,310.700000C170.300000,310.700000,191.300000,310.700000,212.400000,310.700000C218,310.700000,218,310.700000,218,304.900000C218,283,218,261.200000,218,239.300000C218,237.500000,217.700000,235.700000,218.900000,234.100000C219,234,219.100000,233.900000,219.200000,233.900000L219.200000,233.900000C219.300000,233.800000,219.400000,233.800000,219.600000,233.800000C219.600000,233.800000,219.700000,233.800000,219.700000,233.800000C219.800000,233.800000,219.900000,233.900000,220,233.900000C221.400000,235.500000,221,237.500000,221,239.400000C221,261.200000,221,282.900000,221,304.700000C221,305.800000,221.100000,306.900000,221,308C220.800000,310.500000,222,311.300000,224.400000,311.300000C230.500000,311.200000,236.600000,311.300000,242.700000,311.300000C244.100000,311.300000,245.500000,311.300000,246.900000,311.600000L247.500000,311.600000C279.400000,311.700000,311.300000,311.600000,343.200000,311.600000L343.300000,311.600000C343.300000,311.600000,343.400000,311.600000,343.400000,311.600000C343.600000,311.600000,343.700000,311.600000,343.900000,311.600000C351,311.100000,358.100000,311.500000,365.200000,311.400000C365.700000,311.400000,366.300000,311.500000,366.800000,311.600000C367.100000,311.700000,367.300000,311.800000,367.500000,311.900000C370.900000,313.300000,374.400000,312.400000,377.800000,312.500000C382.300000,312.600000,385.400000,314.600000,387.300000,318.500000C389.800000,324,387.600000,330,381.900000,332.900000Z" fill="rgb(229,229,229)" stroke="none" stroke-width="1"/><path id="flowershop-path5" d="M148,121.200000C149.100000,121.900000,150.300000,121.700000,151.500000,121.700000C211.400000,121.700000,271.300000,121.700000,331.200000,121.700000C332.400000,121.700000,333.600000,121.900000,334.700000,121.200000C337.100000,125.200000,336.400000,129.300000,335.100000,133.300000C333.300000,134.600000,331.300000,134.300000,329.300000,134.300000C284.700000,134.300000,240.100000,134.300000,195.500000,134.300000C181.300000,134.300000,167.200000,134.300000,153,134.300000C151.200000,134.300000,149.400000,134.500000,147.800000,133.400000C146.200000,129.300000,145.600000,125.200000,148,121.200000Z" fill="rgb(172,174,178)" stroke="none" stroke-width="1"/><path id="flowershop-path6" d="M137.600000,129.200000C137.600000,130.500000,137.600000,131.900000,136.800000,133C136.800000,133,136.700000,133.100000,136.700000,133.100000C136.700000,133.100000,136.700000,133.100000,136.700000,133.100000C136.600000,133.200000,136.400000,133.400000,136.200000,133.500000C129.800000,134.700000,123.400000,134.500000,117,133.700000C116.700000,133.700000,116.400000,133.400000,116.200000,133.100000C116.200000,133,116.100000,133,116.100000,132.900000C116.100000,116.400000,116.100000,99.900000,116.100000,83.500000C116.100000,80.400000,116.200000,77.300000,117.400000,74.400000C120.100000,67.900000,125,64.400000,132.100000,64C132.200000,64,132.200000,64,132.300000,64C133.700000,64,135,64.100000,136.400000,64.100000L136.400000,64.100000C136.700000,64.400000,136.900000,64.800000,137.100000,65.100000C137.500000,66.100000,137.500000,67.200000,137.500000,68.300000C137.600000,88.700000,137.600000,108.900000,137.600000,129.200000Z" fill="rgb(244,222,134)" stroke="none" stroke-width="1"/><path id="flowershop-path7" d="M366.600000,133.100000C366.600000,133.200000,366.500000,133.200000,366.500000,133.300000C365.800000,134.100000,364.700000,134.300000,363.700000,134.300000C358.800000,134.400000,353.800000,134.400000,348.900000,134.300000C347.900000,134.300000,346.900000,134.100000,346.100000,133.400000C346.100000,133.400000,346,133.300000,346,133.300000C346,133.300000,345.900000,133.200000,345.900000,133.200000C345.100000,132,345.100000,130.600000,345.100000,129.200000C345.100000,109,345.100000,88.800000,345.100000,68.600000C345.100000,67.500000,345.100000,66.400000,345.500000,65.400000C345.700000,65,345.900000,64.700000,346.200000,64.400000C347.600000,64.300000,349,64.300000,350.300000,64.200000C350.300000,64.200000,350.400000,64.200000,350.400000,64.200000C360.500000,64.900000,366.400000,71.800000,366.500000,83.200000C366.600000,99.700000,366.500000,116.400000,366.600000,133.100000Z" fill="rgb(244,222,134)" stroke="none" stroke-width="1"/><path id="flowershop-path8" d="M136.400000,133.100000C136.400000,110.100000,136.400000,87.200000,136.500000,64.200000C139.400000,64.200000,142.300000,64.200000,145.200000,64C147.600000,63.800000,148,64.800000,148,66.900000C147.900000,79,148,91.100000,148,103.200000C148,109.200000,148.100000,115.200000,148.100000,121.200000C148.100000,125.200000,148,129.100000,148,133.100000C144,135,140.200000,135,136.400000,133.100000Z" fill="rgb(216,160,63)" stroke="none" stroke-width="1"/><path id="flowershop-path9" d="M346.200000,64.200000C346.200000,87.100000,346.300000,110.100000,346.300000,133C342.500000,134.900000,338.700000,134.900000,334.800000,133C334.800000,129,334.700000,125.100000,334.700000,121.100000C334.700000,104.600000,334.800000,88.200000,334.800000,71.700000C334.800000,64,334.800000,64,342.600000,64C343.800000,64.100000,345,64.200000,346.200000,64.200000Z" fill="rgb(216,160,63)" stroke="none" stroke-width="1"/><path id="flowershop-path10" d="M367.200000,311.800000C367,311.900000,366.900000,311.900000,366.700000,312C364.800000,312.700000,362.900000,312.300000,361,312.300000C355.100000,312.300000,349.200000,312.300000,343.400000,312.200000C343.300000,312,343.200000,311.900000,343.100000,311.700000C343.100000,311.700000,343.100000,311.700000,343.100000,311.700000L343.100000,311.700000C343.100000,311.700000,343.100000,311.600000,343.100000,311.600000C343.100000,311.600000,343.100000,311.600000,343.100000,311.600000C343.100000,311.600000,343.100000,311.600000,343.100000,311.600000C343.100000,311.500000,343.100000,311.400000,343,311.300000C343.200000,307.600000,343,304,342.600000,300.300000C342.400000,297.400000,342.100000,294.600000,342,291.700000C341.900000,287.600000,339.300000,284.900000,335.200000,284.900000C330.100000,284.900000,328.500000,284.400000,328,282.700000C327.700000,281.500000,328,279.600000,327.900000,276.900000C327.900000,273.700000,327.600000,270.500000,328.100000,267.400000C328.200000,267.200000,328.300000,267.100000,328.400000,266.900000C328.400000,266.900000,328.400000,266.800000,328.500000,266.800000C328.500000,266.800000,328.500000,266.700000,328.600000,266.700000C329.100000,266.100000,329.700000,265.800000,330.400000,265.600000C340.800000,262.400000,342.400000,253.300000,341.300000,245.700000C340,236.200000,336,228,329.400000,221.200000C329.400000,221.200000,329.400000,221.200000,329.400000,221.200000C329.300000,221.100000,329.100000,220.900000,329,220.800000C325.900000,217.400000,323.700000,217.500000,320.200000,220.900000C311.200000,229.800000,306.900000,240.600000,307.500000,253.200000C307.800000,259,310.600000,263.200000,316.200000,265.300000C317.200000,265.700000,318.300000,265.900000,319,266.600000C319.100000,266.700000,319.100000,266.700000,319.200000,266.800000C319.400000,267,319.600000,267.300000,319.800000,267.700000C320.300000,272.800000,320.900000,278,319.500000,283.100000C319.500000,283.200000,319.400000,283.300000,319.400000,283.400000C319.400000,283.400000,319.400000,283.400000,319.400000,283.500000C318.300000,284.800000,316.800000,285,315.300000,285C303.300000,285.100000,291.400000,285.100000,279.400000,285C276.600000,285,275.500000,284.500000,275.100000,282.600000C275.100000,282.600000,275.100000,282.600000,275.100000,282.600000C275,282,274.900000,281.400000,274.900000,280.500000C274.900000,276.300000,274.700000,272.100000,275,268C275.100000,267.600000,275.200000,267.300000,275.400000,267.100000C275.400000,267.100000,275.400000,267.100000,275.400000,267.100000C275.400000,267.100000,275.400000,267.100000,275.400000,267.100000C275.900000,266.400000,276.600000,266.100000,277.500000,265.800000C286.900000,263,289.600000,254.200000,288.300000,245.800000C286.800000,236.200000,282.700000,227.800000,276,220.800000C275.900000,220.700000,275.800000,220.600000,275.800000,220.500000C275.700000,220.400000,275.600000,220.400000,275.600000,220.300000C272.200000,217.700000,270.700000,217.800000,267.500000,220.700000C258.900000,228.600000,255,238.700000,254.300000,250C253.900000,256.800000,256.100000,263.200000,264.400000,265.800000C265,266,265.700000,266.200000,266.200000,266.600000C266.300000,266.700000,266.400000,266.700000,266.500000,266.800000C266.700000,267,266.900000,267.300000,267,267.600000C267.600000,272.700000,267.800000,277.800000,266.900000,282.900000C266.900000,282.900000,266.900000,282.900000,266.900000,282.900000C266.800000,283,266.700000,283.200000,266.600000,283.300000C265.700000,284.500000,264.200000,284.700000,262.800000,284.800000C260.300000,284.900000,257.800000,284.800000,255.400000,284.900000C250.900000,285.100000,248.100000,287.900000,247.700000,292.400000C247.500000,294.900000,247.800000,297.500000,247.500000,300C247.500000,300,247.500000,300.100000,247.500000,300.100000C247.500000,300.300000,247.500000,300.400000,247.500000,300.600000C247.700000,304.200000,247.900000,307.800000,247.300000,311.400000C247.300000,311.400000,247.300000,311.400000,247.300000,311.500000C247.300000,311.600000,247.300000,311.600000,247.200000,311.600000C247.200000,311.700000,247.100000,311.800000,247,311.900000C246.900000,312.100000,246.700000,312.200000,246.600000,312.300000C238.300000,312.300000,230.100000,312.300000,221.800000,312.500000C219.200000,312.500000,219.500000,311,219.500000,309.400000C219.500000,290.500000,219.500000,271.500000,219.500000,252.600000C219.500000,246.400000,219.400000,240.200000,219.400000,234.100000C219.400000,234.100000,219.300000,234,219.300000,234C219.200000,233.900000,219.200000,233.800000,219.100000,233.700000C219.100000,233.700000,219.100000,233.700000,219.100000,233.700000C218.600000,232.600000,218.500000,231.400000,218.500000,230.300000L218.500000,230.300000C218.500000,229.500000,218.500000,228.600000,218.500000,227.800000C218.300000,224.800000,218.500000,221.800000,218.400000,218.800000C218.300000,211.200000,213.900000,206.800000,206.300000,206.500000C201.300000,206.400000,196.300000,206.500000,191.300000,206.500000C179.900000,206.500000,168.500000,206.500000,157.100000,206.500000C154.500000,206.500000,151.900000,206.800000,149.600000,208.200000C147.300000,209.600000,145.400000,211.400000,144.900000,214.100000C143.700000,219.600000,143.600000,225.200000,144,230.700000C144,231.200000,144.100000,231.800000,144.100000,232.300000C144.200000,233.300000,144.300000,234.200000,144.400000,235.200000C144.700000,236.700000,144.700000,238.200000,144.700000,239.700000C144.700000,262.100000,144.700000,284.400000,144.700000,306.800000C144.700000,308.300000,144.900000,309.900000,144.200000,311.200000C144,311.500000,143.800000,311.900000,143.500000,312.200000C142.800000,312.800000,142,312.700000,141.200000,312.700000C133.500000,312.700000,125.900000,312.700000,118.200000,312.700000C117.400000,312.700000,116.500000,312.700000,115.800000,312.400000C115.600000,312.300000,115.500000,312.300000,115.300000,312.200000C115.300000,265.100000,115.300000,218,115.300000,171C115.300000,169.700000,115.400000,168.400000,115.400000,167.100000C115.700000,166.800000,116,166.600000,116.300000,166.400000C116.900000,166.100000,117.700000,166,118.400000,166C119.400000,165.900000,120.400000,166,121.400000,166C201.300000,166,281.100000,166,361,166C362.700000,166,364.500000,165.600000,366.100000,166.500000C366.400000,166.700000,366.700000,166.900000,367,167.100000C367,168.400000,367.100000,169.700000,367.100000,171C367.200000,217.600000,367.200000,264.700000,367.200000,311.800000Z" fill="rgb(254,105,142)" stroke="none" stroke-width="1"/><path id="flowershop-path11" d="M388.200000,144C388.200000,150.300000,383.400000,154.800000,376.600000,155C373.500000,155.100000,370.300000,154.400000,367.200000,155.400000C367,155.600000,366.700000,155.800000,366.500000,156C365.300000,156.700000,363.800000,156.600000,362.400000,156.600000C351.600000,156.600000,340.800000,156.600000,330,156.600000C260.500000,156.600000,191,156.600000,121.500000,156.600000C119.700000,156.600000,117.800000,157,116.200000,156C115.900000,155.900000,115.700000,155.700000,115.500000,155.500000C112.500000,154.500000,109.400000,155.100000,106.400000,155.100000C99.300000,154.900000,94.400000,150.500000,94.500000,144.100000C94.500000,137.800000,99.500000,133.300000,106.600000,133.300000C109.800000,133.300000,113,133.300000,116.200000,133.200000L116.500000,133.200000C123.200000,133.200000,129.800000,133.200000,136.500000,133.200000L136.900000,133.200000C140.500000,133.200000,144.100000,133.200000,147.700000,133.200000L147.900000,133.200000C149.900000,133.200000,151.900000,133.300000,153.900000,133.300000L331.600000,133.300000C332.700000,133.300000,333.800000,133.300000,334.900000,133.300000L335.200000,133.300000C338.800000,133.300000,342.400000,133.300000,346,133.300000L346.400000,133.300000C353.100000,133.300000,359.700000,133.300000,366.400000,133.300000L366.700000,133.300000C370,133.300000,373.300000,133.300000,376.600000,133.400000C383.200000,133.200000,388.200000,137.700000,388.200000,144Z" fill="rgb(206,75,130)" stroke="none" stroke-width="1"/><path id="flowershop-path12" d="M367.200000,155.300000C367.200000,159.100000,367.200000,162.800000,367.100000,166.600000L366.200000,166.600000C333.900000,166.600000,301.500000,166.600000,269.100000,166.600000C218.200000,166.600000,167.300000,166.600000,116.300000,166.600000L115.400000,166.600000C115.400000,162.800000,115.400000,159.100000,115.300000,155.300000C115.500000,155.300000,115.700000,155.300000,115.900000,155.300000C117.200000,155.300000,118.500000,155.200000,119.800000,155.200000C200.700000,155.200000,281.600000,155.200000,362.500000,155.200000C363.800000,155.200000,365.100000,155.200000,366.500000,155.300000C366.800000,155.300000,367,155.300000,367.200000,155.300000Z" fill="rgb(158,27,105)" stroke="none" stroke-width="1"/><path id="flowershop-path13" d="M143.600000,311.800000C143.600000,299.200000,143.500000,286.700000,143.500000,274.100000C143.500000,260.800000,143.500000,247.600000,143.500000,234.300000C143.400000,228.900000,147,224.800000,152.600000,223.900000C153.500000,223.800000,154.400000,223.700000,155.300000,223.700000C172.800000,223.700000,190.300000,223.600000,207.800000,223.700000C214.200000,223.700000,218.700000,227.200000,219.500000,232.300000C219.600000,232.800000,219.600000,233.300000,219.300000,233.700000C219.300000,258.500000,219.300000,283.300000,219.400000,308C219.400000,310.900000,218.700000,311.700000,215.800000,311.700000C191.600000,311.800000,167.600000,311.800000,143.600000,311.800000Z" fill="rgb(200,237,254)" stroke="none" stroke-width="1"/><path id="flowershop-path14" d="M219.100000,233.800000C218.100000,228.500000,214,224.800000,208.700000,224.800000C190.500000,224.700000,172.300000,224.800000,154.100000,224.800000C148.700000,224.800000,144.900000,228.300000,143.400000,234.300000C142.900000,227.500000,142.600000,220.800000,143.600000,214.100000C144.300000,209.100000,149.400000,205.200000,154.900000,205.200000C172.400000,205.100000,190,205.100000,207.500000,205.200000C214.500000,205.200000,219.500000,210.400000,219.500000,217.400000C219.500000,222.900000,219.400000,228.400000,219.400000,233.800000C219.400000,233.900000,219.300000,233.800000,219.100000,233.800000Z" fill="rgb(129,197,229)" stroke="none" stroke-width="1"/><path id="flowershop-path15" d="M246.700000,312.200000C246.700000,312.100000,246.800000,311.900000,246.800000,311.800000C247.900000,310.700000,249.300000,310.700000,250.700000,310.700000C280.200000,310.700000,309.700000,310.700000,339.200000,310.700000C340.300000,310.700000,341.400000,310.700000,342.400000,311.200000C342.800000,311.400000,343.100000,311.700000,343.300000,312C343.300000,312.100000,343.300000,312.200000,343.300000,312.300000C334.700000,312.300000,326.100000,312.400000,317.600000,312.400000C295.300000,312.400000,272.900000,312.400000,250.600000,312.400000C249.300000,312.300000,248,312.200000,246.700000,312.200000Z" fill="rgb(165,109,48)" stroke="none" stroke-width="1"/><g id="flowershop-g2_tr" transform="translate(246.700005,80.627686) rotate(0)"><g id="flowershop-g2" transform="translate(-246.700005,-80.627686)"><g id="flowershop-g3" transform="matrix(1 0 0 1 3.81032867000042 0.55867999999998)"><path id="flowershop-path16" d="M252.700000,48.700000C255.400000,50.500000,257.400000,53.100000,258.600000,56C259.200000,57.500000,260,58.100000,261.600000,58.100000C269.200000,58.300000,275,62.600000,277.400000,69.500000C279.700000,76.100000,277.700000,83.300000,272,88.100000C270.700000,89.200000,270.500000,89.900000,271,91.500000C273.700000,98.900000,271.400000,106.700000,265.500000,111C258.900000,115.800000,251.100000,115.800000,244.500000,110.700000C243.200000,109.700000,242.400000,109.600000,241.200000,110.700000C240.300000,111.500000,239.200000,112,238.200000,112.700000C234.300000,111.300000,231,108.700000,228.400000,105.600000C220.100000,95.800000,216.700000,84.600000,221.200000,72.200000C226.100000,58.900000,236,51.300000,249.900000,48.700000C250.900000,48.500000,251.800000,48.800000,252.700000,48.700000Z" fill="rgb(254,105,142)" stroke="none" stroke-width="1"/><path id="flowershop-path17" d="M252.700000,48.700000C250.800000,50,248.500000,49.800000,246.400000,50.400000C233.900000,54.200000,225.100000,62,221.500000,74.700000C217.800000,88.200000,223.300000,102,234.900000,109.900000C236.100000,110.700000,237.600000,111.300000,238.300000,112.700000C232.200000,115.900000,224.600000,115,219.600000,110.600000C214,105.700000,212,98.500000,214.600000,91.600000C215.300000,89.700000,215.300000,88.800000,213.600000,87.500000C208,83,206.100000,75.400000,208.400000,68.800000C210.800000,62.100000,216.900000,57.500000,224.100000,57.500000C226.100000,57.500000,226.800000,56.700000,227.600000,55.100000C232.300000,45.600000,243.900000,42.600000,252.700000,48.700000Z" fill="rgb(254,105,142)" stroke="none" stroke-width="1"/><path id="flowershop-path18" d="M247.300000,67.600000C253.900000,69.500000,258.200000,75.400000,258.200000,82.600000C258.200000,89.900000,253.800000,95.800000,246.800000,97.800000C245.300000,97.800000,244.100000,97.200000,243,96.400000C233.400000,89.700000,233.100000,75.800000,243.600000,68.500000C244.700000,67.700000,245.900000,67.400000,247.300000,67.600000Z" fill="rgb(244,222,134)" stroke="none" stroke-width="1"/><path id="flowershop-path19" d="M247.300000,67.600000C240.900000,70.200000,237.100000,75,236.700000,81.900000C236.300000,88.500000,239.500000,93.600000,245.300000,96.800000C245.800000,97.100000,246.300000,97.500000,246.800000,97.800000C240.400000,100,233.200000,97.500000,229.200000,91.800000C225.200000,86.200000,225.500000,78,229.900000,72.500000C234,67.300000,241.300000,65.200000,247.300000,67.600000Z" fill="rgb(244,222,134)" stroke="none" stroke-width="1"/></g></g></g><path id="flowershop-path20" d="M246.800000,299.800000C246.800000,297.300000,246.700000,294.800000,246.800000,292.300000C246.900000,287.100000,250.500000,283.700000,255.800000,283.400000C259.400000,283.300000,263,284,266.500000,282.900000C268.100000,282.200000,269.800000,282.400000,271.500000,282.400000C273.600000,282.500000,274.600000,281.600000,274.500000,279.500000C274.400000,276.500000,274.500000,273.600000,274.500000,270.600000C274.500000,269.300000,274.500000,268,275.300000,266.900000C275.600000,266.600000,275.900000,266.600000,276.200000,266.800000C276.200000,271.600000,276.200000,276.400000,276.100000,281.200000C276.100000,282.600000,276.400000,283.400000,278.100000,283.400000C291.400000,283.400000,304.600000,283.400000,317.900000,283.300000C318.400000,283.300000,318.800000,283,319.300000,282.900000C320.900000,282.200000,322.600000,282.300000,324.300000,282.400000C326.500000,282.500000,327.300000,281.500000,327.300000,279.400000C327.200000,276.400000,327.200000,273.500000,327.300000,270.500000C327.300000,269.100000,327.200000,267.700000,328.500000,266.700000C328.700000,266.700000,328.800000,266.800000,329,266.800000C329,271.600000,329,276.400000,328.900000,281.100000C328.900000,282.800000,329.500000,283.500000,331.100000,283.300000C331.300000,283.300000,331.500000,283.300000,331.700000,283.300000C339.600000,282.400000,344,286,343.500000,295.100000C343.300000,299.600000,344,304.200000,343.900000,308.800000C343.900000,309.800000,344.200000,310.800000,343.400000,311.700000C343.400000,311.700000,343.200000,311.500000,343.200000,311.500000C341.600000,309.600000,342.200000,307.300000,342.100000,305.200000C342,300.900000,342,300.800000,337.700000,300.800000C309.300000,300.800000,280.900000,300.800000,252.500000,300.800000C250.500000,301,248.400000,301.400000,246.800000,299.800000Z" fill="rgb(165,109,48)" stroke="none" stroke-width="1"/><path id="flowershop-path21" d="M246.800000,299.800000C278,299.800000,309.300000,299.800000,340.500000,299.700000C342.500000,299.700000,343.400000,300.200000,343.300000,302.400000C343.100000,305.500000,343.200000,308.600000,343.200000,311.700000C311.100000,311.700000,279,311.700000,246.900000,311.700000C246.800000,307.800000,246.800000,303.800000,246.800000,299.800000Z" fill="rgb(110,62,11)" stroke="none" stroke-width="1"/><g id="flowershop-g4_ts" transform="translate(298.827725,250.536299) scale(1,1)"><g id="flowershop-g4" transform="translate(-298.101395,-250.188698)"><g id="flowershop-g5"><path id="flowershop-path22" d="M276.100000,266.900000C276,266.800000,275.900000,266.800000,275.700000,266.800000C274.100000,266,274.500000,264.400000,274.400000,263.100000C274.300000,259.800000,274.400000,256.500000,274.300000,253.200000C274.200000,250.500000,273,249,271.100000,248.900000C269.100000,248.800000,267.800000,250.400000,267.500000,253.200000C267.300000,255.700000,268,258.200000,266.800000,260.600000C264.800000,261.500000,264.400000,259.700000,263.900000,258.600000C262.400000,255.200000,262.100000,251.600000,262.600000,248C263.900000,237.900000,267.600000,228.700000,274.600000,221.100000C275.200000,220.400000,275.800000,219.700000,276.700000,219.500000C283.700000,226.600000,287.900000,235.100000,289.400000,244.900000C291,254.100000,288.500000,264.400000,276.100000,266.900000Z" fill="rgb(142,221,86)" stroke="none" stroke-width="1"/><path id="flowershop-path23" d="M330.100000,220.500000C338.900000,229.300000,343.200000,240,342.500000,252.400000C342,260.600000,336.900000,265.300000,328.900000,267C328.900000,267,328.700000,266.900000,328.700000,266.900000C327.700000,265.800000,327.900000,264.500000,327.900000,263.200000C327.800000,260.300000,327.900000,257.400000,327.900000,254.500000C327.900000,253.100000,327.700000,251.700000,326.700000,250.600000C325.800000,249.600000,324.700000,248.900000,323.300000,249.100000C321.800000,249.400000,320.900000,250.500000,320.600000,252C320.300000,253.700000,320.400000,255.400000,320.400000,257.100000C320.400000,258.400000,320.500000,259.700000,319.700000,260.800000C317.700000,261.500000,317.300000,259.800000,316.800000,258.700000C315.800000,256.200000,315.300000,253.500000,315.400000,250.800000C316,240.900000,319.200000,231.900000,325.300000,224.100000C326.500000,222.400000,327.600000,220.400000,330.100000,220.500000Z" fill="rgb(142,221,86)" stroke="none" stroke-width="1"/><path id="flowershop-path24" d="M330.100000,220.500000C322.300000,227.100000,318.800000,235.900000,316.900000,245.500000C316.200000,249,316,252.600000,316.900000,256.100000C317.400000,257.800000,317.500000,259.700000,319.200000,260.800000C320.800000,262.800000,320.900000,264.900000,319.200000,266.900000C310.800000,264.900000,306.700000,260.400000,306.600000,251.800000C306.400000,238.600000,311.300000,227.500000,321,218.600000C324.200000,215.700000,327.200000,216.400000,330.100000,220.500000Z" fill="rgb(71,167,49)" stroke="none" stroke-width="1"/><path id="flowershop-path25" d="M276.800000,219.600000C274.800000,223.400000,271.300000,226.100000,269.500000,230C265.500000,238.400000,262.200000,246.800000,264.300000,256.400000C264.600000,258,264.900000,259.800000,266.500000,260.800000C268.200000,262.900000,268.200000,264.900000,266.500000,267C257.500000,264.700000,253,258.900000,253.700000,249.600000C254.600000,238,258.700000,227.800000,267.300000,219.600000C271,215.900000,272.800000,215.900000,276.800000,219.600000Z" fill="rgb(71,167,49)" stroke="none" stroke-width="1"/><path id="flowershop-path26" d="M319.200000,266.900000C319.200000,264.900000,319.200000,262.800000,319.200000,260.800000C319.200000,258.100000,319.200000,255.400000,319.300000,252.800000C319.400000,249.700000,321.300000,247.700000,324,247.700000C326.600000,247.700000,328.700000,249.900000,328.800000,252.800000C328.900000,257.500000,328.800000,262.100000,328.800000,266.800000C328.100000,271.400000,328.600000,276.100000,328.500000,280.800000C328.500000,282.800000,327.900000,283.800000,325.800000,283.500000C323.700000,283.200000,321.400000,284,319.300000,283C319.200000,277.700000,319.200000,272.300000,319.200000,266.900000Z" fill="rgb(23,128,53)" stroke="none" stroke-width="1"/><path id="flowershop-path27" d="M266.400000,266.900000C266.400000,264.800000,266.400000,262.800000,266.400000,260.700000C266.400000,257.900000,266.400000,255.100000,266.500000,252.400000C266.600000,249.600000,268.600000,247.600000,271.100000,247.600000C273.700000,247.600000,275.500000,249.600000,275.600000,252.500000C275.700000,257.300000,275.700000,262,275.700000,266.800000C275.600000,271.500000,275.500000,276.100000,275.500000,280.800000C275.500000,282.900000,274.900000,283.700000,272.800000,283.500000C270.700000,283.200000,268.400000,284,266.300000,283C266.400000,277.700000,266.400000,272.300000,266.400000,266.900000Z" fill="rgb(23,127,53)" stroke="none" stroke-width="1"/></g></g></g></g></svg>