<?xml version="1.0" encoding="utf-8"?>
<!-- Generator: Adobe Illustrator 23.0.1, SVG Export Plug-In . SVG Version: 6.00 Build 0)  -->
<svg version="1.1" id="Layer_1" xmlns="http://www.w3.org/2000/svg" xmlns:xlink="http://www.w3.org/1999/xlink" x="0px" y="0px"
	 viewBox="0 0 583 76" style="enable-background:new 0 0 583 76;" xml:space="preserve">
<style type="text/css">
	.st0{fill:#808080;stroke:#808080;stroke-miterlimit:10;}
	.st1{stroke:#000000;stroke-miterlimit:10;}
	    #letter {
        stroke-dasharray: 500;
        stroke-dashoffset: 500;
        fill-opacity: 0;
        animation: draw 4s ease-in-out infinite alternate;
        font-weight: bold;
		}
		.hh{
			transition:0.2s
		}
		.hh:hover{
			transform: scale(1.2);
		}
        @keyframes draw {
          0% {
            stroke-dashoffset: 500;
            }
          75% {
            stroke-dashoffset: 0;
			fill-opacity: 0;
		  }
		  85%{
			  fill-opacity: 1;
		  }
          95% {
			stroke-dashoffset: 500;
		  }
          100% {
            fill-opacity: 1;
          }
        }
      }
  }
}
</style>
<g>
	<path id="letter" class="st0 hh" d="M54.7,14h6.4v45h-6.4V39.5H29.4v19.6H23V14h6.4v19.5h25.3V14z"/>
	<path id="letter" class="st0 hh" d="M92.1,13.8h4.5l20.2,45.3h-6.6l-6-13.3H85l-5.6,13.3h-6.6L92.1,13.8z M101.5,40l-7.3-16.3L87.5,40H101.5z"/>
	<path id="letter" class="st0 hh" d="M164.1,14h6.1v45h-5.5l-30.1-34.7v34.7h-6.1V14h5.2l30.4,35V14z"/>
	<path id="letter" class="st0 hh" d="M197.6,40.2l-4.9-3c-3.1-1.9-5.3-3.7-6.6-5.5c-1.3-1.8-2-3.9-2-6.3c0-3.5,1.2-6.4,3.7-8.6
		c2.5-2.2,5.7-3.3,9.6-3.3c3.8,0,7.2,1.1,10.3,3.2V24c-3.2-3.1-6.7-4.7-10.5-4.7c-2.1,0-3.8,0.5-5.2,1.5c-1.4,1-2,2.2-2,3.7
		c0,1.3,0.5,2.6,1.5,3.8c1,1.2,2.6,2.4,4.8,3.7l4.9,2.9c5.5,3.3,8.2,7.5,8.2,12.5c0,3.6-1.2,6.5-3.6,8.8c-2.4,2.3-5.6,3.4-9.4,3.4
		c-4.4,0-8.5-1.4-12.1-4.1v-8.2c3.5,4.4,7.5,6.6,12.1,6.6c2,0,3.7-0.6,5-1.7c1.3-1.1,2-2.5,2-4.2C203.5,45.3,201.5,42.7,197.6,40.2z
		"/>
	<path id="letter" class="st1 hh" d="M219.4,14H257v5.7h-15.7v39.3h-6.5V19.7h-15.4V14z"/>
	<path id="letter" class="st1 hh" d="M287.5,13.4c7,0,12.7,2.2,17.4,6.6c4.6,4.4,6.9,9.9,6.9,16.6s-2.3,12.1-7,16.5s-10.6,6.5-17.7,6.5
		c-6.8,0-12.4-2.2-17-6.5s-6.8-9.8-6.8-16.4c0-6.7,2.3-12.3,6.8-16.7C274.8,15.6,280.6,13.4,287.5,13.4z M287.8,19.5
		c-5.2,0-9.4,1.6-12.7,4.8s-5,7.3-5,12.3c0,4.9,1.7,8.9,5,12.1s7.5,4.8,12.5,4.8c5,0,9.2-1.6,12.6-4.9s5-7.4,5-12.3
		c0-4.8-1.7-8.8-5-12S292.7,19.5,287.8,19.5z"/>
	<path id="letter" class="st1 hh" d="M371.7,61.9l-6.5,6.3c-2-0.1-4.1-0.5-6.3-1.1c-2.2-0.6-4.4-1.5-6.7-2.5c-2.3-1.1-5.3-2.9-9.1-5.5
		c-5.5-1-10-3.6-13.5-7.8c-3.6-4.2-5.3-9.1-5.3-14.6c0-6.7,2.3-12.3,6.9-16.7c4.6-4.4,10.4-6.6,17.4-6.6c7,0,12.7,2.2,17.3,6.6
		c4.6,4.4,6.9,9.9,6.9,16.5c0,5.6-1.7,10.5-5.2,14.7c-3.5,4.2-8,6.9-13.5,8l1.7,0.6c5.3,2,9.1,3.1,11.5,3.1
		C368.5,62.8,370,62.5,371.7,61.9z M348.5,19.5c-5.1,0-9.3,1.6-12.6,4.9c-3.3,3.3-5,7.4-5,12.3c0,4.8,1.7,8.9,5,12.1
		c3.3,3.2,7.5,4.8,12.5,4.8c5,0,9.1-1.6,12.5-4.9c3.4-3.3,5.1-7.3,5.1-12.1c0-4.9-1.7-9-5-12.2C357.8,21.1,353.6,19.5,348.5,19.5z"
		/>
	<path id="letter" class="st1 hh" d="M418.6,14h6.5v25.6c0,3.5-0.3,6.1-0.8,7.8c-0.5,1.8-1.1,3.2-1.9,4.4c-0.7,1.2-1.6,2.2-2.7,3.1
		c-3.6,3.1-8.2,4.6-14,4.6c-5.9,0-10.6-1.5-14.1-4.6c-1.1-0.9-2-2-2.7-3.2c-0.7-1.2-1.4-2.6-1.8-4.3c-0.5-1.7-0.7-4.4-0.7-8V14h6.5
		v25.6c0,4.2,0.5,7.2,1.5,8.8c1,1.7,2.4,3,4.4,4s4.3,1.5,7,1.5c3.8,0,6.9-1,9.3-3c1.3-1.1,2.2-2.3,2.7-3.8c0.6-1.5,0.8-4,0.8-7.5V14
		z"/>
	<path id="letter" class="st1 hh" d="M440.6,14h25.5v5.7h-19.1v13.7h18.4v5.8h-18.4v14h19.7V59h-26.1V14z"/>
	<path id="letter" class="st1 hh" d="M480.4,59.1V14h11.3c4.6,0,8.2,1.1,10.8,3.4c2.7,2.3,4,5.3,4,9.2c0,2.6-0.7,4.9-2,6.8
		c-1.3,1.9-3.2,3.3-5.6,4.3c1.4,0.9,2.8,2.2,4.2,3.9c1.4,1.6,3.3,4.5,5.8,8.5c1.6,2.6,2.8,4.5,3.8,5.8l2.4,3.2h-7.7l-2-3
		c-0.1-0.1-0.2-0.3-0.4-0.5l-1.3-1.8l-2-3.3l-2.2-3.5c-1.3-1.8-2.5-3.3-3.7-4.4c-1.1-1.1-2.1-1.9-3-2.4c-0.9-0.5-2.4-0.7-4.5-0.7
		h-1.7v19.6H480.4z M488.8,19.5h-1.9v14.2h2.4c3.3,0,5.5-0.3,6.7-0.8c1.2-0.6,2.2-1.4,2.8-2.5c0.7-1.1,1-2.4,1-3.9
		c0-1.4-0.4-2.7-1.1-3.9c-0.8-1.1-1.8-2-3.2-2.4C494.2,19.8,492,19.5,488.8,19.5z"/>
	<path id="letter" class="st1 hh" d="M544.8,13.4c7,0,12.7,2.2,17.4,6.6c4.6,4.4,6.9,9.9,6.9,16.6s-2.3,12.1-7,16.5s-10.6,6.5-17.7,6.5
		c-6.8,0-12.4-2.2-17-6.5s-6.8-9.8-6.8-16.4c0-6.7,2.3-12.3,6.8-16.7C532.1,15.6,537.9,13.4,544.8,13.4z M545.1,19.5
		c-5.2,0-9.4,1.6-12.7,4.8s-5,7.3-5,12.3c0,4.9,1.7,8.9,5,12.1s7.5,4.8,12.5,4.8c5,0,9.2-1.6,12.6-4.9s5-7.4,5-12.3
		c0-4.8-1.7-8.8-5-12S550,19.5,545.1,19.5z"/>
</g>
</svg>
