<?xml version="1.0" encoding="utf-8"?>
<!-- Generator: Adobe Illustrator 23.0.1, SVG Export Plug-In . SVG Version: 6.00 Build 0)  -->
<svg version="1.1" id="Layer_1" xmlns="http://www.w3.org/2000/svg" xmlns:xlink="http://www.w3.org/1999/xlink" x="0px" y="0px"
	 viewBox="0 0 284.7 229.2" style="enable-background:new 0 0 284.7 229.2;" xml:space="preserve">
<style type="text/css">
	.st0{fill:#FDFDFD;}
	.st1{fill:#8E7726;}
	.st2{fill:#8E7727;}
	.st3{fill:#8E5B0D;}
	.st4{fill:#242423;}
	.st5{fill:#8D5C0F;}
	.st6{fill:#4C4C4D;}
	.st7{fill:#4D8CC6;}
	.st8{fill:#3E3C37;}
	.st9{fill:#8C7627;}
	.st10{fill:#4D4A3E;}
	.st11{fill:#D5D6D7;}
	.st12{fill:#E0E0E1;}
	.st13{fill:#DBDBDB;}
	.st14{fill:#CBC8BC;}
	.st15{fill:#FEF5DD;}
	.st16{fill:#EFDD95;}
	.st17{fill:#4C4C4C;}
	.st18{fill:#E19D31;}
	.st19{fill:#A79B6A;}
	.st20{fill:#6E5C1C;}
	.st21{fill:#DD982D;}
	.st22{fill:#F6F6F4;}
	.st23{fill:#DD992D;}
	.st24{fill:#CDBD80;}
	.st25{fill:#A1955F;}
	.st26{fill:#B0B0B0;}
	.st27{fill:#B5DCFD;}
	.st28{fill:#DFF0FE;}
	.st29{fill:#97CBFB;}
	.st30{fill:#C1C2C3;}
	.st31{fill:#AD9E65;}
	.st32{fill:#3F3A27;}
	.st33{fill:#8F5C0D;}
	.st34{fill:#040403;}
	.st35{fill:#020202;}
	.st36{fill:#B7934B;}
	.st37{fill:#B2B2B2;}
	.st38{fill:#CCBC7F;}
	.st39{fill:#454340;}
	.st40{fill:#363633;}
	.st41{fill:#F9F6DF;}
	.st42{fill:#FBF7E1;}
</style>
<g id="er3oov7c8ck8120">
	<path id="er3oov7c8ck8121" class="st0" d="M239.7,155.6c-1.1,1.1-2.4,1.6-4,0.9c-1.7-0.3-2.4,0.7-2.7,2.1c-0.3,1.1-1,2-1.6,2.8
		c-0.9,1.3-2.4,1.6-4,0.9c-3-1.4-6-3-9-4.4c-0.7-0.4-1.1-1.4-2-1.3c-0.9,0.2-0.3,1.4-0.9,1.9c-0.1,0.1-0.2,0.1-0.2,0.1
		c-2.2,5.8-5,11.3-8,16.7c-2.1,3.7-4.5,7.3-7.3,10.5c-0.9,1-1.5,2.2-2.5,3.2c-0.3,0.2-0.4,0.6-0.1,0.9c1.2,1.2,0.2,2.4,0,3.7
		c-0.9,4.5-3.5,7.9-6.7,11c-2.8,2.8-6.1,4.9-9.6,6.6c-4.6,2.3-9.4,2.5-14.4,2.5c-0.2,0-0.4-0.2-0.6-0.2c-0.9,0-1.7-0.1-2.5-0.4
		c-2.6-1.1-5.2-0.5-7.9,0.1c-1.1,0.2-2.4,0.4-3.5,0.2c-4.7-0.6-9.5-0.6-14.2-1.7c-2.1-0.5-4.2-0.7-6.3-1c-0.8-0.1-1.4,0.2-2,0.6
		c-0.4,0.3-0.8,0.7-1.3,0.6c-4,1-8.1,1-12.2,0.3c-4.7-0.8-9-2.6-13.1-5.1c-4.2-2.5-7.5-6-10.2-10.1c-1.1-1.7-2.1-3.5-2.6-5.5
		c-1.6-0.7-2.7-2.1-3.8-3.3c-3-3.2-5.8-6.5-8.3-10.1c-1.2-1.8-2.2-3.7-3.2-5.6c-0.4-0.7-0.8-1-1.5-0.7c-2.8,1.6-5.3-0.7-6.6-2.9
		c-1.6-2.9-3-5.9-4.5-8.8c-0.6-0.3-1.2-0.3-1.9-0.2c-3.1,0.5-6.3,1-9.4,1.4c-1.3,0.2-2.6,0-3.5-0.9c-1.1-1-2.7-1.7-2.9-3.5
		c-0.3-2.8-0.6-5.6-0.8-8.3c-0.3-3.4,1.2-5.3,4.5-5.8c0.8-0.1,1.5-0.3,2.2-0.4c0.9-0.5,1.7-0.5,2.4,0.2l0,0l0,0l0,0
		c1-0.2,1.7,0.6,2.7,0.9c0.2-1.5-0.8-2.7-0.5-4.2c-1-3-1-6.2-1.2-9.4c-0.4-6.2,2-11.3,5.7-16.1c3.3-4.3,7.4-7.7,11-11.6
		c1.6-1.7,3.3-3.3,3.3-5.9c0-0.7,0.1-1.4,0.3-2c1-3.8,1.9-7.7,3.2-11.4c1.2-3.5,2.6-6.9,4.2-10.3c0-0.3,0.1-0.7-0.5-0.6
		c-0.5,0.1-1,0-1.5,0c-1.6,0.3-3.1,0.7-4.7,1c-0.4,0.1-0.8,0.1-1.2,0.1c-3.2,0.9-6.5,1.4-9.7,1.9c-2.5,0.4-5.1,0.8-7.7,0.8
		c-1.3,0-2.8,0.2-3.5-1.1c-0.8-1.4,0.1-2.6,0.8-3.8c4.2-7.1,10.4-12,17.7-15.8c3.5-1.8,6.9-3.6,10.5-5c0.7-0.3,1-0.9,1.2-1.5
		c1.2-3.7,1.8-7.5,2.3-11.3C86,32.8,87,28.5,89.9,25c4.2-5.1,9.3-8.7,15.7-10.8c8.1-2.6,16.5-3.1,25-3.4c7.2-0.2,14.3,0.6,21.1,2.9
		c9.2,3.1,16.4,8.9,22.2,16.5c2.8,3.8,5.8,7.4,8.2,11.4c0.4,0.6,0.9,1,1.6,1.1c9.1,2,17.8,4.9,26.1,9.2c3,1.5,6.1,2.8,8.8,4.8
		c1.8,1,2.2,2.7,1,4.2c-1.1,1.3-2.4,2.3-4.1,2.8c-5.1,1.3-10.3,2.5-15.6,1.9c-1.5-0.2-3,0.1-4.5,0.2c-0.3,0.5,0.1,0.8,0.3,1.2
		c3.2,4.6,6,9.4,8.2,14.4c1.8,4.2,3.6,8.5,4.8,12.9c0.9,3.3,1.6,6.7,2.1,10.2c0.4,2.8,0.7,5.7,2.3,8.2c1.7,2.7,3.4,5.4,5.5,7.8
		c2.4,2.8,4.8,5.6,7.2,8.4c1.3,1.4,2.6,2.7,4,4.1l0,0c1.8,0.5,2.8,0.2,2.5-1c-0.2-0.8,0.1-1.4,0.4-2c0.9-1.8,1.4-2,3.3-1.2
		c1.5,0.1,2.8,1,4,1.8c1,0.7,1.1,2.6,0.1,3.7c-1.2,1.3-1.2,2.3-0.2,3.9c1.3,2.1,1.1,4.4-0.1,6.6c-0.7,1.2-1.2,2.3-0.1,3.6
		c0.1,0.1,0.1,0.4,0.1,0.7c0.3,0.9,0.6,1.9,1,2.8C241.2,153.1,240.8,154.5,239.7,155.6z"/>
	<path id="er3oov7c8ck8122" class="st1" d="M93,130.5c-1,1.1-2.1,2.2-3.2,3.1c-2.4,2.1-4.5,4.3-6.2,7c0,0,0,0.1-0.1,0.1l0,0
		c-0.7,1-1.5,1.9-1.5,3.3l0,0c0,0.1,0,0.1,0,0.2c-1.8,1.1-2.2,2.9-2.4,4.8c-0.1,0.8,0,1.5-0.1,2.3v0.1l0,0v0.1
		c0,0.1-0.1,0.2-0.1,0.3l0,0c-0.2,0.7-0.3,1.3-0.4,2c0,0.2,0,0.3,0,0.5c0,0.2,0,0.4,0,0.6c0,0.2,0,0.4,0,0.6c0,0.3,0,0.5,0,0.8
		c0,0.8,0,1.5-0.1,2.3c-0.5,1.9,0,3.9-0.7,5.8c-0.1,0.3-0.1,0.7-0.3,0.9c-1.1,1.3-0.4,2.6,0.3,3.7c2,3.1,3.8,6.3,6,9.2
		c0.1,0.2,0.2,0.5,0.3,0.7c0.2,0.3,0.4,0.5,0.7,0.8c0.1,0.1,0.2,0.2,0.4,0.3c0.5,0.5,0.9,1,1.1,1.5c0,0.1,0.1,0.1,0.1,0.2
		c0.4,0.6,0.9,0.9,1.5,1.5c0-0.1,0-0.1,0.1-0.2c0.2-0.8,0.1-1.4,0.2-2l0,0c0-0.2,0-0.7,0.2-0.8c0.1,0,0.2,0,0.3,0l0,0
		c0.1,0,0.1,0.1,0.2,0.1c0.3,0.8,0.5,1.7,0.3,2.5c-0.5,2.1,0,4,0.6,6c0.3,0.9,0.6,1.7-0.1,2.6c-1.6-0.7-2.7-2.1-3.8-3.3
		c-3-3.2-5.8-6.5-8.3-10.1c-1.2-1.8-2.2-3.7-3.2-5.6c-0.4-0.7-0.8-1-1.5-0.7c-2.8,1.6-5.3-0.7-6.6-2.9c-1.6-2.9-3-5.9-4.5-8.8
		c-0.3-0.3-0.6-0.6-0.4-1l0,0l0,0c1.7-0.6,1.7-0.8,1.1-2.5c-1.1-3.1-2.7-6-3.7-9.1c-0.3-1-1-1.8-2-2.3c-0.1,0-0.2-0.1-0.3-0.1
		c-0.1,0-0.2-0.1-0.3-0.1c-0.3-0.1-0.7-0.2-0.8-0.6v-0.1c0,0,0,0,0-0.1c0.3-1.7-0.6-3.3-0.7-5c-1-3-1-6.2-1.2-9.4
		c-0.4-6.2,2-11.3,5.7-16.1c3.3-4.3,7.4-7.7,11-11.6c1.6-1.7,3.3-3.3,3.3-5.9c0-0.7,0.1-1.4,0.3-2c1-3.8,1.9-7.7,3.2-11.4
		c1.2-3.5,2.6-6.9,4.2-10.3c0.2-0.3,0.3-0.6,0.4-0.9c0,0,0-0.1,0.1-0.1c0.1-0.1,0.3-0.2,0.5-0.3c1.7-0.5,3.4-1,5.2-0.7
		c0.1,0.1,0.1,0.1,0.1,0.2l0,0c0.2,0.3-0.1,0.6-0.3,0.9C85,76.2,83,81,81.3,86.1c-0.7,2.1-0.9,4.3-1.7,6.4c0.5,0.2,0.9-0.1,1.3-0.1
		c1.1-0.1,2,0.3,2.5,1.3c0.5,0.9,0.4,1.8-0.3,2.5c-2.4,2.6-4.7,5.4-7.4,7.8c-2.7,2.3-4.9,5.2-7.5,7.7c-3.2,3-6,6.4-7.9,10.4
		c-0.9,2-0.9,4.1-1.3,6.2c-0.6,3.5,0.3,6.9,1,10.3c1.4,6.4,3.8,12.4,6.3,18.5c1.2,2.8,2.7,5.4,4,8.2c0.5,1.1,0.9,1,1.5-0.1
		c1.5-2.3,1.9-4.8,2.2-7.5c0.3-2.8,0.1-5.6,0.7-8.3c1.3-5.7,3.2-11,7.5-15.2c2.3-2.2,4.6-4.4,7.1-6.5c0.2-0.2,0.4-0.3,0.7-0.5
		c1.2-0.7,2.6-0.7,3.4,0.2C94,128,94,129.5,93,130.5z"/>
	<path id="er3oov7c8ck8123" class="st2" d="M222.9,141.2c-0.2,1.6-0.6,3.1-2.1,4l0,0l0,0c-0.6-0.1-1-0.6-1.4-0.9
		c-0.5-0.4-0.9-0.5-0.9,0.3c0,1.6-0.6,3.1-0.6,4.7c0,0.2,0,0.4,0,0.5c0,0.1,0,0.3,0,0.4c-0.2,0.9-0.7,1.6-1,2.5
		c-0.3,0.9-0.6,1.8-0.4,2.8v0.1c0,0,0,0.1-0.1,0.1c-0.4,1-0.6,2-1.1,2.9c-2.2,5.8-5,11.3-8,16.7c-2.1,3.7-4.5,7.3-7.3,10.5
		c-0.9,1-1.5,2.2-2.5,3.2c-0.3,0.2-0.4,0.6-0.1,0.9c1.2,1.2,0.2,2.4,0,3.7c-0.5-0.5-0.3-1.1-0.3-1.6c0-0.3,0.2-0.8-0.2-0.9
		c-0.3-0.1-0.6,0.2-0.8,0.4c-1.3,1.1-2.8,2.1-3.4,3.9c-0.1,0.2-0.2,0.3-0.4,0.3c0,0,0,0-0.1,0c0,0,0,0-0.1,0c-0.3-0.1-0.7-0.2-1,0.1
		c-5.3,4.3-11.4,7.2-17,11c-0.9,0.6-1.7,1.4-2.7,1.7c-0.8,0.3-0.3,0.7-0.1,1l0,0c0,0,0,0.1,0.1,0.1c-0.2,0.5-0.6,0.5-1,0.5
		c-2.5-0.2-4.5,1.3-7,2.1c0.6,0.4,1.2,0.4,1.6,0.5c0.5,0.2,1.1,0.1,1.1,0.9c-0.9,0-1.7-0.1-2.5-0.4c-2.6-1.1-5.2-0.5-7.9,0.1
		c-1.1,0.2-2.4,0.4-3.5,0.2c-4.7-0.6-9.5-0.6-14.2-1.7c-2.1-0.5-4.2-0.7-6.3-1c-0.8-0.1-1.4,0.2-2,0.6c-0.4,0.3-0.8,0.7-1.3,0.6
		c-0.1-0.7,0.5-0.9,0.9-1.1c0.7-0.5,1.5-0.8,2-1.6c0.6-0.8,0.5-1.5,0.2-2.5c-1-3-3.4-4.7-5.4-6.8c-0.4-0.4-1.1-0.8-0.7-1.6l0,0
		c0,0,0-0.1,0.1-0.1c1.9,1.1,3.4,2.6,4.8,4.3c0.8,0.9,1.5,1.9,1.9,3.1c0.2,0.5,0.5,0.9,1.1,0.8c1.8-0.1,3.5,0.6,5.2,0.7
		c4.4,0.4,8.7,1.6,13.2,1.4c3.9-0.2,7.9-0.3,11.6-1.9c2.7-1.2,5.4-2.6,7.8-4.3c3.8-2.6,7.8-4.9,11.7-7.3c3.5-2.2,6.9-4.6,9.8-7.5
		c3.1-3.1,5.7-6.7,8-10.4c3.8-5.8,7-11.9,9.5-18.3c2.2-5.7,3.4-11.6,2.9-17.8c-0.1-1-0.5-1.8-0.8-2.7c-0.4-1.5-0.1-2.5,1.1-3.3
		c1-0.7,2.1-0.5,3.2,0.6c1.6,1.7,3.8,2.7,5.3,4.4c0.3,0.4,0.8,0.7,1,1.2C222.8,141.1,222.8,141.1,222.9,141.2L222.9,141.2z"/>
	<path id="er3oov7c8ck8124" class="st3" d="M132.1,208c-0.4,0.9-0.9,1.8-1.8,2.4c-0.7,0.4-1.5,0.6-2,1.3c-4,1-8.1,1-12.2,0.3
		c-4.7-0.8-9-2.6-13.1-5.1c-4.2-2.5-7.5-6-10.2-10.1c-1.1-1.7-2.1-3.5-2.6-5.5c0.4-1.6-0.5-2.9-0.8-4.3c-0.3-1.4-0.4-2.8-0.1-4.2
		c0.2-0.9-0.3-1.7-0.2-2.6c0,0,0,0,0-0.1c-0.1-0.1-0.2-0.2-0.2-0.4c0-0.1,0-0.1,0-0.2s0-0.1,0-0.2c0-0.1,0-0.3,0.1-0.4
		c0-0.3,0.1-0.7,0.1-1l0,0c0.1-0.4,0.1-0.9,0.3-1.3c0.1-0.4,0.2-0.8,0.3-1.1c0.7-1.6,2.1-2.2,3.8-2.1c0.2,0,0.5,0.1,0.7,0.1
		c0.1,0,0.3,0.1,0.4,0.1l0,0c0.3,0.1,0.5,0.2,0.8,0.3l0,0c0.2,0.1,0.3,0.1,0.5,0.2c0.1,0,0.1,0.1,0.2,0.1c0.1,0.1,0.2,0.1,0.3,0.2
		l0.1,0.1c0.2,0.1,0.4,0.3,0.6,0.5c0.3,0.1,0.5,0.2,0.7,0.3c0.2,0.1,0.4,0.2,0.6,0.4c0.7,0.5,1.3,1.1,1.9,1.6
		c0.1,0.1,0.2,0.1,0.2,0.2l0,0c0.5,0.4,1.1,0.9,1.6,1.3c1.9,1.6,3.8,3.3,5.8,4.8l0,0c0.2,0.1,0.3,0.3,0.5,0.4
		c2.6,2.4,4.9,5.1,7.9,7.2c2.7,1.9,5.4,4,8.1,5.9c0.3,0.2,0.9,0.3,0.8,0.9l0,0c0.8,1.6,2.3,2.5,3.5,3.8c1,1.2,2.3,2.2,2.6,4
		C131.4,206.6,132.5,207,132.1,208z"/>
	<path id="er3oov7c8ck8125" class="st4" d="M218.4,61.5c-1.9,1.8-4.3,2.3-6.8,2.8c-0.3,0.1-0.8,0.1-0.9-0.4c0-0.4,0.4-0.5,0.8-0.6
		c0.1,0,0.3-0.1,0.4-0.1c0.4-0.1,0.9-0.2,1.3-0.3l0,0c1-0.2,1.9-0.6,2.8-1.2c0.7-0.5,1.4-0.9,1.9-1.6c0.7-0.9,0.7-1.6,0-2.3l0,0
		c-0.1-0.1-0.1-0.1-0.2-0.2c-0.3-0.3-0.7-0.6-1.1-0.8c-0.6-0.4-1.2-0.8-1.8-1.1l0,0c-0.6-0.3-1.3-0.6-2-0.8c-0.1,0-0.2-0.1-0.3-0.1
		c-3.5-1.5-6.8-3.3-10.2-4.7c-7.2-3-14.6-5-22.2-6.7c-0.6-0.1-1.2-0.1-1.8,0c-8.6,1.5-17.2,3-25.9,4c-5.7,0.7-11.4,1.4-17.1,1.8
		c-5.1,0.4-10.2,0.6-15.3,0.8c-5.8,0.3-11.6,0.3-17.4,0.6c-5.9,0.2-11.8,0.1-17.7,0.2c-1.1,0-2.1,0.2-3.2,0.7
		c-5.2,2.2-10.3,4.7-15.1,7.8c-4.9,3.2-9,7.2-11.9,12.3c-0.4,0.7-1,1.4-0.5,2.1c0.5,0.7,1.4,0.8,2.2,0.7c5.3-0.3,10.5-1.3,15.7-2.4
		c1-0.2,2-0.5,3.1-0.5h0.1c0.2,0,0.4,0,0.6,0c0.3,0,0.5,0.2,0.7,0.5c-1,0.6-2.2,0.4-3.3,0.9c-3.2,0.9-6.5,1.4-9.7,1.9
		c-2.5,0.4-5.1,0.8-7.7,0.8c-1.3,0-2.8,0.2-3.5-1.1c-0.8-1.4,0.1-2.6,0.8-3.8c4.2-7.1,10.4-12,17.7-15.8c3.5-1.8,6.9-3.6,10.5-5
		c0.7-0.3,1-0.9,1.2-1.5c1.2-3.7,1.8-7.5,2.3-11.3c0.6-4.5,1.6-8.8,4.5-12.3c4.2-5.1,9.3-8.7,15.7-10.8c8.1-2.6,16.5-3.1,25-3.4
		c7.2-0.2,14.3,0.6,21.1,2.9c9.2,3.1,16.4,8.9,22.2,16.5c2.8,3.8,5.8,7.4,8.2,11.4c0.4,0.6,0.9,1,1.6,1.1c9.1,2,17.8,4.9,26.1,9.2
		c3,1.5,6.1,2.8,8.8,4.8C220.4,58.3,220,59.9,218.4,61.5z"/>
	<path id="er3oov7c8ck8126" class="st2" d="M229.5,132.9L229.5,132.9c0,0.3-0.2,0.4-0.4,0.5c-1.4,0.2-2.5,1.3-3.8,1.8l0,0
		c0,0-0.1,0-0.1-0.1c-1.4-1-2.5-2.2-3.6-3.5c-4-4.6-8.3-9-11.5-14.2c-2-3.3-3.5-6.9-3.8-10.9c-0.1-1.1-0.4-2.1-0.6-3.2
		c-1.6-6.6-3.2-13.2-6.1-19.4c-2.7-5.9-6-11.4-9.8-16.6c-0.3-0.3-0.8-0.7-0.6-1.2c0,0,0,0,0-0.1s0.1-0.2,0.2-0.3
		c1.9-0.2,3.8-0.4,5.7,0c-0.3,0.5,0.1,0.8,0.3,1.2c3.2,4.6,6,9.4,8.2,14.4c1.8,4.2,3.6,8.5,4.8,12.9c0.9,3.3,1.6,6.7,2.1,10.2
		c0.4,2.8,0.7,5.7,2.3,8.2c1.7,2.7,3.4,5.4,5.5,7.8c2.4,2.8,4.8,5.6,7.2,8.4C226.8,130.3,228.2,131.5,229.5,132.9L229.5,132.9z"/>
	<path id="er3oov7c8ck8127" class="st5" d="M197.5,191.4c-0.3,0.7-0.2,1.4-0.2,2.1c-0.9,4.5-3.5,7.9-6.7,11
		c-2.8,2.8-6.1,4.9-9.6,6.6c-4.6,2.3-9.4,2.5-14.4,2.5c-0.2,0-0.4-0.2-0.6-0.2c-0.6-0.8-1.7-0.5-2.5-0.8c-0.3-0.1-0.8,0.2-0.9-0.3
		c-0.1-0.4,0.4-0.7,0.8-0.8c2.4-0.7,4.6-2.4,7.3-1.9c0.1,0,0.3-0.1,0.5-0.2l0,0c0.6-0.6,1.4-0.7,2.1-0.8c3.5-0.5,6.6-2.1,9.6-3.9
		c3.3-2.1,6.1-4.8,8.2-8.1c0.3-0.4,0.5-0.8,0.9-1h0.1c0.6-2.3,2.7-3.3,4.1-4.8c0.2-0.2,0.5-0.4,0.8-0.1
		C197.4,190.7,197.7,191,197.5,191.4z"/>
	<path id="er3oov7c8ck8128" class="st6" d="M61.6,158.1C61.6,158.2,61.6,158.2,61.6,158.1C61.6,158.2,61.5,158.2,61.6,158.1
		c-2.8-0.5-5.5,0.6-8.2,0.8c-1.7,0.1-3.3,0.7-5,0.7c-0.2,0-0.5,0-0.7,0c-0.1,0-0.3,0-0.4,0c-1.1-0.7-2.2-1.5-2.7-2.8
		c-0.3-2.8-0.6-5.6-0.8-8.3c-0.3-3.4,1.2-5.3,4.5-5.8c0.8-0.1,1.5-0.3,2.2-0.4c0.9-0.4,1.6-0.1,2.4,0.2l0,0l0,0
		c1.1,0.3,2.2,0.7,2.9,1.7c0,0.1,0.1,0.2,0.1,0.2c0.2,0.3,0.5,0.2,0.8,0.2c0.2,0.2,0.3,0.4,0.5,0.5c0.7,0.8,1.1,1.6,0.6,2.8l0,0l0,0
		c-0.8,0.4-1.6,0.2-2.3-0.1c-0.6-0.3-1.2-0.6-1.7-1.1c-1.9-1.8-3.9-1.2-6-0.6c-0.8,0.2-1,1-0.9,1.8c0.2,2.1,0.5,4.2,0.6,6.3
		c0.1,1.3,0.7,1.7,2.2,1.5c3.3-0.4,6.5-1.1,9.8-1.4c0.3,0,0.7-0.1,1-0.1c0,0,0,0,0.1,0l0,0C62.1,155.1,62.6,157,61.6,158.1z"/>
	<path id="er3oov7c8ck8129" class="st7" d="M237.5,136.3c2.5,2.6,2.1,5.5,0.8,8.4c-0.1,0.1-0.1,0.2-0.2,0.4l-0.1,0.1l-0.1,0.1
		c-1.2,1.2-2.2,2.6-2.8,4.2c-0.1,0.1-0.1,0.2-0.2,0.3c-0.1,0.1-0.1,0.2-0.1,0.3c-0.2,0.4-0.4,0.7-0.5,1.1c0,0.1-0.1,0.1-0.1,0.2
		c0,0.1-0.1,0.2-0.1,0.3c-0.9,1.2-0.5,2.8-1.1,4.1l0,0c0,0,0,0.1-0.1,0.1c-0.6,1.1-1.2,2.3-1.7,3.5c-0.5,1-1.1,1.7-2,2.3
		c-0.1,0.1-0.2,0.1-0.3,0.2c-0.1,0-0.1,0.1-0.2,0.1c-0.6,0.2-1,0-1.5-0.2c-2.9-1.5-5.9-2.9-8.8-4.4c-0.7-0.4-1.5-0.7-1.9-1.5
		c-0.1-0.1-0.1-0.2-0.1-0.3c-0.6-1.3,0.2-2.4,0.6-3.6c0.2-0.5,0.5-1.1,0.7-1.6c0.1-0.3,0.2-0.6,0.3-0.9c0.4-1,0.9-1.8,1.8-2.4
		c0.6-0.4,0.6-1.3,1.1-1.7c0,0,0,0,0.1,0c0.9-1.2,1.4-2.6,1.9-3.9c0-0.1,0-0.1,0.1-0.2c0.4-1.5,0.2-3.2,1.2-4.7
		c0.3-0.5,0.6-1,1.2-1.3c0.1,0,0.1-0.1,0.2-0.1l0,0c1.2-1.1,2.6-1.7,4.2-2.1l0,0c1.8,0.5,2.8,0.2,2.5-1c-0.2-0.8,0.1-1.4,0.4-2
		c0.9-1.8,1.4-2,3.3-1.2c1,0.3,1.9,0.9,2.8,1.3c1,0.4,1.2,1.3,0.9,2.3c-0.3,1-0.8,1.8-1.6,2.5C237.3,135.2,236.9,135.6,237.5,136.3z
		"/>
	<path id="er3oov7c8ck8130" class="st8" d="M219.3,60.9c-1.1,1.3-2.4,2.3-4.1,2.8c-5.1,1.3-10.3,2.5-15.6,1.9
		c-1.5-0.2-3,0.1-4.5,0.2c-2,0.4-3.9,0.2-5.9,0.3c0,0,0,0-0.1,0c-1.5,0.6-3.1,0.3-4.5,0.1c-6.8-0.8-13.7-0.5-20.5-0.6
		c-1.1,0-2.2-0.1-3.2-0.4c-0.1,0-0.2-0.1-0.3-0.1c-1.1-0.3-2.2-0.1-3.3-0.1c-1.9,0-3.8,0-5.7,0c-0.3,0-0.7,0-1,0
		c-0.2-0.1-0.4-0.2-0.6-0.4c0-0.1,0-0.1,0.1-0.1l0,0c0.2-0.3,0.6-0.3,0.9-0.4c2.6-0.3,5.1-0.4,7.7-0.1c3.3,0.3,6.7,0.2,10,0.1
		c5.8-0.1,11.5,0.1,17.2,0.5c3.2,0.3,6.4-0.1,9.6-0.2c1,0,2-0.2,3-0.2c4.6,0.3,9.1-0.6,13.6-1.4c1.7-0.3,3.3-1,4.6-2.1
		c1.4-1.2,1.3-2.3-0.2-3.3c-0.9-0.6-1.8-1.1-2.7-1.6c-0.4-0.2-0.9-0.4-1.1-0.8c0-0.1-0.1-0.2-0.1-0.4c1.9,0.6,3.7,1.5,5.2,2.8
		c1.2,1,1.2,2.1,0.1,3.3c-1.6,1.7-3.6,2.5-5.8,2.9c-0.4,0.1-0.9,0.2-1.2,0.4c3.2-0.1,6-0.9,8.1-3.6c0.8-1,0.5-1.9-0.1-2.8
		c-0.2-0.3-0.6-0.5-0.6-0.9C220.1,57.6,220.5,59.3,219.3,60.9z"/>
	<path id="er3oov7c8ck8131" class="st9" d="M239.7,155.6c-1.1,1.1-2.4,1.6-4,0.9c-0.4-0.3-0.9,0-1.4-0.2c-0.2-0.1-0.4-0.1-0.6-0.1
		c-0.1,0-0.3,0-0.4-0.1c-0.2-0.1-0.4-0.1-0.5-0.3c0,0-0.1-0.1-0.1-0.2c0.3-1.5,0.1-3.1,1.2-4.4l0,0c0.1-0.1,0.2-0.1,0.3-0.1
		c0.4,0,0.8,0.4,1.2,0.3c-0.1-0.5-0.5-0.9-0.6-1.3c0-0.2,0-0.4,0-0.6c0.6-1.8,1.4-3.3,3-4.4c0,0,0.1,0,0.1,0.1
		c0.2,0.1,0.3,0.3,0.3,0.5c0.1,1.2,0.7,2.2,1.2,3.2c0.3,0.9,0.6,1.9,1,2.8C241.2,153.1,240.8,154.5,239.7,155.6z"/>
	<path id="er3oov7c8ck8132" class="st10" d="M160.9,64.8c-0.1,0.1-0.2,0.2-0.3,0.2c-0.4,0.2-0.9,0.2-1.3,0.2
		c-7.3-0.2-14.6,0.5-21.8,0.3c-3.2-0.1-6.4,0.5-9.6,0.6c-4.1,0.2-8.1,0.6-12.2,1c-3.7,0.3-7.4,0.8-11,1.3c-5.3,0.8-10.7,1.4-16,2.2
		c-0.3,0-0.5,0.1-0.8-0.1l0,0c-1.9,0-3.7,0.5-5.5,0.9c-0.1,0-0.2,0.1-0.3,0.1c-0.8,0.2-1.6,0.2-2.4,0.4c-1.6,0.3-3.1,0.7-4.7,1
		C74.6,73,74.2,73,73.8,73c0.8-0.7,2.1-0.4,3.1-1.1c-0.5,0-0.9-0.1-1.2-0.1c0-0.1,0.1-0.3,0.2-0.3c0.3-0.4,0.8-0.4,1.2-0.5
		c1.8-0.5,3.7-0.6,5.6-0.9c8.8-1.5,17.7-2.7,26.6-3.8c7.4-0.9,14.8-1.2,22.2-1.9c2.1-0.2,4.2-0.3,6.4-0.2c3.5,0.1,7-0.5,10.4-0.3
		c0.7,0,1.4-0.1,1.9,0.4l0,0c0.4,0.4,0.9,0.2,1.4,0.2c2.7,0,5.4,0,8.1,0C160,64.6,160.5,64.4,160.9,64.8z"/>
	<path id="er3oov7c8ck8133" class="st11" d="M239.5,144.7c-0.7,1.2-1.2,2.3-0.1,3.6c0.1,0.1,0.1,0.4,0.1,0.7c-1-1-1.2-2.4-1.6-3.6
		c0-0.1,0-0.1-0.1-0.2c0.7-1.6,1.3-3.2,1.2-5c-0.1-1.4-0.5-2.5-1.6-3.5c-0.9-0.9-1-1.4,0.1-2.1c0.8-0.5,1.1-1.3,1.4-2.1
		c0.4-1,0.2-1.9-0.9-2.4c-0.8-0.4-1.6-0.8-2.4-1.3c1.5,0.1,2.8,1,4,1.8c1,0.7,1.1,2.6,0.1,3.7c-1.2,1.3-1.2,2.3-0.2,3.9
		C240.9,140.2,240.7,142.5,239.5,144.7z"/>
	<path id="er3oov7c8ck8134" class="st12" d="M235.7,156.5c-1.7-0.3-2.4,0.7-2.7,2.1c-0.3,1.1-1,2-1.6,2.8c-0.9,1.3-2.4,1.6-4,0.9
		c-3-1.4-6-3-9-4.4c-0.7-0.4-1.1-1.4-2-1.3c-0.9,0.2-0.3,1.4-0.9,1.9c-0.1,0.1-0.2,0.1-0.2,0.1c0.3-1.1,0.6-2.2,0.9-3.3
		c0.1,0.1,0.1,0.1,0.2,0.2c1.8,1.7,4.3,2.3,6.4,3.5c1.5,0.9,3.1,1.6,4.7,2.4c0.4,0.2,0.8,0.2,1.2,0.2c0.2,0,0.3,0,0.5-0.1
		c0.8-0.2,1.3-0.7,1.8-1.4c0.6-0.9,1-2,1.5-3c0.2-0.5,0.5-1,1-1.1c0.3-0.1,0.6-0.1,1,0.1C234.8,156.3,235.3,156.2,235.7,156.5z"/>
	<path id="er3oov7c8ck8135" class="st13" d="M62.2,160c-0.6-0.3-1.2-0.3-1.9-0.2c-3.1,0.5-6.3,1-9.4,1.4c-1.3,0.2-2.6,0-3.5-0.9
		c-1.1-1-2.7-1.7-2.9-3.5c0.6,1,1.5,1.8,2.4,2.5c0.5,0.2,0.9,0.3,1.4,0.4c2.9,0.6,5.9-0.3,8.8-0.6c1.4-0.2,2.9-0.7,4.3-0.4l0,0
		c0,0,0.1,0,0.1,0.1c0.1,0.1,0.2,0.2,0.2,0.3l0,0C62,159.3,62.1,159.7,62.2,160z"/>
	<path id="er3oov7c8ck8136" class="st14" d="M56,144.3c0-0.1-0.1-0.1-0.1-0.2c-0.8-0.8-1.8-1.3-2.9-1.8l0,0c1-0.2,1.7,0.6,2.7,0.9
		c0.2-1.5-0.8-2.7-0.5-4.2C55.4,140.8,56.4,142.4,56,144.3z"/>
	<path id="er3oov7c8ck8137" class="st15" d="M82.2,71.4c-0.3,0.3-0.5,0.7-0.8,1c0-0.3,0.1-0.7-0.5-0.6c-0.5,0.1-1,0-1.5,0
		c0.8-0.3,1.6-0.5,2.5-0.5C82.1,71.4,82.2,71.4,82.2,71.4z"/>
	<path id="er3oov7c8ck8138" class="st14" d="M52.9,142.3c-0.8-0.1-1.6-0.1-2.4-0.2C51.4,141.6,52.2,141.6,52.9,142.3z"/>
	<path id="er3oov7c8ck8139" class="st16" d="M87.8,70.6c2.5-0.9,5.1-0.9,7.6-1.3c4.2-0.6,8.4-1.1,12.6-1.7c3.9-0.6,7.9-0.8,11.9-1.2
		c11.8-1.2,23.7-1.3,35.5-1.5c1.9,0,3.7,0,5.6,0c4.7,0.5,9.4,0.4,14.1,0.3c4.7,0,9.4,0.6,14.2,0.8c2.8,3.6,5.4,7.4,7.6,11.4
		c2.2,4,4,8,5.5,12.3c1.3,3.6,2.2,7.3,3.1,11c0.7,3,1,6.1,1.8,9c0.9,3.3,2.3,6.4,4.4,9.2c4.2,5.7,8.9,11,13.8,16.1
		c-1.1,1.6-2.2,3.2-2,5.3c0,0.4-0.2,0.8-0.6,1c-1.4-1.7-3.1-3-4.9-4.3c-0.7-0.5-1.2-1.1-1.8-1.7c-0.8-0.8-1.7-0.8-2.5-0.3
		c-0.9,0.6-1.8,1.4-1.2,2.7c1.5,3.2,0.9,6.6,0.7,9.9c-0.2,3.5-1.3,6.8-2.4,10.1c-1.1,3.5-2.9,6.8-4.5,10c-1.3,2.4-2.5,4.9-3.9,7.2
		c-1.9,3-4.1,5.8-6.2,8.7c-4,5.4-9.3,9.2-14.9,12.5c-4.3,2.5-8.4,5.2-12.5,7.9c-5.9,3.9-12.5,4.9-19.4,4.6
		c-3.8-0.2-7.6-1.1-11.5-1.5c-1.6-0.1-3.2-1-4.9-0.5c-0.6,0.2-0.9-0.3-1-0.7c-0.8-2.6-2.6-4.4-4.6-6.1c-0.7-0.6-1.3-1.2-2-1.8
		c-4.2-3-8.5-5.8-12.4-9.2c-1.6-1.4-3-3.1-4.5-4.6c-1.8-1.6-3.8-3.1-5.5-4.8c-0.3-0.3-0.9-0.6-0.7-1.2c0.3-0.7,0.9-0.4,1.4-0.4
		c3,0.2,6,0.7,9.1,0.6c8.3-0.3,16.5-1.6,24.3-4.5c1.3-0.5,2.7-0.9,4-1.4c2.2-1,2.7-2.2,1.7-4.4c-1.4-3-3-6-4.5-9
		c-1.3-2.7-2.6-5.5-3.9-8.2c-0.7-1.4-0.2-2.3,1.3-2.6c1.1-0.2,2.2-0.4,3.3-0.8c1.9-0.8,3-2.3,3.3-4.3c0.4-3.7,0.4-7.4,0.3-11.1
		c0-1.8-1.1-2.9-2.6-3.3c-0.1,0-0.3,0-0.4-0.1c-1.3-1.1-2.9-1.2-4.5-0.8c-0.7,0.2-1.4,0.3-2.1,0.4c-0.9,0.1-1.5-0.1-1.7-1
		c-0.2-1.2-1-1.4-2-1.2c-6.7,1.2-13.4,2.5-20.2,3.5c-1.6,0.2-3,0.6-3.3,2.6c-0.1,0.8-1,1.1-1.8,1.2c-2.9,0.4-5.8,1.1-8.7,1.5
		c-3,0.4-5.6,1.7-7.6,4.1c-1,1.2-2.2,2.1-4,1.8c0.1-1.4,1.3-2.1,2.1-3.1c2-2.6,4.6-4.5,6.9-6.9c0.3-0.3,0.6-0.5,0.7-0.8
		c0.5-0.9,0.7-1.8,0-2.6c-0.8-0.9-1.8-0.8-2.7-0.2c-1.3,0.9-2.6,2-3.8,3.1c-4,3.5-7.7,7.2-9.6,12.3c-1.6,4.2-2.4,8.5-2.5,13
		c-0.1,3.5-0.6,7.3-2.8,10.4c-0.6,0.8-1.1,0.9-1.6,0c-1.7-3.5-3.7-6.9-5.1-10.6c-1.4-3.7-3.2-7.2-4.1-11c-0.8-3.5-1.8-7-2.4-10.7
		c-0.6-3.4,0-6.5,0.5-9.6c0.5-2.9,2.3-5.4,4.2-7.7c3.5-4.4,7.7-8.2,11.6-12.1c2.7-2.7,5.2-5.4,7.8-8.1c0.7-0.7,0.7-1.6,0.3-2.4
		c-0.5-0.8-1.3-1.4-2.4-1c-0.3,0.1-0.7,0.3-1,0.4c-0.5,0.2-0.6,0-0.5-0.4c1.5-4.7,2.7-9.5,4.7-14c1-2.3,2.3-4.6,3.3-6.9
		C87.1,71.3,87.5,71,87.8,70.6z"/>
	<path id="er3oov7c8ck8140" class="st17" d="M83.3,140.7c1.6-0.5,3.1-1.2,4.3-2.7c2.2-2.7,5.4-3.5,8.6-3.9c2.5-0.4,5.1-0.8,7.6-1.3
		c0.7-0.1,1.3-0.4,1.3-1.3c0-1.4,0.9-2,2.1-2.2c4.1-0.7,8.2-1.4,12.3-2.1c3.1-0.5,6.1-1.1,9.2-1.7c1.7-0.3,2.3-0.1,2.5,1.3
		c0.2,1.1,0.7,1,1.5,0.9c1.5-0.3,2.9-0.6,4.4-0.6c1,0,1.6,0.6,2.3,1.2c0.8,0.5,1,1.3,0.9,2.1c-0.1,3.1,0.2,6.2-0.2,9.4
		c0,0.2,0,0.4,0,0.5c0.7,3.2-2.4,5.8-5.3,6.2c-0.9,0.1-1.8,0.3-2.7,0.5c-0.7,0.2-1,0.6-0.6,1.3c2.8,4.9,4.8,10.1,7.5,15
		c0.7,1.3,1.3,2.6,1.9,3.9c0.6,1.5,0.3,2.4-1,3.2c-2,1.2-4.2,1.7-6.3,2.4c-4,1.3-8.1,2.4-12.4,3.1c-7.2,1.1-14.5,1.3-21.7-0.1
		c-0.9-0.2-1.8-0.4-2.6-0.8c-0.1-0.1-0.3-0.2-0.4-0.3c-0.3-0.3-0.6-0.7-0.6-1.1c1-3,2.3-5.9,3.5-8.8c1.4-3.3,2.8-6.6,3.9-9.9
		c0.1-0.3,0.2-0.5,0.4-0.7c0.5-0.6,0.7-1.3,1-2c0.2-0.8-0.4-0.9-0.9-0.9c-0.9,0-1.8,0.2-2.7,0.3c-6.1,1-12.3,1.8-18.4,2.8
		c-0.9,0.1-1.9,0.1-2.8,0.3c-0.6,0.1-1-0.2-1-0.9c0-2,0.1-2.3,1.8-2.8c7.4-1.3,14.8-2.4,22.3-3.4c1.7-0.2,1.8-0.4,1.9-2.2
		c0.1-2.5-0.5-4.9-0.1-7.4c0.2-1.3-0.4-1.8-1.7-1.5c-2.9,0.7-5.9,1-8.8,1.5c-1.7,0.3-3.1,1.1-4.3,2.4c-1.7,1.9-3.7,3.1-6.2,3.6
		c-0.5,0.1-1.1,0.2-1.6-0.2c-0.3-0.1-0.7-0.2-0.5-0.5C82.1,142.6,82.3,141.4,83.3,140.7z"/>
	<path id="er3oov7c8ck8141" class="st16" d="M104.1,154.5c-1,2.5-2,5-3,7.5c-1.6,4-3.3,7.9-4.9,11.9c-0.3,0.5-0.6,0.4-1,0.2
		c-0.5-0.2-1-0.6-1.7-0.3c-1.6-0.1-2.9,0.3-3.6,1.9c-0.7,1.1-0.5,2.3-0.8,3.5l0,0c-0.6,1-0.4,2.1-0.4,3.1c0,0.3,0.1,0.6-0.2,0.7
		c-0.4,0.2-0.6-0.1-0.8-0.3c-0.4-0.4-0.9-0.8-1.3-1.4c-0.4-0.5-0.7-0.9-1.1-1.4c-0.3-0.6-1-1-1.3-1.6c-2.6-3.4-4.9-7.1-6.9-10.9
		c-0.3-0.7-0.3-1.1,0.1-1.8c1-1.6,1.1-3.5,1.1-5.4c0-0.5-0.2-1.1,0.2-1.6c0.3-0.9,0.1-1.8,0.2-2.7c0-1,0.3-1.6,1.5-1.4
		c1.1,1.4,2.5,1.4,4.1,1.1c5.9-0.9,11.9-1.8,17.8-2.7c0.4-0.1,0.7-0.1,1.1-0.1C104,153.2,104.5,153.6,104.1,154.5z"/>
	<path id="er3oov7c8ck8142" class="st18" d="M82,144c3.3-0.2,5.9-1.8,8-4.3c1.4-1.7,3.5-2,5.5-2.3c2.5-0.4,4.9-0.7,7.3-1.3
		c1.8-0.4,2.2-0.2,2.1,1.6c-0.2,2.9,0.2,5.9,0.1,8.8c0,0.8-0.3,1.1-1.1,1.2c-4.1,0.6-8.1,1.2-12.2,1.9c-3.7,0.6-7.5,1.1-11.2,1.7
		c-0.5,0.2-0.9,0.2-1.4,0c0.1-1.9,0-3.8,0.9-5.6C80.6,144.8,81.1,144.2,82,144z"/>
	<path id="er3oov7c8ck8143" class="st19" d="M79.3,151.3c0.5,0,0.9,0,1.4,0c-0.4,0.4-1.2,0.1-1.5,0.8s-0.4,1.5-0.1,2.1
		c0.3,0.6,1,0.1,1.5,0.1c6.8-0.8,13.6-1.9,20.3-3c1-0.2,2.1-0.2,3.1-0.3c0.4,0,1-0.2,1.2,0.3c0.3,0.5,0,1-0.3,1.3
		c-7.2,1.1-14.5,2.1-21.7,3.2c-1.3,0.2-2.1-0.5-3.1-1.1c-1-0.2-1.3,0.4-1.3,1.3c-0.1,0.9,0.4,1.9-0.3,2.7c0.1-2-0.1-4.1,0.3-6.1
		C78.9,152.2,78.9,151.7,79.3,151.3z"/>
	<path id="er3oov7c8ck8144" class="st20" d="M61.8,159c-0.1,0-0.1,0-0.2-0.1c-0.2-0.2-0.3-0.5-0.1-0.8c0.8-1.5-0.2-2.6-1-3.6
		c-1.1-2.1-2.2-4.3-2.7-6.7c0.1-1.3-0.7-2.2-1.1-3.3c1.3,0.3,2.2,1.2,2.6,2.3c0.6,1.9,1.4,3.7,2.2,5.6c0.6,1.5,1.2,3,1.9,4.4
		c0.4,0.7,0.2,1.3-0.1,1.9S62.4,159.2,61.8,159z"/>
	<path id="er3oov7c8ck8145" class="st19" d="M86.4,181.5c0.6,0.2,0.9,0.8,1.4,1.2c0.5,0.5,0.7,0.3,0.8-0.4c0.1-1-0.4-2.2,0.5-3.1
		c0,0.3,0,0.5,0,0.8c-0.5,0.9-0.1,1.8-0.2,2.8c-0.1,0.8-0.5,1-1,0.4C87.3,182.8,86.4,182.5,86.4,181.5z"/>
	<path id="er3oov7c8ck8146" class="st19" d="M83.9,178.5c0.6,0.4,1.2,0.8,1.3,1.6C84.7,179.7,84.1,179.3,83.9,178.5z"/>
	<path id="er3oov7c8ck8147" class="st21" d="M192.2,195.4c-2.7,4.6-6.4,8-11,10.6c-1.9,1.1-3.9,1.9-6,2.5c-1.3,0.4-2.6,0.5-4,0.7
		c-0.4-0.1-0.9,0-1-0.5c-0.1-0.5,0.4-0.6,0.7-0.7c3.3-1.8,6.3-4.2,9.6-6c2.4-1.4,4.7-2.9,7.1-4.3c1.2-0.7,2.4-1.5,3.3-2.6
		C191.5,194.5,192,194.4,192.2,195.4z"/>
	<path id="er3oov7c8ck8148" class="st22" d="M220.8,145.2c-0.2,1-0.6,1.9-1.6,2.5c-0.9,0.6-1,1.8-1.7,2.5c-0.1-2.1,0.6-4.1,0.5-6.2
		c0-1,0.5-0.9,1.1-0.4S220.2,144.7,220.8,145.2z"/>
	<path id="er3oov7c8ck8149" class="st23" d="M123,208.2c-4.4-0.2-8.5-0.6-12.4-2.2c-5.8-2.4-10.5-6.2-14.1-11.4
		c-1.6-2.3-2.1-5.1-2.7-7.7c-0.5-2-0.6-4.1-0.3-6.1c0.1-0.6,0-1.3,0.6-1.6c0.6-0.3,1,0.3,1.4,0.6c2.7,1.9,5.1,4.1,7.6,6.2
		c3.7,3.1,7.2,6.4,10.8,9.7c1.8,1.6,4.1,2.8,6.1,4.2c2.5,1.7,4.9,3.6,6.8,6c1,1.2,0.7,1.7-0.8,1.9C124.9,208,123.9,208.4,123,208.2z
		"/>
	<path id="er3oov7c8ck8150" class="st19" d="M96.9,175.3c2.8,0.3,5.6,0.9,8.4,1.1c3.6,0.3,7.1,0.3,10.7-0.1c3.5-0.3,7-0.8,10.4-1.7
		c3.9-1,7.6-2.2,11.4-3.5c3.6-1.3,3.9-2,2-5.4c-2.3-4.2-4.2-8.6-6.4-12.8c-0.8-1.5-1.3-3-2.3-4.4c-0.7-1.1-0.5-1.5,0.7-1.7
		c1.3-0.3,2.6-0.4,3.8-0.8c2.8-0.8,3.9-2.6,4-5.6c0.1-2.9,0.1-5.9,0.2-8.8c0-1.1,0.1-2.3-0.6-3.3c0.1,0,0.2,0,0.3,0
		c0.4,0.1,0.6,0.3,0.9,0.6c1.2,1.1,1.8,2.6,1.6,4.2c-0.4,2.9-0.2,5.8-0.2,8.7c-0.1,2.8-1.4,4.8-3.8,5.6c-0.9,0.3-1.9,0.5-2.9,0.6
		c-0.3,0-0.5,0-0.8,0.1c-1.2,0.4-1.4,0.9-0.9,2c0.9,1.9,1.9,3.8,2.8,5.7c1.9,4.1,4,8.2,6.1,12.3c0.9,1.8,0.4,3.1-1.4,3.8
		c-4,1.6-8.1,3-12.2,4c-6.7,1.6-13.5,2.1-20.3,1.9c-2.2-0.1-4.4-0.6-6.6-0.6c-0.5-0.1-1.1-0.6-1.4,0.3
		C99.3,177,98.3,175.8,96.9,175.3z"/>
	<path id="er3oov7c8ck8151" class="st24" d="M140.2,129c-0.3-0.1-0.4-0.3-0.5-0.6c1.4-0.1,2.9,1.3,2.9,3.2c0.1,3.1,0.3,6.2-0.1,9.3
		c-0.1,0.8,0,1.7-0.2,2.6c-0.6,2.9-2.7,4.6-6.2,5.1c-0.2,0-0.5,0-0.7,0c-1.2,0.3-1.5,0.9-1,2c2.7,5.6,5.5,11.2,8.2,16.8
		c0.1,0.2,0.3,0.5,0.4,0.7c1,2.3,0.4,3.8-1.9,4.7c-5.1,2-10.4,3.7-15.8,4.6c-3.3,0.6-6.7,0.9-10,1.2c-4.1,0.4-8.2-0.1-12.2-0.5
		c-0.3,0-0.6-0.2-0.7,0.1c-0.2,0.3,0.2,0.5,0.3,0.7c1.2,1.2,2.4,2.4,3.8,3.4c0.7,0.5,1.4,1.1,1.9,1.9c-1.1-0.8-2.3-1.6-3.4-2.5
		c-1.5-1.3-3-2.6-4.5-4c0-0.3-0.5-0.7-0.1-0.9c0.4-0.2,0.8,0,1.2,0.4c4.5,0.7,9,0.9,13.6,0.7c6.1-0.3,12-1.3,17.9-3
		c2.6-0.8,5.2-1.7,7.7-2.7c2.1-0.9,2.5-2,1.5-4.1c-3-5.8-5.8-11.8-8.7-17.6c-0.7-1.3-0.3-2,1.1-2.4c1-0.3,2.1-0.3,3.1-0.6
		c2.3-0.6,3.9-2.5,4-4.9c0.2-3.3,0-6.7,0.3-10C142.1,131.1,141.5,129.9,140.2,129z"/>
	<path id="er3oov7c8ck8152" class="st19" d="M93.5,173.9c0.4-0.4,0.9-0.2,1.3,0c0.5,0.1,0.9,0.4,1.4,0c0.1,0.4,0.2,0.7,0.3,1.1
		C95.6,174.4,94.6,174.1,93.5,173.9z"/>
	<path id="er3oov7c8ck8153" class="st19" d="M89.1,179.3c-0.1-1.3-0.1-2.5,0.8-3.5C89.6,177,89.4,178.1,89.1,179.3z"/>
	<path id="er3oov7c8ck8154" class="st15" d="M150,64.3c-6.7,0.1-13.5,0.1-20.2,0.7c-5.5,0.5-11.1,0.7-16.6,1.3
		c-5.1,0.5-10.2,1.3-15.3,1.9C92,68.9,86.1,70,80.2,70.9c-1.6,0.2-3.2,0.3-4.7,1c-4.4,0.8-8.8,1.8-13.2,2.4
		c-2.1,0.3-4.2,0.6-6.4,0.5c-2.1-0.1-2.5-1-1.6-2.9c2-4.2,5.3-7.2,8.6-10.2c4.1-3.6,9.1-5.8,13.9-8.5c4.4-2.4,8.9-2.9,13.8-2.9
		c12.5,0.1,24.9-0.4,37.3-1.1c14-0.8,27.9-2.6,41.8-4.8c1.5-0.2,3-0.4,4.4-0.8c4.6-1.4,9-0.1,13.4,1c8.5,2.2,16.7,5.5,24.5,9.5
		c0.2,0.1,0.5,0.2,0.7,0.3c1.4,0.8,2.7,1.6,4.1,2.4c1.9,1.2,2,2.4,0.4,3.9c-1.4,1.3-3,1.9-4.8,2.3c-4.9,1-9.8,1.4-14.8,1.6
		c-6.4,0.2-12.8,0.1-19.2-0.3c-5.5-0.3-10.9,0-16.4-0.2C158,64.1,154,63.9,150,64.3z"/>
	<path id="er3oov7c8ck8155" class="st15" d="M106.7,43.1c-6.6,0-13.1,0-19.7,0c-0.8,0-1.3-0.1-1.2-1.1c0.5-2.7,0.8-5.5,1.3-8.2
		c1-5.7,4.4-9.8,8.7-13.3c5.1-4.2,11.1-6.2,17.5-7.3c10.1-1.8,20.4-2.2,30.5-0.5c11.6,2,20.8,7.9,28,17.2c1,1.4,2,2.8,3,4.2
		c0.6,0.8,0.5,1.1-0.5,1.3c-7.1,1.3-14.2,2.6-21.4,3.8c-7.3,1.2-14.6,2.2-21.9,3c-6,0.7-12,0.6-18,0.7
		C111,43.1,108.8,43.1,106.7,43.1L106.7,43.1z"/>
	<path id="er3oov7c8ck8156" class="st25" d="M101.6,44.2c7.9,0.1,15.3,0,22.7-0.3c5.5-0.2,10.9-1,16.3-1.7
		c7.9-1.1,15.8-2.3,23.7-3.7c3.7-0.6,7.3-1.3,10.9-2c1.1-0.2,1.7,0,2.3,0.9c0.7,1.1,1.4,2.1,2.1,3.1c0.6,0.8,0.7,1.1-0.5,1.3
		c-9,1.4-17.9,3.2-26.9,4.3c-8,1-16,1.9-24,2.3c-6.5,0.3-13,0.7-19.5,0.8c-6.2,0.1-12.3,0.3-18.5,0.4c-1.7,0-3.3-0.1-5-0.2
		c-0.8,0-1.1-0.3-0.8-1.1v-0.1c0.5-1.3,0.2-3,1.3-3.8c1-0.8,2.6-0.2,4-0.2C93.8,44.1,98,44.2,101.6,44.2z"/>
	<path id="er3oov7c8ck8157" class="st18" d="M57.8,147.9c1,2.2,2.1,4.3,2.7,6.7c-3.7,0.5-7.4,1.1-11.1,1.6c-1.7,0.3-2.3-0.2-2.4-1.9
		c-0.2-2-0.4-4-0.5-5.9c-0.2-2,0.2-2.3,2.1-2.9c2.2-0.6,4.1-0.4,5.8,1.2C55.3,147.6,56.5,147.9,57.8,147.9z"/>
	<path id="er3oov7c8ck8158" class="st26" d="M61.6,158.2c0,0.3,0,0.5,0.1,0.8c-2.7-0.1-5.3,0.5-7.8,1c-2.4,0.4-4.7,0.7-6.8-0.7
		c4,0,7.8-1,11.8-1.5C59.7,157.6,60.8,157.1,61.6,158.2z"/>
	<path id="er3oov7c8ck8159" class="st27" d="M237.9,142.9c-0.3,0.6-0.5,1.2-0.9,1.8c-0.7,1.1-1.6,1.3-2.7,0.8c-2-1-4-2-5.9-2.9
		c-0.4-0.2-1-0.5-1.2,0c-0.2,0.5,0.4,0.5,0.8,0.7c2.1,1,4.1,2.1,6.2,3c0.8,0.4,1.1,0.8,0.6,1.6c-0.6,1.1-1.2,2.2-1.7,3.4
		c-0.3,0.7-0.7,0.9-1.5,0.5c-2.1-1.1-4.3-2.1-6.5-3.2c-0.3-0.2-0.7-0.6-1,0c-0.2,0.5,0.3,0.6,0.7,0.8c2.1,1,4.1,2.2,6.3,3.1
		c1.4,0.6,1.3,1.6,0.9,2.5c-0.6,1.5-1.4,3-2.2,4.5c-0.5,1-1.4,1.2-2.4,0.7c-3.2-1.5-6.3-3.1-9.5-4.6c-1-0.5-1.4-1.2-0.9-2.3
		c0.7-1.5,1.4-3.1,2.2-4.5c0.4-0.8,1.1-1.5,2.2-1.1c0.2,0.1,0.5,0.1,0.6-0.1s0-0.5-0.2-0.6c-0.9-0.4-0.5-1-0.2-1.5c0.5-1,1-2,1.5-3
		c0.3-0.6,0.4-1.5,1.4-1c0.3,0.1,0.8-0.2,0.4-0.5c-1.8-1.5-0.5-2.8,0.1-4.1c1-0.1,1.6,0.5,2.2,1.1c0.5,0.5,0.1,1.1-0.2,1.6
		c-2,4-3.9,7.9-5.8,11.9c-0.1,0.2-0.2,0.5-0.3,0.8c1-1.4,1.7-3,2.4-4.6c1.2-2.6,2.5-5.2,3.8-7.8c0.8-1.5,1.3-1.7,2.8-0.9
		C232.6,140.3,235.2,141.7,237.9,142.9z"/>
	<path id="er3oov7c8ck8160" class="st28" d="M237.9,142.9c-1.3,0.5-2-0.7-3-1.1c-1.8-0.7-3.5-1.7-5.3-2.6c-0.9-0.4-1.5-0.5-2,0.6
		c-2,4.2-4,8.3-6.1,12.5c-0.2,0.4-0.3,1-0.9,0.8c-0.7-0.3-0.1-0.7,0.1-1.1c2.1-4.3,4.2-8.6,6.3-12.8c0.3-0.6,0.4-1-0.4-1.3
		c-0.5-0.2-1-0.6-1.5-0.9c1.4-2.5,3.3-3.5,5.9-2.6c1,0.3,1.1-0.3,1.3-0.9c0.3-0.9,0.9-1.1,1.7-0.6c0.3,0.2,0.7,0.4,1.1,0.5
		c1.2,0.4,1.9,1,0.9,2.3c-0.3,0.3-0.4,0.7,0.2,1.1C238.4,138.5,238.9,140.1,237.9,142.9z"/>
	<path id="er3oov7c8ck8161" class="st29" d="M238.4,131.7c0,1.2-0.9,1.8-2,1.3c-1-0.5-2-1-3-1.5c-0.6-0.2-0.8-0.5-0.5-1.1
		c0.3-0.6,0.5-1.6,1.4-1.3c1.3,0.5,2.5,1.2,3.8,1.8C238.3,131.2,238.4,131.5,238.4,131.7z"/>
	<path id="er3oov7c8ck8162" class="st30" d="M234.4,156.2c-1.1-0.2-1.5,0.6-1.8,1.4c-0.4,1.2-0.9,2.3-1.7,3.2
		c-0.5,0.7-1.2,1.5-2.2,0.8c1.9-1.2,2.5-3.3,3.5-5.1c0.2-0.3,0.2-0.7,0.6-0.9C233.3,155.7,233.9,155.8,234.4,156.2z"/>
	<path id="er3oov7c8ck8163" class="st31" d="M234.8,149.5c0.1,0.5,0.4,1,0.8,1.4c0.3,0.3,0.5,0.7,0.2,1.1c-0.3,0.3-0.7,0-0.9-0.2
		c-0.3-0.2-0.6-0.4-1-0.4C234.1,150.6,234.4,150,234.8,149.5z"/>
	<path id="er3oov7c8ck8164" class="st32" d="M147.3,187c-0.2-9-0.5-17.9-0.6-26.9c-0.1-4.7-0.1-9.4,0.4-14.1
		c0.2-1.4,0.6-2.6,1.1-3.9c0.4-1,0.8-2,1.1-3.1c0.3-0.8,0.2-1.6-0.3-2.2c-1.8-2.5-3.4-5.2-5.6-7.5c-1.8-1.8-1.5-3.1,0.8-4.3
		c0.8-0.4,1.7-0.5,2.6-0.7c4.1-0.7,8.2-1.3,12.4-1.5c0.3,0,0.5-0.1,0.8-0.1c2.4,0.1,3.3,0.8,2.3,3.3c-1,2.5-2,4.9-3.1,7.4
		c-0.8,1.9-0.6,3.7,0.7,5.1c2.6,2.7,3.3,6.2,4.2,9.7c1.7,6.5,3,13.1,4.4,19.7c1.5,6.6,2.8,13.2,4.2,19.9c0.2,0.7,0,1.3-0.5,1.9
		c-3,3.2-5.9,6.4-8.9,9.5c-1.3,1.4-1.9,1.2-3.4,0.2c-2.7-1.7-5.3-3.5-8.2-4.8c-3.1-1.4-5.2-3.2-4.6-7
		C147.4,187.4,147.3,187.2,147.3,187L147.3,187z"/>
	<path id="er3oov7c8ck8165" class="st33" d="M168.8,90.4c1.2,0.3,2.5,0.8,3.4,1.6c3.8,3.5,6.5,8,2.9,13.5c-2,3-4.8,4.5-8.1,5.3
		c-4.7,1.2-9.5,0.9-14.2,1.4c-4.7,0.5-9.4,0.9-14.1,0.8c-3.7-0.1-7.6-0.2-10.9-2.1c-3.8-2.2-5.4-4.5-4.6-8.9c0.4-2,1.4-3.9,2.8-5.4
		c1.1-1.2,2.1-2.5,3.4-3.5c2-1.7,4.3-2.7,6.8-3.2c2.1-0.4,4.1-1.1,6.2-1.1c3.8-0.7,7.7-1.5,11.6-1.2c4.7,0.4,9.3,0.7,13.8,2.3
		C168.2,90,168.5,90.2,168.8,90.4z"/>
	<g id="er3oov7c8ck8166_ts" transform="translate(280.895660,380.109589) scale(1,1)">
		<path id="er3oov7c8ck8166" class="st34" d="M-163.5-286.3c0,3.8-2.8,6.7-6.7,6.4c-3.3-0.2-6.1-2.8-6.3-6.5
			c-0.2-3.2,3.1-6.6,6.2-6.5C-166.3-292.7-163.8-290.2-163.5-286.3z"/>
	</g>
	<g id="er3oov7c8ck8167_ts" transform="translate(347.354980,372.105835) scale(1,1)">
		<path id="er3oov7c8ck8167" class="st35" d="M-169.9-280.6c-3.3,0-5.9-2.7-5.7-6.1c0.1-3.5,2.3-5.5,5.4-5.5c3,0,6,2.2,5.7,6.9
			C-164.6-282.8-166.8-280.4-169.9-280.6z"/>
	</g>
	<path id="er3oov7c8ck8168" class="st36" d="M168.8,90.4c-2.5-0.7-5-1.4-7.6-2c-1.8-0.4-3.7,0-5.5-0.4c-3.3-0.7-6.6-0.2-9.9,0.4
		c-1.1,0.2-2.2,0.2-3.3,0.4c2.2-1,4.6-1.1,6.8-1.3c4.5-0.3,9.1-0.1,13.6,0.8c1.8,0.3,3.5,0.9,5.2,1.4
		C168.4,89.8,168.6,90.1,168.8,90.4z"/>
	<path id="er3oov7c8ck8169" class="st37" d="M108.9,173.6c-1.8,0-4.9-0.3-7.9-0.7c-0.4-0.1-1.3,0.1-0.9-0.7c0.3-0.7,0.1-2.1,1.4-2
		c2.5,0.2,5,0.5,7.6,0.5c4.7,0,9.3-0.4,13.9-1.3c1-0.2,1.8-0.9,1.5-2.1c-0.3-1.1-1.1-1.1-2.1-0.9c-4.7,0.7-9.5,1.3-14.3,1.2
		c-1.6-0.1-3.2-0.2-4.7-0.3c-0.8,0-1.1-0.4-0.8-1.1c1.2-2.8,2.3-5.6,3.5-8.4c1.5-3.5,3-6.9,2.5-11c-0.5-4.4-0.2-9-0.2-13.4
		c0-0.7,0.3-1,0.9-1.1c5.7-1,11.4-1.9,17.1-3c1.1-0.2,1.3,0.4,1.2,1.2c-0.2,5.3,0.1,10.5-0.2,15.8c-0.1,2.8,1.2,4.9,2.3,7.2
		c1.3,2.9,2.8,5.6,4.3,8.4c0.4,0.8,0.3,1.2-0.6,1.5c-0.8,0.2-1.6,0.4-2.3,0.8c-0.7,0.4-1.4,1-1,2c0.3,1.1,1.2,1,2,0.8
		c0.9-0.2,1.8-0.4,2.6-0.8c1.3-0.7,1.6,0.3,2,1.1c0.5,0.9-0.2,1.2-0.9,1.5c-4.8,1.8-9.8,3.2-14.9,4
		C117.3,173.3,113.7,173.6,108.9,173.6z"/>
	<path id="er3oov7c8ck8170" class="st18" d="M136.4,136.7c0,1.6,0,3.2,0,4.7c0,1-0.4,1.6-1.5,1.7c-1,0.1-2,0.2-2.9,0.4
		c-0.7,0.1-0.9-0.2-0.9-0.8c0.1-3.4,0.2-6.8,0.2-10.3c0-0.9,0.3-1.2,1.2-1.3s1.9-0.2,2.8-0.4c1-0.2,1.3,0.2,1.3,1.1
		C136.4,133.5,136.4,135.1,136.4,136.7L136.4,136.7z"/>
	<path id="er3oov7c8ck8171" class="st24" d="M80.1,154.9c0.2,0,0.4-0.1,0.5,0c1.7,1.4,3.6,0.4,5.4,0.2c5.4-0.7,10.8-1.6,16.1-2.4
		c0.9-0.1,1.8-0.7,2.7,0c-0.3,0.6-0.6,1.2-0.9,1.8c0.2-1.3-0.8-1.1-1.5-1c-2.6,0.4-5.1,0.8-7.7,1.2c-4,0.6-8,1.2-12,1.8
		C81.5,156.7,80.4,156.5,80.1,154.9z"/>
	<path id="er3oov7c8ck8172" class="st38" d="M140.2,129c1.4,0.4,1.9,1.5,1.9,2.8c0,3.8,0.2,7.7-0.2,11.5c-0.3,2.4-2.7,4.5-5.7,4.7
		c-0.3,0-0.5,0-0.8,0c-2.1,0.4-2.3,1.1-1.3,3c1.9,3.6,3.6,7.2,5.3,10.9c0.9,2.1,2.2,4,3.1,6c1,2.2,0.7,3.4-1.5,4.3
		c-4.5,2-9.1,3.3-13.9,4.3c-3.8,0.8-7.6,1.2-11.5,1.5c-4.6,0.4-9.2,0-13.7-0.7c-0.1,0-0.1-0.1-0.2-0.2c2.9-0.1,5.6,0.5,8.5,0.6
		c7.6,0.1,14.9-0.8,22.2-2.9c2.9-0.9,5.8-1.9,8.7-3c1.6-0.6,1.9-1.8,1.2-3.2c-3-6-5.9-12-8.9-18c-0.8-1.7-0.4-2.5,1.5-2.8
		c0.3,0,0.5,0,0.8-0.1c5.1-0.8,6.1-3.2,6-7.3c-0.1-2.3-0.2-4.7,0.2-7C142.1,131.7,141.3,130.3,140.2,129z"/>
	<path id="er3oov7c8ck8173" class="st39" d="M161.2,22.6c1.7,0,3.3,1.5,3.3,3.1c0,1.3-0.9,2.3-2.3,2.3c-1.7,0-3.3-1.4-3.3-3.1
		C158.9,23.7,159.9,22.7,161.2,22.6z"/>
	<path id="er3oov7c8ck8174" class="st40" d="M91.5,34.5c-1.7,0-3.1-1.4-3.1-3c0-1.4,0.9-2.2,2.4-2.2c1.6,0,3.1,1.5,3.1,3
		C94,33.6,92.9,34.6,91.5,34.5z"/>
	<path id="er3oov7c8ck8175" class="st23" d="M130.1,104c4.6-0.3,9.2-0.8,13.8-1.4c5.2-0.7,10.3-1.9,15.6-2.2c4-0.2,8-0.4,12-0.4
		c2,0,2.1,0.2,1.3,2.1c-0.9,2.4-2.3,4.2-4.8,5c-2.2,0.7-4.5,1.4-6.8,1.4c-4.2,0-8.4,0.6-12.5,1c-0.1,0-0.3,0-0.4,0
		c-2.9-0.1-5.7,0.1-8.5,0.3c-3.1,0.2-6.1-0.5-9.1-1.1c-1.9-0.4-3.2-1.7-4.3-3.3c-0.4-0.6-0.4-1.4,0.7-1.3
		C128.2,104,129.2,104,130.1,104z"/>
	<path id="er3oov7c8ck8176" class="st23" d="M153.7,91c2.5-0.2,5.1,0.1,7.7,0.6c3.3,0.6,6.3,2.4,9.1,4.2c0.2,0.2,0.5,0.3,0.3,0.6
		c-0.1,0.2-0.4,0-0.6,0.1c-4.6,0.4-9.3,0-13.9,0.8c-1.8,0.3-3.8,0.4-5.6,0.8c-1.5,0.3-3.1,0.3-4.6,0.9c-1,0.4-2.1,0.5-3.1,0.6
		c-1.9,0.1-3.8,0.5-5.7,0.8c-2.5,0.4-5,0.4-7.5,0.7c-0.7,0.1-1.8,0.5-2.1-0.3c-0.4-0.8,0.4-1.5,1-2.1c1.8-2.1,3.8-4,6.5-5
		c1.8-0.6,3.6-1,5.4-1.3C144.8,91.6,149.2,90.9,153.7,91z"/>
	<path id="er3oov7c8ck8177" class="st41" d="M161.4,23.9c0.9,0.2,1.4,0.8,1.6,1.7c0.1,0.7-0.3,1.3-1,1.2c-0.9-0.1-1.5-0.7-1.5-1.6
		C160.4,24.5,160.8,24,161.4,23.9z"/>
	<path id="er3oov7c8ck8178" class="st42" d="M92.4,32.2c0,0.7-0.3,1.2-1,1.2c-0.9-0.1-1.4-0.7-1.5-1.6c0-0.6,0.3-1.2,1-1.1
		C91.8,30.7,92.3,31.3,92.4,32.2z"/>
</g>
</svg>
