<?xml version="1.0" encoding="utf-8"?>
<!-- Generator: Adobe Illustrator 23.0.1, SVG Export Plug-In . SVG Version: 6.00 Build 0)  -->
<svg version="1.1" id="Layer_1" xmlns="http://www.w3.org/2000/svg" xmlns:xlink="http://www.w3.org/1999/xlink" x="0px" y="0px"
	 viewBox="0 0 480 349" style="enable-background:new 0 0 480 349;" xml:space="preserve">
<style type="text/css">
	.st0{fill:#677D9E;}
	.st1{fill:#FFFFFF;}
	.st2{opacity:0.14;fill:#333333;enable-background:new    ;}
	.st3{fill:#8A9CB7;}
</style>
<g>
	<polygon class="st0" points="480,349 114.2,349 256.8,156.7 294.5,106 297.1,102.5 297.4,102.9 337.8,157.4 	"/>
	<path class="st1" d="M316.9,157.5c2,5.5,2.7,11.4,2,17.1c-9.1-2.5-16.9-8.3-25.2-12.7c-1.2-0.6-2.7-1.2-3.8-0.4
		c-0.6,0.4-0.9,1.1-1.1,1.8c-2.1,5.5-3.8,11.1-5,16.9c-6-4-11.1-9.3-14.8-15.5c-5.4,2.9-10.3,6.8-14.2,11.6c0.9-6.5,1.7-13,2.4-19.5
		c0,0-0.1,0-0.2,0l37.6-50.7l2.6-3.5l40.7,54.9C330.8,157.4,323.9,157.4,316.9,157.5z"/>
	<polygon class="st2" points="296.2,102.5 296.2,349 479.2,349 	"/>
</g>
<g>
	<polygon class="st3" points="365.8,349 0,349 134.8,204 182.9,152.2 222.8,195.2 	"/>
	<path class="st1" d="M202.1,207.2c2,5.5,2.7,11.4,2,17.1c-9.1-2.5-16.9-8.3-25.2-12.7c-1.2-0.6-2.7-1.2-3.8-0.4
		c-0.6,0.4-0.9,1.1-1.1,1.8c-2.1,5.5-3.8,11.1-5,16.9c-6-4-11.1-9.3-14.8-15.5c-5.5,2.9-10.3,6.8-14.2,11.6c0.9-6.5,1.7-13,2.4-19.5
		c0-0.2-7,0.4-7.5-0.2c-0.3-0.4-0.2-1.3,0.1-2.3l48.1-51.8l39.9,42.9c0.6,1,1.1,1.9,1.7,2.9c-1.4-1-3.3-1.5-5-1.3
		c2.7,3,4.8,6.5,6,10.3C217.7,207.1,209.9,207.2,202.1,207.2z"/>
	<polygon class="st2" points="182.9,152.2 182.9,349 365.8,349 	"/>
</g>
</svg>
