<svg id="eo1b6jj4j3vg1" xmlns="http://www.w3.org/2000/svg" xmlns:xlink="http://www.w3.org/1999/xlink" viewBox="0 0 1366 520" shape-rendering="geometricPrecision" text-rendering="geometricPrecision"><style><![CDATA[#eo1b6jj4j3vg4_to {animation: eo1b6jj4j3vg4_to__to 3000ms infinite linear}@keyframes eo1b6jj4j3vg4_to__to { 0% {transform: translate(-168.514497px,393.079250px);animation-timing-function: cubic-bezier(0.420000,0,1,1)} 100% {transform: translate(919.968573px,390.839465px)} }#eo1b6jj4j3vg4 {animation: eo1b6jj4j3vg4_c_o 3000ms infinite linear}@keyframes eo1b6jj4j3vg4_c_o { 0% {opacity: 1} 33.333333% {opacity: 1} 93.333333% {opacity: 1} 100% {opacity: 0} }#eo1b6jj4j3vg21_tr {animation: eo1b6jj4j3vg21_tr__tr 3000ms infinite linear}@keyframes eo1b6jj4j3vg21_tr__tr { 0% {transform: translate(1125.584893px,213.282125px) rotate(0deg)} 100% {transform: translate(1125.584893px,213.282125px) rotate(270deg)} }#eo1b6jj4j3vg22_tr {animation: eo1b6jj4j3vg22_tr__tr 3000ms infinite linear}@keyframes eo1b6jj4j3vg22_tr__tr { 0% {transform: translate(1249.483215px,263.137268px) rotate(0deg)} 100% {transform: translate(1249.483215px,263.137268px) rotate(-310deg)} }#eo1b6jj4j3vg23_tr {animation: eo1b6jj4j3vg23_tr__tr 3000ms infinite linear}@keyframes eo1b6jj4j3vg23_tr__tr { 0% {transform: translate(1214.096985px,125.204567px) rotate(0deg)} 100% {transform: translate(1214.096985px,125.204567px) rotate(-360deg)} }#eo1b6jj4j3vg24_to {animation: eo1b6jj4j3vg24_to__to 3000ms infinite linear}@keyframes eo1b6jj4j3vg24_to__to { 0% {transform: translate(285.410538px,175.383087px)} 100% {transform: translate(411.795200px,173.682139px)} }#eo1b6jj4j3vg24 {animation: eo1b6jj4j3vg24_c_o 3000ms infinite linear}@keyframes eo1b6jj4j3vg24_c_o { 0% {opacity: 0} 50% {opacity: 1} 100% {opacity: 0} }#eo1b6jj4j3vg25_to {animation: eo1b6jj4j3vg25_to__to 3000ms infinite linear}@keyframes eo1b6jj4j3vg25_to__to { 0% {transform: translate(268.621811px,70.515284px)} 100% {transform: translate(531.598073px,70.515284px)} }#eo1b6jj4j3vg25 {animation: eo1b6jj4j3vg25_c_o 3000ms infinite linear}@keyframes eo1b6jj4j3vg25_c_o { 0% {opacity: 0} 50% {opacity: 1} 100% {opacity: 0} }#eo1b6jj4j3vg26_to {animation: eo1b6jj4j3vg26_to__to 3000ms infinite linear}@keyframes eo1b6jj4j3vg26_to__to { 0% {transform: translate(567.601126px,175.383101px)} 100% {transform: translate(686.935478px,173.682153px)} }#eo1b6jj4j3vg26 {animation: eo1b6jj4j3vg26_c_o 3000ms infinite linear}@keyframes eo1b6jj4j3vg26_c_o { 0% {opacity: 0} 50% {opacity: 1} 100% {opacity: 0} }#eo1b6jj4j3vg27_to {animation: eo1b6jj4j3vg27_to__to 3000ms infinite linear}@keyframes eo1b6jj4j3vg27_to__to { 0% {transform: translate(724.779836px,113.795111px)} 100% {transform: translate(839.359282px,113.795111px)} }#eo1b6jj4j3vg27 {animation: eo1b6jj4j3vg27_c_o 3000ms infinite linear}@keyframes eo1b6jj4j3vg27_c_o { 0% {opacity: 0} 50% {opacity: 1} 100% {opacity: 0} }]]></style><g id="eo1b6jj4j3vg2"><rect id="eo1b6jj4j3vg3" width="1366" height="520" rx="0" ry="0" fill="rgb(215,216,163)" stroke="none" stroke-width="1"/></g><g id="eo1b6jj4j3vg4_to" transform="translate(-168.514497,393.079250)"><g id="eo1b6jj4j3vg4" transform="translate(-188.531643,-388.845703)"><path id="eo1b6jj4j3vg5" d="M91.100000,343.500000C96.400000,339.700000,101.700000,336,107.300000,332.700000C121.400000,324.500000,136.300000,318.500000,152.300000,315.500000C161.500000,313.800000,170.800000,313.500000,180.100000,314.500000C200.100000,316.700000,217.900000,324.200000,233.400000,336.800000C244.400000,345.800000,253.100000,356.600000,259.500000,369.300000C260.200000,370.700000,261.100000,371.200000,262.600000,371.300000C277.700000,372.200000,291.600000,376.400000,303.600000,386C309.800000,391,314.600000,397,318.100000,404.100000C318.200000,404.600000,317.800000,405,317.500000,405.300000C316,406.800000,315.900000,408.500000,316.500000,410.400000C317.400000,413.500000,318.200000,416.600000,319,419.700000C319.200000,420.500000,319.600000,421.500000,318.700000,422.200000C317,422.700000,315.400000,422.600000,313.700000,422.300000C312.700000,421.700000,312.700000,420.600000,312.400000,419.600000C309.900000,411.900000,304.800000,406.500000,297.700000,402.800000C293.700000,400.700000,289.400000,399.400000,284.800000,399.200000C283,399.100000,281.200000,398.400000,279.300000,398.500000C270.300000,399,262,401.300000,255.100000,407.300000C251.100000,410.700000,248.400000,415.100000,246.800000,420.200000C246.500000,421.100000,246.300000,422,245.300000,422.300000C244.400000,422.600000,243.400000,422.500000,242.400000,422.500000C205,422.500000,167.700000,422.500000,130.300000,422.500000C129.300000,422.500000,128.400000,422.600000,127.400000,422.300000C125.900000,421.500000,125.700000,419.900000,125.300000,418.500000C124.600000,416.100000,123.500000,413.900000,121.700000,412.100000C120.600000,411,120.300000,409.400000,118.900000,408.400000C115.300000,405.700000,112,402.300000,107.500000,401.200000C105,400.500000,102.500000,399.600000,99.900000,399.200000C97.200000,398.700000,94.400000,398.500000,91.700000,398.600000C81.600000,399,72.800000,402.300000,65.900000,409.900000C63.100000,413,61.100000,416.700000,59.900000,420.700000C59.700000,421.300000,59.700000,421.900000,59,422.200000C56.500000,422.800000,53.900000,422.400000,51.400000,422.400000C50.800000,422.400000,50.200000,422.100000,50,421.500000C49.100000,413.800000,49.300000,406.200000,51.100000,398.700000C53.200000,390,56.900000,382,61.700000,374.500000C61.900000,374.200000,62,373.900000,62.200000,373.600000C62.100000,373,62.400000,372.600000,62.700000,372.100000C64.700000,369.200000,66.800000,366.300000,69.100000,363.600000C72.400000,359.700000,75.900000,355.900000,79.600000,352.400000C82.700000,349.700000,85.700000,346.800000,89,344.300000C89.700000,344.100000,90.200000,343.500000,91.100000,343.500000Z" fill="rgb(229,41,55)" stroke="none" stroke-width="1"/><path id="eo1b6jj4j3vg6" d="M126.900000,422.400000C127.500000,422.400000,128.100000,422.300000,128.700000,422.300000C167.200000,422.300000,205.800000,422.300000,244.300000,422.300000C244.800000,422.300000,245.400000,422.300000,245.900000,422.400000C246.500000,422.900000,246.300000,423.600000,246.200000,424.200000C246.100000,425.200000,246.200000,426.200000,246.400000,427.200000C246.900000,429,247.700000,429.600000,249.600000,429.700000C250.400000,429.800000,251.300000,429.300000,251.900000,430.200000C252,432.400000,251.800000,434.600000,251.800000,436.800000C251.800000,437.300000,251.700000,437.900000,251.200000,438.200000C250.600000,437.800000,249.800000,437.800000,249.100000,437.800000C207.200000,437.800000,165.300000,437.800000,123.300000,437.800000C122.600000,437.800000,122,437.800000,121.400000,438.200000C121.100000,438,120.900000,437.800000,121,437.500000C121.300000,435.400000,120.600000,433.300000,120.900000,431.100000C121.100000,430,122,429.700000,122.900000,429.700000C125.300000,429.600000,126.600000,428.600000,126.500000,425C126.600000,424,126,423.100000,126.900000,422.400000Z" fill="rgb(205,205,205)" stroke="none" stroke-width="1"/><path id="eo1b6jj4j3vg7" d="M121.300000,430.700000C121.600000,433.200000,121.800000,435.600000,121.500000,438.100000C119.800000,452.800000,107.800000,463.600000,93.300000,463.700000C78.800000,463.800000,66.800000,453.200000,64.700000,438.500000C63.400000,436.100000,64,433.500000,64.400000,431C64.700000,429.700000,65.700000,429.100000,67,428.900000C70.700000,428.200000,74.200000,427,77.900000,426.300000C78.900000,426.100000,79.900000,425.900000,80.900000,426.300000C81.600000,427.100000,80.900000,427.800000,80.500000,428.400000C75.200000,437.900000,82.500000,449.800000,93.700000,449.500000C103.500000,449.200000,110.500000,438.900000,106.300000,429.400000C105.900000,428.500000,105.200000,427.800000,105.500000,426.700000C106,426,106.700000,426,107.400000,426.100000C111.700000,426.900000,115.800000,428.200000,120.100000,429C120.900000,429.200000,121.300000,429.800000,121.300000,430.700000Z" fill="rgb(41,37,36)" stroke="none" stroke-width="1"/><path id="eo1b6jj4j3vg8" d="M251.300000,438.100000C251.200000,435.400000,251.100000,432.600000,251.700000,429.900000C251.900000,429.200000,252.500000,429.100000,253.100000,429C256.900000,428.200000,260.700000,427.200000,264.400000,426.200000C265.400000,426,266.400000,425.800000,267.400000,426.300000C268.100000,427.200000,267.300000,427.900000,266.900000,428.600000C264.200000,434.100000,265.100000,440.700000,269.200000,445C274,450.100000,281.800000,451,287.700000,447.100000C293.600000,443.200000,295.600000,435.400000,292.600000,428.900000C292.300000,428.100000,291.400000,427.400000,292.100000,426.400000C294,425.500000,295.700000,426.800000,297.500000,427C300.400000,427.400000,303.200000,428.400000,306,429C307,429.200000,307.800000,429.600000,308.200000,430.600000C308.700000,433,309.400000,435.300000,308.100000,437.700000C307.400000,441.200000,306.700000,444.600000,305.100000,447.800000C299.900000,458.300000,288.100000,464.900000,276.800000,463.600000C264,462,254.100000,453.200000,251.500000,441.100000C251.500000,440.100000,251.400000,439.100000,251.300000,438.100000Z" fill="rgb(41,37,36)" stroke="none" stroke-width="1"/><path id="eo1b6jj4j3vg9" d="M308.300000,437.700000C308.300000,435.200000,308.400000,432.800000,307.800000,430.300000C308.200000,429.600000,308.900000,429.700000,309.500000,429.600000C312.200000,429.300000,313,428.300000,313.200000,425.600000C313.300000,424.500000,312.700000,423.400000,313.400000,422.300000C315.200000,422.200000,317,422.200000,318.800000,422.100000C319.100000,422.100000,319.200000,422.200000,319.400000,422.400000C322,425.400000,324.800000,425.300000,327,422.200000C327.200000,422.100000,327.300000,422.100000,327.500000,422.300000C327.600000,423,328.300000,423.100000,328.800000,423.400000C331.900000,425.100000,333.400000,428.300000,332.600000,431.500000C331.700000,435,328.700000,437.700000,325.200000,437.700000C319.600000,437.800000,313.900000,437.700000,308.300000,437.700000Z" fill="rgb(205,205,205)" stroke="none" stroke-width="1"/><path id="eo1b6jj4j3vg10" d="M64.900000,430.700000C64.500000,433.300000,64.400000,435.900000,64.700000,438.500000C64.300000,437.800000,63.600000,437.800000,62.800000,437.800000C59.300000,437.800000,55.800000,437.800000,52.400000,437.800000C48.200000,437.800000,45.300000,435.400000,44.400000,431.300000C43.700000,428.100000,45.500000,424.900000,49,423.200000C49.600000,422.900000,50.100000,422.700000,50.100000,422C50.600000,422.600000,51.200000,422.300000,51.700000,422.300000C54.200000,422.300000,56.800000,422.300000,59.300000,422.300000C59.900000,422.800000,59.600000,423.400000,59.600000,424C59.500000,424.900000,59.500000,425.800000,59.700000,426.700000C60.100000,428.900000,61,429.600000,63.300000,429.600000C64,429.600000,65.100000,429.200000,64.900000,430.700000Z" fill="rgb(205,205,205)" stroke="none" stroke-width="1"/><path id="eo1b6jj4j3vg11" d="M327.100000,422.300000C326.700000,424.800000,323.700000,426.100000,321.300000,424.900000C320.100000,424.300000,319.200000,423.500000,318.800000,422.200000C318.300000,418.500000,317.200000,415,316.100000,411.500000C315.100000,408.400000,315.700000,406.200000,318.100000,404.300000C319.200000,404.400000,320.300000,404.100000,321.400000,404.600000C323.600000,405.500000,323.900000,407.400000,324.400000,409.200000C325.400000,412.500000,326.400000,415.800000,327.100000,419.300000C327.600000,420.300000,327.600000,421.300000,327.100000,422.300000Z" fill="rgb(232,225,22)" stroke="none" stroke-width="1"/><polygon id="eo1b6jj4j3vg12" points="127.200000,446.800000 127.200000,446.800000 127.200000,446.800000" fill="rgb(254,254,254)" stroke="none" stroke-width="1"/><path id="eo1b6jj4j3vg13" d="M247.300000,365.900000C246.700000,366.200000,246.100000,366.100000,245.500000,366.100000C218.200000,366.100000,190.800000,366.100000,163.500000,366.100000C160.200000,366.100000,160.900000,366.200000,160.800000,363.400000C160.500000,351.600000,160.300000,339.900000,159.900000,328.100000C159.900000,326.800000,160.100000,326.200000,161.600000,326.100000C168.500000,325.500000,175.300000,325.900000,182.100000,326.700000C195,328.300000,207.100000,332,218.500000,338.500000C230.100000,345.100000,239.500000,354,247,365C247.100000,365.200000,247.500000,365.500000,247.300000,365.900000Z" fill="rgb(195,227,234)" stroke="none" stroke-width="1"/><path id="eo1b6jj4j3vg14" d="M120.900000,366.100000C111.500000,366.100000,102,366.100000,92.600000,366.100000C90.900000,366.100000,90.600000,365.700000,90.800000,364.100000C92.100000,356.800000,96.400000,351.500000,101.600000,346.700000C110.800000,338.300000,121.600000,332.600000,133.600000,329.100000C138.900000,327.500000,144.200000,326.400000,149.700000,326.300000C150.900000,326.300000,151.300000,326.600000,151.300000,327.800000C151.300000,339.900000,151.400000,352.100000,151.400000,364.200000C151.400000,365.600000,150.900000,365.900000,149.600000,365.900000C140,365.900000,130.500000,365.900000,120.900000,365.900000C120.900000,365.900000,120.900000,366,120.900000,366.100000Z" fill="rgb(195,227,234)" stroke="none" stroke-width="1"/><path id="eo1b6jj4j3vg15" d="M64.900000,430.700000C64.800000,430.300000,64.700000,430,64.100000,430C59.800000,430,58.900000,429,59,424.800000C59,424,59.200000,423.100000,59.300000,422.300000C59.600000,419,61.200000,416.100000,63,413.400000C64.500000,411,66.300000,408.900000,68.500000,407.100000C72,404.200000,75.900000,402,80.300000,400.600000C85.300000,399,90.400000,398.200000,95.700000,398.600000C98.700000,398.800000,101.600000,399.300000,104.400000,400.400000C106.200000,401.100000,108.200000,401.400000,110.100000,402.200000C112.200000,403.200000,114.300000,404.200000,115.900000,406C116.600000,406.800000,117.800000,407.100000,118.600000,407.900000C119.800000,409,121.200000,409.900000,121.700000,411.700000C122,412.500000,123.100000,413.200000,123.700000,414.100000C125.500000,416.600000,126.200000,419.600000,126.900000,422.500000C127,423.800000,127.200000,425.100000,127.100000,426.400000C126.900000,429.300000,125.700000,430.300000,122.700000,430.300000C122.200000,430.300000,121.500000,430,121.300000,430.900000C121,430.300000,120.700000,429.800000,119.900000,429.700000C115.600000,429.100000,111.500000,427.800000,107.300000,426.800000C106.700000,426.700000,106,426.500000,105.400000,426.900000C104.400000,427.300000,103.400000,426.700000,102.400000,426.600000C95.900000,425.700000,89.400000,425.700000,82.800000,426.700000C82.100000,426.800000,81.500000,426.900000,80.800000,426.700000C76.900000,426.800000,73.100000,428.100000,69.300000,429C68.400000,429.200000,67.500000,429.500000,66.500000,429.600000C65.800000,429.600000,65.200000,429.900000,64.900000,430.700000Z" fill="rgb(173,44,44)" stroke="none" stroke-width="1"/><path id="eo1b6jj4j3vg16" d="M313.400000,422.300000C313.700000,423.700000,313.800000,425.200000,313.600000,426.600000C313.300000,429.100000,312.100000,430.100000,309.700000,430.100000C309.100000,430.100000,308.400000,429.800000,307.800000,430.300000C305.600000,429.100000,303.200000,428.900000,300.800000,428.300000C297.800000,427.600000,294.900000,426.500000,291.800000,426.500000C291.200000,426.800000,290.600000,426.700000,290,426.600000C282.900000,425.500000,275.800000,425.500000,268.800000,426.600000C268.300000,426.700000,267.900000,426.800000,267.400000,426.500000C264.300000,426.200000,261.400000,427.500000,258.500000,428.200000C256.200000,428.700000,253.800000,429.200000,251.600000,429.900000C246.900000,430.800000,245.400000,429.100000,245.600000,424C245.600000,423.400000,245.700000,422.800000,245.800000,422.200000C246.600000,418.100000,248.400000,414.600000,250.900000,411.300000C254.200000,406.900000,258.500000,403.700000,263.500000,401.700000C266.700000,400.400000,269.900000,398.900000,273.500000,399.100000C274.800000,399.100000,275.900000,398.300000,277.300000,398.300000C282.300000,398.500000,287.300000,399,292.200000,400.400000C297,401.700000,301.100000,404.100000,304.600000,407.300000C308.700000,411,311.700000,415.400000,313.100000,420.800000C313.300000,421.400000,313.400000,421.800000,313.400000,422.300000Z" fill="rgb(173,44,44)" stroke="none" stroke-width="1"/><path id="eo1b6jj4j3vg17" d="M166.900000,378.200000C165.200000,378.200000,163.600000,378.200000,161.900000,378.200000C161,378.200000,160.200000,377.900000,160.100000,376.900000C160,375.700000,161,375.400000,161.900000,375.400000C165.400000,375.300000,168.800000,375.400000,172.300000,375.400000C173.500000,375.400000,173.400000,376.200000,173.400000,377C173.400000,377.900000,173.100000,378.300000,172.200000,378.300000C170.400000,378.200000,168.700000,378.200000,166.900000,378.200000L166.900000,378.200000Z" fill="rgb(178,44,44)" stroke="none" stroke-width="1"/><path id="eo1b6jj4j3vg18" d="M80.900000,426.600000C82.600000,425.600000,84.500000,425.900000,86.300000,425.600000C92.100000,424.900000,98,425.300000,103.800000,426.100000C104.400000,426.200000,104.900000,426.400000,105.400000,426.800000C110.700000,435.300000,107,444.500000,100.300000,448.200000C94.400000,451.500000,87,450.400000,82.300000,445.500000C77.600000,440.600000,76.800000,433.200000,80.400000,427.400000C80.600000,427.100000,80.800000,426.800000,80.900000,426.600000Z" fill="rgb(205,205,205)" stroke="none" stroke-width="1"/><path id="eo1b6jj4j3vg19" d="M267.500000,426.600000C269,425.700000,270.600000,425.900000,272.200000,425.700000C278.400000,424.900000,284.600000,425.300000,290.700000,426.200000C291.100000,426.300000,291.500000,426.500000,291.900000,426.600000C296.800000,434.100000,294.400000,442.200000,289.400000,446.500000C283.900000,451.200000,275.700000,451.300000,270.200000,446.600000C264.600000,442,263.200000,433.900000,266.900000,427.700000C267.100000,427.300000,267.300000,426.900000,267.500000,426.600000Z" fill="rgb(205,205,205)" stroke="none" stroke-width="1"/></g></g><g id="eo1b6jj4j3vg20"><g id="eo1b6jj4j3vg21_tr" transform="translate(1125.584893,213.282125) rotate(0)"><path id="eo1b6jj4j3vg21" d="M1202.600000,205.700000C1202.600000,203.500000,1201.800000,202.300000,1199.600000,201.800000C1196.300000,201.100000,1193,200,1189.600000,199.700000C1184.200000,199.200000,1180.600000,197,1179.600000,191.300000C1179.400000,190,1178.700000,188.700000,1178.100000,187.500000C1176.900000,185.100000,1177.100000,183,1178.600000,180.700000C1181.100000,177,1183.400000,173.100000,1185.900000,169.400000C1187.200000,167.400000,1187.200000,165.700000,1185.400000,164C1182.200000,160.900000,1179,157.700000,1175.900000,154.500000C1174.300000,152.800000,1172.700000,152.600000,1170.800000,153.900000C1166.800000,156.500000,1162.700000,159,1158.700000,161.600000C1156.900000,162.800000,1155.200000,163,1153.200000,162.100000C1150.500000,160.900000,1147.600000,159.700000,1144.800000,158.600000C1142.700000,157.800000,1141.600000,156.400000,1141.200000,154.100000C1140.300000,149.500000,1139.200000,145,1138.200000,140.400000C1137.800000,138.300000,1136.700000,137.100000,1134.500000,137.100000C1129.700000,137.100000,1124.900000,137.100000,1120.200000,137.100000C1118.200000,137.100000,1117,138.100000,1116.600000,140.200000C1116.100000,143,1115.500000,145.700000,1114.800000,148.500000C1112.300000,159.100000,1114.300000,156.600000,1104.700000,160.800000C1103.700000,161.200000,1102.700000,161.600000,1101.700000,162C1099.700000,163,1097.800000,162.800000,1095.900000,161.500000C1092.100000,159,1088.100000,156.600000,1084.400000,154C1082.100000,152.500000,1080.400000,152.600000,1078.500000,154.600000C1075.700000,157.600000,1072.800000,160.500000,1069.800000,163.300000C1067.500000,165.400000,1067.300000,167.300000,1069.100000,169.900000C1071.600000,173.500000,1073.900000,177.300000,1076.200000,181C1076.800000,182,1077.500000,182.900000,1077.500000,184.200000C1077.400000,184.700000,1077.500000,185.200000,1077.300000,185.600000C1075.900000,189.100000,1074.400000,192.600000,1072.900000,196.100000C1072.300000,197.500000,1071,198.200000,1069.500000,198.500000C1064.700000,199.500000,1060,200.600000,1055.200000,201.600000C1052.900000,202.100000,1051.900000,203.300000,1051.900000,205.600000C1052,210.100000,1052,214.600000,1051.900000,219.100000C1051.900000,221.600000,1052.900000,222.900000,1055.300000,223.300000C1060.100000,224.300000,1064.800000,225.400000,1069.600000,226.400000C1071.400000,226.800000,1072.600000,227.700000,1073.200000,229.400000C1074.400000,232.300000,1075.500000,235.200000,1076.800000,238C1077.700000,240.100000,1077.600000,241.900000,1076.300000,243.800000C1073.700000,247.700000,1071.300000,251.700000,1068.700000,255.600000C1067.400000,257.600000,1067.400000,259.300000,1069.300000,261C1072.500000,264.100000,1075.700000,267.200000,1078.800000,270.500000C1080.400000,272.200000,1081.900000,272.400000,1083.900000,271.100000C1087.900000,268.400000,1092,266,1096,263.400000C1097.800000,262.200000,1099.500000,261.900000,1101.500000,262.900000C1104.100000,264.100000,1106.700000,265.200000,1109.300000,266.100000C1111.900000,267,1113.100000,268.800000,1113.700000,271.400000C1114.600000,275.900000,1115.700000,280.400000,1116.600000,284.800000C1117,286.900000,1118.200000,287.800000,1120.200000,287.800000L1134.500000,287.800000C1136.500000,287.800000,1137.600000,286.900000,1138,285C1138.500000,282.500000,1139,280,1139.600000,277.600000C1142.500000,265.800000,1139.600000,268.500000,1151,263.800000C1151.500000,263.600000,1151.900000,263.500000,1152.300000,263.200000C1154.700000,261.800000,1156.800000,262.200000,1159.100000,263.700000C1162.800000,266.200000,1166.700000,268.500000,1170.400000,271C1172.600000,272.500000,1174.200000,272.200000,1176,270.300000C1179,267.100000,1182.100000,264.100000,1185.300000,261C1187,259.400000,1187.200000,257.800000,1185.900000,255.800000C1183.300000,251.800000,1180.800000,247.700000,1178.200000,243.700000C1177,241.900000,1176.800000,240.200000,1177.700000,238.200000C1178.900000,235.400000,1180,232.600000,1181.100000,229.800000C1181.900000,227.800000,1183.200000,226.700000,1185.300000,226.200000C1189.800000,225.300000,1194.200000,224.200000,1198.700000,223.300000C1201.400000,222.800000,1202.800000,221.600000,1202.600000,218.600000C1202.400000,214.500000,1202.500000,210.100000,1202.600000,205.700000ZM1126.800000,245.100000C1108.600000,244.800000,1094.400000,230.200000,1094.700000,211.900000C1094.900000,194.200000,1109.600000,180,1127.400000,180.200000C1143.800000,180.100000,1160,193.400000,1159.500000,214.500000C1159,231,1143.900000,245.400000,1126.800000,245.100000Z" transform="translate(-1127.259583,-212.450005)" fill="rgb(63,62,65)" stroke="none" stroke-width="1"/></g><g id="eo1b6jj4j3vg22_tr" transform="translate(1249.483215,263.137268) rotate(0)"><path id="eo1b6jj4j3vg22" d="M1307.900000,253.400000C1307.800000,251.400000,1306.800000,250.300000,1304.700000,249.900000C1300.600000,249.300000,1296.500000,248.400000,1292.300000,247.700000C1291.100000,247.500000,1290.400000,247.100000,1289.900000,246C1288.500000,243.300000,1287.100000,240.600000,1285.600000,238C1284.500000,236.200000,1284.400000,234.400000,1285.300000,232.500000C1286.700000,229.400000,1287.800000,226.100000,1289.200000,223.100000C1290.400000,220.600000,1290.100000,218.800000,1287.600000,217.200000C1284.400000,215.200000,1281.300000,212.900000,1278.300000,210.600000C1276.400000,209.100000,1274.900000,209.400000,1273.200000,210.900000C1270.600000,213.400000,1267.800000,215.700000,1265.100000,218C1262.400000,220.300000,1250.600000,219.100000,1248.500000,216.300000C1248.100000,215.800000,1247.900000,215.300000,1247.600000,214.800000C1245.800000,211.600000,1244,208.400000,1242.200000,205.100000C1241.300000,203.400000,1240.100000,202.700000,1238.100000,203.400000C1235.500000,204.300000,1232.900000,204.900000,1230.200000,205.700000C1222.800000,207.900000,1222.800000,206.400000,1223.500000,215C1223.500000,215.500000,1223.500000,216,1223.500000,216.500000C1223.700000,226.800000,1225.100000,223.600000,1217.500000,230.600000C1216.900000,231.100000,1216.300000,231.600000,1215.800000,232.200000C1214.500000,233.600000,1212.900000,234,1211,233.700000C1207.200000,233,1203.500000,232.500000,1199.800000,231.800000C1197.500000,231.400000,1196.100000,232.100000,1195.300000,234.400000C1193.900000,238.100000,1192.400000,241.700000,1190.800000,245.200000C1189.700000,247.500000,1190.300000,249,1192.400000,250.400000C1195.500000,252.400000,1198.500000,254.600000,1201.400000,256.900000C1204.200000,259,1205.200000,271,1202.800000,273.500000C1202.400000,273.900000,1201.900000,274.300000,1201.500000,274.700000C1198.900000,277,1196.300000,279.400000,1193.600000,281.700000C1192,283.100000,1191.700000,284.400000,1192.800000,286.300000C1194.300000,288.800000,1195.700000,291.400000,1197,294C1200.600000,300.800000,1200.100000,300.400000,1206.500000,297.900000C1214,294.900000,1220.100000,295.900000,1225.800000,301.500000C1227.200000,302.900000,1228.200000,304.200000,1228.300000,306.200000C1228.400000,309.800000,1228.800000,313.400000,1228.900000,317C1228.900000,319.500000,1230,320.600000,1232.500000,321C1236.400000,321.500000,1240.200000,322.200000,1244,323C1246.300000,323.500000,1247.700000,322.700000,1248.500000,320.500000C1249.900000,317,1251.400000,313.400000,1252.900000,310C1254.300000,306.900000,1265.600000,303.200000,1268.600000,304.900000C1269.200000,305.200000,1269.700000,305.700000,1270.300000,306.100000C1273.200000,308.100000,1276.100000,310.100000,1278.900000,312.200000C1280.500000,313.400000,1281.800000,313.400000,1283.300000,312C1286.500000,309.100000,1289.700000,306.200000,1292.900000,303.400000C1294.400000,302.100000,1294.600000,300.800000,1293.700000,299.100000C1291.900000,295.900000,1290.100000,292.600000,1288.400000,289.300000C1286.700000,286.100000,1290.300000,275,1293.500000,273.400000C1294,273.100000,1294.600000,273,1295.200000,272.900000C1298.800000,271.900000,1302.300000,270.800000,1305.900000,269.800000C1307.900000,269.300000,1308.800000,268.200000,1308.700000,266C1308.200000,261.800000,1308.100000,257.600000,1307.900000,253.400000ZM1273.300000,264.300000C1272.400000,277.900000,1260.400000,288.700000,1247.200000,287.900000C1233.400000,287,1222.500000,275.300000,1223.300000,262.100000C1224.200000,248,1235.700000,237,1248.900000,237.800000C1263.500000,238.700000,1274.300000,250.400000,1273.300000,264.300000Z" transform="translate(-1249.483215,-263.137268)" fill="rgb(63,62,65)" stroke="none" stroke-width="1"/></g><g id="eo1b6jj4j3vg23_tr" transform="translate(1214.096985,125.204567) rotate(0)"><path id="eo1b6jj4j3vg23" d="M1263.800000,117.600000C1263,115,1262.400000,112.300000,1261.600000,109.700000C1259.300000,101.800000,1260.500000,102.500000,1252.600000,103.900000C1245.300000,105.200000,1240,103.600000,1235.700000,97.700000C1234.700000,96.300000,1233.900000,95,1234.100000,93.300000C1234.400000,89.500000,1234.700000,85.700000,1235.100000,82C1235.300000,80,1234.700000,78.900000,1232.600000,78.400000C1230.200000,77.900000,1227.900000,77.200000,1225.500000,76.600000C1216.700000,74.400000,1218.100000,73.300000,1214.900000,81.700000C1212.500000,88,1208.800000,91.600000,1202.200000,92.600000C1199.700000,93,1197.700000,92.900000,1195.700000,91.300000C1193,89.200000,1190.100000,87.400000,1187.400000,85.400000C1185.600000,84.100000,1184.300000,84.300000,1182.800000,85.900000C1181.200000,87.600000,1179.500000,89.200000,1177.900000,90.900000C1171.300000,97.700000,1171.500000,96,1176.900000,102.700000C1181.200000,108,1182.600000,113.100000,1179.900000,119.500000C1179,121.600000,1178,123.200000,1175.900000,124.100000C1172.600000,125.600000,1169.400000,127.200000,1166.100000,128.700000C1164.400000,129.500000,1163.800000,130.500000,1164.400000,132.400000C1165.600000,136.300000,1166.600000,140.300000,1167.600000,144.200000C1168.200000,146.400000,1169.300000,147.200000,1171.600000,146.900000C1174.800000,146.400000,1178,146.200000,1181.800000,145.800000C1184,145.100000,1186.100000,145.900000,1188,148.100000C1189.300000,149.700000,1190.800000,151.100000,1192.300000,152.400000C1193.800000,153.800000,1194.300000,155.400000,1194.100000,157.400000C1193.700000,160.900000,1193.600000,164.400000,1193.100000,167.900000C1192.800000,170.500000,1193.800000,171.700000,1196.300000,172.200000C1198.800000,172.700000,1201.200000,173.500000,1203.600000,174.100000C1210.500000,175.700000,1209.500000,177.200000,1213.100000,169.400000C1218.300000,158.100000,1214.900000,161.300000,1226.700000,157.700000C1228.500000,157.200000,1229.900000,157.400000,1231.400000,158.400000C1234.500000,160.600000,1237.700000,162.600000,1240.700000,164.900000C1242.500000,166.200000,1243.700000,166.100000,1245.200000,164.600000C1248,161.700000,1250.800000,158.800000,1253.600000,156.100000C1255.300000,154.500000,1255.300000,153.100000,1253.900000,151.300000C1251.600000,148.400000,1249.600000,145.300000,1247.400000,142.300000C1246.400000,140.900000,1246,139.500000,1246.400000,137.900000C1247.100000,135.400000,1247.900000,132.800000,1248.400000,130.300000C1248.800000,128.500000,1249.800000,127.400000,1251.400000,126.700000C1254.900000,125.200000,1258.300000,123.500000,1261.700000,121.900000C1263.800000,120.800000,1264.400000,119.600000,1263.800000,117.600000ZM1214.300000,143.300000C1204.200000,143.300000,1196,135.300000,1195.900000,125.200000C1195.800000,115.100000,1204,106.700000,1214.100000,106.600000C1223.900000,106.500000,1232.400000,115,1232.400000,124.900000C1232.400000,134.900000,1224.200000,143.300000,1214.300000,143.300000Z" transform="translate(-1214.096985,-125.204567)" fill="rgb(63,62,65)" stroke="none" stroke-width="1"/></g></g><g id="eo1b6jj4j3vg24_to" transform="translate(285.410538,175.383087)"><path id="eo1b6jj4j3vg24" d="M353.900000,203.200000C344.500000,212.600000,324.400000,215,311.400000,207.500000C306.400000,204.600000,304.200000,205.200000,299.700000,207.700000C288.200000,214,271.500000,213.200000,261.100000,206.100000C258.100000,204,255.900000,203.500000,251.600000,204.300000C235.600000,207.600000,220,202.500000,213.900000,192.300000C208.100000,182.700000,214.700000,171.500000,229.500000,166.800000C233.500000,165.500000,234.800000,164.300000,234.900000,161.400000C235.400000,151.900000,242.300000,144.800000,255.200000,141C268.300000,137.100000,281,138.400000,292,144.800000C295,146.600000,297.600000,146.800000,301.300000,146.300000C322.100000,143.600000,340.100000,154.400000,338.800000,169C336.400000,172.400000,340,173.600000,344.200000,175.200000C359.200000,180.800000,363.500000,193.600000,353.900000,203.200000Z" transform="translate(-285.410538,-175.383087)" opacity="0" fill="rgb(254,254,254)" stroke="none" stroke-width="1"/></g><g id="eo1b6jj4j3vg25_to" transform="translate(268.621811,70.515284)"><path id="eo1b6jj4j3vg25" d="M528.500000,106.100000C519.600000,112.300000,505.400000,112.500000,495.400000,106.100000C492.700000,104.400000,490.600000,103.800000,487.700000,105.300000C487.500000,105.400000,487.300000,105.500000,487.100000,105.500000C470.700000,104.500000,455.200000,113,438.500000,107.800000C435.900000,107,434.600000,108.300000,432.900000,108.900000C422.800000,112.900000,413,112.400000,404.300000,106.900000C402,105.500000,400.400000,105.300000,397.600000,105.900000C385,108.500000,373.400000,104.200000,370.200000,96.100000C366.700000,87.200000,373.400000,79.200000,386.700000,77C390.700000,76.400000,390.600000,75.100000,390.500000,72.900000C390.300000,60.700000,403.500000,51.200000,421.600000,51.100000C422.500000,51.200000,424.900000,50.800000,426.600000,51.500000C433.100000,54,435.100000,52.100000,437.100000,47.600000C441.800000,36.900000,456.500000,30.700000,472.900000,31.800000C488.100000,32.800000,500.500000,40.900000,502.600000,51.800000C503.200000,54.900000,505,56.200000,508.900000,57.300000C520.900000,60.800000,527.100000,67.500000,527.200000,76.700000C527.200000,79,528,80.700000,530.100000,82.500000C538.600000,90.100000,537.800000,99.600000,528.500000,106.100000Z" transform="translate(-452.642731,-71.599390)" opacity="0" fill="rgb(254,254,254)" stroke="none" stroke-width="1"/></g><g id="eo1b6jj4j3vg26_to" transform="translate(567.601126,175.383101)"><path id="eo1b6jj4j3vg26" d="M704.700000,184.600000C704.500000,194.900000,696.300000,202.900000,684.800000,202.800000C679.300000,199,674,202.700000,668.100000,205.800000C662.800000,208.600000,657,207.300000,652.200000,203.400000C650.100000,201.700000,648.900000,201,646.200000,203.300000C639.400000,209.100000,629.900000,208.300000,623.700000,201.800000C622,200,620.700000,199.500000,618.200000,200.200000C608.800000,203,600.200000,198.800000,597,190.300000C593.800000,181.700000,597.600000,172.900000,606.400000,168.900000C608.200000,168.100000,609.300000,167.200000,610,165.300000C612.200000,159.300000,616.400000,155.600000,622.800000,154.900000C625.200000,154.600000,626.200000,153.500000,627.300000,151.700000C633,142,646.500000,140.200000,655.200000,149.500000C656.900000,151.300000,658.100000,152,660.600000,151.500000C669.200000,150,677.400000,154.200000,681.100000,162.200000C682.400000,165.100000,683.800000,165.900000,686.900000,166C697.100000,166.300000,704.900000,174.700000,704.700000,184.600000Z" transform="translate(-650.290710,-175.348412)" opacity="0" fill="rgb(254,254,254)" stroke="none" stroke-width="1"/></g><g id="eo1b6jj4j3vg27_to" transform="translate(724.779836,113.795111)"><path id="eo1b6jj4j3vg27" d="M878,146C877.400000,155.800000,869,163.200000,857.800000,163C857.500000,163,855.900000,163.300000,854.900000,162.600000C849.100000,158.600000,843.600000,159.800000,837.600000,162.100000C832.500000,164.100000,827.300000,161.900000,823.100000,158.700000C821.100000,157.100000,820.100000,157.200000,818.100000,158.700000C811.400000,163.600000,803.900000,163.600000,797.300000,158.700000C795.100000,157.100000,793.800000,156.800000,791.200000,158.100000C782.100000,162.600000,772.400000,158.600000,768.800000,149.200000C765.500000,140.400000,770.600000,130.700000,780.200000,128.400000C783.500000,127.600000,783.800000,126.400000,783.900000,123.500000C784.100000,116.700000,788.700000,111.500000,795.400000,110.300000C797.800000,109.900000,799,108.800000,800.400000,106.900000C809,95.300000,824.600000,94.800000,833.900000,105.800000C835.400000,107.600000,836.700000,108.500000,839.200000,108.600000C847.800000,109,853.600000,113.500000,856,121.700000C856.800000,124.500000,858.100000,125.500000,861,125.700000C871.700000,126.700000,878.600000,135.200000,878,146Z" transform="translate(-822.916077,-130.464149)" opacity="0" fill="rgb(254,254,254)" stroke="none" stroke-width="1"/></g><g id="eo1b6jj4j3vg28" transform="matrix(1 0 0.10510423526568 1 -42.28868970065025 0)"><path id="eo1b6jj4j3vg29" d="M554.300000,284.800000C553.900000,286.900000,551.900000,288.100000,550.300000,289.500000C532.700000,305.300000,525.700000,324.300000,532.700000,347.500000C534.100000,352,533,355.400000,529.900000,358.700000C515.100000,374.200000,510.400000,392.400000,516.500000,413.100000C517.600000,416.700000,517.800000,420.400000,516,423.800000C504.600000,445.800000,511.300000,476,535.600000,492C535.900000,492.200000,536.200000,492.400000,536.500000,492.600000C536.900000,492.900000,537.400000,493.300000,537.700000,493.600000C538,493.900000,538.300000,494.300000,538.500000,494.800000C538.900000,496.900000,539.700000,499.200000,536.900000,500C536.700000,500.100000,536.500000,500.100000,536.300000,500.100000C503.300000,494.500000,480.500000,462.400000,486.300000,429.600000C486.600000,427.600000,486.800000,425.500000,487.100000,423.500000C488.200000,419.300000,488.700000,414.900000,491,411.200000C491.300000,410.700000,491.600000,410.200000,492,409.800000C492.100000,409.600000,492.200000,409.500000,492.400000,409.300000C495.500000,405.300000,496.200000,401.200000,494.600000,396.100000C490.200000,382,493.100000,368.300000,500.500000,356.100000C504.400000,349.700000,507.600000,344,504.900000,336.500000C504.800000,336.100000,504.800000,335.600000,504.800000,335.200000C504.800000,335.100000,504.800000,335,504.800000,334.900000C504.100000,329,503.800000,323.100000,505.200000,317.200000C512.200000,292.900000,528.800000,281.900000,554.600000,282.900000C554.400000,283.600000,554.400000,284.200000,554.300000,284.800000Z" fill="rgb(77,125,19)" stroke="none" stroke-width="1"/><path id="eo1b6jj4j3vg30" d="M565.200000,442.100000C557.800000,450.100000,555.700000,459.100000,557.500000,469.800000C559.100000,479.700000,560.200000,489.700000,559.800000,499.800000C559.800000,500.900000,559.700000,502.100000,559.600000,503.200000L559.600000,503.200000C559.500000,504.300000,559.400000,505.300000,559.300000,506.400000C560.700000,522,560.700000,522,545.300000,522C542.600000,522,539.800000,521.900000,537.100000,521.800000C536.400000,521.800000,535.700000,521.800000,535,521.700000C534.900000,514.400000,537.200000,507.300000,536.200000,500C536.300000,499.900000,536.500000,499.800000,536.600000,499.700000C538,498.300000,537.500000,496.300000,537.500000,494.600000C537,494,536.600000,493.300000,536.300000,492.600000C536,491.600000,535.900000,490.600000,536,489.500000C537.300000,480.200000,538.500000,471,532.400000,462.500000C530.600000,460,531.900000,457.200000,535.600000,458.400000C539.200000,459.600000,539.400000,457.800000,539.600000,455.200000C540.100000,444.500000,542,433.900000,542.500000,423.200000C542.500000,422.500000,542.500000,421.800000,542.600000,421.100000C543.100000,417.900000,543.600000,414.200000,547.600000,414C551.600000,413.800000,551.600000,417.700000,552.300000,420.500000C553.400000,424.500000,553.200000,428.700000,553.700000,432.700000C554.300000,436.600000,555.300000,438.900000,559.800000,436C561.700000,434.700000,564.300000,432.300000,566.400000,434.700000C568.900000,437.100000,567,440.100000,565.200000,442.100000Z" fill="rgb(96,62,41)" stroke="none" stroke-width="1"/><path id="eo1b6jj4j3vg31" d="M564.600000,498.500000C561.200000,499.500000,560.100000,501.100000,559.700000,503.300000L559.700000,503.300000C559.500000,504.300000,559.500000,505.300000,559.400000,506.500000C559.200000,504.700000,559.100000,503,558.900000,501.200000C558,491,557.300000,480.700000,555.500000,470.600000C553.300000,458.600000,556.200000,448.800000,564.300000,440C565.400000,438.800000,567.100000,437.500000,566,434.700000C562,437.200000,558,439.600000,553.800000,442.100000C551.300000,434.400000,552.200000,426.700000,550.400000,419.500000C550,417.700000,551.100000,414.700000,547.900000,414.900000C545.200000,415,545.200000,417.700000,545,419.700000C543.900000,430.800000,542.800000,442,542,453.100000C541.400000,462.300000,541.600000,462.300000,532.400000,459.200000C543.200000,469.600000,538.800000,481.700000,537.800000,493.500000C537.800000,493.800000,537.700000,494.200000,537.700000,494.500000C522.600000,487.600000,514.500000,475,510.400000,459.700000C507,446.900000,508.200000,434.300000,514.600000,422.500000C518.100000,416,513.500000,410.500000,512.700000,404.600000C510.200000,386.500000,515.400000,371.100000,527.800000,358.200000C531.500000,354.300000,532.300000,351.300000,530.600000,346.300000C523.900000,326.500000,531.900000,301.100000,548.600000,288.400000C550.200000,287.200000,551.900000,286.100000,553.100000,284.600000L553.100000,284.600000C553.600000,284.100000,554,283.400000,554.400000,282.700000C563.800000,282.800000,571.300000,287.800000,578.900000,292.400000L578.900000,292.400000C579.200000,292.700000,579.500000,293.100000,579.800000,293.500000C583.200000,297.700000,586.700000,301.900000,590.100000,306C595.800000,318.800000,597.400000,331.800000,591.900000,345.100000C590.800000,347.800000,592.100000,349.900000,593.500000,352.100000C602.900000,365.900000,605.500000,381,601.100000,397.100000C600.200000,400.500000,600.700000,403.200000,602.400000,406.200000C622.200000,441.700000,603.700000,487.100000,564.600000,498.500000Z" fill="rgb(139,178,72)" stroke="none" stroke-width="1"/></g><g id="eo1b6jj4j3vg32" transform="matrix(1 0 0.10510423526568 1 -44.30984369575549 0)"><path id="eo1b6jj4j3vg33" d="M852.300000,447.200000C847.100000,448.600000,842.800000,450.400000,839.400000,454.800000C833.500000,462.400000,825.600000,465.800000,815.800000,465C811.700000,464.600000,807.500000,464,803.400000,465.300000C803.300000,465.300000,803.300000,465.400000,803.200000,465.400000C803.100000,465.300000,803,465.200000,802.900000,465.100000C799.100000,460.600000,798.700000,452.800000,802.200000,446.700000C804.400000,442.800000,807.300000,439.300000,809.500000,435.300000C808.100000,435.100000,807.400000,436.200000,806.500000,436.600000C800.700000,439.400000,798.400000,438.300000,797.400000,431.800000C796.500000,426,797,420,794.600000,413.200000C792.600000,424.700000,792.500000,435.300000,791,445.600000C790.700000,447.900000,790.900000,450.400000,789.400000,452.400000C789.200000,452.500000,789,452.600000,788.800000,452.600000C788.700000,452.700000,788.500000,452.700000,788.400000,452.800000C780,456,771.600000,453.600000,763.800000,451.100000C726.500000,439.300000,710,398.600000,729.300000,364.600000C737.200000,350.600000,748,338.200000,763.400000,331.500000C768.700000,329.200000,772.600000,324.900000,777.800000,322.700000C784.400000,322.600000,789,328.500000,794.600000,329.200000C800.200000,329.900000,805.200000,324,811.800000,324.200000C821,324.600000,829.100000,327.300000,835.200000,334.300000C837.900000,337.300000,840.600000,339.300000,844.600000,339.900000C851.200000,340.800000,856.200000,345,861.500000,348.500000C872.100000,357.900000,876.300000,369.600000,873.300000,383.400000C872.100000,388.900000,872.900000,393.500000,875.200000,398.400000C884.400000,417.800000,873.300000,441.700000,852.300000,447.200000Z" fill="rgb(139,178,72)" stroke="none" stroke-width="1"/><path id="eo1b6jj4j3vg34" d="M783.900000,458.600000C781.100000,457.900000,783.700000,461.400000,781.800000,461.500000C775.800000,463.700000,769.300000,463.600000,763.700000,461.400000C756.700000,458.800000,749.700000,458,742.500000,456.900000C711.900000,452.300000,693.400000,424.100000,701.200000,394.200000C702.300000,390.100000,701.700000,387.300000,699.200000,384C691.500000,373.700000,691.300000,360.300000,698.300000,349.400000C705.400000,338.300000,715.700000,333.600000,728.600000,336C732.400000,336.700000,734.600000,335.800000,737.300000,333.300000C748.900000,322.700000,762.400000,318.800000,777.800000,322.500000C775.200000,326.900000,771.400000,329.500000,766.700000,331.700000C745.400000,342.300000,730.300000,358.600000,724.500000,382C716.800000,413.200000,739.800000,446.100000,771.800000,450.700000C777.400000,451.500000,783,451.900000,788.700000,451.700000C788.700000,451.900000,788.800000,452.200000,788.800000,452.400000C789.700000,456.400000,790.800000,460.300000,783.900000,458.600000Z" fill="rgb(77,125,19)" stroke="none" stroke-width="1"/><path id="eo1b6jj4j3vg35" d="M809.300000,515.800000C809.500000,519.800000,808.500000,522.300000,804.900000,522C797.300000,521.400000,789.400000,523.200000,782,520.200000C783.400000,504.800000,784.700000,489.400000,786.200000,474C786.700000,468.900000,785.900000,464.800000,781.800000,461.500000C781.200000,459.600000,780.600000,457.700000,779.900000,455.600000C782.800000,455.100000,784.300000,457.400000,786.800000,458.100000C787.300000,456.300000,787.900000,454.500000,788.400000,452.700000C788.500000,452.400000,788.600000,452.200000,788.600000,451.900000C789.700000,439.200000,790.700000,426.600000,791.800000,413.900000C792,411.800000,791.800000,409.300000,795,409.500000C797.800000,409.600000,797.300000,412,797.500000,413.800000C798.100000,420.100000,798.700000,426.500000,799.400000,432.800000C799.800000,436.500000,801.100000,438.500000,805,435.400000C807.400000,433.500000,809.900000,431.200000,814.800000,430.300000C808.700000,442,797.300000,450.600000,802.800000,464.700000C803,464.900000,803.200000,465.100000,803.300000,465.300000C806,468.900000,805.300000,473.500000,805.600000,477.300000C806.700000,490.100000,808.600000,502.900000,809.300000,515.800000Z" fill="rgb(96,62,42)" stroke="none" stroke-width="1"/></g><g id="eo1b6jj4j3vg36" transform="matrix(1 0 0.10510423526568 1 -42.36234894780478 0)"><path id="eo1b6jj4j3vg37" d="M1069.700000,492.200000C1052.300000,492.300000,1034.800000,492.200000,1017.300000,492.200000C1013.600000,489.100000,1014,484.500000,1013.600000,480.500000C1012.900000,472.100000,1012.300000,463.600000,1011.800000,455.200000C1011.100000,444.300000,1011.600000,443.400000,1019.900000,431C1017.500000,431.100000,1015.600000,433.700000,1013.200000,432.500000C1010.500000,431.300000,1010.500000,428.500000,1010,426.100000C1008,416.300000,1008.300000,406.300000,1007.500000,396.400000C1006.700000,386.600000,1005.800000,376.700000,1005.100000,366.900000C1005,365.700000,1004.900000,364.400000,1004.800000,363.200000C1004.800000,362.900000,1004.800000,362.600000,1004.700000,362.300000C1006.100000,340.500000,1005.500000,318.600000,1005.100000,296.800000C1005,292.800000,1004.300000,288.800000,1006.500000,285.200000C1010.900000,284.600000,1012.600000,287.900000,1014.400000,290.900000C1028.600000,315.200000,1042.800000,339.600000,1056.800000,364C1060.800000,371,1060,373.200000,1052.500000,376.100000C1046,378.600000,1048,383.100000,1050.100000,387C1054.900000,395.800000,1060.200000,404.200000,1065,412.900000C1070.500000,422.700000,1069.300000,425.400000,1058.400000,427.400000C1051.500000,428.700000,1049.700000,432.100000,1053.200000,438.600000C1059.900000,450.900000,1067,462.900000,1073.900000,475C1074.900000,476.700000,1076,478.400000,1076.900000,480.200000C1080.600000,487.700000,1078.100000,492.200000,1069.700000,492.200000Z" fill="rgb(139,178,72)" stroke="none" stroke-width="1"/><path id="eo1b6jj4j3vg38" d="M1007.700000,354.900000C1007.700000,357.600000,1007,360.300000,1006.600000,363C1005.900000,364.300000,1005.400000,365.500000,1005.100000,366.800000C1003,373.800000,1004.100000,381.400000,1002.800000,388.600000C1002.200000,391.800000,1002.600000,395.100000,1001.700000,398.300000C999.800000,405.100000,997.500000,405.800000,991,401.300000C1003.700000,411.600000,1000.700000,425.100000,998.800000,438.200000C998,444,999.100000,450.300000,994.900000,455.400000C993.900000,456.700000,994.700000,458.300000,995.100000,459.700000C998.300000,469.900000,995,480,994.200000,490.100000C994.100000,491.100000,993.300000,491.900000,992.400000,492.400000C976.500000,492.300000,960.500000,492.400000,944.500000,492.200000C935,492.100000,932.300000,487.600000,937,479.200000C944.400000,466,952.200000,452.900000,959.700000,439.700000C964.500000,431.200000,962.900000,428.400000,953.200000,426.900000C945.200000,425.600000,943.200000,422.100000,947.100000,415.100000C952.300000,405.700000,958,396.600000,963.200000,387.300000C967.300000,380,966.600000,378.300000,958.900000,375.300000C951.400000,372.400000,954.600000,367.200000,957,363.100000C965.900000,347.300000,975.200000,331.600000,984.400000,315.900000C989.200000,307.700000,993.800000,299.500000,998.700000,291.300000C1000.400000,288.400000,1001.800000,284.800000,1006.200000,285.100000C1008.100000,289.600000,1007.200000,294.400000,1007.300000,298.900000C1008,317.600000,1007.800000,336.300000,1007.700000,354.900000Z" fill="rgb(77,125,20)" stroke="none" stroke-width="1"/><path id="eo1b6jj4j3vg39" d="M1020.100000,434.400000C1014.100000,441.100000,1013.100000,448.800000,1014,457.300000C1015.200000,468.900000,1016.200000,480.500000,1017.300000,492.200000C1017.800000,499.900000,1018.100000,507.600000,1018.800000,515.300000C1019.100000,519.100000,1018,520.400000,1014,520.600000C990.400000,521.800000,990.400000,522,992.300000,498.400000C992.500000,496.400000,992.500000,494.400000,992.500000,492.400000C993.100000,484,993.800000,475.600000,994.300000,467.200000C994.500000,464.700000,994.600000,462.200000,993,460C990.600000,456.800000,988.200000,453.700000,994.700000,452.200000C996.200000,451.900000,995.700000,449.600000,995.900000,448.200000C996.900000,438.800000,997.500000,429.500000,998.900000,420.200000C999.700000,414.900000,995.900000,412,993.600000,408.400000C991.800000,405.500000,988.800000,403.300000,988.600000,399.200000C989.300000,399.100000,990.100000,398.700000,990.500000,399C999.300000,403.600000,999.800000,403.200000,1000.400000,392.600000C1000.800000,384.400000,1001.600000,376.300000,1001.800000,368.100000C1001.900000,365.400000,1002.600000,363.700000,1004.800000,363.200000C1005.300000,363.100000,1005.900000,363.100000,1006.600000,363.100000C1008.500000,372.600000,1008.700000,382.300000,1009.400000,392C1010.400000,405.100000,1011.400000,418.200000,1012.400000,431.700000C1017.500000,431.100000,1019.800000,426,1025.100000,425.600000C1024.600000,429.400000,1022.300000,432.100000,1020.100000,434.400000Z" fill="rgb(96,62,41)" stroke="none" stroke-width="1"/></g><g id="eo1b6jj4j3vg40"><path id="eo1b6jj4j3vg41" d="M166.400000,87.300000C166.100000,79.800000,162.200000,74.300000,155.500000,70.800000C152.900000,69.400000,150.100000,68.900000,147.100000,68.800000C155.800000,59,152.800000,47.100000,147,41.200000C141.200000,35.300000,129.200000,32.100000,119.300000,40.800000C118.500000,27.800000,108.100000,21.500000,99.600000,21.500000C91.200000,21.500000,80.700000,27.700000,79.900000,40.800000C69.900000,32,58,35.400000,52.300000,41.100000C46.400000,47,43.400000,59,52.100000,68.800000C51.100000,68.900000,50.300000,68.900000,49.500000,69.100000C40.800000,70.400000,32.700000,77.500000,32.700000,89.400000C32.600000,104.600000,32.700000,119.700000,32.700000,134.900000C32.700000,136.400000,32.800000,137.900000,33.100000,139.300000C35.100000,149.200000,42.700000,155.300000,52.900000,155.300000C83.600000,155.300000,114.400000,155.300000,145.100000,155.300000C146.400000,155.300000,147.700000,155.200000,148.900000,155.100000C157.300000,154.500000,164.400000,148.100000,166.100000,139.800000C166.400000,138.500000,166.500000,137.200000,166.500000,135.900000C166.600000,119.700000,167,103.500000,166.400000,87.300000ZM59,113C60.400000,115.600000,62.900000,116.400000,65.700000,116.700000C68.400000,117,71.100000,117.600000,73.600000,118.900000C80,122.200000,83.400000,129.200000,82.400000,136.700000C81.500000,143.600000,75.700000,149.500000,68.700000,150.900000C58.500000,152.900000,48.800000,145.500000,48.100000,135C48,134.200000,48.200000,133.800000,49.100000,133.900000C51.800000,134,54.500000,133.900000,57.200000,133.900000C58,133.900000,58.200000,134.200000,58.300000,135C58.700000,138.100000,61,140.400000,64.300000,141C67,141.500000,70.100000,140.100000,71.600000,137.500000C73.100000,134.900000,72.800000,131.600000,70.900000,129.200000C69.300000,127.400000,67.100000,127,65,126.600000C62.100000,126.100000,59.200000,125.500000,56.600000,124C50.400000,120.500000,47.200000,113.400000,48.400000,106.300000C49.600000,99.300000,55.300000,93.500000,62.200000,92.300000C72.600000,90.500000,81.800000,97.600000,82.800000,108.100000C82.900000,109.100000,82.700000,109.400000,81.600000,109.400000C80.300000,109.300000,78.900000,109.400000,77.600000,109.400000C76.400000,109.400000,75.100000,109.400000,73.900000,109.400000C73,109.400000,72.500000,109.300000,72.400000,108.200000C72.100000,105.400000,69.900000,103.100000,67.200000,102.400000C64.300000,101.700000,61.300000,102.700000,59.600000,105.100000C57.700000,107.700000,57.600000,110.300000,59,113ZM105.200000,150.100000C105,151,104.700000,151.300000,103.800000,151.300000C101.200000,151.200000,98.600000,151.200000,96,151.300000C95,151.300000,94.700000,150.900000,94.500000,150C92.400000,140,90.400000,129.900000,88.300000,119.900000C86.500000,111.100000,84.700000,102.200000,82.800000,93.400000C82.600000,92.400000,82.700000,92.100000,83.800000,92.200000C86.500000,92.300000,89.100000,92.300000,91.800000,92.200000C92.600000,92.200000,92.900000,92.500000,93.100000,93.200000C95.300000,103.700000,97.400000,114.200000,99.600000,124.800000C99.700000,125.300000,99.800000,125.800000,100,126.600000C102.300000,115.300000,104.600000,104.400000,106.900000,93.400000C107.100000,92.500000,107.300000,92.200000,108.300000,92.200000C111.300000,92.300000,114.300000,92.200000,117.300000,92.200000C115.500000,101,113.700000,109.500000,111.900000,118.100000C109.600000,128.800000,107.400000,139.400000,105.200000,150.100000ZM133,141C137.300000,141.900000,141.500000,138.800000,141.600000,134.400000C141.700000,132.200000,141.600000,130,141.600000,127.800000C141.600000,127,141.300000,126.800000,140.600000,126.800000C138.900000,126.800000,137.200000,126.800000,135.400000,126.800000C134.600000,126.800000,134.400000,126.600000,134.400000,125.800000C134.400000,123.100000,134.400000,120.400000,134.400000,117.700000C134.400000,116.900000,134.600000,116.600000,135.400000,116.600000C140.500000,116.600000,145.500000,116.700000,150.600000,116.600000C151.400000,116.600000,151.700000,116.800000,151.700000,117.600000C151.700000,123.200000,151.800000,128.700000,151.600000,134.300000C151.400000,143.100000,144.600000,150.400000,136.100000,151.200000C127.200000,152,119.300000,146.200000,117.400000,137.600000C116.900000,135.200000,117,132.700000,117,130.300000C117,127.400000,117,124.600000,117,121.700000L117,121.700000C117,117.700000,117,113.700000,117,109.700000C117,100.600000,123.900000,93,132.700000,92.200000C141.900000,91.400000,149.800000,97.500000,151.500000,106.700000C151.500000,106.700000,151.500000,106.800000,151.500000,106.800000C151.900000,109.500000,151.900000,109.500000,149.300000,109.500000C147.200000,109.500000,145.200000,109.500000,143.100000,109.500000C142.100000,109.500000,141.600000,109.400000,141.400000,108.200000C140.800000,104.800000,138,102.500000,134.600000,102.300000C131.500000,102.200000,128.600000,104.200000,127.600000,107.300000C127.300000,108.200000,127.200000,109.100000,127.200000,110.100000C127.200000,117.900000,127.200000,125.600000,127.200000,133.400000C127.300000,137.400000,129.500000,140.200000,133,141ZM156.600000,88.400000C156.300000,88.400000,156,88.400000,155.700000,88.400000L43.900000,88.400000C41.900000,88.400000,41.900000,88.400000,42.200000,86.500000C43.600000,78.700000,52.900000,75.200000,59.200000,80.200000C59.900000,80.800000,60.600000,81,61.500000,81C68,81,74.600000,81,81.100000,81C81.200000,81,81.300000,81,81.600000,80.900000C81.200000,80.400000,80.800000,80.100000,80.500000,79.700000C76.300000,75.500000,72,71.200000,67.800000,67C67,66.200000,66.200000,65.700000,65.100000,65.600000C59.800000,64.800000,56,60.500000,55.900000,55.300000C55.800000,50,59.500000,45.600000,64.900000,44.700000C70.400000,43.700000,76.100000,47.700000,76.900000,53.300000C77.100000,54.700000,77.600000,55.700000,78.600000,56.700000C82.800000,60.800000,87,65,91.100000,69.200000C91.400000,69.500000,91.800000,69.900000,92.100000,70.200000C92.500000,69.900000,92.400000,69.500000,92.400000,69.200000C92.400000,62.800000,92.400000,56.400000,92.400000,50C92.400000,49.200000,92.200000,48.600000,91.700000,48C88.700000,44.400000,88.500000,39.500000,90.900000,35.600000C93.300000,31.800000,98,29.900000,102.400000,31C106.800000,32.100000,110,35.900000,110.300000,40.500000C110.500000,43.300000,109.600000,45.800000,107.800000,48C107.400000,48.400000,107.200000,48.800000,107.200000,49.400000C107.200000,56.200000,107.200000,63.100000,107.200000,69.900000C107.700000,70.100000,107.900000,69.700000,108.100000,69.500000C112.700000,65,117.200000,60.400000,121.800000,55.900000C122.500000,55.200000,122.600000,54.400000,122.700000,53.500000C123.500000,48.600000,127.500000,44.800000,132.400000,44.500000C137.400000,44.200000,141.900000,47.300000,143.300000,52C145.100000,58.100000,141.200000,64.400000,134.900000,65.400000C133.500000,65.600000,132.600000,66.100000,131.600000,67.100000C127.300000,71.400000,123,75.700000,118.700000,80.100000C118.500000,80.300000,118.300000,80.500000,118.100000,80.700000C118.500000,81.100000,118.900000,80.900000,119.200000,80.900000C125.500000,80.900000,131.900000,80.900000,138.200000,80.900000C139,80.900000,139.600000,80.700000,140.200000,80.200000C143.500000,77.600000,147.100000,77,151,78.600000C154.800000,80.200000,156.900000,83.200000,157.500000,87.300000C157.700000,88.100000,157.500000,88.500000,156.600000,88.400000Z" fill="rgb(3,2,2)" stroke="none" stroke-width="1"/><path id="eo1b6jj4j3vg42" d="M81.500000,80.800000C81.100000,80.300000,80.700000,80,80.400000,79.600000C76.200000,75.400000,71.900000,71.100000,67.700000,66.900000C66.900000,66.100000,66.100000,65.600000,65,65.500000C59.700000,64.700000,55.900000,60.400000,55.800000,55.200000C55.700000,49.900000,59.400000,45.500000,64.800000,44.600000C70.300000,43.600000,76,47.600000,76.800000,53.200000C77,54.600000,77.500000,55.600000,78.500000,56.600000C82.700000,60.700000,86.900000,64.900000,91,69.100000C91.300000,69.400000,91.700000,69.800000,92,70.100000C92.400000,69.800000,92.300000,69.400000,92.300000,69.100000C92.300000,62.700000,92.300000,56.300000,92.300000,49.900000C92.300000,49.100000,92.100000,48.500000,91.600000,47.900000C88.600000,44.300000,88.400000,39.400000,90.800000,35.500000C93.200000,31.700000,97.900000,29.800000,102.300000,30.900000C106.700000,32,109.900000,35.800000,110.200000,40.400000C110.400000,43.200000,109.500000,45.700000,107.700000,47.900000C107.300000,48.300000,107.100000,48.700000,107.100000,49.300000C107.100000,56.100000,107.100000,63,107.100000,69.800000C107.600000,70,107.800000,69.600000,108,69.400000C112.600000,64.900000,117.100000,60.300000,121.700000,55.800000C122.400000,55.100000,122.500000,54.300000,122.600000,53.400000C123.400000,48.500000,127.400000,44.700000,132.300000,44.400000C137.300000,44.100000,141.800000,47.200000,143.200000,51.900000C145,58,141.100000,64.300000,134.800000,65.300000C133.400000,65.500000,132.500000,66,131.500000,67C127.200000,71.300000,122.900000,75.600000,118.600000,80C118.400000,80.200000,118.200000,80.400000,118,80.600000C118.400000,81,118.800000,80.800000,119.100000,80.800000C125.400000,80.800000,131.800000,80.800000,138.100000,80.800000C138.900000,80.800000,139.500000,80.600000,140.100000,80.100000C143.400000,77.500000,147,76.900000,150.900000,78.500000C154.700000,80.100000,156.800000,83.100000,157.400000,87.200000C157.500000,88,157.300000,88.400000,156.400000,88.300000C156.100000,88.300000,155.800000,88.300000,155.500000,88.300000C118.200000,88.300000,80.900000,88.300000,43.700000,88.300000C41.700000,88.300000,41.700000,88.300000,42,86.400000C43.400000,78.600000,52.700000,75.100000,59,80.100000C59.700000,80.700000,60.400000,80.900000,61.300000,80.900000C67.800000,80.900000,74.400000,80.900000,80.900000,80.900000C81.100000,80.900000,81.200000,80.900000,81.500000,80.800000Z" fill="rgb(253,176,59)" stroke="none" stroke-width="1"/><path id="eo1b6jj4j3vg43" d="M117.200000,121.700000C117.200000,117.700000,117.200000,113.700000,117.200000,109.700000C117.200000,100.600000,124.100000,93,132.900000,92.200000C142.100000,91.400000,150,97.500000,151.700000,106.700000C151.700000,106.700000,151.700000,106.800000,151.700000,106.800000C152.100000,109.500000,152.100000,109.500000,149.500000,109.500000C147.400000,109.500000,145.400000,109.500000,143.300000,109.500000C142.300000,109.500000,141.800000,109.400000,141.600000,108.200000C141,104.800000,138.200000,102.500000,134.800000,102.300000C131.700000,102.200000,128.800000,104.200000,127.800000,107.300000C127.500000,108.200000,127.400000,109.100000,127.400000,110.100000C127.400000,117.900000,127.400000,125.600000,127.400000,133.400000C127.400000,137.400000,129.500000,140.200000,133.100000,141C137.400000,141.900000,141.600000,138.800000,141.700000,134.400000C141.800000,132.200000,141.700000,130,141.700000,127.800000C141.700000,127,141.400000,126.800000,140.700000,126.800000C139,126.800000,137.300000,126.800000,135.500000,126.800000C134.700000,126.800000,134.500000,126.600000,134.500000,125.800000C134.500000,123.100000,134.500000,120.400000,134.500000,117.700000C134.500000,116.900000,134.700000,116.600000,135.500000,116.600000C140.600000,116.600000,145.600000,116.600000,150.700000,116.600000C151.500000,116.600000,151.800000,116.800000,151.800000,117.600000C151.800000,123.200000,151.900000,128.700000,151.700000,134.300000C151.500000,143.100000,144.700000,150.400000,136.200000,151.200000C127.300000,152,119.400000,146.200000,117.500000,137.600000C117,135.200000,117.100000,132.700000,117.100000,130.300000C117.200000,127.400000,117.200000,124.500000,117.200000,121.700000C117.200000,121.700000,117.200000,121.700000,117.200000,121.700000Z" fill="rgb(253,253,253)" stroke="none" stroke-width="1"/><path id="eo1b6jj4j3vg44" d="M77.400000,109.500000C76.200000,109.500000,74.900000,109.500000,73.700000,109.500000C72.800000,109.500000,72.300000,109.400000,72.200000,108.300000C71.900000,105.500000,69.700000,103.200000,67,102.500000C64.100000,101.800000,61.100000,102.800000,59.400000,105.200000C57.600000,107.700000,57.500000,110.300000,58.900000,113C60.300000,115.600000,62.800000,116.400000,65.600000,116.700000C68.300000,117,71,117.600000,73.500000,118.900000C79.900000,122.200000,83.300000,129.200000,82.300000,136.700000C81.400000,143.600000,75.600000,149.500000,68.600000,150.900000C58.400000,152.900000,48.700000,145.500000,48,135C47.900000,134.200000,48.100000,133.800000,49,133.900000C51.700000,133.900000,54.400000,133.900000,57.100000,133.900000C57.900000,133.900000,58.100000,134.200000,58.200000,135C58.600000,138.100000,60.900000,140.400000,64.200000,141C66.900000,141.500000,70,140.100000,71.500000,137.500000C73,134.900000,72.700000,131.600000,70.800000,129.200000C69.200000,127.400000,67,127,64.900000,126.600000C62,126.100000,59.100000,125.500000,56.500000,124C50.300000,120.500000,47.100000,113.400000,48.300000,106.300000C49.500000,99.300000,55.200000,93.500000,62.100000,92.300000C72.500000,90.500000,81.700000,97.600000,82.700000,108.100000C82.800000,109.100000,82.600000,109.400000,81.500000,109.400000C80.100000,109.500000,78.800000,109.500000,77.400000,109.500000Z" fill="rgb(253,253,253)" stroke="none" stroke-width="1"/><path id="eo1b6jj4j3vg45" d="M99.900000,126.500000C102.200000,115.200000,104.500000,104.300000,106.800000,93.300000C107,92.400000,107.200000,92.100000,108.200000,92.100000C111.200000,92.200000,114.200000,92.100000,117.200000,92.100000C115.400000,100.900000,113.600000,109.400000,111.800000,118C109.600000,128.700000,107.300000,139.300000,105.200000,150C105,150.900000,104.700000,151.200000,103.800000,151.200000C101.200000,151.100000,98.600000,151.100000,96,151.200000C95,151.200000,94.700000,150.800000,94.500000,149.900000C92.400000,139.900000,90.400000,129.800000,88.300000,119.800000C86.500000,111,84.700000,102.100000,82.800000,93.300000C82.600000,92.300000,82.700000,92,83.800000,92.100000C86.500000,92.200000,89.100000,92.200000,91.800000,92.100000C92.600000,92.100000,92.900000,92.400000,93.100000,93.100000C95.300000,103.600000,97.400000,114.100000,99.600000,124.700000C99.600000,125.200000,99.700000,125.700000,99.900000,126.500000Z" fill="rgb(253,253,253)" stroke="none" stroke-width="1"/></g></svg>