<?xml version="1.0" encoding="utf-8"?>
<!-- Generator: Adobe Illustrator 23.0.1, SVG Export Plug-In . SVG Version: 6.00 Build 0)  -->
<svg version="1.1" id="Layer_1" xmlns="http://www.w3.org/2000/svg" xmlns:xlink="http://www.w3.org/1999/xlink" x="0px" y="0px"
	 viewBox="0 0 1953 1699" style="enable-background:new 0 0 1953 1699;" xml:space="preserve">
<style type="text/css">
	.st0{fill:url(#SVGID_1_);}
	.st1{opacity:0.75;fill:#7CBF77;}
	.st2{fill:url(#SVGID_2_);}
	.st3{fill:none;stroke:#493303;stroke-width:2;stroke-miterlimit:10;}
	.st4{fill:none;stroke:#493303;stroke-miterlimit:10;}
	.st5{fill:url(#SVGID_3_);}
	.st6{fill:url(#SVGID_4_);}
	.st7{fill:url(#SVGID_5_);}
	.st8{fill:url(#SVGID_6_);}
	.st9{fill:url(#SVGID_7_);}
	.st10{fill:url(#SVGID_8_);}
	.st11{fill:url(#SVGID_9_);}
	.st12{fill:url(#SVGID_10_);}
	.st13{fill:url(#SVGID_11_);}
	.st14{fill:url(#SVGID_12_);}
	.st15{fill:url(#SVGID_13_);}
	.st16{fill:#126809;}
	.st17{fill:#9E7A5F;stroke:#75380A;stroke-miterlimit:10;}
	.st18{fill:#F2F1F0;stroke:#75380A;stroke-miterlimit:10;}
	.st19{fill:#F7F4F2;stroke:#75380A;stroke-miterlimit:10;}
	.st20{fill:#F7F4F2;stroke:#000000;stroke-miterlimit:10;}
	.st21{fill:#969392;stroke:#000000;stroke-width:2;stroke-miterlimit:10;}
	.st22{fill:none;stroke:#000000;stroke-width:2;stroke-miterlimit:10;}
	.st23{fill:#F7F7F7;}
</style>
<g>
	<linearGradient id="SVGID_1_" gradientUnits="userSpaceOnUse" x1="976.5" y1="-9.094947e-13" x2="976.5" y2="1691">
		<stop  offset="0" style="stop-color:#FF7BAC"/>
		<stop  offset="1" style="stop-color:#FF7BAC;stop-opacity:0"/>
	</linearGradient>
	<rect class="st0" width="1953" height="1691"/>
</g>
<path class="st1" d="M0,1150.98c293.22-114.46,617.04-168.84,970.76-67.87c377.68-62.08,698.3-20.98,982.24,110.64V1699H0.51
	L0,1150.98z"/>
<g>
	<g>
		<linearGradient id="SVGID_2_" gradientUnits="userSpaceOnUse" x1="1561" y1="1010.9774" x2="1561" y2="1096.9604">
			<stop  offset="0" style="stop-color:#0EBF00"/>
			<stop  offset="0.3966" style="stop-color:#10C000;stop-opacity:0.6034"/>
			<stop  offset="0.5394" style="stop-color:#17C201;stop-opacity:0.4606"/>
			<stop  offset="0.6413" style="stop-color:#22C602;stop-opacity:0.3587"/>
			<stop  offset="0.7237" style="stop-color:#33CC04;stop-opacity:0.2763"/>
			<stop  offset="0.7942" style="stop-color:#49D307;stop-opacity:0.2058"/>
			<stop  offset="0.8567" style="stop-color:#65DD0A;stop-opacity:0.1433"/>
			<stop  offset="0.9132" style="stop-color:#85E80D;stop-opacity:0.0868"/>
			<stop  offset="0.9634" style="stop-color:#A9F411;stop-opacity:0.0366"/>
			<stop  offset="1" style="stop-color:#C9FF15;stop-opacity:0"/>
		</linearGradient>
		<path class="st2" d="M1561,1096.96L1561,1096.96c-14.91,0-27-12.09-27-27v-31.98c0-14.91,12.09-27,27-27l0,0
			c14.91,0,27,12.09,27,27v31.98C1588,1084.87,1575.91,1096.96,1561,1096.96z"/>
	</g>
	<g>
		<line class="st3" x1="1561" y1="1049.19" x2="1561" y2="1135.18"/>
	</g>
	<g>
		<line class="st4" x1="1569.5" y1="1069.89" x2="1561" y2="1087.17"/>
	</g>
	<g>
		<line class="st4" x1="1554.5" y1="1063.52" x2="1561.5" y2="1072.31"/>
	</g>
</g>
<g>
	<g>
		<linearGradient id="SVGID_3_" gradientUnits="userSpaceOnUse" x1="1443" y1="970.6396" x2="1443" y2="1056.6227">
			<stop  offset="0" style="stop-color:#0EBF00"/>
			<stop  offset="0.3966" style="stop-color:#10C000;stop-opacity:0.6034"/>
			<stop  offset="0.5394" style="stop-color:#17C201;stop-opacity:0.4606"/>
			<stop  offset="0.6413" style="stop-color:#22C602;stop-opacity:0.3587"/>
			<stop  offset="0.7237" style="stop-color:#33CC04;stop-opacity:0.2763"/>
			<stop  offset="0.7942" style="stop-color:#49D307;stop-opacity:0.2058"/>
			<stop  offset="0.8567" style="stop-color:#65DD0A;stop-opacity:0.1433"/>
			<stop  offset="0.9132" style="stop-color:#85E80D;stop-opacity:0.0868"/>
			<stop  offset="0.9634" style="stop-color:#A9F411;stop-opacity:0.0366"/>
			<stop  offset="1" style="stop-color:#C9FF15;stop-opacity:0"/>
		</linearGradient>
		<path class="st5" d="M1443,1056.62L1443,1056.62c-14.91,0-27-12.09-27-27v-31.98c0-14.91,12.09-27,27-27l0,0
			c14.91,0,27,12.09,27,27v31.98C1470,1044.53,1457.91,1056.62,1443,1056.62z"/>
	</g>
	<g>
		<line class="st3" x1="1443" y1="1008.85" x2="1443" y2="1094.84"/>
	</g>
	<g>
		<line class="st4" x1="1451.5" y1="1029.55" x2="1443" y2="1046.83"/>
	</g>
	<g>
		<line class="st4" x1="1436.5" y1="1023.18" x2="1443.5" y2="1031.97"/>
	</g>
</g>
<g>
	<g>
		<linearGradient id="SVGID_4_" gradientUnits="userSpaceOnUse" x1="1312" y1="1079.9762" x2="1312" y2="1165.9592">
			<stop  offset="0" style="stop-color:#0EBF00"/>
			<stop  offset="0.3966" style="stop-color:#10C000;stop-opacity:0.6034"/>
			<stop  offset="0.5394" style="stop-color:#17C201;stop-opacity:0.4606"/>
			<stop  offset="0.6413" style="stop-color:#22C602;stop-opacity:0.3587"/>
			<stop  offset="0.7237" style="stop-color:#33CC04;stop-opacity:0.2763"/>
			<stop  offset="0.7942" style="stop-color:#49D307;stop-opacity:0.2058"/>
			<stop  offset="0.8567" style="stop-color:#65DD0A;stop-opacity:0.1433"/>
			<stop  offset="0.9132" style="stop-color:#85E80D;stop-opacity:0.0868"/>
			<stop  offset="0.9634" style="stop-color:#A9F411;stop-opacity:0.0366"/>
			<stop  offset="1" style="stop-color:#C9FF15;stop-opacity:0"/>
		</linearGradient>
		<path class="st6" d="M1312,1165.96L1312,1165.96c-14.91,0-27-12.09-27-27v-31.98c0-14.91,12.09-27,27-27l0,0
			c14.91,0,27,12.09,27,27v31.98C1339,1153.87,1326.91,1165.96,1312,1165.96z"/>
	</g>
	<g>
		<line class="st3" x1="1312" y1="1118.19" x2="1312" y2="1204.17"/>
	</g>
	<g>
		<line class="st4" x1="1320.5" y1="1138.89" x2="1312" y2="1156.17"/>
	</g>
	<g>
		<line class="st4" x1="1305.5" y1="1132.52" x2="1312.5" y2="1141.31"/>
	</g>
</g>
<g>
	<g>
		<linearGradient id="SVGID_5_" gradientUnits="userSpaceOnUse" x1="1224" y1="968.5167" x2="1224" y2="1054.4996">
			<stop  offset="0" style="stop-color:#0EBF00"/>
			<stop  offset="0.3966" style="stop-color:#10C000;stop-opacity:0.6034"/>
			<stop  offset="0.5394" style="stop-color:#17C201;stop-opacity:0.4606"/>
			<stop  offset="0.6413" style="stop-color:#22C602;stop-opacity:0.3587"/>
			<stop  offset="0.7237" style="stop-color:#33CC04;stop-opacity:0.2763"/>
			<stop  offset="0.7942" style="stop-color:#49D307;stop-opacity:0.2058"/>
			<stop  offset="0.8567" style="stop-color:#65DD0A;stop-opacity:0.1433"/>
			<stop  offset="0.9132" style="stop-color:#85E80D;stop-opacity:0.0868"/>
			<stop  offset="0.9634" style="stop-color:#A9F411;stop-opacity:0.0366"/>
			<stop  offset="1" style="stop-color:#C9FF15;stop-opacity:0"/>
		</linearGradient>
		<path class="st7" d="M1224,1054.5L1224,1054.5c-14.91,0-27-12.09-27-27v-31.98c0-14.91,12.09-27,27-27l0,0c14.91,0,27,12.09,27,27
			v31.98C1251,1042.41,1238.91,1054.5,1224,1054.5z"/>
	</g>
	<g>
		<line class="st3" x1="1224" y1="1006.73" x2="1224" y2="1092.71"/>
	</g>
	<g>
		<line class="st4" x1="1232.5" y1="1027.43" x2="1224" y2="1044.71"/>
	</g>
	<g>
		<line class="st4" x1="1217.5" y1="1021.06" x2="1224.5" y2="1029.85"/>
	</g>
</g>
<g>
	<g>
		<linearGradient id="SVGID_6_" gradientUnits="userSpaceOnUse" x1="1117" y1="1130.9291" x2="1117" y2="1216.9121">
			<stop  offset="0" style="stop-color:#0EBF00"/>
			<stop  offset="0.3966" style="stop-color:#10C000;stop-opacity:0.6034"/>
			<stop  offset="0.5394" style="stop-color:#17C201;stop-opacity:0.4606"/>
			<stop  offset="0.6413" style="stop-color:#22C602;stop-opacity:0.3587"/>
			<stop  offset="0.7237" style="stop-color:#33CC04;stop-opacity:0.2763"/>
			<stop  offset="0.7942" style="stop-color:#49D307;stop-opacity:0.2058"/>
			<stop  offset="0.8567" style="stop-color:#65DD0A;stop-opacity:0.1433"/>
			<stop  offset="0.9132" style="stop-color:#85E80D;stop-opacity:0.0868"/>
			<stop  offset="0.9634" style="stop-color:#A9F411;stop-opacity:0.0366"/>
			<stop  offset="1" style="stop-color:#C9FF15;stop-opacity:0"/>
		</linearGradient>
		<path class="st8" d="M1117,1216.91L1117,1216.91c-14.91,0-27-12.09-27-27v-31.98c0-14.91,12.09-27,27-27l0,0
			c14.91,0,27,12.09,27,27v31.98C1144,1204.82,1131.91,1216.91,1117,1216.91z"/>
	</g>
	<g>
		<line class="st3" x1="1117" y1="1169.14" x2="1117" y2="1255.13"/>
	</g>
	<g>
		<line class="st4" x1="1125.5" y1="1189.84" x2="1117" y2="1207.12"/>
	</g>
	<g>
		<line class="st4" x1="1110.5" y1="1183.47" x2="1117.5" y2="1192.26"/>
	</g>
</g>
<g>
	<g>
		<linearGradient id="SVGID_7_" gradientUnits="userSpaceOnUse" x1="1006" y1="1017.3465" x2="1006" y2="1103.3296">
			<stop  offset="0" style="stop-color:#0EBF00"/>
			<stop  offset="0.3966" style="stop-color:#10C000;stop-opacity:0.6034"/>
			<stop  offset="0.5394" style="stop-color:#17C201;stop-opacity:0.4606"/>
			<stop  offset="0.6413" style="stop-color:#22C602;stop-opacity:0.3587"/>
			<stop  offset="0.7237" style="stop-color:#33CC04;stop-opacity:0.2763"/>
			<stop  offset="0.7942" style="stop-color:#49D307;stop-opacity:0.2058"/>
			<stop  offset="0.8567" style="stop-color:#65DD0A;stop-opacity:0.1433"/>
			<stop  offset="0.9132" style="stop-color:#85E80D;stop-opacity:0.0868"/>
			<stop  offset="0.9634" style="stop-color:#A9F411;stop-opacity:0.0366"/>
			<stop  offset="1" style="stop-color:#C9FF15;stop-opacity:0"/>
		</linearGradient>
		<path class="st9" d="M1006,1103.33L1006,1103.33c-14.91,0-27-12.09-27-27v-31.98c0-14.91,12.09-27,27-27l0,0
			c14.91,0,27,12.09,27,27v31.98C1033,1091.24,1020.91,1103.33,1006,1103.33z"/>
	</g>
	<g>
		<line class="st3" x1="1006" y1="1055.56" x2="1006" y2="1141.54"/>
	</g>
	<g>
		<line class="st4" x1="1014.5" y1="1076.26" x2="1006" y2="1093.54"/>
	</g>
	<g>
		<line class="st4" x1="999.5" y1="1069.89" x2="1006.5" y2="1078.68"/>
	</g>
</g>
<g>
	<g>
		<linearGradient id="SVGID_8_" gradientUnits="userSpaceOnUse" x1="952" y1="1167.0208" x2="952" y2="1253.0038">
			<stop  offset="0" style="stop-color:#0EBF00"/>
			<stop  offset="0.3966" style="stop-color:#10C000;stop-opacity:0.6034"/>
			<stop  offset="0.5394" style="stop-color:#17C201;stop-opacity:0.4606"/>
			<stop  offset="0.6413" style="stop-color:#22C602;stop-opacity:0.3587"/>
			<stop  offset="0.7237" style="stop-color:#33CC04;stop-opacity:0.2763"/>
			<stop  offset="0.7942" style="stop-color:#49D307;stop-opacity:0.2058"/>
			<stop  offset="0.8567" style="stop-color:#65DD0A;stop-opacity:0.1433"/>
			<stop  offset="0.9132" style="stop-color:#85E80D;stop-opacity:0.0868"/>
			<stop  offset="0.9634" style="stop-color:#A9F411;stop-opacity:0.0366"/>
			<stop  offset="1" style="stop-color:#C9FF15;stop-opacity:0"/>
		</linearGradient>
		<path class="st10" d="M952,1253L952,1253c-14.91,0-27-12.09-27-27v-31.98c0-14.91,12.09-27,27-27l0,0c14.91,0,27,12.09,27,27V1226
			C979,1240.92,966.91,1253,952,1253z"/>
	</g>
	<g>
		<line class="st3" x1="952" y1="1205.24" x2="952" y2="1291.22"/>
	</g>
	<g>
		<line class="st4" x1="960.5" y1="1225.94" x2="952" y2="1243.21"/>
	</g>
	<g>
		<line class="st4" x1="945.5" y1="1219.57" x2="952.5" y2="1228.35"/>
	</g>
</g>
<g>
	<g>
		<linearGradient id="SVGID_9_" gradientUnits="userSpaceOnUse" x1="1251" y1="1248.7577" x2="1251" y2="1334.7407">
			<stop  offset="0" style="stop-color:#0EBF00"/>
			<stop  offset="0.3966" style="stop-color:#10C000;stop-opacity:0.6034"/>
			<stop  offset="0.5394" style="stop-color:#17C201;stop-opacity:0.4606"/>
			<stop  offset="0.6413" style="stop-color:#22C602;stop-opacity:0.3587"/>
			<stop  offset="0.7237" style="stop-color:#33CC04;stop-opacity:0.2763"/>
			<stop  offset="0.7942" style="stop-color:#49D307;stop-opacity:0.2058"/>
			<stop  offset="0.8567" style="stop-color:#65DD0A;stop-opacity:0.1433"/>
			<stop  offset="0.9132" style="stop-color:#85E80D;stop-opacity:0.0868"/>
			<stop  offset="0.9634" style="stop-color:#A9F411;stop-opacity:0.0366"/>
			<stop  offset="1" style="stop-color:#C9FF15;stop-opacity:0"/>
		</linearGradient>
		<path class="st11" d="M1251,1334.74L1251,1334.74c-14.91,0-27-12.09-27-27v-31.98c0-14.91,12.09-27,27-27l0,0
			c14.91,0,27,12.09,27,27v31.98C1278,1322.65,1265.91,1334.74,1251,1334.74z"/>
	</g>
	<g>
		<line class="st3" x1="1251" y1="1286.97" x2="1251" y2="1372.96"/>
	</g>
	<g>
		<line class="st4" x1="1259.5" y1="1307.67" x2="1251" y2="1324.95"/>
	</g>
	<g>
		<line class="st4" x1="1244.5" y1="1301.3" x2="1251.5" y2="1310.09"/>
	</g>
</g>
<g>
	<g>
		<linearGradient id="SVGID_10_" gradientUnits="userSpaceOnUse" x1="1408" y1="1254.0653" x2="1408" y2="1340.0483">
			<stop  offset="0" style="stop-color:#0EBF00"/>
			<stop  offset="0.3966" style="stop-color:#10C000;stop-opacity:0.6034"/>
			<stop  offset="0.5394" style="stop-color:#17C201;stop-opacity:0.4606"/>
			<stop  offset="0.6413" style="stop-color:#22C602;stop-opacity:0.3587"/>
			<stop  offset="0.7237" style="stop-color:#33CC04;stop-opacity:0.2763"/>
			<stop  offset="0.7942" style="stop-color:#49D307;stop-opacity:0.2058"/>
			<stop  offset="0.8567" style="stop-color:#65DD0A;stop-opacity:0.1433"/>
			<stop  offset="0.9132" style="stop-color:#85E80D;stop-opacity:0.0868"/>
			<stop  offset="0.9634" style="stop-color:#A9F411;stop-opacity:0.0366"/>
			<stop  offset="1" style="stop-color:#C9FF15;stop-opacity:0"/>
		</linearGradient>
		<path class="st12" d="M1408,1340.05L1408,1340.05c-14.91,0-27-12.09-27-27v-31.98c0-14.91,12.09-27,27-27l0,0
			c14.91,0,27,12.09,27,27v31.98C1435,1327.96,1422.91,1340.05,1408,1340.05z"/>
	</g>
	<g>
		<line class="st3" x1="1408" y1="1292.28" x2="1408" y2="1378.26"/>
	</g>
	<g>
		<line class="st4" x1="1416.5" y1="1312.98" x2="1408" y2="1330.26"/>
	</g>
	<g>
		<line class="st4" x1="1401.5" y1="1306.61" x2="1408.5" y2="1315.4"/>
	</g>
</g>
<g>
	<g>
		<linearGradient id="SVGID_11_" gradientUnits="userSpaceOnUse" x1="1655" y1="1246.6346" x2="1655" y2="1332.6177">
			<stop  offset="0" style="stop-color:#0EBF00"/>
			<stop  offset="0.3966" style="stop-color:#10C000;stop-opacity:0.6034"/>
			<stop  offset="0.5394" style="stop-color:#17C201;stop-opacity:0.4606"/>
			<stop  offset="0.6413" style="stop-color:#22C602;stop-opacity:0.3587"/>
			<stop  offset="0.7237" style="stop-color:#33CC04;stop-opacity:0.2763"/>
			<stop  offset="0.7942" style="stop-color:#49D307;stop-opacity:0.2058"/>
			<stop  offset="0.8567" style="stop-color:#65DD0A;stop-opacity:0.1433"/>
			<stop  offset="0.9132" style="stop-color:#85E80D;stop-opacity:0.0868"/>
			<stop  offset="0.9634" style="stop-color:#A9F411;stop-opacity:0.0366"/>
			<stop  offset="1" style="stop-color:#C9FF15;stop-opacity:0"/>
		</linearGradient>
		<path class="st13" d="M1655,1332.62L1655,1332.62c-14.91,0-27-12.09-27-27v-31.98c0-14.91,12.09-27,27-27l0,0
			c14.91,0,27,12.09,27,27v31.98C1682,1320.53,1669.91,1332.62,1655,1332.62z"/>
	</g>
	<g>
		<line class="st3" x1="1655" y1="1284.85" x2="1655" y2="1370.83"/>
	</g>
	<g>
		<line class="st4" x1="1663.5" y1="1305.55" x2="1655" y2="1322.83"/>
	</g>
	<g>
		<line class="st4" x1="1648.5" y1="1299.18" x2="1655.5" y2="1307.96"/>
	</g>
</g>
<g>
	<g>
		<linearGradient id="SVGID_12_" gradientUnits="userSpaceOnUse" x1="1507" y1="1161.7131" x2="1507" y2="1247.6962">
			<stop  offset="0" style="stop-color:#0EBF00"/>
			<stop  offset="0.3966" style="stop-color:#10C000;stop-opacity:0.6034"/>
			<stop  offset="0.5394" style="stop-color:#17C201;stop-opacity:0.4606"/>
			<stop  offset="0.6413" style="stop-color:#22C602;stop-opacity:0.3587"/>
			<stop  offset="0.7237" style="stop-color:#33CC04;stop-opacity:0.2763"/>
			<stop  offset="0.7942" style="stop-color:#49D307;stop-opacity:0.2058"/>
			<stop  offset="0.8567" style="stop-color:#65DD0A;stop-opacity:0.1433"/>
			<stop  offset="0.9132" style="stop-color:#85E80D;stop-opacity:0.0868"/>
			<stop  offset="0.9634" style="stop-color:#A9F411;stop-opacity:0.0366"/>
			<stop  offset="1" style="stop-color:#C9FF15;stop-opacity:0"/>
		</linearGradient>
		<path class="st14" d="M1507,1247.7L1507,1247.7c-14.91,0-27-12.09-27-27v-31.98c0-14.91,12.09-27,27-27l0,0
			c14.91,0,27,12.09,27,27v31.98C1534,1235.61,1521.91,1247.7,1507,1247.7z"/>
	</g>
	<g>
		<line class="st3" x1="1507" y1="1199.93" x2="1507" y2="1285.91"/>
	</g>
	<g>
		<line class="st4" x1="1515.5" y1="1220.63" x2="1507" y2="1237.9"/>
	</g>
	<g>
		<line class="st4" x1="1500.5" y1="1214.26" x2="1507.5" y2="1223.04"/>
	</g>
</g>
<g>
	<g>
		<linearGradient id="SVGID_13_" gradientUnits="userSpaceOnUse" x1="1757" y1="1092.7144" x2="1757" y2="1178.6974">
			<stop  offset="0" style="stop-color:#0EBF00"/>
			<stop  offset="0.3966" style="stop-color:#10C000;stop-opacity:0.6034"/>
			<stop  offset="0.5394" style="stop-color:#17C201;stop-opacity:0.4606"/>
			<stop  offset="0.6413" style="stop-color:#22C602;stop-opacity:0.3587"/>
			<stop  offset="0.7237" style="stop-color:#33CC04;stop-opacity:0.2763"/>
			<stop  offset="0.7942" style="stop-color:#49D307;stop-opacity:0.2058"/>
			<stop  offset="0.8567" style="stop-color:#65DD0A;stop-opacity:0.1433"/>
			<stop  offset="0.9132" style="stop-color:#85E80D;stop-opacity:0.0868"/>
			<stop  offset="0.9634" style="stop-color:#A9F411;stop-opacity:0.0366"/>
			<stop  offset="1" style="stop-color:#C9FF15;stop-opacity:0"/>
		</linearGradient>
		<path class="st15" d="M1757,1178.7L1757,1178.7c-14.91,0-27-12.09-27-27v-31.98c0-14.91,12.09-27,27-27l0,0
			c14.91,0,27,12.09,27,27v31.98C1784,1166.61,1771.91,1178.7,1757,1178.7z"/>
	</g>
	<g>
		<line class="st3" x1="1757" y1="1130.93" x2="1757" y2="1216.91"/>
	</g>
	<g>
		<line class="st4" x1="1765.5" y1="1151.63" x2="1757" y2="1168.91"/>
	</g>
	<g>
		<line class="st4" x1="1750.5" y1="1145.26" x2="1757.5" y2="1154.04"/>
	</g>
</g>
<path class="st16" d="M1039.82,1282.2l-3.18-8.49l7.24,6.9l-1.45-10.08c0,0,4.63,10.62,4.63,10.08s0.87-12.74,0.87-12.74l2.32,12.21
	l3.76-12.21v11.68l5.79-9.02l-2.03,9.02l6.37-6.37l-2.32,8.49L1039.82,1282.2z"/>
<path class="st16" d="M1103.82,1110.2l-3.18-8.49l7.24,6.9l-1.45-10.08c0,0,4.63,10.62,4.63,10.08s0.87-12.74,0.87-12.74l2.32,12.21
	l3.76-12.21v11.68l5.79-9.02l-2.03,9.02l6.37-6.37l-2.32,8.49L1103.82,1110.2z"/>
<path class="st16" d="M1590.82,1392.59l-3.18-8.49l7.24,6.9l-1.45-10.08c0,0,4.63,10.62,4.63,10.08s0.87-12.74,0.87-12.74
	l2.32,12.21l3.76-12.21v11.68l5.79-9.02l-2.03,9.02l6.37-6.37l-2.32,8.49L1590.82,1392.59z"/>
<path class="st16" d="M843.82,1166.49l-3.18-8.49l7.24,6.9l-1.45-10.08c0,0,4.63,10.62,4.63,10.08s0.87-12.74,0.87-12.74l2.32,12.21
	l3.76-12.21v11.68l5.79-9.02l-2.03,9.02l6.37-6.37l-2.32,8.49L843.82,1166.49z"/>
<path class="st16" d="M1342.82,1253.53l-3.18-8.49l7.24,6.9l-1.45-10.08c0,0,4.63,10.62,4.63,10.08s0.87-12.74,0.87-12.74
	l2.32,12.21l3.76-12.21v11.68l5.79-9.02l-2.03,9.02l6.37-6.37l-2.32,8.49L1342.82,1253.53z"/>
<path class="st16" d="M1662.82,1181.35l-3.18-8.49l7.24,6.9l-1.45-10.08c0,0,4.63,10.62,4.63,10.08s0.87-12.74,0.87-12.74
	l2.32,12.21l3.76-12.21v11.68l5.79-9.02l-2.03,9.02l6.37-6.37l-2.32,8.49L1662.82,1181.35z"/>
<path class="st16" d="M1356.82,1095.74l-3.18-8.49l7.24,6.9l-1.45-10.08c0,0,4.63,10.62,4.63,10.08s0.87-12.74,0.87-12.74
	l2.32,12.21l3.76-12.21v11.68l5.79-9.02l-2.03,9.02l6.37-6.37l-2.32,8.49L1356.82,1095.74z"/>
<g>
	<path class="st17" d="M576.26,1165.27h-9.93l19.86,39.73l-40.18-0.13l-39.27,0.13h-39.73l19.86-39.73h-9.93l9.93-99.31
		c0-21.94,17.79-39.73,39.73-39.73h0c21.94,0,39.73,17.79,39.73,39.73L576.26,1165.27z"/>
	<path class="st18" d="M536.53,1105.69h-19.86v-20.79c0-4.97,4.03-9,9-9h1.86c4.97,0,9,4.03,9,9V1105.69z"/>
	<path class="st19" d="M536.53,1165.27h-19.86v-30.73c0-4.97,4.03-9,9-9h1.86c4.97,0,9,4.03,9,9V1165.27z"/>
</g>
<g>
	<circle class="st20" cx="526.6" cy="1056.03" r="7.64"/>
	<g>
		<path class="st21" d="M532,1061.43l64.82,64.82l-10.8,10.8L532,1083.04l7.2-7.2c3.6-3.6,3.6-3.6,3.6-3.6"/>
		<line class="st21" x1="553.56" y1="1082.99" x2="540.62" y2="1095.93"/>
		<line class="st21" x1="564.41" y1="1093.84" x2="551.47" y2="1106.78"/>
		<line class="st22" x1="575.22" y1="1104.65" x2="562.28" y2="1117.59"/>
		<line class="st22" x1="586.02" y1="1115.45" x2="573.08" y2="1128.39"/>
	</g>
	<g>
		<path class="st21" d="M532,1050.63l64.82-64.82l10.8,10.8l-54.02,54.02l-7.2-7.2c-3.6-3.6-3.6-3.6-3.6-3.6"/>
		<line class="st21" x1="553.56" y1="1029.07" x2="566.5" y2="1042.01"/>
		<line class="st21" x1="564.41" y1="1018.22" x2="577.35" y2="1031.16"/>
		<line class="st22" x1="575.22" y1="1007.41" x2="588.16" y2="1020.35"/>
		<line class="st22" x1="586.02" y1="996.61" x2="598.96" y2="1009.55"/>
	</g>
	<g>
		<path class="st21" d="M521.2,1050.63l-64.82-64.82l10.8-10.8l54.02,54.02l-7.2,7.2c-3.6,3.6-3.6,3.6-3.6,3.6"/>
		<line class="st21" x1="499.64" y1="1029.07" x2="512.58" y2="1016.13"/>
		<line class="st21" x1="488.79" y1="1018.22" x2="501.73" y2="1005.28"/>
		<line class="st22" x1="477.98" y1="1007.41" x2="490.92" y2="994.47"/>
		<line class="st22" x1="467.18" y1="996.61" x2="480.12" y2="983.67"/>
	</g>
	<g>
		<path class="st21" d="M521.2,1061.43l-64.82,64.82l-10.8-10.8l54.02-54.02l7.2,7.2c3.6,3.6,3.6,3.6,3.6,3.6"/>
		<line class="st21" x1="499.64" y1="1082.99" x2="486.7" y2="1070.05"/>
		<line class="st21" x1="488.79" y1="1093.84" x2="475.85" y2="1080.9"/>
		<line class="st22" x1="477.98" y1="1104.65" x2="465.04" y2="1091.71"/>
		<line class="st22" x1="467.18" y1="1115.45" x2="454.24" y2="1102.51"/>
	</g>
</g>
<path class="st23" d="M631,550.68c23.02-23.03,46.96-35.34,75,0c40.4-76.06,82.79-93.63,129,0c10.89-19.28,20.75-22.27,29,0
	c29.11-24.87,45.49-14.97,60,0c64.86,8.45,63.97,12.21,26,13.32H600C571.89,560.16,576.76,555.81,631,550.68z"/>
<path class="st23" d="M1014.34,754.27c11.64-11.65,23.75-17.87,37.93,0c20.43-38.46,41.87-47.35,65.24,0
	c5.51-9.75,10.49-11.26,14.67,0c14.72-12.58,23-7.57,30.34,0c32.8,4.27,32.35,6.17,13.15,6.73h-177
	C984.45,759.06,986.91,756.86,1014.34,754.27z"/>
<path class="st23" d="M78.34,471.27c11.64-11.65,23.75-17.87,37.93,0c20.43-38.46,41.87-47.35,65.24,0
	c5.51-9.75,10.49-11.26,14.67,0c14.72-12.58,23-7.57,30.34,0c32.8,4.27,32.35,6.17,13.15,6.73h-177
	C48.45,476.06,50.91,473.86,78.34,471.27z"/>
<path class="st23" d="M262,766.68c23.02-23.03,46.96-35.34,75,0c40.4-76.06,82.79-93.63,129,0c10.89-19.28,20.75-22.27,29,0
	c29.11-24.87,45.49-14.97,60,0c64.86,8.45,63.97,12.21,26,13.32H231C202.89,776.16,207.76,771.81,262,766.68z"/>
<path class="st23" d="M1324.68,454.27c17.1-11.65,34.88-17.87,55.7,0c30-38.46,61.49-47.35,95.8,0c8.09-9.75,15.41-11.26,21.54,0
	c21.62-12.58,33.78-7.57,44.56,0c48.17,4.27,47.51,6.17,19.31,6.73h-259.92C1280.78,459.06,1284.4,456.86,1324.68,454.27z"/>
<path class="st23" d="M1375,886.68c23.02-23.03,46.96-35.34,75,0c40.4-76.06,82.79-93.63,129,0c10.89-19.28,20.75-22.27,29,0
	c29.11-24.87,45.49-14.97,60,0c64.86,8.45,63.97,12.21,26,13.32h-350C1315.89,896.16,1320.76,891.81,1375,886.68z"/>
</svg>
