<svg id="elndmcqpsud1" xmlns="http://www.w3.org/2000/svg" xmlns:xlink="http://www.w3.org/1999/xlink" viewBox="0 0 1953 1699" shape-rendering="geometricPrecision" text-rendering="geometricPrecision"><style><![CDATA[#elndmcqpsud124_tr {animation: elndmcqpsud124_tr__tr 3000ms infinite linear}@keyframes elndmcqpsud124_tr__tr { 0% {transform: translate(526.600006px,1056.030029px) rotate(0deg)} 100% {transform: translate(526.600006px,1056.030029px) rotate(360deg)} }#elndmcqpsud150_to {animation: elndmcqpsud150_to__to 3000ms infinite linear}@keyframes elndmcqpsud150_to__to { 0% {transform: translate(779.637421px,525.438293px)} 100% {transform: translate(1517.005328px,519.059011px)} }#elndmcqpsud150 {animation: elndmcqpsud150_c_o 3000ms infinite linear}@keyframes elndmcqpsud150_c_o { 0% {opacity: 1} 100% {opacity: 0} }#elndmcqpsud151_to {animation: elndmcqpsud151_to__to 3000ms infinite linear}@keyframes elndmcqpsud151_to__to { 0% {transform: translate(691.866929px,722.438304px)} 100% {transform: translate(1928.192708px,722.005367px)} }#elndmcqpsud151 {animation: elndmcqpsud151_c_o 3000ms infinite linear}@keyframes elndmcqpsud151_c_o { 0% {opacity: 1} 100% {opacity: 0} }#elndmcqpsud152_to {animation: elndmcqpsud152_to__to 3000ms infinite linear}@keyframes elndmcqpsud152_to__to { 0% {transform: translate(153.512245px,458.502670px)} 100% {transform: translate(768.763070px,460.999989px)} }#elndmcqpsud152 {animation: elndmcqpsud152_c_o 3000ms infinite linear}@keyframes elndmcqpsud152_c_o { 0% {opacity: 1} 100% {opacity: 0} }#elndmcqpsud153_to {animation: elndmcqpsud153_to__to 3000ms infinite linear}@keyframes elndmcqpsud153_to__to { 0% {transform: translate(26.233622px,760.567056px)} 100% {transform: translate(411.114654px,741.502675px)} }#elndmcqpsud153 {animation: elndmcqpsud153_c_o 3000ms infinite linear}@keyframes elndmcqpsud153_c_o { 0% {opacity: 1} 100% {opacity: 0} }#elndmcqpsud154_to {animation: elndmcqpsud154_to__to 3000ms infinite linear}@keyframes elndmcqpsud154_to__to { 0% {transform: translate(1197.000134px,458.502670px)} 100% {transform: translate(1819.326389px,460.999989px)} }#elndmcqpsud154 {animation: elndmcqpsud154_c_o 3000ms infinite linear}@keyframes elndmcqpsud154_c_o { 0% {opacity: 1} 100% {opacity: 0} }#elndmcqpsud155_to {animation: elndmcqpsud155_to__to 3000ms infinite linear}@keyframes elndmcqpsud155_to__to { 0% {transform: translate(1003.000014px,818.626074px)} 100% {transform: translate(1612.505358px,818.626074px)} }#elndmcqpsud155 {animation: elndmcqpsud155_c_o 3000ms infinite linear}@keyframes elndmcqpsud155_c_o { 0% {opacity: 1} 100% {opacity: 0} }]]></style><defs><linearGradient id="elndmcqpsud3-fill" x1="976.500000" y1="0" x2="976.500000" y2="1691" spreadMethod="pad" gradientUnits="userSpaceOnUse"><stop id="elndmcqpsud3-fill-0" offset="0%" stop-color="rgb(255,123,172)"/><stop id="elndmcqpsud3-fill-1" offset="100%" stop-color="rgba(255,123,172,0)"/></linearGradient><linearGradient id="elndmcqpsud7-fill" x1="1561" y1="1010.977400" x2="1561" y2="1096.960400" spreadMethod="pad" gradientUnits="userSpaceOnUse"><stop id="elndmcqpsud7-fill-0" offset="0%" stop-color="rgb(14,191,0)"/><stop id="elndmcqpsud7-fill-1" offset="39.660000%" stop-color="rgba(16,192,0,0.6034)"/><stop id="elndmcqpsud7-fill-2" offset="53.940000%" stop-color="rgba(23,194,1,0.4606)"/><stop id="elndmcqpsud7-fill-3" offset="64.130000%" stop-color="rgba(34,198,2,0.3587)"/><stop id="elndmcqpsud7-fill-4" offset="72.370000%" stop-color="rgba(51,204,4,0.2763)"/><stop id="elndmcqpsud7-fill-5" offset="79.420000%" stop-color="rgba(73,211,7,0.2058)"/><stop id="elndmcqpsud7-fill-6" offset="85.670000%" stop-color="rgba(101,221,10,0.1433)"/><stop id="elndmcqpsud7-fill-7" offset="91.320000%" stop-color="rgba(133,232,13,0.0868)"/><stop id="elndmcqpsud7-fill-8" offset="96.340000%" stop-color="rgba(169,244,17,0.0366)"/><stop id="elndmcqpsud7-fill-9" offset="100%" stop-color="rgba(201,255,21,0)"/></linearGradient><linearGradient id="elndmcqpsud16-fill" x1="1443" y1="970.639600" x2="1443" y2="1056.622700" spreadMethod="pad" gradientUnits="userSpaceOnUse"><stop id="elndmcqpsud16-fill-0" offset="0%" stop-color="rgb(14,191,0)"/><stop id="elndmcqpsud16-fill-1" offset="39.660000%" stop-color="rgba(16,192,0,0.6034)"/><stop id="elndmcqpsud16-fill-2" offset="53.940000%" stop-color="rgba(23,194,1,0.4606)"/><stop id="elndmcqpsud16-fill-3" offset="64.130000%" stop-color="rgba(34,198,2,0.3587)"/><stop id="elndmcqpsud16-fill-4" offset="72.370000%" stop-color="rgba(51,204,4,0.2763)"/><stop id="elndmcqpsud16-fill-5" offset="79.420000%" stop-color="rgba(73,211,7,0.2058)"/><stop id="elndmcqpsud16-fill-6" offset="85.670000%" stop-color="rgba(101,221,10,0.1433)"/><stop id="elndmcqpsud16-fill-7" offset="91.320000%" stop-color="rgba(133,232,13,0.0868)"/><stop id="elndmcqpsud16-fill-8" offset="96.340000%" stop-color="rgba(169,244,17,0.0366)"/><stop id="elndmcqpsud16-fill-9" offset="100%" stop-color="rgba(201,255,21,0)"/></linearGradient><linearGradient id="elndmcqpsud25-fill" x1="1312" y1="1079.976200" x2="1312" y2="1165.959200" spreadMethod="pad" gradientUnits="userSpaceOnUse"><stop id="elndmcqpsud25-fill-0" offset="0%" stop-color="rgb(14,191,0)"/><stop id="elndmcqpsud25-fill-1" offset="39.660000%" stop-color="rgba(16,192,0,0.6034)"/><stop id="elndmcqpsud25-fill-2" offset="53.940000%" stop-color="rgba(23,194,1,0.4606)"/><stop id="elndmcqpsud25-fill-3" offset="64.130000%" stop-color="rgba(34,198,2,0.3587)"/><stop id="elndmcqpsud25-fill-4" offset="72.370000%" stop-color="rgba(51,204,4,0.2763)"/><stop id="elndmcqpsud25-fill-5" offset="79.420000%" stop-color="rgba(73,211,7,0.2058)"/><stop id="elndmcqpsud25-fill-6" offset="85.670000%" stop-color="rgba(101,221,10,0.1433)"/><stop id="elndmcqpsud25-fill-7" offset="91.320000%" stop-color="rgba(133,232,13,0.0868)"/><stop id="elndmcqpsud25-fill-8" offset="96.340000%" stop-color="rgba(169,244,17,0.0366)"/><stop id="elndmcqpsud25-fill-9" offset="100%" stop-color="rgba(201,255,21,0)"/></linearGradient><linearGradient id="elndmcqpsud34-fill" x1="1224" y1="968.516700" x2="1224" y2="1054.499600" spreadMethod="pad" gradientUnits="userSpaceOnUse"><stop id="elndmcqpsud34-fill-0" offset="0%" stop-color="rgb(14,191,0)"/><stop id="elndmcqpsud34-fill-1" offset="39.660000%" stop-color="rgba(16,192,0,0.6034)"/><stop id="elndmcqpsud34-fill-2" offset="53.940000%" stop-color="rgba(23,194,1,0.4606)"/><stop id="elndmcqpsud34-fill-3" offset="64.130000%" stop-color="rgba(34,198,2,0.3587)"/><stop id="elndmcqpsud34-fill-4" offset="72.370000%" stop-color="rgba(51,204,4,0.2763)"/><stop id="elndmcqpsud34-fill-5" offset="79.420000%" stop-color="rgba(73,211,7,0.2058)"/><stop id="elndmcqpsud34-fill-6" offset="85.670000%" stop-color="rgba(101,221,10,0.1433)"/><stop id="elndmcqpsud34-fill-7" offset="91.320000%" stop-color="rgba(133,232,13,0.0868)"/><stop id="elndmcqpsud34-fill-8" offset="96.340000%" stop-color="rgba(169,244,17,0.0366)"/><stop id="elndmcqpsud34-fill-9" offset="100%" stop-color="rgba(201,255,21,0)"/></linearGradient><linearGradient id="elndmcqpsud43-fill" x1="1117" y1="1130.929100" x2="1117" y2="1216.912100" spreadMethod="pad" gradientUnits="userSpaceOnUse"><stop id="elndmcqpsud43-fill-0" offset="0%" stop-color="rgb(14,191,0)"/><stop id="elndmcqpsud43-fill-1" offset="39.660000%" stop-color="rgba(16,192,0,0.6034)"/><stop id="elndmcqpsud43-fill-2" offset="53.940000%" stop-color="rgba(23,194,1,0.4606)"/><stop id="elndmcqpsud43-fill-3" offset="64.130000%" stop-color="rgba(34,198,2,0.3587)"/><stop id="elndmcqpsud43-fill-4" offset="72.370000%" stop-color="rgba(51,204,4,0.2763)"/><stop id="elndmcqpsud43-fill-5" offset="79.420000%" stop-color="rgba(73,211,7,0.2058)"/><stop id="elndmcqpsud43-fill-6" offset="85.670000%" stop-color="rgba(101,221,10,0.1433)"/><stop id="elndmcqpsud43-fill-7" offset="91.320000%" stop-color="rgba(133,232,13,0.0868)"/><stop id="elndmcqpsud43-fill-8" offset="96.340000%" stop-color="rgba(169,244,17,0.0366)"/><stop id="elndmcqpsud43-fill-9" offset="100%" stop-color="rgba(201,255,21,0)"/></linearGradient><linearGradient id="elndmcqpsud52-fill" x1="1006" y1="1017.346500" x2="1006" y2="1103.329600" spreadMethod="pad" gradientUnits="userSpaceOnUse"><stop id="elndmcqpsud52-fill-0" offset="0%" stop-color="rgb(14,191,0)"/><stop id="elndmcqpsud52-fill-1" offset="39.660000%" stop-color="rgba(16,192,0,0.6034)"/><stop id="elndmcqpsud52-fill-2" offset="53.940000%" stop-color="rgba(23,194,1,0.4606)"/><stop id="elndmcqpsud52-fill-3" offset="64.130000%" stop-color="rgba(34,198,2,0.3587)"/><stop id="elndmcqpsud52-fill-4" offset="72.370000%" stop-color="rgba(51,204,4,0.2763)"/><stop id="elndmcqpsud52-fill-5" offset="79.420000%" stop-color="rgba(73,211,7,0.2058)"/><stop id="elndmcqpsud52-fill-6" offset="85.670000%" stop-color="rgba(101,221,10,0.1433)"/><stop id="elndmcqpsud52-fill-7" offset="91.320000%" stop-color="rgba(133,232,13,0.0868)"/><stop id="elndmcqpsud52-fill-8" offset="96.340000%" stop-color="rgba(169,244,17,0.0366)"/><stop id="elndmcqpsud52-fill-9" offset="100%" stop-color="rgba(201,255,21,0)"/></linearGradient><linearGradient id="elndmcqpsud61-fill" x1="952" y1="1167.020800" x2="952" y2="1253.003800" spreadMethod="pad" gradientUnits="userSpaceOnUse"><stop id="elndmcqpsud61-fill-0" offset="0%" stop-color="rgb(14,191,0)"/><stop id="elndmcqpsud61-fill-1" offset="39.660000%" stop-color="rgba(16,192,0,0.6034)"/><stop id="elndmcqpsud61-fill-2" offset="53.940000%" stop-color="rgba(23,194,1,0.4606)"/><stop id="elndmcqpsud61-fill-3" offset="64.130000%" stop-color="rgba(34,198,2,0.3587)"/><stop id="elndmcqpsud61-fill-4" offset="72.370000%" stop-color="rgba(51,204,4,0.2763)"/><stop id="elndmcqpsud61-fill-5" offset="79.420000%" stop-color="rgba(73,211,7,0.2058)"/><stop id="elndmcqpsud61-fill-6" offset="85.670000%" stop-color="rgba(101,221,10,0.1433)"/><stop id="elndmcqpsud61-fill-7" offset="91.320000%" stop-color="rgba(133,232,13,0.0868)"/><stop id="elndmcqpsud61-fill-8" offset="96.340000%" stop-color="rgba(169,244,17,0.0366)"/><stop id="elndmcqpsud61-fill-9" offset="100%" stop-color="rgba(201,255,21,0)"/></linearGradient><linearGradient id="elndmcqpsud70-fill" x1="1251" y1="1248.757700" x2="1251" y2="1334.740700" spreadMethod="pad" gradientUnits="userSpaceOnUse"><stop id="elndmcqpsud70-fill-0" offset="0%" stop-color="rgb(14,191,0)"/><stop id="elndmcqpsud70-fill-1" offset="39.660000%" stop-color="rgba(16,192,0,0.6034)"/><stop id="elndmcqpsud70-fill-2" offset="53.940000%" stop-color="rgba(23,194,1,0.4606)"/><stop id="elndmcqpsud70-fill-3" offset="64.130000%" stop-color="rgba(34,198,2,0.3587)"/><stop id="elndmcqpsud70-fill-4" offset="72.370000%" stop-color="rgba(51,204,4,0.2763)"/><stop id="elndmcqpsud70-fill-5" offset="79.420000%" stop-color="rgba(73,211,7,0.2058)"/><stop id="elndmcqpsud70-fill-6" offset="85.670000%" stop-color="rgba(101,221,10,0.1433)"/><stop id="elndmcqpsud70-fill-7" offset="91.320000%" stop-color="rgba(133,232,13,0.0868)"/><stop id="elndmcqpsud70-fill-8" offset="96.340000%" stop-color="rgba(169,244,17,0.0366)"/><stop id="elndmcqpsud70-fill-9" offset="100%" stop-color="rgba(201,255,21,0)"/></linearGradient><linearGradient id="elndmcqpsud79-fill" x1="1408" y1="1254.065300" x2="1408" y2="1340.048300" spreadMethod="pad" gradientUnits="userSpaceOnUse"><stop id="elndmcqpsud79-fill-0" offset="0%" stop-color="rgb(14,191,0)"/><stop id="elndmcqpsud79-fill-1" offset="39.660000%" stop-color="rgba(16,192,0,0.6034)"/><stop id="elndmcqpsud79-fill-2" offset="53.940000%" stop-color="rgba(23,194,1,0.4606)"/><stop id="elndmcqpsud79-fill-3" offset="64.130000%" stop-color="rgba(34,198,2,0.3587)"/><stop id="elndmcqpsud79-fill-4" offset="72.370000%" stop-color="rgba(51,204,4,0.2763)"/><stop id="elndmcqpsud79-fill-5" offset="79.420000%" stop-color="rgba(73,211,7,0.2058)"/><stop id="elndmcqpsud79-fill-6" offset="85.670000%" stop-color="rgba(101,221,10,0.1433)"/><stop id="elndmcqpsud79-fill-7" offset="91.320000%" stop-color="rgba(133,232,13,0.0868)"/><stop id="elndmcqpsud79-fill-8" offset="96.340000%" stop-color="rgba(169,244,17,0.0366)"/><stop id="elndmcqpsud79-fill-9" offset="100%" stop-color="rgba(201,255,21,0)"/></linearGradient><linearGradient id="elndmcqpsud88-fill" x1="1655" y1="1246.634600" x2="1655" y2="1332.617700" spreadMethod="pad" gradientUnits="userSpaceOnUse"><stop id="elndmcqpsud88-fill-0" offset="0%" stop-color="rgb(14,191,0)"/><stop id="elndmcqpsud88-fill-1" offset="39.660000%" stop-color="rgba(16,192,0,0.6034)"/><stop id="elndmcqpsud88-fill-2" offset="53.940000%" stop-color="rgba(23,194,1,0.4606)"/><stop id="elndmcqpsud88-fill-3" offset="64.130000%" stop-color="rgba(34,198,2,0.3587)"/><stop id="elndmcqpsud88-fill-4" offset="72.370000%" stop-color="rgba(51,204,4,0.2763)"/><stop id="elndmcqpsud88-fill-5" offset="79.420000%" stop-color="rgba(73,211,7,0.2058)"/><stop id="elndmcqpsud88-fill-6" offset="85.670000%" stop-color="rgba(101,221,10,0.1433)"/><stop id="elndmcqpsud88-fill-7" offset="91.320000%" stop-color="rgba(133,232,13,0.0868)"/><stop id="elndmcqpsud88-fill-8" offset="96.340000%" stop-color="rgba(169,244,17,0.0366)"/><stop id="elndmcqpsud88-fill-9" offset="100%" stop-color="rgba(201,255,21,0)"/></linearGradient><linearGradient id="elndmcqpsud97-fill" x1="1507" y1="1161.713100" x2="1507" y2="1247.696200" spreadMethod="pad" gradientUnits="userSpaceOnUse"><stop id="elndmcqpsud97-fill-0" offset="0%" stop-color="rgb(14,191,0)"/><stop id="elndmcqpsud97-fill-1" offset="39.660000%" stop-color="rgba(16,192,0,0.6034)"/><stop id="elndmcqpsud97-fill-2" offset="53.940000%" stop-color="rgba(23,194,1,0.4606)"/><stop id="elndmcqpsud97-fill-3" offset="64.130000%" stop-color="rgba(34,198,2,0.3587)"/><stop id="elndmcqpsud97-fill-4" offset="72.370000%" stop-color="rgba(51,204,4,0.2763)"/><stop id="elndmcqpsud97-fill-5" offset="79.420000%" stop-color="rgba(73,211,7,0.2058)"/><stop id="elndmcqpsud97-fill-6" offset="85.670000%" stop-color="rgba(101,221,10,0.1433)"/><stop id="elndmcqpsud97-fill-7" offset="91.320000%" stop-color="rgba(133,232,13,0.0868)"/><stop id="elndmcqpsud97-fill-8" offset="96.340000%" stop-color="rgba(169,244,17,0.0366)"/><stop id="elndmcqpsud97-fill-9" offset="100%" stop-color="rgba(201,255,21,0)"/></linearGradient><linearGradient id="elndmcqpsud106-fill" x1="1757" y1="1092.714400" x2="1757" y2="1178.697400" spreadMethod="pad" gradientUnits="userSpaceOnUse"><stop id="elndmcqpsud106-fill-0" offset="0%" stop-color="rgb(14,191,0)"/><stop id="elndmcqpsud106-fill-1" offset="39.660000%" stop-color="rgba(16,192,0,0.6034)"/><stop id="elndmcqpsud106-fill-2" offset="53.940000%" stop-color="rgba(23,194,1,0.4606)"/><stop id="elndmcqpsud106-fill-3" offset="64.130000%" stop-color="rgba(34,198,2,0.3587)"/><stop id="elndmcqpsud106-fill-4" offset="72.370000%" stop-color="rgba(51,204,4,0.2763)"/><stop id="elndmcqpsud106-fill-5" offset="79.420000%" stop-color="rgba(73,211,7,0.2058)"/><stop id="elndmcqpsud106-fill-6" offset="85.670000%" stop-color="rgba(101,221,10,0.1433)"/><stop id="elndmcqpsud106-fill-7" offset="91.320000%" stop-color="rgba(133,232,13,0.0868)"/><stop id="elndmcqpsud106-fill-8" offset="96.340000%" stop-color="rgba(169,244,17,0.0366)"/><stop id="elndmcqpsud106-fill-9" offset="100%" stop-color="rgba(201,255,21,0)"/></linearGradient></defs><g id="elndmcqpsud2"><rect id="elndmcqpsud3" width="1953" height="1691" rx="0" ry="0" fill="url(#elndmcqpsud3-fill)" stroke="none" stroke-width="1"/></g><path id="elndmcqpsud4" d="M0,1150.980000C293.220000,1036.520000,617.040000,982.140000,970.760000,1083.110000C1348.440000,1021.030000,1669.060000,1062.130000,1953,1193.750000L1953,1699L0.510000,1699L0,1150.980000Z" opacity="0.75" fill="rgb(124,191,119)" stroke="none" stroke-width="1"/><g id="elndmcqpsud5"><g id="elndmcqpsud6"><path id="elndmcqpsud7" d="M1561,1096.960000L1561,1096.960000C1546.090000,1096.960000,1534,1084.870000,1534,1069.960000L1534,1037.980000C1534,1023.070000,1546.090000,1010.980000,1561,1010.980000L1561,1010.980000C1575.910000,1010.980000,1588,1023.070000,1588,1037.980000L1588,1069.960000C1588,1084.870000,1575.910000,1096.960000,1561,1096.960000Z" fill="url(#elndmcqpsud7-fill)" stroke="none" stroke-width="1"/></g><g id="elndmcqpsud8"><line id="elndmcqpsud9" x1="1561" y1="1049.190000" x2="1561" y2="1135.180000" fill="none" stroke="rgb(73,51,3)" stroke-width="2" stroke-miterlimit="10"/></g><g id="elndmcqpsud10"><line id="elndmcqpsud11" x1="1569.500000" y1="1069.890000" x2="1561" y2="1087.170000" fill="none" stroke="rgb(73,51,3)" stroke-width="1" stroke-miterlimit="10"/></g><g id="elndmcqpsud12"><line id="elndmcqpsud13" x1="1554.500000" y1="1063.520000" x2="1561.500000" y2="1072.310000" fill="none" stroke="rgb(73,51,3)" stroke-width="1" stroke-miterlimit="10"/></g></g><g id="elndmcqpsud14"><g id="elndmcqpsud15"><path id="elndmcqpsud16" d="M1443,1056.620000L1443,1056.620000C1428.090000,1056.620000,1416,1044.530000,1416,1029.620000L1416,997.640000C1416,982.730000,1428.090000,970.640000,1443,970.640000L1443,970.640000C1457.910000,970.640000,1470,982.730000,1470,997.640000L1470,1029.620000C1470,1044.530000,1457.910000,1056.620000,1443,1056.620000Z" fill="url(#elndmcqpsud16-fill)" stroke="none" stroke-width="1"/></g><g id="elndmcqpsud17"><line id="elndmcqpsud18" x1="1443" y1="1008.850000" x2="1443" y2="1094.840000" fill="none" stroke="rgb(73,51,3)" stroke-width="2" stroke-miterlimit="10"/></g><g id="elndmcqpsud19"><line id="elndmcqpsud20" x1="1451.500000" y1="1029.550000" x2="1443" y2="1046.830000" fill="none" stroke="rgb(73,51,3)" stroke-width="1" stroke-miterlimit="10"/></g><g id="elndmcqpsud21"><line id="elndmcqpsud22" x1="1436.500000" y1="1023.180000" x2="1443.500000" y2="1031.970000" fill="none" stroke="rgb(73,51,3)" stroke-width="1" stroke-miterlimit="10"/></g></g><g id="elndmcqpsud23"><g id="elndmcqpsud24"><path id="elndmcqpsud25" d="M1312,1165.960000L1312,1165.960000C1297.090000,1165.960000,1285,1153.870000,1285,1138.960000L1285,1106.980000C1285,1092.070000,1297.090000,1079.980000,1312,1079.980000L1312,1079.980000C1326.910000,1079.980000,1339,1092.070000,1339,1106.980000L1339,1138.960000C1339,1153.870000,1326.910000,1165.960000,1312,1165.960000Z" fill="url(#elndmcqpsud25-fill)" stroke="none" stroke-width="1"/></g><g id="elndmcqpsud26"><line id="elndmcqpsud27" x1="1312" y1="1118.190000" x2="1312" y2="1204.170000" fill="none" stroke="rgb(73,51,3)" stroke-width="2" stroke-miterlimit="10"/></g><g id="elndmcqpsud28"><line id="elndmcqpsud29" x1="1320.500000" y1="1138.890000" x2="1312" y2="1156.170000" fill="none" stroke="rgb(73,51,3)" stroke-width="1" stroke-miterlimit="10"/></g><g id="elndmcqpsud30"><line id="elndmcqpsud31" x1="1305.500000" y1="1132.520000" x2="1312.500000" y2="1141.310000" fill="none" stroke="rgb(73,51,3)" stroke-width="1" stroke-miterlimit="10"/></g></g><g id="elndmcqpsud32"><g id="elndmcqpsud33"><path id="elndmcqpsud34" d="M1224,1054.500000L1224,1054.500000C1209.090000,1054.500000,1197,1042.410000,1197,1027.500000L1197,995.520000C1197,980.610000,1209.090000,968.520000,1224,968.520000L1224,968.520000C1238.910000,968.520000,1251,980.610000,1251,995.520000L1251,1027.500000C1251,1042.410000,1238.910000,1054.500000,1224,1054.500000Z" fill="url(#elndmcqpsud34-fill)" stroke="none" stroke-width="1"/></g><g id="elndmcqpsud35"><line id="elndmcqpsud36" x1="1224" y1="1006.730000" x2="1224" y2="1092.710000" fill="none" stroke="rgb(73,51,3)" stroke-width="2" stroke-miterlimit="10"/></g><g id="elndmcqpsud37"><line id="elndmcqpsud38" x1="1232.500000" y1="1027.430000" x2="1224" y2="1044.710000" fill="none" stroke="rgb(73,51,3)" stroke-width="1" stroke-miterlimit="10"/></g><g id="elndmcqpsud39"><line id="elndmcqpsud40" x1="1217.500000" y1="1021.060000" x2="1224.500000" y2="1029.850000" fill="none" stroke="rgb(73,51,3)" stroke-width="1" stroke-miterlimit="10"/></g></g><g id="elndmcqpsud41"><g id="elndmcqpsud42"><path id="elndmcqpsud43" d="M1117,1216.910000L1117,1216.910000C1102.090000,1216.910000,1090,1204.820000,1090,1189.910000L1090,1157.930000C1090,1143.020000,1102.090000,1130.930000,1117,1130.930000L1117,1130.930000C1131.910000,1130.930000,1144,1143.020000,1144,1157.930000L1144,1189.910000C1144,1204.820000,1131.910000,1216.910000,1117,1216.910000Z" fill="url(#elndmcqpsud43-fill)" stroke="none" stroke-width="1"/></g><g id="elndmcqpsud44"><line id="elndmcqpsud45" x1="1117" y1="1169.140000" x2="1117" y2="1255.130000" fill="none" stroke="rgb(73,51,3)" stroke-width="2" stroke-miterlimit="10"/></g><g id="elndmcqpsud46"><line id="elndmcqpsud47" x1="1125.500000" y1="1189.840000" x2="1117" y2="1207.120000" fill="none" stroke="rgb(73,51,3)" stroke-width="1" stroke-miterlimit="10"/></g><g id="elndmcqpsud48"><line id="elndmcqpsud49" x1="1110.500000" y1="1183.470000" x2="1117.500000" y2="1192.260000" fill="none" stroke="rgb(73,51,3)" stroke-width="1" stroke-miterlimit="10"/></g></g><g id="elndmcqpsud50"><g id="elndmcqpsud51"><path id="elndmcqpsud52" d="M1006,1103.330000L1006,1103.330000C991.090000,1103.330000,979,1091.240000,979,1076.330000L979,1044.350000C979,1029.440000,991.090000,1017.350000,1006,1017.350000L1006,1017.350000C1020.910000,1017.350000,1033,1029.440000,1033,1044.350000L1033,1076.330000C1033,1091.240000,1020.910000,1103.330000,1006,1103.330000Z" fill="url(#elndmcqpsud52-fill)" stroke="none" stroke-width="1"/></g><g id="elndmcqpsud53"><line id="elndmcqpsud54" x1="1006" y1="1055.560000" x2="1006" y2="1141.540000" fill="none" stroke="rgb(73,51,3)" stroke-width="2" stroke-miterlimit="10"/></g><g id="elndmcqpsud55"><line id="elndmcqpsud56" x1="1014.500000" y1="1076.260000" x2="1006" y2="1093.540000" fill="none" stroke="rgb(73,51,3)" stroke-width="1" stroke-miterlimit="10"/></g><g id="elndmcqpsud57"><line id="elndmcqpsud58" x1="999.500000" y1="1069.890000" x2="1006.500000" y2="1078.680000" fill="none" stroke="rgb(73,51,3)" stroke-width="1" stroke-miterlimit="10"/></g></g><g id="elndmcqpsud59"><g id="elndmcqpsud60"><path id="elndmcqpsud61" d="M952,1253L952,1253C937.090000,1253,925,1240.910000,925,1226L925,1194.020000C925,1179.110000,937.090000,1167.020000,952,1167.020000L952,1167.020000C966.910000,1167.020000,979,1179.110000,979,1194.020000L979,1226C979,1240.920000,966.910000,1253,952,1253Z" fill="url(#elndmcqpsud61-fill)" stroke="none" stroke-width="1"/></g><g id="elndmcqpsud62"><line id="elndmcqpsud63" x1="952" y1="1205.240000" x2="952" y2="1291.220000" fill="none" stroke="rgb(73,51,3)" stroke-width="2" stroke-miterlimit="10"/></g><g id="elndmcqpsud64"><line id="elndmcqpsud65" x1="960.500000" y1="1225.940000" x2="952" y2="1243.210000" fill="none" stroke="rgb(73,51,3)" stroke-width="1" stroke-miterlimit="10"/></g><g id="elndmcqpsud66"><line id="elndmcqpsud67" x1="945.500000" y1="1219.570000" x2="952.500000" y2="1228.350000" fill="none" stroke="rgb(73,51,3)" stroke-width="1" stroke-miterlimit="10"/></g></g><g id="elndmcqpsud68"><g id="elndmcqpsud69"><path id="elndmcqpsud70" d="M1251,1334.740000L1251,1334.740000C1236.090000,1334.740000,1224,1322.650000,1224,1307.740000L1224,1275.760000C1224,1260.850000,1236.090000,1248.760000,1251,1248.760000L1251,1248.760000C1265.910000,1248.760000,1278,1260.850000,1278,1275.760000L1278,1307.740000C1278,1322.650000,1265.910000,1334.740000,1251,1334.740000Z" fill="url(#elndmcqpsud70-fill)" stroke="none" stroke-width="1"/></g><g id="elndmcqpsud71"><line id="elndmcqpsud72" x1="1251" y1="1286.970000" x2="1251" y2="1372.960000" fill="none" stroke="rgb(73,51,3)" stroke-width="2" stroke-miterlimit="10"/></g><g id="elndmcqpsud73"><line id="elndmcqpsud74" x1="1259.500000" y1="1307.670000" x2="1251" y2="1324.950000" fill="none" stroke="rgb(73,51,3)" stroke-width="1" stroke-miterlimit="10"/></g><g id="elndmcqpsud75"><line id="elndmcqpsud76" x1="1244.500000" y1="1301.300000" x2="1251.500000" y2="1310.090000" fill="none" stroke="rgb(73,51,3)" stroke-width="1" stroke-miterlimit="10"/></g></g><g id="elndmcqpsud77"><g id="elndmcqpsud78"><path id="elndmcqpsud79" d="M1408,1340.050000L1408,1340.050000C1393.090000,1340.050000,1381,1327.960000,1381,1313.050000L1381,1281.070000C1381,1266.160000,1393.090000,1254.070000,1408,1254.070000L1408,1254.070000C1422.910000,1254.070000,1435,1266.160000,1435,1281.070000L1435,1313.050000C1435,1327.960000,1422.910000,1340.050000,1408,1340.050000Z" fill="url(#elndmcqpsud79-fill)" stroke="none" stroke-width="1"/></g><g id="elndmcqpsud80"><line id="elndmcqpsud81" x1="1408" y1="1292.280000" x2="1408" y2="1378.260000" fill="none" stroke="rgb(73,51,3)" stroke-width="2" stroke-miterlimit="10"/></g><g id="elndmcqpsud82"><line id="elndmcqpsud83" x1="1416.500000" y1="1312.980000" x2="1408" y2="1330.260000" fill="none" stroke="rgb(73,51,3)" stroke-width="1" stroke-miterlimit="10"/></g><g id="elndmcqpsud84"><line id="elndmcqpsud85" x1="1401.500000" y1="1306.610000" x2="1408.500000" y2="1315.400000" fill="none" stroke="rgb(73,51,3)" stroke-width="1" stroke-miterlimit="10"/></g></g><g id="elndmcqpsud86"><g id="elndmcqpsud87"><path id="elndmcqpsud88" d="M1655,1332.620000L1655,1332.620000C1640.090000,1332.620000,1628,1320.530000,1628,1305.620000L1628,1273.640000C1628,1258.730000,1640.090000,1246.640000,1655,1246.640000L1655,1246.640000C1669.910000,1246.640000,1682,1258.730000,1682,1273.640000L1682,1305.620000C1682,1320.530000,1669.910000,1332.620000,1655,1332.620000Z" fill="url(#elndmcqpsud88-fill)" stroke="none" stroke-width="1"/></g><g id="elndmcqpsud89"><line id="elndmcqpsud90" x1="1655" y1="1284.850000" x2="1655" y2="1370.830000" fill="none" stroke="rgb(73,51,3)" stroke-width="2" stroke-miterlimit="10"/></g><g id="elndmcqpsud91"><line id="elndmcqpsud92" x1="1663.500000" y1="1305.550000" x2="1655" y2="1322.830000" fill="none" stroke="rgb(73,51,3)" stroke-width="1" stroke-miterlimit="10"/></g><g id="elndmcqpsud93"><line id="elndmcqpsud94" x1="1648.500000" y1="1299.180000" x2="1655.500000" y2="1307.960000" fill="none" stroke="rgb(73,51,3)" stroke-width="1" stroke-miterlimit="10"/></g></g><g id="elndmcqpsud95"><g id="elndmcqpsud96"><path id="elndmcqpsud97" d="M1507,1247.700000L1507,1247.700000C1492.090000,1247.700000,1480,1235.610000,1480,1220.700000L1480,1188.720000C1480,1173.810000,1492.090000,1161.720000,1507,1161.720000L1507,1161.720000C1521.910000,1161.720000,1534,1173.810000,1534,1188.720000L1534,1220.700000C1534,1235.610000,1521.910000,1247.700000,1507,1247.700000Z" fill="url(#elndmcqpsud97-fill)" stroke="none" stroke-width="1"/></g><g id="elndmcqpsud98"><line id="elndmcqpsud99" x1="1507" y1="1199.930000" x2="1507" y2="1285.910000" fill="none" stroke="rgb(73,51,3)" stroke-width="2" stroke-miterlimit="10"/></g><g id="elndmcqpsud100"><line id="elndmcqpsud101" x1="1515.500000" y1="1220.630000" x2="1507" y2="1237.900000" fill="none" stroke="rgb(73,51,3)" stroke-width="1" stroke-miterlimit="10"/></g><g id="elndmcqpsud102"><line id="elndmcqpsud103" x1="1500.500000" y1="1214.260000" x2="1507.500000" y2="1223.040000" fill="none" stroke="rgb(73,51,3)" stroke-width="1" stroke-miterlimit="10"/></g></g><g id="elndmcqpsud104"><g id="elndmcqpsud105"><path id="elndmcqpsud106" d="M1757,1178.700000L1757,1178.700000C1742.090000,1178.700000,1730,1166.610000,1730,1151.700000L1730,1119.720000C1730,1104.810000,1742.090000,1092.720000,1757,1092.720000L1757,1092.720000C1771.910000,1092.720000,1784,1104.810000,1784,1119.720000L1784,1151.700000C1784,1166.610000,1771.910000,1178.700000,1757,1178.700000Z" fill="url(#elndmcqpsud106-fill)" stroke="none" stroke-width="1"/></g><g id="elndmcqpsud107"><line id="elndmcqpsud108" x1="1757" y1="1130.930000" x2="1757" y2="1216.910000" fill="none" stroke="rgb(73,51,3)" stroke-width="2" stroke-miterlimit="10"/></g><g id="elndmcqpsud109"><line id="elndmcqpsud110" x1="1765.500000" y1="1151.630000" x2="1757" y2="1168.910000" fill="none" stroke="rgb(73,51,3)" stroke-width="1" stroke-miterlimit="10"/></g><g id="elndmcqpsud111"><line id="elndmcqpsud112" x1="1750.500000" y1="1145.260000" x2="1757.500000" y2="1154.040000" fill="none" stroke="rgb(73,51,3)" stroke-width="1" stroke-miterlimit="10"/></g></g><path id="elndmcqpsud113" d="M1039.820000,1282.200000L1036.640000,1273.710000L1043.880000,1280.610000L1042.430000,1270.530000C1042.430000,1270.530000,1047.060000,1281.150000,1047.060000,1280.610000C1047.060000,1280.070000,1047.930000,1267.870000,1047.930000,1267.870000L1050.250000,1280.080000L1054.010000,1267.870000L1054.010000,1279.550000L1059.800000,1270.530000L1057.770000,1279.550000L1064.140000,1273.180000L1061.820000,1281.670000L1039.820000,1282.200000Z" fill="rgb(18,104,9)" stroke="none" stroke-width="1"/><path id="elndmcqpsud114" d="M1103.820000,1110.200000L1100.640000,1101.710000L1107.880000,1108.610000L1106.430000,1098.530000C1106.430000,1098.530000,1111.060000,1109.150000,1111.060000,1108.610000C1111.060000,1108.070000,1111.930000,1095.870000,1111.930000,1095.870000L1114.250000,1108.080000L1118.010000,1095.870000L1118.010000,1107.550000L1123.800000,1098.530000L1121.770000,1107.550000L1128.140000,1101.180000L1125.820000,1109.670000L1103.820000,1110.200000Z" fill="rgb(18,104,9)" stroke="none" stroke-width="1"/><path id="elndmcqpsud115" d="M1590.820000,1392.590000L1587.640000,1384.100000L1594.880000,1391L1593.430000,1380.920000C1593.430000,1380.920000,1598.060000,1391.540000,1598.060000,1391C1598.060000,1390.460000,1598.930000,1378.260000,1598.930000,1378.260000L1601.250000,1390.470000L1605.010000,1378.260000L1605.010000,1389.940000L1610.800000,1380.920000L1608.770000,1389.940000L1615.140000,1383.570000L1612.820000,1392.060000L1590.820000,1392.590000Z" fill="rgb(18,104,9)" stroke="none" stroke-width="1"/><path id="elndmcqpsud116" d="M843.820000,1166.490000L840.640000,1158L847.880000,1164.900000L846.430000,1154.820000C846.430000,1154.820000,851.060000,1165.440000,851.060000,1164.900000C851.060000,1164.360000,851.930000,1152.160000,851.930000,1152.160000L854.250000,1164.370000L858.010000,1152.160000L858.010000,1163.840000L863.800000,1154.820000L861.770000,1163.840000L868.140000,1157.470000L865.820000,1165.960000L843.820000,1166.490000Z" fill="rgb(18,104,9)" stroke="none" stroke-width="1"/><path id="elndmcqpsud117" d="M1342.820000,1253.530000L1339.640000,1245.040000L1346.880000,1251.940000L1345.430000,1241.860000C1345.430000,1241.860000,1350.060000,1252.480000,1350.060000,1251.940000C1350.060000,1251.400000,1350.930000,1239.200000,1350.930000,1239.200000L1353.250000,1251.410000L1357.010000,1239.200000L1357.010000,1250.880000L1362.800000,1241.860000L1360.770000,1250.880000L1367.140000,1244.510000L1364.820000,1253L1342.820000,1253.530000Z" fill="rgb(18,104,9)" stroke="none" stroke-width="1"/><path id="elndmcqpsud118" d="M1662.820000,1181.350000L1659.640000,1172.860000L1666.880000,1179.760000L1665.430000,1169.680000C1665.430000,1169.680000,1670.060000,1180.300000,1670.060000,1179.760000C1670.060000,1179.220000,1670.930000,1167.020000,1670.930000,1167.020000L1673.250000,1179.230000L1677.010000,1167.020000L1677.010000,1178.700000L1682.800000,1169.680000L1680.770000,1178.700000L1687.140000,1172.330000L1684.820000,1180.820000L1662.820000,1181.350000Z" fill="rgb(18,104,9)" stroke="none" stroke-width="1"/><path id="elndmcqpsud119" d="M1356.820000,1095.740000L1353.640000,1087.250000L1360.880000,1094.150000L1359.430000,1084.070000C1359.430000,1084.070000,1364.060000,1094.690000,1364.060000,1094.150000C1364.060000,1093.610000,1364.930000,1081.410000,1364.930000,1081.410000L1367.250000,1093.620000L1371.010000,1081.410000L1371.010000,1093.090000L1376.800000,1084.070000L1374.770000,1093.090000L1381.140000,1086.720000L1378.820000,1095.210000L1356.820000,1095.740000Z" fill="rgb(18,104,9)" stroke="none" stroke-width="1"/><g id="elndmcqpsud120"><path id="elndmcqpsud121" d="M576.260000,1165.270000L566.330000,1165.270000L586.190000,1205L546.010000,1204.870000L506.740000,1205L467.010000,1205L486.870000,1165.270000L476.940000,1165.270000L486.870000,1065.960000C486.870000,1044.020000,504.660000,1026.230000,526.600000,1026.230000L526.600000,1026.230000C548.540000,1026.230000,566.330000,1044.020000,566.330000,1065.960000L576.260000,1165.270000Z" fill="rgb(158,122,95)" stroke="rgb(117,56,10)" stroke-width="1" stroke-miterlimit="10"/><path id="elndmcqpsud122" d="M536.530000,1105.690000L516.670000,1105.690000L516.670000,1084.900000C516.670000,1079.930000,520.700000,1075.900000,525.670000,1075.900000L527.530000,1075.900000C532.500000,1075.900000,536.530000,1079.930000,536.530000,1084.900000L536.530000,1105.690000Z" fill="rgb(242,241,240)" stroke="rgb(117,56,10)" stroke-width="1" stroke-miterlimit="10"/><path id="elndmcqpsud123" d="M536.530000,1165.270000L516.670000,1165.270000L516.670000,1134.540000C516.670000,1129.570000,520.700000,1125.540000,525.670000,1125.540000L527.530000,1125.540000C532.500000,1125.540000,536.530000,1129.570000,536.530000,1134.540000L536.530000,1165.270000Z" fill="rgb(247,244,242)" stroke="rgb(117,56,10)" stroke-width="1" stroke-miterlimit="10"/></g><g id="elndmcqpsud124_tr" transform="translate(526.600006,1056.030029) rotate(0)"><g id="elndmcqpsud124" transform="translate(-526.600006,-1056.030029)"><circle id="elndmcqpsud125" r="7.640000" transform="matrix(1 0 0 1 526.60000000000002 1056.02999999999997)" fill="rgb(247,244,242)" stroke="rgb(0,0,0)" stroke-width="1" stroke-miterlimit="10"/><g id="elndmcqpsud126"><path id="elndmcqpsud127" d="M532,1061.430000L596.820000,1126.250000L586.020000,1137.050000L532,1083.040000L539.200000,1075.840000C542.800000,1072.240000,542.800000,1072.240000,542.800000,1072.240000" fill="rgb(150,147,146)" stroke="rgb(0,0,0)" stroke-width="2" stroke-miterlimit="10"/><line id="elndmcqpsud128" x1="553.560000" y1="1082.990000" x2="540.620000" y2="1095.930000" fill="rgb(150,147,146)" stroke="rgb(0,0,0)" stroke-width="2" stroke-miterlimit="10"/><line id="elndmcqpsud129" x1="564.410000" y1="1093.840000" x2="551.470000" y2="1106.780000" fill="rgb(150,147,146)" stroke="rgb(0,0,0)" stroke-width="2" stroke-miterlimit="10"/><line id="elndmcqpsud130" x1="575.220000" y1="1104.650000" x2="562.280000" y2="1117.590000" fill="none" stroke="rgb(0,0,0)" stroke-width="2" stroke-miterlimit="10"/><line id="elndmcqpsud131" x1="586.020000" y1="1115.450000" x2="573.080000" y2="1128.390000" fill="none" stroke="rgb(0,0,0)" stroke-width="2" stroke-miterlimit="10"/></g><g id="elndmcqpsud132"><path id="elndmcqpsud133" d="M532,1050.630000L596.820000,985.810000L607.620000,996.610000L553.600000,1050.630000L546.400000,1043.430000C542.800000,1039.830000,542.800000,1039.830000,542.800000,1039.830000" fill="rgb(150,147,146)" stroke="rgb(0,0,0)" stroke-width="2" stroke-miterlimit="10"/><line id="elndmcqpsud134" x1="553.560000" y1="1029.070000" x2="566.500000" y2="1042.010000" fill="rgb(150,147,146)" stroke="rgb(0,0,0)" stroke-width="2" stroke-miterlimit="10"/><line id="elndmcqpsud135" x1="564.410000" y1="1018.220000" x2="577.350000" y2="1031.160000" fill="rgb(150,147,146)" stroke="rgb(0,0,0)" stroke-width="2" stroke-miterlimit="10"/><line id="elndmcqpsud136" x1="575.220000" y1="1007.410000" x2="588.160000" y2="1020.350000" fill="none" stroke="rgb(0,0,0)" stroke-width="2" stroke-miterlimit="10"/><line id="elndmcqpsud137" x1="586.020000" y1="996.610000" x2="598.960000" y2="1009.550000" fill="none" stroke="rgb(0,0,0)" stroke-width="2" stroke-miterlimit="10"/></g><g id="elndmcqpsud138"><path id="elndmcqpsud139" d="M521.200000,1050.630000L456.380000,985.810000L467.180000,975.010000L521.200000,1029.030000L514,1036.230000C510.400000,1039.830000,510.400000,1039.830000,510.400000,1039.830000" fill="rgb(150,147,146)" stroke="rgb(0,0,0)" stroke-width="2" stroke-miterlimit="10"/><line id="elndmcqpsud140" x1="499.640000" y1="1029.070000" x2="512.580000" y2="1016.130000" fill="rgb(150,147,146)" stroke="rgb(0,0,0)" stroke-width="2" stroke-miterlimit="10"/><line id="elndmcqpsud141" x1="488.790000" y1="1018.220000" x2="501.730000" y2="1005.280000" fill="rgb(150,147,146)" stroke="rgb(0,0,0)" stroke-width="2" stroke-miterlimit="10"/><line id="elndmcqpsud142" x1="477.980000" y1="1007.410000" x2="490.920000" y2="994.470000" fill="none" stroke="rgb(0,0,0)" stroke-width="2" stroke-miterlimit="10"/><line id="elndmcqpsud143" x1="467.180000" y1="996.610000" x2="480.120000" y2="983.670000" fill="none" stroke="rgb(0,0,0)" stroke-width="2" stroke-miterlimit="10"/></g><g id="elndmcqpsud144"><path id="elndmcqpsud145" d="M521.200000,1061.430000L456.380000,1126.250000L445.580000,1115.450000L499.600000,1061.430000L506.800000,1068.630000C510.400000,1072.230000,510.400000,1072.230000,510.400000,1072.230000" fill="rgb(150,147,146)" stroke="rgb(0,0,0)" stroke-width="2" stroke-miterlimit="10"/><line id="elndmcqpsud146" x1="499.640000" y1="1082.990000" x2="486.700000" y2="1070.050000" fill="rgb(150,147,146)" stroke="rgb(0,0,0)" stroke-width="2" stroke-miterlimit="10"/><line id="elndmcqpsud147" x1="488.790000" y1="1093.840000" x2="475.850000" y2="1080.900000" fill="rgb(150,147,146)" stroke="rgb(0,0,0)" stroke-width="2" stroke-miterlimit="10"/><line id="elndmcqpsud148" x1="477.980000" y1="1104.650000" x2="465.040000" y2="1091.710000" fill="none" stroke="rgb(0,0,0)" stroke-width="2" stroke-miterlimit="10"/><line id="elndmcqpsud149" x1="467.180000" y1="1115.450000" x2="454.240000" y2="1102.510000" fill="none" stroke="rgb(0,0,0)" stroke-width="2" stroke-miterlimit="10"/></g></g></g><g id="elndmcqpsud150_to" transform="translate(779.637421,525.438293)"><path id="elndmcqpsud150" d="M631,550.680000C654.020000,527.650000,677.960000,515.340000,706,550.680000C746.400000,474.620000,788.790000,457.050000,835,550.680000C845.890000,531.400000,855.750000,528.410000,864,550.680000C893.110000,525.810000,909.490000,535.710000,924,550.680000C988.860000,559.130000,987.970000,562.890000,950,564L600,564C571.890000,560.160000,576.760000,555.810000,631,550.680000Z" transform="translate(-779.637421,-525.438293)" fill="rgb(247,247,247)" stroke="none" stroke-width="1"/></g><g id="elndmcqpsud151_to" transform="translate(691.866929,722.438304)"><path id="elndmcqpsud151" d="M1014.340000,754.270000C1025.980000,742.620000,1038.090000,736.400000,1052.270000,754.270000C1072.700000,715.810000,1094.140000,706.920000,1117.510000,754.270000C1123.020000,744.520000,1128,743.010000,1132.180000,754.270000C1146.900000,741.690000,1155.180000,746.700000,1162.520000,754.270000C1195.320000,758.540000,1194.870000,760.440000,1175.670000,761L998.670000,761C984.450000,759.060000,986.910000,756.860000,1014.340000,754.270000Z" transform="translate(-1089.512268,-741.502686)" fill="rgb(247,247,247)" stroke="none" stroke-width="1"/></g><g id="elndmcqpsud152_to" transform="translate(153.512245,458.502670)"><path id="elndmcqpsud152" d="M78.340000,471.270000C89.980000,459.620000,102.090000,453.400000,116.270000,471.270000C136.700000,432.810000,158.140000,423.920000,181.510000,471.270000C187.020000,461.520000,192,460.010000,196.180000,471.270000C210.900000,458.690000,219.180000,463.700000,226.520000,471.270000C259.320000,475.540000,258.870000,477.440000,239.670000,478L62.670000,478C48.450000,476.060000,50.910000,473.860000,78.340000,471.270000Z" transform="translate(-153.512245,-458.502670)" fill="rgb(247,247,247)" stroke="none" stroke-width="1"/></g><g id="elndmcqpsud153_to" transform="translate(26.233622,760.567056)"><path id="elndmcqpsud153" d="M262,766.680000C285.020000,743.650000,308.960000,731.340000,337,766.680000C377.400000,690.620000,419.790000,673.050000,466,766.680000C476.890000,747.400000,486.750000,744.410000,495,766.680000C524.110000,741.810000,540.490000,751.710000,555,766.680000C619.860000,775.130000,618.970000,778.890000,581,780L231,780C202.890000,776.160000,207.760000,771.810000,262,766.680000Z" transform="translate(-410.637436,-741.438293)" fill="rgb(247,247,247)" stroke="none" stroke-width="1"/></g><g id="elndmcqpsud154_to" transform="translate(1197.000134,458.502670)"><path id="elndmcqpsud154" d="M1324.680000,454.270000C1341.780000,442.620000,1359.560000,436.400000,1380.380000,454.270000C1410.380000,415.810000,1441.870000,406.920000,1476.180000,454.270000C1484.270000,444.520000,1491.590000,443.010000,1497.720000,454.270000C1519.340000,441.690000,1531.500000,446.700000,1542.280000,454.270000C1590.450000,458.540000,1589.790000,460.440000,1561.590000,461L1301.670000,461C1280.780000,459.060000,1284.400000,456.860000,1324.680000,454.270000Z" transform="translate(-1435.069580,-441.502670)" fill="rgb(247,247,247)" stroke="none" stroke-width="1"/></g><g id="elndmcqpsud155_to" transform="translate(1003.000014,818.626074)"><path id="elndmcqpsud155" d="M1375,886.680000C1398.020000,863.650000,1421.960000,851.340000,1450,886.680000C1490.400000,810.620000,1532.790000,793.050000,1579,886.680000C1589.890000,867.400000,1599.750000,864.410000,1608,886.680000C1637.110000,861.810000,1653.490000,871.710000,1668,886.680000C1732.860000,895.130000,1731.970000,898.890000,1694,900L1344,900C1315.890000,896.160000,1320.760000,891.810000,1375,886.680000Z" transform="translate(-1523.637451,-861.438293)" fill="rgb(247,247,247)" stroke="none" stroke-width="1"/></g></svg>