<?xml version="1.0" encoding="utf-8"?>
<!-- Generator: Adobe Illustrator 23.0.1, SVG Export Plug-In . SVG Version: 6.00 Build 0)  -->
<svg version="1.1" id="Layer_1" xmlns="http://www.w3.org/2000/svg" xmlns:xlink="http://www.w3.org/1999/xlink" x="0px" y="0px"
	 viewBox="0 0 800 600" style="enable-background:new 0 0 800 600;" xml:space="preserve">
<style type="text/css">
	.st0{fill:#050502;}
	.st1{fill:none;stroke:#000000;stroke-miterlimit:10;}
	.st2{fill:#F7C90D;}
	.st3{fill:#DBDBD9;}
</style>
<g>
	<g>
		<circle class="st0" cx="429.4" cy="208.3" r="39"/>
		<path class="st1" d="M414.2,197.5c0-29.6-24.2-53.6-54.1-53.6"/>
		<path class="st1" d="M443.9,195.1c0-29.6,24.2-53.7,54.1-53.7"/>
	</g>
	<polygon points="438.9,397.9 429.9,424.9 420.9,397.9 	"/>
	<g>
		<ellipse class="st2" cx="429.4" cy="311.9" rx="62.7" ry="86.9"/>
		<path d="M386.3,248.7c-5.7,7.5-10.4,16.4-13.8,26.3c4.7,0.9,9.5,1.5,14.3,2c13,1.4,26.1,1.4,39.2,1.4c20.4,0,40.9,0.1,61.3,0.1
			c-3.6-12-9-22.6-15.9-31.2C444,255.2,414.5,253.9,386.3,248.7z"/>
		<path d="M382.5,298.9c-4.4-0.9-9.4-2.6-14.6-4.3c-0.8,5.6-1.2,11.3-1.2,17.2c0,4.5,0.2,8.8,0.7,13.1c6.4,1.3,12.9,2.4,19.5,3
			c13,1.4,26.1,1.4,39.2,1.4c20.5,0,40.9,0.1,61.4,0.1c1.1,0,2.3,0,3.4,0c0.9-5.7,1.3-11.6,1.3-17.6c0-7.1-0.6-14-1.8-20.5
			c-4.3,2-8.6,3.7-13.1,5.2C447,306.7,413.8,305.1,382.5,298.9z"/>
		<path d="M382.5,349.9c-3.2-0.6-6.8-1.7-10.5-2.9c4,12.6,10.1,23.7,17.8,32.3c12.1,1.1,24.2,1.1,36.3,1.1c14,0,28,0,41.9,0.1
			c8.8-9.6,15.8-22.3,19.9-37c-3.5,1.5-7,2.9-10.6,4.1C447,357.7,413.8,356,382.5,349.9z"/>
	</g>
</g>
<ellipse transform="matrix(0.7071 -0.7071 0.7071 0.7071 -56.739 436.9839)" class="st3" cx="499.1" cy="287" rx="45.7" ry="73"/>
<ellipse transform="matrix(0.7071 -0.7071 0.7071 0.7071 -97.4666 338.6528)" class="st3" cx="360.1" cy="287" rx="73" ry="45.7"/>
</svg>
