<?xml version="1.0" encoding="utf-8"?>
<!-- Generator: Adobe Illustrator 23.0.1, SVG Export Plug-In . SVG Version: 6.00 Build 0)  -->
<svg version="1.1" id="Layer_1" xmlns="http://www.w3.org/2000/svg" xmlns:xlink="http://www.w3.org/1999/xlink" x="0px" y="0px"
	width="300" height="300" viewBox="100 0 400 600" style="enable-background:new 0 0 369 351;" xml:space="preserve">
<style type="text/css">
	.st0{fill:#EAB60F;stroke:#CC8200;stroke-miterlimit:10;}
	.st1{stroke:#CC8200;stroke-miterlimit:10;}
</style>
<g>
	<path class="st0" d="M259.7,50.1H109.3c-13.8,0-25.1-11.2-25.1-25.1v0C84.2,11.2,95.4,0,109.3,0l150.4,0
		c13.8,0,25.1,11.2,25.1,25.1v0C284.8,38.9,273.6,50.1,259.7,50.1z"/>
	<path class="st0" d="M259.7,351H109.3c-13.8,0-25.1-11.2-25.1-25.1v0c0-13.8,11.2-25.1,25.1-25.1h150.4c13.8,0,25.1,11.2,25.1,25.1
		v0C284.8,339.8,273.6,351,259.7,351z"/>
	<path class="st0" d="M284.8,100.3H84.2c-13.8,0-25.1-11.2-25.1-25.1v0c0-13.8,11.2-25.1,25.1-25.1h200.6
		c13.8,0,25.1,11.2,25.1,25.1v0C309.9,89.1,298.6,100.3,284.8,100.3z"/>
	<path class="st0" d="M284.8,300.9H84.2c-13.8,0-25.1-11.2-25.1-25.1v0c0-13.8,11.2-25.1,25.1-25.1h200.6
		c13.8,0,25.1,11.2,25.1,25.1v0C309.9,289.6,298.6,300.9,284.8,300.9z"/>
	<path class="st0" d="M309.9,150.4H59.1c-13.8,0-25.1-11.2-25.1-25.1v0c0-13.8,11.2-25.1,25.1-25.1h250.7
		c13.8,0,25.1,11.2,25.1,25.1v0C334.9,139.2,323.7,150.4,309.9,150.4z"/>
	<path class="st0" d="M309.9,250.7H59.1c-13.8,0-25.1-11.2-25.1-25.1v0c0-13.8,11.2-25.1,25.1-25.1h250.7
		c13.8,0,25.1,11.2,25.1,25.1v0C334.9,239.5,323.7,250.7,309.9,250.7z"/>
	<path class="st0" d="M334.9,200.6H34.1C20.2,200.6,9,189.3,9,175.5v0c0-13.8,11.2-25.1,25.1-25.1h300.9c13.8,0,25.1,11.2,25.1,25.1
		v0C360,189.3,348.8,200.6,334.9,200.6z"/>
	<circle class="st1" cx="184.5" cy="250.7" r="50.1"/>
</g>
</svg>
