<?xml version="1.0" encoding="utf-8"?>
<!-- Generator: Adobe Illustrator 23.0.1, SVG Export Plug-In . SVG Version: 6.00 Build 0)  -->
<svg version="1.1" id="Layer_1" xmlns="http://www.w3.org/2000/svg" xmlns:xlink="http://www.w3.org/1999/xlink" x="0px" y="0px"
	 viewBox="0 0 1003.6 489.1" style="enable-background:new 0 0 1003.6 489.1;" xml:space="preserve">
<style type="text/css">
	.st02{fill:none;stroke:#070101;stroke-miterlimit:10;}
	.st12{fill:#050502;}
	.st22{fill:none;stroke:#000000;stroke-miterlimit:10;}
	.st32{fill:#F7C90D;}
	.st42{fill:#DBDBD9;}
	.st52{fill:#EAB60F;stroke:#CC8200;stroke-miterlimit:10;}
	.st62{stroke:#CC8200;stroke-miterlimit:10;}

	#wing1{
        animation: flap 0.1s infinite;
        }
    #wing2{
        animation: flap2 0.1s infinite;
        }
    @keyframes flap {
        0%{opacity: 1;}
        50%{opacity:0;}
        100%{opacity: 1;}
        }
    @keyframes flap2 {
        0%{opacity: 0;}
        50%{opacity:1;}
        100%{opacity: 0;}
		}
</style>
<path id="motiom" class="st02" d="M965.8,266.7c-20.2-47.3-47.9-60.2-74.1-71.1c-21.9-9.2-44.8-18-65.8,1.4
	c-12.3,11.6-23.2,32.3-35.1,47c-20.3,24.8-43.2,31.3-63.9,53.8c-17.4,18.7-36.3,48.7-53.4,27.9c-7.2-8.8-12.6-25.9-18.3-40.8
	c-38-101.4-97.6-136.5-147.3-86.4c-28.2,28.6-56.6,82.7-85.5,60.2c-13.8-10.5-25-37.8-37.8-55.5c-23.3-32.3-51-32.7-76.3-15
	c-25.3,17.7-48.5,51.7-71.3,86.4c-12.1,18.4-24.9,38.1-38.7,37.8c-27.4,0-46.9-73.2-72-103.1c12.3-69.9,122.1-108,122.1-108
	s53.9-36,78.6-13.2c24.6,22.8,41.7,189.8,69.5,185.8c27.8-4,39.1-141.7,67.7-155.3c28.6-13.6,54.6,177.8,102.4,173.8
	c47.7-4,47.3-137.7,93.3-177s74,179.4,124,217.4c50,38,182-30.8,182-30.8"/>
<g id="bee">
	<g>
		<g>
			<circle class="st12" cx="12.7" cy="23.7" r="6.1"/>
			<path class="st22" d="M10.9,26.1c-4.6-0.1-8.5,3.7-8.5,8.3"/>
			<path class="st22" d="M10.6,21.4c-4.6-0.1-8.3-3.9-8.3-8.6"/>
		</g>
		<polygon points="42.4,22.7 46.6,24.2 42.3,25.5 		"/>
		<g>
			
				<ellipse transform="matrix(1.589358e-02 -0.9999 0.9999 1.589358e-02 4.4461 52.4883)" class="st32" cx="28.9" cy="24" rx="9.8" ry="13.6"/>
			<path d="M18.9,30.6c1.2,0.9,2.5,1.7,4.1,2.2c0.2-0.7,0.3-1.5,0.3-2.2c0.3-2,0.3-4.1,0.3-6.1c0.1-3.2,0.1-6.4,0.2-9.6
				c-1.9,0.5-3.6,1.4-4.9,2.4C20,21.6,19.8,26.2,18.9,30.6z"/>
			<path d="M26.7,31.3c-0.2,0.7-0.4,1.5-0.7,2.3c0.9,0.1,1.8,0.2,2.7,0.2c0.7,0,1.4,0,2.1-0.1c0.2-1,0.4-2,0.5-3
				c0.3-2,0.3-4.1,0.3-6.1c0.1-3.2,0.1-6.4,0.2-9.6c0-0.2,0-0.4,0-0.5c-0.9-0.2-1.8-0.2-2.8-0.2c-1.1,0-2.2,0.1-3.2,0.2
				c0.3,0.7,0.6,1.4,0.8,2.1C28.1,21.2,27.8,26.4,26.7,31.3z"/>
			<path d="M34.7,31.4c-0.1,0.5-0.3,1.1-0.5,1.6c2-0.6,3.7-1.5,5.1-2.7c0.2-1.9,0.2-3.8,0.3-5.7c0-2.2,0.1-4.4,0.1-6.6
				c-1.5-1.4-3.5-2.5-5.7-3.2c0.2,0.6,0.4,1.1,0.6,1.7C36.1,21.3,35.8,26.5,34.7,31.4z"/>
		</g>
	</g>
	<g id="wing1">
		<ellipse transform="matrix(0.6629 -0.7487 0.7487 0.6629 -3.8036 17.1025)" class="st42" cx="17.1" cy="12.8" rx="7.2" ry="11.4"/>
		
			<ellipse transform="matrix(0.7448 -0.6673 0.6673 0.7448 -19.5793 19.5285)" class="st42" cx="15.7" cy="35.4" rx="11.4" ry="7.2"/>
	</g>
	<g id="wing2">
		<ellipse transform="matrix(0.9198 -0.3925 0.3925 0.9198 -3.6293 11.8988)" class="st42" cx="27.3" cy="14.8" rx="11.4" ry="7.2"/>
		<ellipse transform="matrix(0.4215 -0.9068 0.9068 0.4215 -14.1839 43.929)" class="st42" cx="27.3" cy="33.1" rx="7.2" ry="11.4"/>
	</g>
</g>
<g id="beehive">
	<path class="st52" d="M967.7,234H914c-4.9,0-9-4-9-9l0,0c0-4.9,4-8.9,9-8.9h53.7c4.9,0,9,4,9,9l0,0C976.7,230,972.7,234,967.7,234z"
		/>
	<path class="st52" d="M967.7,341.4H914c-4.9,0-9-4-9-9l0,0c0-4.9,4-9,9-9h53.7c4.9,0,9,4,9,9l0,0
		C976.7,337.4,972.7,341.4,967.7,341.4z"/>
	<path class="st52" d="M976.7,251.9H905c-4.9,0-9-4-9-9l0,0c0-4.9,4-9,9-9h71.6c4.9,0,9,4,9,9l0,0
		C985.6,247.9,981.6,251.9,976.7,251.9z"/>
	<path class="st52" d="M976.7,323.5H905c-4.9,0-9-4-9-9l0,0c0-4.9,4-9,9-9h71.6c4.9,0,9,4,9,9l0,0
		C985.6,319.5,981.6,323.5,976.7,323.5z"/>
	<path class="st52" d="M985.6,269.8h-89.6c-4.9,0-9-4-9-9l0,0c0-4.9,4-9,9-9h89.5c4.9,0,9,4,9,9l0,0
		C994.6,265.8,990.6,269.8,985.6,269.8z"/>
	<path class="st52" d="M985.6,305.6h-89.6c-4.9,0-9-4-9-9l0,0c0-4.9,4-9,9-9h89.5c4.9,0,9,4,9,9l0,0
		C994.6,301.6,990.6,305.6,985.6,305.6z"/>
	<path class="st52" d="M994.6,287.7H887.1c-5,0-9-4-9-9l0,0c0-4.9,4-9,9-9h107.5c4.9,0,9,4,9,9l0,0
		C1003.5,283.7,999.5,287.7,994.6,287.7z"/>
	<circle class="st62" cx="940.9" cy="305.6" r="17.9"/>
</g>
				<animateMotion 
                        xlink:href="#bee"
                        dur="17s"
                        begin="beehive.click"
                        fill="freeze"
                        repeatCount="1"
                        rotate="auto-reverse"
                            >
                    <mpath xlink:href="#motiom" />
                </animateMotion>
</svg>
