<?xml version="1.0" encoding="utf-8"?>
<!-- Generator: Adobe Illustrator 23.0.1, SVG Export Plug-In . SVG Version: 6.00 Build 0)  -->
<svg version="1.1" id="Layer_1" xmlns="http://www.w3.org/2000/svg" xmlns:xlink="http://www.w3.org/1999/xlink" x="0px" y="0px"
	 viewBox="0 0 1369 717" style="enable-background:new 0 0 1369 717;" xml:space="preserve">
<style type="text/css">
	.st0{fill:#050502;}
	.st1{fill:none;stroke:#000000;stroke-miterlimit:10;}
	.st2{fill:#F7C90D;}
	.st3{fill:#DBDBD9;}
</style>
<g id="bee">
	<g>
		<g>
			<circle class="st0" cx="1017.4" cy="481.1" r="7.1"/>
			<path class="st1" d="M1019.4,478.4c5.4,0,9.7-4.4,9.7-9.9"/>
			<path class="st1" d="M1019.8,483.8c5.4,0,9.8,4.3,9.8,9.8"/>
		</g>
		<polygon points="983,483.1 978.1,481.5 983,479.8 		"/>
		<g>
			
				<ellipse transform="matrix(1 -5.939425e-03 5.939425e-03 1 -2.8408 5.9397)" class="st2" cx="998.6" cy="481.3" rx="15.8" ry="11.4"/>
			<path d="M1010,473.4c-1.4-1-3-1.9-4.8-2.5c-0.1,0.9-0.3,1.7-0.4,2.6c-0.2,2.4-0.2,4.7-0.2,7.1c0,3.7,0,7.4,0,11.1
				c2.2-0.7,4.1-1.7,5.6-2.9C1008.9,483.9,1009.1,478.5,1010,473.4z"/>
			<path d="M1000.9,472.7c0.1-0.8,0.5-1.7,0.8-2.7c-1-0.1-2.1-0.2-3.1-0.2c-0.8,0-1.6,0.1-2.4,0.1c-0.2,1.2-0.4,2.3-0.5,3.5
				c-0.2,2.4-0.2,4.7-0.2,7.1c0,3.7,0,7.4,0,11.1c0,0.2,0,0.4,0,0.6c1,0.1,2.1,0.2,3.2,0.2c1.3,0,2.5-0.1,3.7-0.3
				c-0.4-0.8-0.7-1.6-1-2.4C999.6,484.4,999.8,478.4,1000.9,472.7z"/>
			<path d="M991.7,472.8c0.1-0.6,0.3-1.2,0.5-1.9c-2.3,0.7-4.3,1.9-5.8,3.3c-0.2,2.2-0.2,4.4-0.2,6.6c0,2.5,0,5.1,0,7.6
				c1.7,1.6,4.1,2.8,6.7,3.6c-0.3-0.6-0.5-1.3-0.8-1.9C990.3,484.5,990.6,478.5,991.7,472.8z"/>
		</g>
	</g>
	
		<ellipse transform="matrix(0.7029 -0.7113 0.7113 0.7029 -53.2372 860.3138)" class="st3" cx="1003.2" cy="493.9" rx="13.2" ry="8.3"/>
	
		<ellipse transform="matrix(0.7029 -0.7113 0.7113 0.7029 -35.3378 852.7128)" class="st3" cx="1003.1" cy="468.7" rx="8.3" ry="13.2"/>
</g>
<path id="motiom" class="st1" d="M991.4,477.3c-73-8.6-148.3-17.1-218.8,3.3c-24.1,7-47.2,17.2-71.2,24.6c-97.2,30-206.8,10.3-291.9-45.4
	c-25.2-16.5-49.1-36.7-62.6-63.7c-9.9-19.8-13.6-42-16.5-63.9c-2.5-19.1-4.4-38.6-1.4-57.7c3-19.1,11.5-37.9,26.6-49.9
	c14.3-11.4,33-15.6,51-18.7c114.6-19.7,238.2-6.9,336.5,55.1c16.8,10.6,32.8,22.6,49.8,32.8c39.4,23.8,83.6,38.3,126.4,55.2
	c19.5,7.7,38.9,16,55.7,28.6s30.6,30,35.3,50.4"/>
			    <animateMotion 
                        xlink:href="#bee"
                        dur="11s"
                        begin="0s"
                        fill="freeze"
                        repeatCount="indefinite"
                        rotate="auto-reverse"
                            >
                    <mpath xlink:href="#motiom" />
                </animateMotion>
</svg>
