<?xml version="1.0" encoding="utf-8"?>
<!-- Generator: Adobe Illustrator 23.0.1, SVG Export Plug-In . SVG Version: 6.00 Build 0)  -->
<svg version="1.1" id="Layer_1" xmlns="http://www.w3.org/2000/svg" xmlns:xlink="http://www.w3.org/1999/xlink" x="0px" y="0px"
	 width="400" height="400" viewBox="100 0 400 600" style="enable-background:new 0 0 400.94 471.07;" xml:space="preserve">
<style type="text/css">
	.st0{fill:#3D43A5;}
	.st1{fill:#A67C52;stroke:#603813;stroke-width:2;stroke-miterlimit:10;}
	.st2{fill:#B2967D;stroke:#603813;stroke-width:2;stroke-miterlimit:10;}

	#fern{
		animation: sway 2.5s infinite linear;
		transform-origin: bottom;
	}
	@keyframes sway{
		50%{transform: skewX(-3deg);}
		100%{transform: skewX(0deg);}
	}
</style>
<g id="fern">
	<g>
		<path class="st0" d="M233.35,433.27l2.42-12.46l2.49-12.45l2.49-12.45c0.84-4.15,1.76-8.28,2.64-12.42l5.45-24.8l5.94-24.7
			c0.96-4.13,2.05-8.22,3.14-12.31l3.29-12.28c2.1-8.21,4.66-16.3,7.05-24.43c4.88-16.24,10.54-32.26,16.67-48.09
			c0.72-2,1.6-3.93,2.43-5.89l2.51-5.85l2.51-5.85l1.25-2.93c0.44-0.97,0.91-1.92,1.36-2.88c3.68-7.65,7.18-15.4,11.25-22.85
			c2-3.74,3.91-7.54,5.99-11.23l6.28-11.06c1.06-1.84,2.07-3.7,3.16-5.52l3.27-5.45l6.57-10.88c17.79-28.83,36.43-57.06,54.73-85.54
			c-8.48,14.65-17.21,29.15-25.89,43.67l-13.13,21.72l-13.04,21.76l-6.35,10.97l-3.19,5.47c-1.06,1.82-2.05,3.69-3.08,5.53
			l-6.13,11.08c-2.02,3.7-3.88,7.49-5.82,11.23c-3.98,7.44-7.45,15.12-11.06,22.73c-0.45,0.95-0.91,1.9-1.34,2.86l-1.23,2.91
			l-2.47,5.82l-2.47,5.82c-0.82,1.94-1.68,3.87-2.39,5.85c-6.16,15.69-11.8,31.6-16.78,47.73c-5.15,16.08-9.6,32.38-14.07,48.68
			l-6.41,24.53l-6.09,24.63c-1.02,4.1-2.08,8.2-3.07,12.31l-2.93,12.35l-2.93,12.35L233.35,433.27z"/>
	</g>
	<path class="st0" d="M352.04,115.86l-0.35-1.71c-2.48-11.91-2.44-24.21,0.11-36.11l2.75-12.83l0.12,0.52
		c2.85,12.62,2.85,25.72,0.02,38.35L352.04,115.86z"/>
	<path class="st0" d="M359.32,105.18l1.43-6.74c2.93-13.8,9.17-26.68,18.17-37.55l12.37-14.93l-1.07,5.52
		c-2.86,14.71-9.45,28.43-19.15,39.85L359.32,105.18z"/>
	<path class="st0" d="M351.94,117.3L351.94,117.3c8.13-10.63,18.88-18.97,31.2-24.2l6.79-2.88l0,0
		c-7.97,10.82-18.77,19.23-31.2,24.31L351.94,117.3z"/>
	<path class="st0" d="M338.87,135.97l-0.35-1.71c-2.48-11.91-2.44-24.21,0.11-36.11l2.75-12.83l0.12,0.52
		c2.85,12.62,2.85,25.72,0.02,38.35L338.87,135.97z"/>
	<path class="st0" d="M338.77,137.41L338.77,137.41c8.13-10.63,18.88-18.97,31.2-24.2l6.79-2.88v0
		c-7.97,10.82-18.77,19.23-31.2,24.31L338.77,137.41z"/>
	<path class="st0" d="M323.68,160.82l-0.35-1.71c-2.48-11.91-2.44-24.21,0.11-36.11l2.75-12.83l0.12,0.52
		c2.85,12.62,2.85,25.72,0.02,38.35L323.68,160.82z"/>
	<path class="st0" d="M323.58,162.27L323.58,162.27c8.13-10.63,18.88-18.97,31.2-24.2l6.79-2.88v0
		c-7.97,10.82-18.77,19.23-31.2,24.31L323.58,162.27z"/>
	<path class="st0" d="M310.76,184.19l-0.53-2.28c-2.92-12.54-3.04-25.57-0.34-38.15l3-13.98l0.26,1.05
		c3.34,13.27,3.51,27.15,0.5,40.5L310.76,184.19z"/>
	<path class="st0" d="M310.66,185.74l0.98-1.22c8.47-10.51,19.54-18.63,32.11-23.54l9.8-3.82l-0.95,1.22
		c-8.31,10.71-19.43,18.91-32.12,23.67L310.66,185.74z"/>
	<path class="st0" d="M295.7,215.16l-0.53-2.28c-2.92-12.54-3.04-25.57-0.34-38.15l3-13.98l0.26,1.05
		c3.34,13.27,3.51,27.15,0.5,40.5L295.7,215.16z"/>
	<path class="st0" d="M295.61,216.71l0.98-1.22c8.47-10.51,19.54-18.63,32.11-23.54l9.8-3.82l-0.95,1.22
		c-8.31,10.71-19.43,18.91-32.12,23.67L295.61,216.71z"/>
	<path class="st0" d="M279.12,254.4l-0.79-2.2c-4.37-12.11-6-25.04-4.78-37.85l1.35-14.24l0.38,1.01
		c4.87,12.79,6.65,26.55,5.22,40.17L279.12,254.4z"/>
	<path class="st0" d="M279.21,255.95l0.83-1.32c7.18-11.43,17.23-20.78,29.15-27.12l9.29-4.94l-0.8,1.32
		c-7,11.61-17.09,21.04-29.14,27.25L279.21,255.95z"/>
	<path class="st0" d="M267.38,294.6l-1.04-2.09c-5.72-11.54-8.81-24.19-9.06-37.06l-0.28-14.3l0.5,0.96
		c6.29,12.16,9.63,25.62,9.76,39.31L267.38,294.6z"/>
	<path class="st0" d="M267.65,296.13l0.67-1.41c5.83-12.17,14.75-22.61,25.87-30.26l8.67-5.97l-0.64,1.4
		c-5.63,12.33-14.58,22.85-25.85,30.39L267.65,296.13z"/>
	<path class="st0" d="M259.16,323.06l-1.04-2.09c-5.72-11.54-8.81-24.19-9.06-37.06l-0.28-14.3l0.5,0.96
		c6.29,12.16,9.63,25.62,9.76,39.31L259.16,323.06z"/>
	<path class="st0" d="M259.42,324.59l0.67-1.41c5.83-12.17,14.75-22.61,25.87-30.26l8.67-5.97l-0.64,1.4
		c-5.63,12.33-14.58,22.85-25.85,30.39L259.42,324.59z"/>
	<path class="st0" d="M250.96,353.07l-1.04-2.09c-5.72-11.54-8.81-24.19-9.06-37.06l-0.28-14.3l0.5,0.96
		c6.29,12.16,9.63,25.62,9.76,39.31L250.96,353.07z"/>
	<path class="st0" d="M251.23,354.6l0.67-1.41c5.83-12.17,14.75-22.61,25.87-30.26l8.67-5.97l-0.64,1.4
		c-5.63,12.33-14.58,22.85-25.85,30.39L251.23,354.6z"/>
</g>
<g id="fern">
	<g>
		<path class="st0" d="M234.13,434.62l-0.07-12.69l0-12.69l0.01-12.7c0.02-4.23,0.1-8.46,0.15-12.69l0.49-25.39l0.99-25.38
			c0.13-4.23,0.4-8.46,0.67-12.69l0.82-12.68c0.45-8.46,1.38-16.89,2.12-25.34c1.6-16.88,4.01-33.7,6.93-50.43
			c0.31-2.1,0.8-4.17,1.23-6.25l1.31-6.23l1.31-6.23l0.66-3.12c0.24-1.03,0.51-2.06,0.77-3.09c2.11-8.22,4.02-16.51,6.56-24.61
			c1.23-4.06,2.36-8.16,3.67-12.19l3.99-12.08c0.68-2.01,1.31-4.03,2.02-6.03l2.14-5.98l4.31-11.96
			c11.79-31.76,24.55-63.09,36.91-94.6c-5.45,16.02-11.16,31.96-16.84,47.9l-8.62,23.87l-8.52,23.89l-4.08,12l-2.06,5.99
			c-0.68,2-1.29,4.02-1.94,6.03l-3.84,12.06c-1.26,4.03-2.34,8.1-3.51,12.15c-2.44,8.07-4.34,16.29-6.4,24.46
			c-0.25,1.02-0.52,2.04-0.75,3.07l-0.64,3.09l-1.28,6.19l-1.28,6.19c-0.42,2.06-0.89,4.12-1.2,6.2c-2.97,16.59-5.38,33.3-7.1,50.09
			c-1.9,16.78-3.07,33.63-4.26,50.49l-1.48,25.32l-1.15,25.34c-0.2,4.22-0.44,8.45-0.6,12.67l-0.45,12.68l-0.46,12.68L234.13,434.62
			z"/>
	</g>
	<path class="st0" d="M288.34,100.1l-0.68-1.6c-4.76-11.2-7.14-23.26-6.96-35.43l0.19-13.12l0.22,0.49
		c5.27,11.82,7.84,24.66,7.53,37.6L288.34,100.1z"/>
	<path class="st0" d="M293.39,88.2l0.08-6.89c0.17-14.11,3.77-27.96,10.47-40.38l9.21-17.06l0.03,5.62
		c0.08,14.98-3.7,29.73-10.97,42.83L293.39,88.2z"/>
	<path class="st0" d="M288.53,101.54L288.53,101.54c5.89-12.02,14.8-22.3,25.85-29.84l6.09-4.16v0
		c-5.7,12.17-14.64,22.53-25.84,29.95L288.53,101.54z"/>
	<path class="st0" d="M279.36,122.4l-0.68-1.6c-4.76-11.2-7.14-23.26-6.96-35.43l0.19-13.12l0.22,0.49
		c5.27,11.82,7.84,24.66,7.53,37.6L279.36,122.4z"/>
	<path class="st0" d="M279.55,123.84L279.55,123.84c5.89-12.02,14.8-22.3,25.85-29.84l6.09-4.16v0
		c-5.7,12.17-14.64,22.53-25.84,29.95L279.55,123.84z"/>
	<path class="st0" d="M269.34,149.75l-0.68-1.6c-4.76-11.2-7.14-23.26-6.96-35.43l0.19-13.12l0.22,0.49
		c5.27,11.82,7.84,24.66,7.53,37.6L269.34,149.75z"/>
	<path class="st0" d="M269.52,151.19L269.52,151.19c5.89-12.02,14.8-22.3,25.85-29.84l6.09-4.16v0
		c-5.7,12.17-14.64,22.53-25.84,29.95L269.52,151.19z"/>
	<path class="st0" d="M261.24,175.19l-0.97-2.13c-5.32-11.72-7.99-24.48-7.8-37.35l0.21-14.3l0.46,0.97
		c5.88,12.36,8.76,25.93,8.43,39.62L261.24,175.19z"/>
	<path class="st0" d="M261.46,176.73l0.72-1.38c6.24-11.97,15.51-22.1,26.88-29.37l8.86-5.67l-0.69,1.38
		c-6.05,12.13-15.35,22.35-26.86,29.5L261.46,176.73z"/>
	<path class="st0" d="M252.54,208.52l-0.97-2.13c-5.32-11.72-7.99-24.48-7.8-37.35l0.21-14.3l0.46,0.97
		c5.88,12.36,8.76,25.93,8.43,39.62L252.54,208.52z"/>
	<path class="st0" d="M252.76,210.05l0.72-1.38c6.24-11.97,15.51-22.1,26.88-29.37l8.86-5.67l-0.69,1.38
		c-6.05,12.13-15.35,22.35-26.86,29.5L252.76,210.05z"/>
	<path class="st0" d="M243.97,250.25l-1.21-2c-6.65-11.02-10.79-23.38-12.1-36.18l-1.46-14.23l0.57,0.91
		c7.28,11.59,11.73,24.74,12.99,38.36L243.97,250.25z"/>
	<path class="st0" d="M244.36,251.75l0.56-1.46c4.8-12.62,12.83-23.75,23.27-32.3l8.14-6.67l-0.52,1.45
		c-4.59,12.75-12.64,23.98-23.24,32.43L244.36,251.75z"/>
	<path class="st0" d="M240.34,291.97l-1.43-1.85c-7.87-10.19-13.38-22-16.15-34.57l-3.07-13.97l0.67,0.84
		c8.55,10.69,14.47,23.24,17.27,36.64L240.34,291.97z"/>
	<path class="st0" d="M240.9,293.42l0.39-1.51c3.34-13.08,10.04-25.06,19.44-34.74l7.33-7.55l-0.35,1.5
		c-3.11,13.19-9.82,25.27-19.39,34.87L240.9,293.42z"/>
	<path class="st0" d="M237.85,321.48l-1.43-1.85c-7.87-10.19-13.38-22-16.15-34.57l-3.07-13.97l0.67,0.84
		c8.55,10.69,14.47,23.24,17.27,36.64L237.85,321.48z"/>
	<path class="st0" d="M238.41,322.93l0.39-1.51c3.34-13.08,10.04-25.06,19.44-34.74l7.33-7.55l-0.35,1.5
		c-3.11,13.19-9.82,25.27-19.39,34.87L238.41,322.93z"/>
	<path class="st0" d="M235.69,352.52l-1.43-1.85c-7.87-10.19-13.38-22-16.15-34.57l-3.07-13.97l0.67,0.84
		c8.55,10.69,14.47,23.24,17.27,36.64L235.69,352.52z"/>
	<path class="st0" d="M236.25,353.97l0.39-1.51c3.34-13.08,10.04-25.06,19.44-34.74l7.33-7.55l-0.35,1.5
		c-3.11,13.19-9.82,25.27-19.39,34.87L236.25,353.97z"/>
</g>
<g id="fern">
	<g>
		<path class="st0" d="M204.39,430.9l-1.3-12.75l-1.22-12.76l-1.22-12.76c-0.39-4.26-0.71-8.52-1.07-12.78l-1.96-25.58l-1.45-25.62
			c-0.28-4.27-0.4-8.55-0.54-12.82L195.25,303c-0.36-8.55-0.22-17.12-0.28-25.68c0-17.13,0.84-34.26,2.2-51.36
			c0.12-2.14,0.42-4.27,0.65-6.4l0.74-6.39l0.74-6.39l0.37-3.2l0.49-3.18c1.36-8.47,2.51-16.98,4.32-25.36l1.25-6.31
			c0.43-2.1,0.8-4.21,1.32-6.29l2.9-12.52c0.5-2.08,0.94-4.18,1.48-6.25l1.6-6.22l3.24-12.42c8.96-33.03,18.91-65.71,28.46-98.54
			c-4.02,16.62-8.31,33.16-12.56,49.72l-6.49,24.8l-6.39,24.81c-8.28,33.11-15.26,66.54-18.14,100.49
			c-1.42,16.97-2.27,33.99-2.41,51.04c-0.32,17.05,0.12,34.11,0.54,51.18l0.95,25.6l1.3,25.59c0.21,4.27,0.38,8.54,0.62,12.8
			l0.77,12.79l0.77,12.79L204.39,430.9z"/>
	</g>
	<path class="st0" d="M227.34,89.55l-0.82-1.48c-5.97-10.81-9.58-22.77-10.59-35.08l-1.07-13.08l0.23,0.41
		c6.54,11.39,10.43,24.11,11.38,37.21L227.34,89.55z"/>
	<path class="st0" d="M231.34,77.1l-0.57-6.81c-1.2-14.26,1.13-28.59,6.78-41.74l7.74-18.01l0.56,5.52
		c1.54,15.12-0.89,30.37-7.06,44.26L231.34,77.1z"/>
	<path class="st0" d="M227.67,90.97l0.07-0.19c4.8-12.52,12.78-23.58,23.15-32.09l6.11-5.02l-0.07,0.19
		c-4.59,12.66-12.59,23.8-23.12,32.2L227.67,90.97z"/>
	<path class="st0" d="M220.33,112.84l-0.82-1.48c-5.97-10.81-9.58-22.77-10.59-35.08l-1.07-13.08l0.23,0.41
		c6.54,11.39,10.43,24.11,11.38,37.21L220.33,112.84z"/>
	<path class="st0" d="M220.66,114.26l0.07-0.19c4.8-12.52,12.78-23.58,23.15-32.09l6.11-5.02l-0.07,0.19
		c-4.59,12.66-12.59,23.8-23.12,32.2L220.66,114.26z"/>
	<path class="st0" d="M212.74,141.29l-0.82-1.48c-5.97-10.81-9.58-22.77-10.59-35.08l-1.07-13.08l0.23,0.41
		c6.54,11.39,10.43,24.11,11.38,37.21L212.74,141.29z"/>
	<path class="st0" d="M213.07,142.72l0.07-0.19c4.8-12.52,12.78-23.58,23.15-32.09l6.11-5.02l-0.07,0.19
		c-4.59,12.66-12.59,23.8-23.12,32.2L213.07,142.72z"/>
	<path class="st0" d="M206.94,167.65l-1.16-1.99c-6.59-11.28-10.57-23.9-11.63-36.92l-1.17-14.26l0.53,0.88
		c7.22,11.87,11.5,25.29,12.49,39.15L206.94,167.65z"/>
	<path class="st0" d="M207.3,169.17l0.69-1.68c5.16-12.49,13.5-23.42,24.19-31.68l8.83-6.82l-0.65,1.67
		c-4.94,12.64-13.31,23.66-24.16,31.82L207.3,169.17z"/>
	<path class="st0" d="M201.28,201.98l-1.16-1.99c-6.59-11.28-10.57-23.9-11.63-36.92l-1.17-14.26l0.53,0.88
		c7.22,11.87,11.5,25.29,12.49,39.15L201.28,201.98z"/>
	<path class="st0" d="M201.65,203.5l0.69-1.68c5.16-12.49,13.5-23.42,24.19-31.68l8.83-6.82l-0.65,1.67
		c-4.94,12.64-13.31,23.66-24.16,31.82L201.65,203.5z"/>
	<path class="st0" d="M196.57,244.74l-1.43-1.9c-7.86-10.41-13.29-22.44-15.88-35.23l-2.86-14.07l0.68,0.87
		c8.55,10.92,14.37,23.71,16.99,37.33L196.57,244.74z"/>
	<path class="st0" d="M197.12,246.21l0.46-1.64c3.66-13.06,10.69-24.93,20.4-34.42l7.88-7.7l-0.42,1.63
		c-3.43,13.19-10.48,25.15-20.34,34.54L197.12,246.21z"/>
	<path class="st0" d="M196.9,287l-1.7-1.79c-8.98-9.41-15.74-20.72-19.78-33.08l-4.49-13.71l0.85,0.86
		c9.72,9.84,16.96,21.85,21.12,35.04L196.9,287z"/>
	<path class="st0" d="M197.62,288.4l0.25-1.59c2.14-13.44,7.78-26.08,16.37-36.64l6.87-8.45l-0.22,1.57
		c-1.89,13.54-7.54,26.27-16.3,36.77L197.62,288.4z"/>
	<path class="st0" d="M197.22,316.9l-1.7-1.79c-8.98-9.41-15.74-20.72-19.78-33.08l-4.49-13.71l0.85,0.86
		c9.72,9.84,16.95,21.85,21.12,35.04L197.22,316.9z"/>
	<path class="st0" d="M197.93,318.3l0.25-1.59c2.14-13.44,7.78-26.08,16.37-36.64l6.87-8.45l-0.22,1.57
		c-1.89,13.54-7.54,26.27-16.3,36.77L197.93,318.3z"/>
	<path class="st0" d="M198.02,348.28l-1.7-1.79c-8.98-9.41-15.74-20.72-19.78-33.08l-4.49-13.71l0.85,0.86
		c9.72,9.84,16.95,21.85,21.12,35.04L198.02,348.28z"/>
	<path class="st0" d="M198.74,349.68l0.25-1.59c2.14-13.44,7.78-26.08,16.37-36.64l6.87-8.45l-0.22,1.57
		c-1.89,13.54-7.54,26.27-16.3,36.77L198.74,349.68z"/>
</g>
<g id="fern">
	<g>
		<path class="st0" d="M176.71,436.66l-0.6-12.24l-0.52-12.24l-0.52-12.23l-0.67-12.23l-1.29-24.45l-1.64-24.42
			c-1.31-16.26-2.6-32.51-4.63-48.67l-0.69-6.07c-0.21-2.03-0.56-4.03-0.84-6.05L163.54,266c-0.31-2.01-0.55-4.03-0.91-6.03l-1.11-6
			l-2.23-11.99c-6.33-31.93-16.59-62.9-28.1-93.4l-8.8-22.84l-8.89-22.82c-5.86-15.25-11.75-30.48-17.38-45.81
			c12.72,30.09,25.82,60,37.99,90.35l4.45,11.43c1.48,3.81,2.96,7.62,4.3,11.49l4.13,11.57c0.71,1.92,1.32,3.88,1.95,5.83l1.87,5.85
			l1.86,5.86c0.3,0.98,0.63,1.95,0.92,2.93l0.81,2.97l3.25,11.86l0.81,2.97c0.26,0.99,0.47,2,0.7,2.99l1.37,5.99l1.37,5.99l0.69,3
			c0.24,1,0.45,2,0.62,3.01l2.2,12.1l1.1,6.05c0.36,2.02,0.59,4.05,0.9,6.08l1.73,12.16c0.27,2.03,0.62,4.05,0.82,6.09l0.64,6.11
			c1.82,16.27,3.04,32.59,3.98,48.91l1.14,24.49l0.64,24.5l0.23,12.25l0.07,12.25l0.07,12.25L176.71,436.66z"/>
	</g>
	<path class="st0" d="M119.68,115.21l0.04-0.09c5.23-11.73,7.81-24.48,7.55-37.32l-0.22-10.86l0,0c-5.46,11.69-8.1,24.5-7.71,37.39
		L119.68,115.21z"/>
	<path class="st0" d="M114.46,103.79l-0.08-4.65c-0.27-14.84-4.32-29.37-11.77-42.21l-8.65-14.91l0,3.3
		c-0.01,15.76,4.25,31.23,12.33,44.77L114.46,103.79z"/>
	<path class="st0" d="M119.5,116.59L119.5,116.59c-6.07-11.53-15.06-21.26-26.05-28.25l-6.76-4.29l0,0
		c5.88,11.67,14.88,21.48,26.01,28.34L119.5,116.59z"/>
	<path class="st0" d="M128.96,136.61l0.04-0.09c5.23-11.73,7.81-24.48,7.55-37.32l-0.22-10.86v0c-5.46,11.69-8.1,24.5-7.71,37.39
		L128.96,136.61z"/>
	<path class="st0" d="M128.78,137.99L128.78,137.99c-6.07-11.53-15.06-21.26-26.05-28.25l-6.76-4.29l0,0
		c5.88,11.67,14.88,21.48,26.01,28.34L128.78,137.99z"/>
	<path class="st0" d="M139.34,162.86l0.04-0.09c5.23-11.73,7.81-24.48,7.55-37.32l-0.22-10.86l0,0c-5.46,11.69-8.1,24.5-7.71,37.39
		L139.34,162.86z"/>
	<path class="st0" d="M139.16,164.24L139.16,164.24c-6.07-11.53-15.06-21.26-26.05-28.25l-6.76-4.29l0,0
		c5.88,11.67,14.88,21.48,26.01,28.34L139.16,164.24z"/>
	<path class="st0" d="M147.74,187.29l0.27-0.56c5.84-12.27,8.74-25.73,8.46-39.31l-0.24-11.9l0,0c-6.24,12.52-9.28,26.39-8.85,40.37
		L147.74,187.29z"/>
	<path class="st0" d="M147.53,188.77l-0.45-0.81c-6.63-11.82-16.24-21.69-27.88-28.62l-9.1-5.42l0.42,0.78
		c6.43,12,16.08,21.96,27.86,28.77L147.53,188.77z"/>
	<path class="st0" d="M156.79,219.29l0.27-0.56c5.84-12.27,8.74-25.73,8.46-39.31l-0.24-11.9l0,0c-6.24,12.52-9.28,26.39-8.85,40.37
		L156.79,219.29z"/>
	<path class="st0" d="M156.58,220.77l-0.45-0.81c-6.63-11.82-16.24-21.69-27.88-28.62l-9.1-5.42l0.42,0.78
		c6.43,12,16.08,21.96,27.86,28.77L156.58,220.77z"/>
	<path class="st0" d="M165.75,259.39l0.48-0.76c7.22-11.39,11.71-24.3,13.11-37.71l1.25-12.01l0,0
		c-7.75,11.75-12.49,25.23-13.8,39.25L165.75,259.39z"/>
	<path class="st0" d="M165.36,260.83l-0.2-0.48c-5.21-12.7-13.72-23.79-24.64-32.11l-8.03-6.12l0.17,0.44
		c4.99,12.86,13.52,24.04,24.59,32.26L165.36,260.83z"/>
	<path class="st0" d="M169.67,299.49l0.79-0.97c8.42-10.37,14.34-22.54,17.32-35.56l2.75-12.04l0,0
		c-9.12,10.85-15.47,23.76-18.47,37.61L169.67,299.49z"/>
	<path class="st0" d="M169.1,300.89l-0.04-0.15c-3.7-13.4-10.95-25.55-20.98-35.18l-6.94-6.66l0.03,0.11
		c3.46,13.53,10.72,25.78,20.92,35.32L169.1,300.89z"/>
	<path class="st0" d="M172.36,327.87l0.79-0.97c8.42-10.37,14.34-22.54,17.32-35.56l2.75-12.04l0,0
		c-9.12,10.85-15.47,23.76-18.47,37.61L172.36,327.87z"/>
	<path class="st0" d="M171.79,329.26l-0.04-0.15c-3.7-13.4-10.95-25.55-20.98-35.18l-6.94-6.66l0.03,0.11
		c3.46,13.53,10.72,25.78,20.92,35.32L171.79,329.26z"/>
	<path class="st0" d="M174.71,357.71l0.79-0.97c8.42-10.37,14.34-22.54,17.32-35.56l2.75-12.04l0,0
		c-9.12,10.85-15.47,23.76-18.47,37.61L174.71,357.71z"/>
	<path class="st0" d="M174.15,359.1l-0.04-0.15c-3.7-13.4-10.95-25.55-20.98-35.18l-6.94-6.66l0.03,0.11
		c3.46,13.53,10.72,25.78,20.92,35.32L174.15,359.1z"/>
</g>
<g id="fern">
	<g>
		<path class="st0" d="M170.85,448.44l-3.08-11.86l-3.01-11.87l-3.01-11.87l-3.16-11.83l-6.26-23.67l-6.59-23.57
			c-4.6-15.65-9.18-31.3-14.47-46.7l-1.92-5.8c-0.62-1.94-1.38-3.83-2.06-5.75l-4.19-11.47c-0.71-1.91-1.36-3.83-2.13-5.72
			l-2.31-5.64l-4.63-11.29c-12.71-29.96-29.08-58.19-46.57-85.7L54.2,155.14l-13.36-20.53c-8.85-13.73-17.72-27.44-26.37-41.3
			c18.6,26.86,37.52,53.46,55.63,80.69l6.69,10.28c2.22,3.43,4.46,6.86,6.56,10.37l6.4,10.48c1.09,1.73,2.08,3.52,3.09,5.31
			l3.03,5.35l3.02,5.35c0.5,0.9,1.01,1.78,1.49,2.69l1.4,2.74l5.6,10.95l1.4,2.74c0.45,0.92,0.86,1.86,1.3,2.79l2.57,5.59l2.57,5.59
			l1.28,2.79c0.44,0.93,0.85,1.86,1.22,2.82l4.62,11.39l2.31,5.7c0.76,1.9,1.41,3.85,2.12,5.77l4.17,11.56
			c0.68,1.93,1.43,3.84,2.05,5.79l1.87,5.85c5.11,15.56,9.63,31.28,13.88,47.07l6.12,23.74l5.62,23.86l2.72,11.95l2.57,11.98
			l2.57,11.98L170.85,448.44z"/>
	</g>
	<path class="st0" d="M49.41,145.39l0.02-0.1c2.73-12.56,2.65-25.56-0.22-38.08l-2.43-10.58l0,0c-2.96,12.56-2.93,25.63,0.09,38.18
		L49.41,145.39z"/>
	<path class="st0" d="M41.97,135.28l-1.03-4.53c-3.29-14.48-10.23-27.87-20.14-38.92L9.29,78.99l0.67,3.23
		c3.21,15.43,10.54,29.71,21.21,41.31L41.97,135.28z"/>
	<path class="st0" d="M49.51,146.78L49.51,146.78c-8.3-10.04-19.08-17.74-31.27-22.33l-7.49-2.82l0,0
		c8.14,10.22,18.95,17.99,31.24,22.43L49.51,146.78z"/>
	<path class="st0" d="M62.87,164.45l0.02-0.1c2.73-12.56,2.65-25.56-0.22-38.08l-2.43-10.58l0,0c-2.96,12.56-2.93,25.63,0.09,38.18
		L62.87,164.45z"/>
	<path class="st0" d="M62.97,165.84L62.97,165.84c-8.3-10.04-19.08-17.74-31.27-22.33l-7.49-2.82l0,0
		c8.14,10.22,18.95,17.99,31.24,22.43L62.97,165.84z"/>
	<path class="st0" d="M78.39,188.02l0.02-0.1c2.73-12.56,2.65-25.56-0.22-38.08l-2.43-10.58v0c-2.96,12.56-2.93,25.63,0.09,38.18
		L78.39,188.02z"/>
	<path class="st0" d="M78.49,189.41L78.49,189.41c-8.3-10.04-19.08-17.74-31.27-22.33l-7.49-2.82l0,0
		c8.14,10.22,18.95,17.99,31.24,22.43L78.49,189.41z"/>
	<path class="st0" d="M91.59,210.23l0.15-0.6c3.22-13.2,3.3-26.97,0.26-40.21l-2.67-11.6l0,0c-3.56,13.53-3.7,27.73-0.42,41.33
		L91.59,210.23z"/>
	<path class="st0" d="M91.69,211.72l-0.61-0.7c-8.9-10.22-20.33-17.91-33.14-22.32l-10.02-3.45l0.57,0.68
		c8.74,10.43,20.22,18.21,33.15,22.48L91.69,211.72z"/>
	<path class="st0" d="M106.98,239.71l0.15-0.6c3.22-13.2,3.3-26.97,0.26-40.21l-2.67-11.6l0,0c-3.56,13.53-3.7,27.73-0.42,41.33
		L106.98,239.71z"/>
	<path class="st0" d="M107.08,241.2l-0.61-0.7c-8.9-10.22-20.33-17.91-33.14-22.32l-10.02-3.45l0.57,0.68
		c8.74,10.43,20.22,18.21,33.15,22.48L107.08,241.2z"/>
	<path class="st0" d="M123.94,277.13l0.32-0.85c4.75-12.62,6.5-26.18,5.13-39.59l-1.23-12.01v0c-5.19,13.09-7.08,27.25-5.49,41.24
		L123.94,277.13z"/>
	<path class="st0" d="M123.85,278.63l-0.29-0.43c-7.7-11.37-18.29-20.49-30.67-26.41l-9.11-4.35l0.26,0.4
		c7.51,11.57,18.14,20.78,30.66,26.56L123.85,278.63z"/>
	<path class="st0" d="M135.96,315.59l0.57-1.11c6.12-11.87,9.44-24.99,9.69-38.35l0.24-12.35h0c-6.72,12.48-10.29,26.41-10.41,40.59
		L135.96,315.59z"/>
	<path class="st0" d="M135.69,317.08l-0.07-0.14c-6.36-12.36-15.94-22.78-27.72-30.15l-8.15-5.1l0.05,0.11
		c6.15,12.54,15.75,23.05,27.69,30.3L135.69,317.08z"/>
	<path class="st0" d="M144.39,342.82l0.57-1.11c6.12-11.87,9.44-24.99,9.69-38.35l0.24-12.35v0c-6.72,12.48-10.29,26.41-10.41,40.59
		L144.39,342.82z"/>
	<path class="st0" d="M144.12,344.3l-0.07-0.14c-6.36-12.36-15.94-22.78-27.72-30.15l-8.15-5.1l0.05,0.11
		c6.15,12.54,15.75,23.05,27.69,30.3L144.12,344.3z"/>
	<path class="st0" d="M152.78,371.55l0.57-1.11c6.12-11.87,9.44-24.99,9.69-38.35l0.24-12.35l0,0
		c-6.72,12.48-10.29,26.41-10.41,40.59L152.78,371.55z"/>
	<path class="st0" d="M152.51,373.03l-0.07-0.14c-6.36-12.36-15.94-22.78-27.72-30.15l-8.15-5.1l0.05,0.11
		c6.15,12.54,15.75,23.05,27.69,30.3L152.51,373.03z"/>
</g>
<polygon class="st1" points="231.43,471.07 165.15,471.07 143.06,399.07 253.53,399.07 "/>
<path class="st2" d="M253.92,399.07H142.67c-1.31,0-2.38-3.46-2.38-7.74v-2.53c0-4.27,1.06-7.74,2.38-7.74h111.25
	c1.31,0,2.38,3.46,2.38,7.74v2.53C256.29,395.61,255.23,399.07,253.92,399.07z"/>
</svg>
