<?xml version="1.0" encoding="utf-8"?>
<!-- Generator: Adobe Illustrator 23.0.1, SVG Export Plug-In . SVG Version: 6.00 Build 0)  -->
<svg version="1.1" id="Layer_1" xmlns="http://www.w3.org/2000/svg" xmlns:xlink="http://www.w3.org/1999/xlink" x="0px" y="0px"
	 viewBox="0 0 1003.6 180" style="enable-background:new 0 0 1003.6 180;" xml:space="preserve">
<style type="text/css">
	.st0{fill:#F9F382;}
	.st1{fill:#020000;}
	.st2{fill:#3D3D3D;}
	.st3{fill:none;}

	#wing1{
        animation: flap 0.5s infinite;
        }
    #wing2{
        animation: flap2 0.5s infinite;
        }
    @keyframes flap {
        0%{transform: skewY(0deg);}
        50%{transform: skewY(10deg);}
        100%{transform: skewY(0deg);}
        }
    @keyframes flap2 {
        0%{transform: skewY(0deg);}
        50%{transform: skewY(-10deg);}
        100%{transform: skewY(0deg);}
        }
</style>
<g id="butterfly">
	<g id="wing1">
		<ellipse transform="matrix(0.7007 -0.7134 0.7134 0.7007 -6.7039 19.9798)" class="st0" cx="20.5" cy="18" rx="5.5" ry="12.1"/>
		<ellipse transform="matrix(0.7007 -0.7134 0.7134 0.7007 -6.0879 25.869)" class="st0" cx="27.8" cy="20.2" rx="8" ry="6"/>
	</g>
	<g id="wing2">
		
			<ellipse transform="matrix(0.7007 -0.7134 0.7134 0.7007 -20.0518 25.7187)" class="st0" cx="20.6" cy="36.8" rx="12.1" ry="5.5"/>
		<ellipse transform="matrix(0.7007 -0.7134 0.7134 0.7007 -16.1979 30.2201)" class="st0" cx="27.9" cy="34.4" rx="6" ry="8"/>
	</g>
	<g>
		<g>
			<path class="st1" d="M9.3,22.9c0.7,0.5,1.4,1,2,1.5c0.3,0.3,0.7,0.5,1,0.8c0.3,0.3,0.5,0.7,0.6,1.2l-0.1,0.1
				c-0.5-0.1-0.9-0.3-1.2-0.6c-0.4-0.2-0.6-0.6-0.8-1C10.2,24.3,9.7,23.6,9.3,22.9L9.3,22.9z"/>
		</g>
		<g>
			<path class="st1" d="M9.3,32.5c0.5-0.7,1-1.4,1.5-2c0.3-0.3,0.5-0.7,0.8-1c0.3-0.3,0.7-0.5,1.2-0.6l0.1,0.1
				c-0.1,0.5-0.3,0.9-0.6,1.2c-0.2,0.4-0.6,0.6-0.9,0.8C10.7,31.5,10.1,32,9.3,32.5L9.3,32.5z"/>
		</g>
		<ellipse transform="matrix(1 -8.954094e-03 8.954094e-03 1 -0.244 0.2062)" class="st2" cx="22.9" cy="27.4" rx="12.1" ry="4"/>
	</g>
</g>
<path id="motion1" class="st3" d="M1003.6,90.1c-24.1-13.9-57.3-17.7-88.6-20.9c-26.2-2.7-53.6-5.3-78.7,0.4
	c-14.7,3.4-27.7,9.5-41.9,13.8c-24.3,7.3-51.6,9.2-76.4,15.8c-20.8,5.5-43.4,14.3-63.8,8.2c-8.6-2.6-15.1-7.6-21.9-12
	c-45.4-29.8-116.6-40.1-176-25.4c-33.7,8.4-67.6,24.3-102.2,17.7c-16.5-3.1-29.9-11.1-45.2-16.3c-27.8-9.5-61-9.6-91.2-4.4
	s-58,15.2-85.2,25.4c-14.5,5.4-29.8,11.2-46.3,11.1c-32.8,0-56-21.5-86.1-30.3"/>
                <animateMotion 
                        xlink:href="#butterfly"
                        dur="11s"
                        begin="0s"
                        fill="freeze"
                        repeatCount="indefinite"
                        rotate="auto-reverse"
                            >
                    <mpath xlink:href="#motion1" />
                </animateMotion>
</svg>
