<?xml version="1.0" encoding="utf-8"?>
<!-- Generator: Adobe Illustrator 23.0.1, SVG Export Plug-In . SVG Version: 6.00 Build 0)  -->
<svg version="1.1" id="Layer_1" xmlns="http://www.w3.org/2000/svg" xmlns:xlink="http://www.w3.org/1999/xlink" x="0px" y="0px"
	 viewBox="0 0 1003.6 180" style="enable-background:new 0 0 1003.6 180;" xml:space="preserve">
<style type="text/css">
	.st0{fill:lightseagreen;}
	.st1{fill:#020000;}
	.st2{fill:#3D3D3D;}
	.st3{fill:none;stroke:none;stroke-miterlimit:10;}

	#wing1{
        animation: flap 0.5s infinite;
        }
    #wing2{
        animation: flap2 0.5s infinite;
        }
    @keyframes flap {
        0%{transform: skewY(0deg);}
        50%{transform: skewY(10deg);}
        100%{transform: skewY(0deg);}
        }
    @keyframes flap2 {
        0%{transform: skewY(0deg);}
        50%{transform: skewY(-10deg);}
        100%{transform: skewY(0deg);}
        }
</style>
<g id="butterfly">
	<g id="wing1">
		<ellipse transform="matrix(0.6725 -0.7401 0.7401 0.6725 -0.9743 15.9824)" class="st0" cx="17.6" cy="9.1" rx="5.5" ry="12.1"/>
		<ellipse transform="matrix(0.6725 -0.7401 0.7401 0.6725 2.778629e-02 22.0952)" class="st0" cx="25" cy="11" rx="8" ry="6"/>
	</g>
	<g id="wing2">
		<ellipse transform="matrix(0.6725 -0.7401 0.7401 0.6725 -14.5644 22.789)" class="st0" cx="18.5" cy="27.9" rx="12.1" ry="5.5"/>
		<ellipse transform="matrix(0.6725 -0.7401 0.7401 0.6725 -10.2653 27.2552)" class="st0" cx="25.7" cy="25.2" rx="6" ry="8"/>
	</g>
	<g>
		<g>
			<path class="st1" d="M6.6,14.4c0.7,0.5,1.4,0.9,2.1,1.4c0.3,0.2,0.7,0.4,1,0.8c0.3,0.3,0.5,0.7,0.6,1.2l-0.1,0.1
				c-0.5-0.1-0.9-0.3-1.2-0.5c-0.4-0.2-0.6-0.6-0.9-0.9C7.6,15.8,7,15.2,6.6,14.4L6.6,14.4z"/>
		</g>
		<g>
			<path class="st1" d="M7,24c0.5-0.7,0.9-1.4,1.4-2.1c0.2-0.3,0.4-0.7,0.8-1c0.3-0.3,0.7-0.5,1.2-0.6l0.1,0.1
				c-0.1,0.5-0.3,0.9-0.5,1.2c-0.2,0.4-0.6,0.6-0.9,0.9C8.4,23,7.7,23.5,7,24L7,24z"/>
		</g>
		
			<ellipse transform="matrix(0.9989 -4.778589e-02 4.778589e-02 0.9989 -0.8541 0.9944)" class="st2" cx="20.4" cy="18.4" rx="12.1" ry="4"/>
	</g>
</g>
<animateMotion  accumulate="none" additive="replace" begin="0s" calcMode="paced" dur="9s" fill="freeze" repeatCount="indefinite" restart="always" rotate="auto-reverse">
	<mpath></mpath>
</animateMotion>
<path id="motion2" class="st3" d="M0.3,158.4c20.9-12.1,41.8-24.3,62.7-36.4c20.9-12.1,41.9-24.4,64.5-32.4c45.6-16.3,95.3-15,142.9-7
	s93.9,22.3,141.3,31.6c36.2,7.1,72.9,11.4,109.6,14.8c39.9,3.8,80.4,6.6,120-0.2c45.6-7.9,88.4-28.4,133.6-38.6
	c75-17.1,152.9-5.4,228.9,6.3"/>

		                <animateMotion 
                        xlink:href="#butterfly"
                        dur="9.5s"
                        begin="0s"
                        fill="freeze"
                        repeatCount="indefinite"
                        rotate="auto-reverse"
                            >
                    <mpath xlink:href="#motion2" />
				</animateMotion>
</svg>
