<?xml version="1.0" encoding="utf-8"?>
<!-- Generator: Adobe Illustrator 23.0.1, SVG Export Plug-In . SVG Version: 6.00 Build 0)  -->
<svg version="1.1" id="Layer_1" xmlns="http://www.w3.org/2000/svg" xmlns:xlink="http://www.w3.org/1999/xlink" x="0px" y="0px"
	 width="150" height="150" viewBox="0 0 300 340" style="enable-background:new 0 0 289.4 326.5;" xml:space="preserve">
<style type="text/css">
	.st0{fill:#AA0C1B;}
	.st1{fill:#09CEC8;}
	.st2{fill:#9AE870;}
	.st3{fill:#629B3D;}
	.st4{fill:#A67C52;stroke:#603813;stroke-width:2;stroke-miterlimit:10;}
	.st5{fill:#B2967D;stroke:#603813;stroke-width:2;stroke-miterlimit:10;}
</style>
<g>
	<polygon class="st0" points="30.7,50.1 8.4,41 23.9,42.4 10.3,27 32.6,35.9 23.7,17.1 41.1,29.6 36.3,7.8 49.9,23.3 51.5,9.3 
		56.9,30.9 	"/>
	<polygon class="st1" points="231.3,51 234.4,37.4 235.6,46.3 244.1,36.8 241.1,50.4 252.5,43.2 246.5,54.5 260.5,49.2 251.9,58.7 
		261.6,57.9 247.8,63.5 	"/>
	<g>
		
			<ellipse transform="matrix(0.2376 -0.9714 0.9714 0.2376 -16.2797 138.4702)" class="st2" cx="80.1" cy="79.6" rx="55.1" ry="60"/>
		
			<ellipse transform="matrix(0.4992 -0.8665 0.8665 0.4992 -28.2224 106.9209)" class="st3" cx="78.4" cy="77.9" rx="48.5" ry="54.1"/>
		
			<ellipse transform="matrix(0.7427 -0.6697 0.6697 0.7427 -32.3022 71.6336)" class="st2" cx="77.1" cy="77.8" rx="37.1" ry="54.1"/>
		<ellipse transform="matrix(0.7692 -0.639 0.639 0.7692 -32.8059 68.5436)" class="st3" cx="78.5" cy="79.7" rx="27.8" ry="51.7"/>
		
			<ellipse transform="matrix(0.7891 -0.6142 0.6142 0.7891 -31.5668 63.7432)" class="st2" cx="77.1" cy="77.8" rx="9.3" ry="53.9"/>
	</g>
	<g>
		
			<ellipse transform="matrix(0.8775 -0.4795 0.4795 0.8775 -15.467 113.1454)" class="st2" cx="213.8" cy="86.9" rx="46.7" ry="41.2"/>
		
			<ellipse transform="matrix(0.8128 -0.5825 0.5825 0.8128 -9.4818 141.1422)" class="st3" cx="214.9" cy="85.3" rx="42.6" ry="35.8"/>
		<ellipse transform="matrix(0.7072 -0.707 0.707 0.7072 3.159 176.4831)" class="st2" cx="214.7" cy="84.4" rx="42.9" ry="27.2"/>
		<ellipse transform="matrix(0.6855 -0.7281 0.7281 0.6855 4.6567 182.3854)" class="st3" cx="213.4" cy="85.8" rx="41" ry="20.4"/>
		
			<ellipse transform="matrix(0.6658 -0.7461 0.7461 0.6658 8.7403 188.3691)" class="st2" cx="214.7" cy="84.4" rx="42.8" ry="6.8"/>
	</g>
	<g>
		<ellipse class="st2" cx="153.1" cy="158.8" rx="108.6" ry="105.1"/>
		<ellipse class="st3" cx="152.6" cy="154.5" rx="93.8" ry="96.5"/>
		<ellipse class="st2" cx="150.6" cy="153.2" rx="70.7" ry="97.8"/>
		<ellipse class="st3" cx="150.6" cy="157.4" rx="53" ry="93.6"/>
		<ellipse class="st2" cx="150.6" cy="153.2" rx="17.7" ry="97.8"/>
	</g>
</g>
<g>
	<polygon class="st4" points="217.6,326.5 87.4,326.5 44,197 261,197 	"/>
	<path class="st5" d="M261.8,197H43.3c-2.6,0-4.7-6.2-4.7-13.9v-4.5c0-7.7,2.1-13.9,4.7-13.9h218.5c2.6,0,4.7,6.2,4.7,13.9v4.5
		C266.5,190.8,264.4,197,261.8,197z"/>
</g>
</svg>
