<?xml version="1.0" encoding="utf-8"?>
<!-- Generator: Adobe Illustrator 23.0.1, SVG Export Plug-In . SVG Version: 6.00 Build 0)  -->
<svg version="1.1" id="Layer_1" xmlns="http://www.w3.org/2000/svg" xmlns:xlink="http://www.w3.org/1999/xlink" x="0px" y="0px"
	 viewBox="0 0 1280 126" style="enable-background:new 0 0 1280 126;" xml:space="preserve">
<style type="text/css">
	.st0{fill:#78E3F4;}
</style>
<g>
	<polygon class="st0" points="-34.71,125.85 -72,125.85 -72,13.98 -53.36,0 -34.71,13.98 	"/>
	<polygon class="st0" points="21.22,125.85 -16.07,125.85 -16.07,13.98 2.58,0 21.22,13.98 	"/>
	<polygon class="st0" points="77.15,125.85 39.86,125.85 39.86,13.98 58.51,0 77.15,13.98 	"/>
	<polygon class="st0" points="133.08,125.85 95.8,125.85 95.8,13.98 114.44,0 133.08,13.98 	"/>
	<polygon class="st0" points="189.02,125.85 151.73,125.85 151.73,13.98 170.37,0 189.02,13.98 	"/>
	<rect x="-72" y="46.61" class="st0" width="275" height="18.64"/>
	<rect x="-72" y="97.88" class="st0" width="275" height="18.64"/>
</g>
<g>
	<polygon class="st0" points="235.29,126 198,126 198,14.14 216.64,0.15 235.29,14.14 	"/>
	<polygon class="st0" points="291.22,126 253.93,126 253.93,14.14 272.58,0.15 291.22,14.14 	"/>
	<polygon class="st0" points="347.15,126 309.86,126 309.86,14.14 328.51,0.15 347.15,14.14 	"/>
	<polygon class="st0" points="403.08,126 365.8,126 365.8,14.14 384.44,0.15 403.08,14.14 	"/>
	<polygon class="st0" points="459.02,126 421.73,126 421.73,14.14 440.37,0.15 459.02,14.14 	"/>
	<rect x="198" y="46.76" class="st0" width="275" height="18.64"/>
	<rect x="198" y="98.03" class="st0" width="275" height="18.64"/>
</g>
<g>
	<polygon class="st0" points="509.29,125.85 472,125.85 472,13.98 490.64,0 509.29,13.98 	"/>
	<polygon class="st0" points="565.22,125.85 527.93,125.85 527.93,13.98 546.58,0 565.22,13.98 	"/>
	<polygon class="st0" points="621.15,125.85 583.86,125.85 583.86,13.98 602.51,0 621.15,13.98 	"/>
	<polygon class="st0" points="677.08,125.85 639.8,125.85 639.8,13.98 658.44,0 677.08,13.98 	"/>
	<polygon class="st0" points="733.02,125.85 695.73,125.85 695.73,13.98 714.37,0 733.02,13.98 	"/>
	<rect x="472" y="46.61" class="st0" width="275" height="18.64"/>
	<rect x="472" y="97.88" class="st0" width="275" height="18.64"/>
</g>
<g>
	<polygon class="st0" points="784.29,126 747,126 747,14.14 765.64,0.15 784.29,14.14 	"/>
	<polygon class="st0" points="840.22,126 802.93,126 802.93,14.14 821.58,0.15 840.22,14.14 	"/>
	<polygon class="st0" points="896.15,126 858.86,126 858.86,14.14 877.51,0.15 896.15,14.14 	"/>
	<polygon class="st0" points="952.08,126 914.8,126 914.8,14.14 933.44,0.15 952.08,14.14 	"/>
	<polygon class="st0" points="1008.02,126 970.73,126 970.73,14.14 989.37,0.15 1008.02,14.14 	"/>
	<rect x="747" y="46.76" class="st0" width="275" height="18.64"/>
	<rect x="747" y="98.03" class="st0" width="275" height="18.64"/>
</g>
<g>
	<polygon class="st0" points="1058.29,126 1021,126 1021,14.14 1039.64,0.15 1058.29,14.14 	"/>
	<polygon class="st0" points="1114.22,126 1076.93,126 1076.93,14.14 1095.58,0.15 1114.22,14.14 	"/>
	<polygon class="st0" points="1170.15,126 1132.86,126 1132.86,14.14 1151.51,0.15 1170.15,14.14 	"/>
	<polygon class="st0" points="1226.08,126 1188.8,126 1188.8,14.14 1207.44,0.15 1226.08,14.14 	"/>
	<polygon class="st0" points="1282.02,126 1244.73,126 1244.73,14.14 1263.37,0.15 1282.02,14.14 	"/>
	<rect x="1021" y="46.76" class="st0" width="275" height="18.64"/>
	<rect x="1021" y="98.03" class="st0" width="275" height="18.64"/>
</g>
</svg>
