<?xml version="1.0" encoding="utf-8"?>
<!-- Generator: Adobe Illustrator 23.0.1, SVG Export Plug-In . SVG Version: 6.00 Build 0)  -->
<svg version="1.1" id="Layer_1" xmlns="http://www.w3.org/2000/svg" xmlns:xlink="http://www.w3.org/1999/xlink" x="0px" y="0px"
	width="300" height="300" viewBox="100 0 400 600" style="enable-background:new 0 0 800 600;" xml:space="preserve">
<style type="text/css">
	.st0{fill:none;stroke:#006837;stroke-width:4;stroke-miterlimit:10;}
	.st1{fill:none;stroke:#006837;stroke-width:2;stroke-miterlimit:10;}
	.st2{fill:#CEF4E1;}
	.st3{fill:#E5E1CC;}
	.st4{fill:#F4F4E4;stroke:#7C7C7C;stroke-miterlimit:10;}
	.st5{fill:#564604;}
	.st6{fill:orange;}
	.st7{fill:#95DBF9;}
	.st8{fill:#87F9F9;}

	
</style>
<g>
<g>
	<path class="st0" d="M354.82,302.18c0-92.66-74.48-167.65-166.52-167.65"/>
	<path class="st1" d="M220.41,138c0,9.01-11.05,16.29-24.71,16.29"/>
	<path class="st1" d="M235.01,141.21c0,9.58-4.01,17.32-8.96,17.32"/>
	<path class="st1" d="M254.65,149.87c0,7.71-6.16,13.96-13.76,13.96"/>
	<path class="st1" d="M293.11,171.81c0,7.71-6.16,13.96-13.76,13.96"/>
	<path class="st1" d="M301.76,181.31c0,9.26-10.03,16.75-22.42,16.75"/>
	<path class="st1" d="M203.82,134.53c0-8-3.63-14.47-8.12-14.47"/>
	<path class="st1" d="M230.54,139.96c0-9.05-5.63-16.37-12.6-16.37"/>
	<path class="st1" d="M249.38,146.15c0-10.42-3.8-18.85-8.5-18.85"/>
	<path class="st1" d="M274.25,158.53c0,5.46-7.51,9.88-16.78,9.88"/>
	<path class="st1" d="M266.86,154.29c0-12.45-4.2-22.52-9.39-22.52"/>
	<path class="st1" d="M290.92,168.11c0-12.45-4.2-22.52-9.39-22.52"/>
	<path class="st1" d="M286.23,166.53c0,5.83-10.76,10.54-24.06,10.54"/>
	<path class="st1" d="M279.71,160.33c0-12.34-3.65-22.33-8.15-22.33"/>
	<ellipse class="st2" cx="183.35" cy="134.53" rx="8.47" ry="5.63"/>
	
		<ellipse transform="matrix(0.7759 -0.6309 0.6309 0.7759 -23.9685 179.7047)" class="st2" cx="240.95" cy="123.59" rx="4.6" ry="6.92"/>
	
		<ellipse transform="matrix(0.1026 -0.9947 0.9947 0.1026 62.6006 438.3862)" class="st2" cx="274.25" cy="184.5" rx="4.6" ry="6.92"/>
</g>
<line class="st0" x1="362.05" y1="163.82" x2="362.05" y2="287.35"/>
<path class="st0" d="M380.65,287.35c0-51.88,33.03-93.85,73.85-93.85"/>
<path class="st3" d="M392.72,273.03l25.16,33.85c11.66,15.7,18.22,36.98,18.22,59.18v13.21c0,22.2-6.55,43.48-18.22,59.18
	L392.48,504H330.9l-24.68-65.54c-11.66-15.7-18.22-36.98-18.22-59.18v-13.21c0-22.2,6.55-43.48,18.22-59.18l25.16-33.85
	L392.72,273.03z"/>
<g>
	<ellipse class="st4" cx="454.5" cy="156" rx="9" ry="18"/>
	<ellipse transform="matrix(0.7071 -0.7071 0.7071 0.7071 8.2333 350.219)" class="st4" cx="426.87" cy="165.17" rx="9" ry="18"/>
	<ellipse transform="matrix(0.5 -0.866 0.866 0.5 57.3651 453.5135)" class="st4" cx="421.44" cy="177.08" rx="9" ry="18"/>
	
		<ellipse transform="matrix(0.9198 -0.3924 0.3924 0.9198 -27.6713 185.2958)" class="st4" cx="439.38" cy="160.33" rx="9" ry="18"/>
	<ellipse transform="matrix(0.7071 -0.7071 0.7071 0.7071 -14.0656 404.0534)" class="st4" cx="480.7" cy="219.01" rx="9" ry="18"/>
	
		<ellipse transform="matrix(0.9198 -0.3924 0.3924 0.9198 -51.0846 202.5439)" class="st4" cx="469.86" cy="226.22" rx="9" ry="18"/>
	<ellipse transform="matrix(0.7071 -0.7071 0.7071 0.7071 23.4658 389.718)" class="st4" cx="482.16" cy="166.53" rx="18" ry="9"/>
	
		<ellipse transform="matrix(0.4651 -0.8853 0.8853 0.4651 110.3117 503.2191)" class="st4" cx="471.56" cy="160.33" rx="18" ry="9"/>
	<ellipse transform="matrix(0.4651 -0.8853 0.8853 0.4651 35.5316 511.2413)" class="st4" cx="440.81" cy="226.22" rx="18" ry="9"/>
	
		<ellipse transform="matrix(0.7071 -0.7071 0.7071 0.7071 -29.0064 367.9833)" class="st4" cx="429.69" cy="219.01" rx="18" ry="9"/>
	<ellipse class="st4" cx="454.5" cy="228.35" rx="9" ry="18"/>
	<ellipse class="st4" cx="491.72" cy="193.5" rx="18" ry="9"/>
	<ellipse class="st4" cx="418" cy="193.5" rx="18" ry="9"/>
	<ellipse transform="matrix(0.866 -0.5 0.5 0.866 -47.9372 238.692)" class="st4" cx="421.44" cy="208.8" rx="18" ry="9"/>
	<ellipse transform="matrix(0.866 -0.5 0.5 0.866 -22.724 267.4946)" class="st4" cx="487.79" cy="176.15" rx="18" ry="9"/>
	<ellipse transform="matrix(0.5 -0.866 0.866 0.5 64.5416 525.988)" class="st4" cx="487.79" cy="207.1" rx="9" ry="18"/>
	<circle class="st5" cx="454.5" cy="193.5" r="22.5"/>
</g>
<ellipse class="st6" cx="362.05" cy="141.21" rx="7.24" ry="14.79"/>
<g>
	<path class="st6" d="M362.35,192.61L362.35,192.61c-13.81,0-25-11.19-25-25v-29.88h49.41v30.47
		C386.76,181.68,375.83,192.61,362.35,192.61z"/>
	<ellipse class="st6" cx="344.58" cy="141.21" rx="7.24" ry="14.79"/>
	<ellipse class="st6" cx="354.82" cy="141.21" rx="7.24" ry="14.79"/>
	<ellipse class="st6" cx="369.29" cy="141.21" rx="7.24" ry="14.79"/>
	<ellipse class="st6" cx="379.52" cy="141.21" rx="7.24" ry="14.79"/>
</g>
<path class="st1" d="M310.66,188.29c0,12.2-8.95,22.06-20.01,22.06"/>
<path class="st1" d="M320.67,199.32c0,9.22-5.53,16.68-12.37,16.68"/>
<path class="st1" d="M326.85,210.67c0,9.78-7.24,17.69-16.19,17.69"/>
<path class="st1" d="M336.42,224.48c0,12.09-8.48,21.87-18.95,21.87"/>
<path class="st1" d="M341.9,238.29c0,12.09-8.48,21.87-18.95,21.87"/>
<path class="st1" d="M298.24,178.01c5.55-5.55,4.68-15.39-1.94-22.01"/>
<path class="st1" d="M305.35,185.28c8.8-8.8,12.95-18.89,9.28-22.56"/>
<path class="st1" d="M314.21,192.49c10.15-5.14,15.41-15.14,11.75-22.36"/>
<path class="st1" d="M324.43,207.1c10.15-5.14,15.41-15.14,11.75-22.36"/>
<path class="st1" d="M332.42,219.22c9.77-5.84,14.32-16.18,10.17-23.13"/>
<path class="st1" d="M338.73,233.79c9.77-5.84,14.32-16.18,10.17-23.13"/>
<ellipse transform="matrix(0.7759 -0.6309 0.6309 0.7759 -31.1218 220.8622)" class="st2" cx="295.3" cy="154.24" rx="4.6" ry="6.92"/>
<ellipse transform="matrix(0.9965 -0.084 0.084 0.9965 -18.0854 26.693)" class="st2" cx="308.29" cy="228.35" rx="6.92" ry="4.6"/>
<path class="st7" d="M421.66,339.27c-5.51-5.78-7.94-13.73-10.76-21.19c-1.38-3.64-3.46-7.71-7.28-8.44
	c-3.77-0.72-7.35,2.41-8.74,5.98c-1.4,3.57-1.24,7.52-1.59,11.34c-0.61,6.77-2.87,13.39-6.53,19.13c-0.58,0.9-1.24,1.83-2.23,2.25
	c-0.98,0.41-2.09,0.25-3.12-0.01c-6.08-1.53-11.08-6.08-14.35-11.42c-3.28-5.35-5.04-11.47-6.5-17.57c-0.52-2.15-1.1-4.47-2.81-5.87
	c-1.46-1.19-3.5-1.47-5.36-1.17c-7.32,1.17-10.93,9.39-12.97,16.52c-2.04,7.13-4.78,15.42-11.82,17.72
	c-6.1,1.99-12.82-1.82-16.55-7.05c-3.73-5.23-5.28-11.64-7.41-17.69c-0.79-2.23-1.7-4.47-2.82-6.58c-4.28,7.53-7.56,15.95-9.73,24.9
	c1.61,2.33,2.78,4.89,3.2,7.72c1.02,6.89-2.15,15.4,3.08,20c1.44,1.27,3.29,1.94,5.1,2.58c4.72,1.68,9.55,3.39,14.57,3.46
	c5.01,0.08,10.34-1.76,13.19-5.89c3.31-4.79,3.28-12.29,8.55-14.78c4.46-2.11,9.86,1.27,12.12,5.66s2.42,9.51,3.46,14.34
	s3.45,9.94,8.09,11.64c4.82,1.76,10.29-0.95,13.57-4.89c3.28-3.94,4.96-8.92,7.11-13.58c2.15-4.66,5.08-9.33,9.73-11.49
	c5.7-2.65,12.64-0.79,17.8,2.81c5.16,3.6,9.03,8.7,13.28,13.34c3.48,3.8,7.46,7.43,12.15,9.4c0-0.39,0.02-0.78,0.02-1.17v-13.21
	c0-7.08-0.67-14.07-1.96-20.81C429.57,344.94,424.88,342.65,421.66,339.27z"/>
<path class="st8" d="M414.43,445.72c-5.51-5.78-7.94-13.73-10.76-21.19c-1.38-3.64-3.46-7.71-7.28-8.44
	c-3.77-0.72-7.35,2.41-8.74,5.98c-1.4,3.57-1.24,7.52-1.59,11.34c-0.61,6.77-2.87,13.39-6.53,19.13c-0.58,0.9-1.24,1.83-2.23,2.25
	c-0.98,0.41-2.09,0.25-3.12-0.01c-6.08-1.53-11.08-6.08-14.35-11.42c-3.28-5.35-5.04-11.47-6.5-17.57c-0.52-2.15-1.1-4.47-2.81-5.87
	c-1.46-1.19-3.5-1.47-5.36-1.17c-7.32,1.17-10.93,9.39-12.97,16.52c-2.04,7.13-4.78,15.42-11.82,17.72
	c-2.98,0.97-6.1,0.55-8.95-0.73l9.28,24.65c0.87-0.71,1.65-1.52,2.3-2.46c3.31-4.79,3.28-12.29,8.55-14.78
	c4.46-2.11,9.86,1.27,12.12,5.66c2.26,4.39,2.42,9.51,3.46,14.34s3.45,9.94,8.09,11.64c4.82,1.76,10.29-0.95,13.57-4.89
	c3.28-3.94,4.96-8.92,7.11-13.58s5.08-9.33,9.73-11.49c5.7-2.65,12.64-0.79,17.8,2.81c1.21,0.84,2.35,1.78,3.44,2.76l8.04-20.74
	C414.74,446.02,414.58,445.88,414.43,445.72z"/>
</g>
</svg>
