<?xml version="1.0" encoding="utf-8"?>
<!-- Generator: Adobe Illustrator 23.0.1, SVG Export Plug-In . SVG Version: 6.00 Build 0)  -->
<svg version="1.1" id="Layer_1" xmlns="http://www.w3.org/2000/svg" xmlns:xlink="http://www.w3.org/1999/xlink" x="0px" y="0px"
	 width="300" height="300" viewBox="100 0 400 600" style="enable-background:new 0 0 446.1 447.5;" xml:space="preserve">
<style type="text/css">
	.st0{fill:#4F7005;stroke:#4F7005;stroke-miterlimit:10;}
	.st1{fill:#4F7005;}
	.st2{fill:#4651CE;}
	.st3{fill:#B19FF4;}
	.st4{fill:#8483C9;}
	.st5{fill:#D5D4FF;}
	.st6{fill:#7171EA;}
	.st7{fill:#9D9DF4;}
	.st8{fill:#BBAE08;}
	.st9{fill:#938508;}
	.st10{fill:#948509;}
	.st11{fill:#527109;}
	.st12{fill:#54720F;}
	.st13{fill:#6A7D31;}
	.st14{fill:#E3334D;}
	.st15{fill:#BC1A38;}
	.st16{fill:#FBADD8;}
	.st17{fill:#F64A6B;}
	.st18{fill:#E4344F;}
	.st19{fill:#7C6CEF;}
	.st20{fill:#F2D5C5;}
	.st21{fill:#94A4EA;}
	.st22{fill:#F2D5C6;}
	.st23{fill:#5B7416;}
	.st24{fill:#E2334E;}
	.st25{fill:#E4354F;}
	.st26{fill:#F2D3C6;}
	.st27{fill:#F4F5ED;}
	.st28{fill:#BBAF08;}
	.st29{fill:#F74F6F;}
	.st30{fill:#97860B;}
	.st31{fill:#948609;}
	.st32{fill:#657B27;}
	.st33{fill:#FA9322;}
	.st34{fill:#C22F44;}
	.st35{fill:#5E7319;}
	.st36{fill:#CF9613;}
	.st37{fill:#E43550;}
	.st38{fill:#F74F6E;}
	.st39{fill:#989866;}
	.st40{fill:#E5AB0F;}
	.st41{fill:#EEB106;}
	.st42{fill:#7B5907;}
	.st43{fill:#F7AC1B;}
	.st44{fill:#F5B213;}
	.st45{fill:#DEA016;}
	.st46{fill:#7E5C05;}
	.st47{fill:#BD213C;}
	.st48{fill:#A07305;}
	.st49{fill:#E8AE16;}
	.st50{fill:#FA8E10;}
	.st51{fill:#C5910C;}
	.st52{fill:#BF2342;}
	.st53{fill:#FB8B09;}
	.st54{fill:#E5A014;}
	.st55{fill:#8D6904;}
	.st56{fill:#C22741;}
	.st57{fill:#B28305;}
	.st58{fill:#FA8E12;}
	.st59{fill:#B9880F;}
	.st60{fill:#9C7007;}
	.st61{fill:#A67C52;stroke:#603813;stroke-width:2;stroke-miterlimit:10;}
	.st62{fill:#B2967D;stroke:#603813;stroke-width:2;stroke-miterlimit:10;}
</style>
<path class="st0" d="M313.4,114.7L313.4,114.7c-0.2-10.8-5.7-23.7-11.9-30c-0.1-0.1-0.2-0.2-0.4-0.3c-4-3.1-11.6-8.3-11.7-8.2l0,0
	l8,8.2l0,0c4.5,5.9,12.3,26.2,1.4,61.3l0,0l0,0c1.2,1.5,3.4,1.4,4.5-0.1l0,0C310.1,136.4,313.6,125.7,313.4,114.7z"/>
<g>
	<path class="st1" d="M226.3,366.6c-1.3-32.3,1.8-65,9.7-96.7c3.9-15.8,9.2-31.3,15.4-46.4c6.4-15.1,13.9-29.6,22.7-43.4
		c8.9-13.8,18.9-26.8,30.3-38.6l2.1-2.2c0.7-0.7,1.4-1.5,2.2-2.2l4.5-4.2c2.9-2.9,6.1-5.4,9.2-8.1l2.3-2l2.4-1.9l4.9-3.7
		c1.6-1.3,3.4-2.4,5.1-3.5l5.1-3.4c13.8-8.9,28.9-15.7,44.6-20.2c15.7-4.5,32.1-6.6,48.3-5.8c-16.2,0.8-32.1,3.8-47.2,9.1l-2.8,1
		l-1.4,0.5c-0.5,0.2-0.9,0.4-1.4,0.6l-5.5,2.3l-2.8,1.1c-0.9,0.4-1.8,0.9-2.7,1.3l-5.4,2.6c-1.8,0.8-3.5,1.9-5.3,2.8l-5.2,2.9
		c-1.7,1-3.4,2.1-5.1,3.2c-1.7,1.1-3.4,2.1-5,3.2l-4.9,3.5c-1.6,1.2-3.3,2.3-4.8,3.6l-4.7,3.7l-2.3,1.9l-2.2,2c-3,2.7-6,5.2-8.8,8.1
		l-4.3,4.2c-0.7,0.7-1.4,1.4-2.1,2.2l-2,2.2c-10.9,11.6-20.7,24.3-29.2,37.8c-8.7,13.4-16.1,27.6-22.5,42.3
		c-6.5,14.6-11.8,29.8-16.3,45.2C232.5,302.3,227.9,334.3,226.3,366.6z"/>
</g>
<g>
	<path class="st1" d="M248.3,233.2c-0.9-8.9-1.7-17.7-2.6-26.6c-0.2-2.2-0.5-4.3-0.8-6.5c1.1-2.3,2.8-3.8,5.4-3.9
		c2,12.3,3,24.6,4,37C252.2,233.2,250.3,233.2,248.3,233.2z"/>
	<path class="st2" d="M250.3,196.2c-1.8,1.3-3.6,2.6-5.4,3.9c-4.1,1-8.1,1.3-12.2-0.4c-6.4-2.8-9.4-8.8-7.8-16.2
		c0.6-2.9,1.6-5.7,2.8-8.3c1.9-1.3,4-0.7,6-0.8c5.1-0.2,6.4-1.2,7.8-6.1c0.9-2.9,1.5-5.9,3.6-8.3c0.7-0.1,1,0.4,1.2,0.9
		c0.9,2.7,3,4.2,5.4,5.4c1.3,0.7,3.3,1.1,3.3,2.9c0,2.1-2.2,2-3.6,2.7c-0.4,0.2-0.8,0.3-1.1,0.9c1.6,1.8,4.8,2.3,4.9,5.4
		c-0.7,1.4,0.5,1.7,1.4,2c1.6,0.5,3.1,0.1,4.2-1c0.3-0.3-0.8-0.2-0.9-0.6c-0.4-0.8,0-1.5,0.4-2.2c1.3-1.7,3.5-2.2,5-3.5
		c-1.1-1.2-2.5-1.2-3.6-1.9c-1-0.7-2-1.8-0.8-2.6c3.3-2.2,6.1-4.9,9.5-6.9c2.2,1.7,2.5,4.2,3.3,6.6c1.6,5.2,3,6.2,8.4,6.4
		c1.9,0,4-0.6,5.7,0.9c2.1,4.3,3.6,8.7,3.1,13.6c-0.6,5.9-4.1,9.7-9.8,11.5c-5.5,1.7-10.4,0.3-14.6-3.3c-4-3.4-6.6-7.8-8.8-13.6
		C255.9,188.6,253.2,192.5,250.3,196.2z"/>
	<path class="st3" d="M223.8,125.3c-2.4,2.5-4.1,5.5-7,7.6c-5,3.6-11.5,4-16.9,0.7c-4.9-3-6.7-7.8-5.7-14.4c0.4-2.7,1.5-5.2,2.2-7.8
		c0.6-1.4,1.6-2,3.2-1.7c1.2,0.2,2.4,0.2,3.6,0.2c4.5-0.3,6.3-1.6,7.5-6c1-3.5,2.1-7,3.7-10.3c0.9,0.1,1.1,0.8,1.1,1.4
		c-0.1,3.6,2.2,5.2,5,6.5c0.5,0.2,1,0.5,1.4,0.7c0.9,0.5,2.1,1,2.2,2.2c0,1.5-1.3,1.8-2.4,2.3c-0.8,0.3-1.7,0.3-2.3,1.4
		c2.1,1.6,4.6,2.6,5.7,5c1.5,0.7,2.8,0.5,3.8-0.9c1.1-2.1,3.4-2.6,5-4c-0.8-1.3-2.2-1.2-3.2-1.9c-2-1.3-2.1-2.3-0.2-3.7
		c0.8-0.6,1.7-1,2.6-1.4c2.5-1.2,4.3-3,4.5-6c0.1-0.7,0.1-1.6,1.1-1.8c1.9,2.5,2.1,5.6,3.1,8.4c2.5,7.3,4.1,8.5,11.9,7.7
		c0.9-0.1,1.7-0.2,2.6,0.1c4.2,6,5,12.5,2.2,19.2c-2.4,5.6-7.4,7.3-13.1,7.7c-0.7,0-1.2,0.4-1.8,0.6c-4.4-1.9-8.6-4.2-12.1-7.7
		c-1.8-2.6-3.3-5.4-4.8-8.2C225.3,122.5,225.5,124.6,223.8,125.3z"/>
	<path class="st4" d="M287.8,175.3c-0.3,0-0.7,0-1,0c-3.4-0.3-6.9,0.7-10.2-1c-3.8-1.9-3-6-4.5-8.9c-0.7-1.3-1.4-2.7-2-4
		c-1.4-2.5-1.2-6-4.3-7.8c-0.5,1.1,0.2,2.6-1,3.5c-1.6,0.6-2.9,0.1-4.3-0.7c-0.5-1.6,0.5-3.1,0.6-4.6c1.4-2.2,3-4.1,5.7-4.7
		c2.8-1.7,3.8-4.9,4.2-7.5c1.9-11.3,9-11.3,18.1-8.8c7.5,2.1,13.4,7.2,17.2,14.3c3.9,7.2,2.7,15-3,21c-3.8,3.9-8.1,6.9-13.5,8.3
		C289.1,174.5,288.2,174.5,287.8,175.3z"/>
	<path class="st5" d="M214.7,93.7c-0.4,3.1-2,5.9-2.7,8.9c-1.7,7.1-3.6,8.8-12.4,8c-1.4-0.1-2.2,0.3-3.2,0.9c0-2-1.8-2-3-2.4
		c-6.1-1.8-10.6-5.7-14.1-10.8c-0.8-1.2-1.4-2.6-2-3.9c-2.6-3.2-1.5-6.7-0.9-10.2c0.3-1.7,1-3.3,1.9-4.8c0.7-0.8,1.3-1.9,2.2-2.3
		c1.9-1,0.2-1.7,0-2.6c3-2.7,6.4-4.8,10-6.4c1.3,1.2,2.2-0.2,3.1-0.6c4.4-1.7,8.9-2.8,13.6-1.4c2,0.6,3.3,1.9,4.6,3.4
		c0,0,0.2-0.1,0.2-0.1c0.1-0.2,0.1-0.4,0.1-0.6c2.1,0.6,1.9,2.7,2.4,4.1c1.8,5.4,4.6,10.2,8.9,14.1c0.3,1.5,0.2,3.1,0.7,4.6
		c-1.8,1.2-3.5,2.3-4.8-0.5c-0.2-0.6,0.2-1.5-0.4-1.8c-0.7-0.4-1,0.5-1.4,0.9C216.4,91.2,216.1,92.8,214.7,93.7z"/>
	<path class="st4" d="M231.9,129.2c3.2,2.1,5.8,5.4,9.9,6.1c0.7,0.1,1.2,1.2,1.8,1.8c2.2,2.2,2.2,5.5,4.1,7.9
		c0.9,1.1,1.4,2.4,2.8,2.9c1.8,0.9,3.2,2.3,4.5,3.8c0,1.4,0.1,2.8-0.1,4.3c-1.3,1.3-2.7,2-4.4,0.7c-0.6-1-0.4-2.1-0.5-3.4
		c-2.9,1.6-2.8,4.9-4.6,6.9c-1.2,3.1-2.6,6.2-3.4,9.5c-1,4.1-2.9,5.5-7.2,5.6c-2.4,0.1-4.8-0.1-7.2-0.1c-5.4-1.8-10.4-4.1-14.6-8.2
		c-8.1-8-8.5-18.3-0.4-26.9c3.9-4.2,8.6-7.3,13.8-9.5C228.1,129,230,128.9,231.9,129.2z"/>
	<path class="st5" d="M256.2,110.2c-3,0.4-6,1-9.1,0.2c-2.1-0.5-3.7-1.5-4.4-3.5c-1.4-4-3.6-7.7-3.8-12.1c0-0.4-0.4-0.7-0.6-1.1
		c-2.2-1.1-2.4-3.9-4.7-5.3c0.1,1.1,0.3,2.1,0,3.1c-1.6,2.4-3.1,1.1-4.6-0.1c-0.4-1.3,0.7-2.4,0.6-3.7c1.1-2.4,2.5-4.5,5.3-5.2
		c1.6,0.5,1.8-0.9,2.1-1.7c1.1-2.4,2.3-4.8,2.9-7.3c2-8.3,7.1-9.1,13.1-7.9c10.6,2.2,18.8,8.3,22.7,18.7c2,5.4,0.3,10.7-3.1,15.4
		c-3,4.1-7.2,6.6-11.5,9c-0.8,0.4-1,0.6-0.6,1.4C259.3,111.5,257.8,111,256.2,110.2z"/>
	<path class="st2" d="M179.1,79.1c-2.5,4.8-3.4,9.9-1.9,15.2c-5.6,5.7-13.8,5.8-19.6,0.5c-3.4-3.1-5.4-7.1-7.5-11.5
		c-2.1,4.6-4.3,8.6-7.9,11.8c-5.7,5-14,4.8-19.2-0.6c-3-3.2-3.3-7-2.7-11c0.4-2.6,1.2-5.1,2.4-7.5c1.1-2,3-1.5,4.7-1.5
		c5.8-0.2,6.6-0.7,8.4-6.3c0.6-1.9,1-4.1,2.8-5.5c3,1.6,5.1,4.4,8.1,6.1c1.1,0.6,0.7,1.9-0.3,2.7c-0.9,0.7-2,0.9-3.1,1.7
		c1.2,1.3,3,1.7,4.1,3c2.4,2.6,2.9,2.6,5.3,0.1c1.2-1.3,2.8-1.9,4.3-2.9c-1-1.9-4.8-0.9-4.1-4.2c0.6-0.9,1.4-1.3,2.3-1.7
		c2.8-1.3,5-3,5.2-6.4c0-0.4,0.4-0.8,0.8-0.9c1.8,0.9,1.2,2.9,1.8,4.3c1,2.1,1.5,4.3,2.3,6.4c0.9,2.4,2.6,3.6,5.2,3.7
		c2.2,0,4.4-0.3,6.5,0.4C178.3,75.9,179.3,77.2,179.1,79.1z"/>
	<path class="st4" d="M139,62.7c-1.3,1.9-2,4.1-2.6,6.3c-1.3,5-2.8,6.2-8,6.3c-1.9,0-3.9-0.5-5.8,0.6c-0.2-0.4-0.3-1-0.6-1.1
		c-6.6-1.3-11.2-5.7-15.8-10.2c-0.8-1.1-1.4-2.2-2-3.4c-0.3-1.5-1.1-2.8-1.2-4.4c0.4-1.5-0.2-3.1,0.4-4.5c1.9-2.6,3.2-5.6,5.3-8.2
		c4.8-5.9,11.1-9.2,18.5-10.2c3.1-0.4,6.4,0.1,8.5,3.1c1.9,1,1.8,3.1,2.5,4.7c1.5,3.4,2.1,7.3,5.8,9.4c1.5,0.7,2.6,1.8,3.4,3.2
		c0.3,1.3,0.8,2.6,0.2,3.9c-1.1,0.8-2.4,1.3-3.8,0.8c-1.2-0.9-0.8-2.1-0.8-3.3C140.2,57.3,140.6,60.6,139,62.7z"/>
	<path class="st4" d="M177.2,75.2c-2.1,0-4.1,0-6.2,0c-4.2,0-5.5-0.9-6.9-5c-1.1-3.4-2.1-6.8-3.2-10.1c-1.7-1-2-3.1-3.7-4.4
		c-0.6,1.1,0,2.6-1.1,3.4c-1.2,0.4-2.2,0-3.2-0.7c-0.9-1.5-0.1-3.2-0.2-4.7c1.2-1.2,2.1-2.9,4.2-2.8c2.3,0,2.5-2.1,3.2-3.4
		c1.2-2.2,1.9-4.6,2.8-7c1.8-5.1,4.7-7.2,9.9-6.5c10.5,1.4,18.2,7.1,22.3,16.7c2.2,5.2,0.9,10.7-2.9,15.3c-0.6,0.7-1.1,1.3-1.7,2
		c-2.9,2.7-6.4,4.6-9.9,6.4C179.7,75.7,178.4,75.4,177.2,75.2z"/>
	<path class="st5" d="M11.5,100.3C6,96.9,7.2,86.5,13.6,83.9c5.7-2.3,11.1-2.5,16.8-0.5c1.2,0.4,2.5,1.6,3.6,0.6
		c1.1-1-0.5-2.1-0.7-3.2c-0.7-3.7-0.1-7,2.4-10.1c4.3-5.2,9.2-8.8,16.3-8.7c2.3,0,3.6,1.6,5.5,2.1c0.7-0.2,1.1,0.2,1.2,0.7
		c1.6,5.2,4.6,9.5,7.8,13.8c0.2,0.4,0.4,0.9,0.2,1.4c-0.2,0.2-0.5,0.4-0.8,0.5c-1.1,0.3-2.1,0.7-3.3,0.3c-0.6-0.5-0.5-1.3-0.8-2
		c-1,0.9-1.5,2-2,3.1c-0.4,2.4-1.4,4.6-2,6.9c-0.8,3.5-3.1,4.8-6.4,5c-1.3,0.1-2.6,0.2-3.9,0.2c-1.4,0.2-2.3-1.8-3.8-0.8
		c-0.3,0.3-0.6,0.5-1.1,0.6c-1.1-0.2-1.5-1.3-2.2-1.9c-1-1-2.4-1.4-3.3-2.6c-1.6-1.2-1.2,1-2,1.2c-1.3,0.7-2.3,1.7-3.2,2.9
		c-0.3,0.3-0.7,0.6-1.1,0.9c-4,1.8-8,3.5-12.1,5.1C16.5,100.3,14.1,100.8,11.5,100.3z"/>
	<path class="st3" d="M235.1,82.5c-1.7,1.6-3.5,3.1-4.6,5.3c-2.3-0.9-4.6-2.5-7.2-0.6c-3.8-1.4-4.9-5-6.9-7.9
		c-2.1-3.2-2.6-7.1-4.3-10.5c-1.2-5.5-0.9-10.8,1.8-15.9c3.1-5.7,9.5-7.4,13.9-7c8.1,0.9,11.7,5.8,13.2,12.1
		c2.1,8.4-1.7,15.6-5.1,22.8C235.6,81.3,235.4,81.9,235.1,82.5z"/>
	<path class="st6" d="M156.8,50.9c-1.5,0.6-2.1,2.6-3.9,2.6c-2.1-0.5-4.1-0.4-6,0.6c-1.1-0.9-2.1-1.8-3.2-2.6
		c-4.7-4.2-5.9-10-7.2-15.8c0.1-3.6-0.6-7.1,0.9-10.7c2.6-6.1,7.9-9.6,14.1-9c6,0.6,11.1,5.8,11.9,12.1
		C164.6,36.8,161.3,44,156.8,50.9z"/>
	<path class="st3" d="M46.9,93.7c0.4-0.2,0.8-0.4,1.2-0.5c9.1-1.7,9.4-2,10.7-11.2c0-0.3,0.3-0.6,0.5-0.8c1.1,2.6,2.6,4.6,5.1,6.2
		c2.6,1.6-0.4,2.7-1,3.9c0.3,1.1,1.5,1.2,2.1,1.9c1.4,1.9,2.7,1.6,4.1,0c0.6-0.7,1.6-1.1,2.2-1.9C68.6,89,68.6,89,71,86.8
		c0.5-0.3,1-0.6,1.6-0.9c1.4-0.4,1.9-2.7,3.8-2.1c1.5,1,1.9,2.6,2.3,4.2c0.7,2.8,2.5,4.1,5.4,4.2c1.5,0,3.1-0.3,4.3,0.9
		c0.4,2.8,1.5,5.4,1.5,8.3c-0.1,3.9-1.9,6.7-5.1,8.1c-3.2,1.4-6.8,1.5-10-0.8c-3.4-2.3-5.2-5.8-7.1-9.3c-2.1,1.9-2.6,4.8-4.5,6.7
		c-2.5,2.5-5.1,4.4-8.9,4c-0.8-0.1-1.5-0.1-2.1,0.6c-7.8-2.4-9.9-6.9-6.8-15.7C45.8,94.4,46.2,93.9,46.9,93.7z"/>
	<path class="st6" d="M256.2,110.2c1.5,0,3.1-0.1,4.6-0.1c8.1,1.8,12.7,8.7,12,18.3c-0.4,5.1-2.1,9.7-4.2,14.3
		c-0.7,1.5-1.8,2.8-2,4.4c-1.7,1.5-3.5,3-5.2,4.5c-2.2-0.5-4.4-1.7-6.6,0c-2.2-0.2-2.8-2.5-4.5-3.3c-3.6-3.4-5.6-7.5-6-12.5
		c9,0,14-4.1,14.8-12.8C259.6,118.5,258,114.2,256.2,110.2z"/>
	<path class="st5" d="M88.4,93c-1.1,0-2.2,0-3.2,0c-5.3,0-6-0.6-7.5-5.6c-0.4-1.3-1.2-2.5-1.8-3.7c-1.2-1.4-1-3.6-2.5-4.9
		c-0.2-0.2-0.2-0.8-0.7-0.7c0.1,0.4,0.1,0.9,0,1.3c-1.2,2.4-1.4,2.4-3.8,0.1c-0.2-0.5-0.2-1-0.1-1.5c0.4-1.7,1.8-2.5,3.2-3.3
		c1.2-0.9,1.9-2.1,2.5-3.4c0.7-2.3-0.1-5.2,2.7-6.7c2.8-3.3,6.7-2.6,10.3-2.6c1.2,0.8,0.5,2,0.4,3c-0.4,4.2,0.5,8.2,2.2,12
		c0.9,2.2,2.3,4,5.2,3c0.5-0.1,0.9-0.2,1.4-0.2c1.6,0.6,3.2-0.1,4.8-0.2c-0.2,4.9-3.5,7.8-7.1,10.2C92.5,91.2,90.4,92,88.4,93z"/>
	<path class="st3" d="M72.6,75.4c-1.3,0.6-2.5,1.3-3.3,2.5c-1.1,0.5-2.5,0.2-3.3,1.3c-3.8-4.5-6.5-9.6-8.5-15.1
		c0-2.4-0.2-4.9,0.2-7.2c0.9-5.1,5.6-8.8,10.5-8.6c5.1,0.3,9.3,4.7,9.7,10.3c0.1,2.1,0.1,4.2-0.6,6.2C76,67,75.6,69.4,75.4,72
		C73.7,72.4,73.4,74.1,72.6,75.4z"/>
	<path class="st7" d="M46.3,95.1c-1.7,2.9-1.5,6.1-1.2,9.2c0.3,2.9,3.2,3.5,5.1,5c0.6,0.5,1.4,1,2,1.5c0,8.2-3.1,13.6-9.6,15.3
		c-4.3,1.2-8.7,0.9-12.8-0.6c-3.7-1.4-4.5-4.6-4.5-8.1c-0.6-3,1.6-5,2.6-7.4c0.8-1.9,2.1-3.7,3.5-5.3c1.7,0.2,1.9,1.9,2.8,2.9
		c1.3,1.5,2.7,2.9,4.9,1.4c0.4-0.2,0.9-0.3,1.4-0.3c2.4-0.4,2.7-2.4,2.9-4.2c0.2-2.7,0.4-5.4-0.4-8.1c-0.3-0.9-0.7-1.9,0.1-2.8
		c0.2-0.2,0.4-0.4,0.6-0.6C44.9,93.2,45.6,94.1,46.3,95.1z"/>
	<path class="st2" d="M31.8,104.9c-2.1,4.2-4.9,8-6.5,12.5c-7.2,3.4-16.7-6.6-14.2-15.5c0.1-0.5,0.3-1,0.5-1.5
		c6.9-1,13-4.5,19.5-6.7C31.4,97.4,32.1,101.1,31.8,104.9z"/>
	<path class="st8" d="M97,80.4c-0.4,0.1-0.7,0.2-1.1,0.2c-3.1-0.5-4.5-2.8-5.7-5.4c-2.5-5.4-2.5-10.9-1-16.5c1.5-1.9,2.8-4,5.7-3.3
		c1.2-0.3,2.3-1,3.7-0.8c2.1,0.9,4.3,1.7,4.7,4.5c0.6,4.6,0.6,9.2-0.9,13.6C101.4,75.8,100.5,79.1,97,80.4z"/>
	<path class="st9" d="M97,80.4c5.1-5.5,6.5-12,5.4-19.2c-0.1-0.8-0.3-1.7,0.4-2.5c1.5,0.3,1.5,1.7,1.9,2.7c0.4,1.1,1.3,2.1,0.3,3.3
		c0.1,5.3-0.7,10.3-3.4,15C100.1,80.6,98.8,82.2,97,80.4z"/>
	<path class="st10" d="M89.2,58.8c0.3,3.9-0.6,7.8,0.3,11.8c0.9,4.2,2.8,7.7,6.3,10.1c-2.8,1.5-4.4,0.9-6.1-2.4
		c-2.7-5.1-3.1-10.6-2.2-16.2C88.1,61,88.7,59.9,89.2,58.8z"/>
	<path class="st11" d="M231.9,129.2c-1.8,0.4-3.6,0.9-5.4,1.3c-0.9-1.8-1.8-3.5-2.8-5.3c0.8-1.9,1.6-3.8,2.5-6.2
		C228.3,122.7,230.1,125.9,231.9,129.2z"/>
	<path class="st12" d="M98,54.9c-0.9,0.7-1.9,1.3-3.1,0.5c2.3-4.8,4.7-5.7,8.7-3.1c0.7,1.5,0.9,3,0,4.5
		C101.9,55.8,100.5,53.7,98,54.9z"/>
	<path class="st13" d="M104.9,64.8c-0.2-1.1-0.5-2.2-0.7-3.4c0.2-0.3,0.4-0.3,0.7-0.1c0.8,1,1.8,1.9,1.4,3.4
		C105.8,64.7,105.4,64.8,104.9,64.8z"/>
	<path class="st14" d="M245.5,160.1c0.4-3.7,1.9-6.7,5.7-8.8c-0.2,1.9-0.3,3.4-0.4,4.8c0.9,2.5,0.6,5.2,1.5,7.7
		c1.4,2.6,3.8,2.6,6.3,2.7c0.3,0,0.6,0,0.9,0c2.4,0,4-1,4.7-3.3c0.5-1.5,0.3-3,0-4.5c-0.1-0.7,0.1-1.3,0.5-1.8
		c-0.1-1.7-0.2-3.4-0.4-5.6c4,2.6,5.8,5.8,5.6,10.1c-1.1,3.5-4.3,4.7-7.1,6.3c-0.7,0.4-1.9,0.5-1.8,1.6c0.1,1,1.2,1.1,2,1.4
		c1.4,0.6,3,0.6,4.3,2c-1.9,1.9-4.8,2.1-6.4,4.1c-1-0.7-0.6-1.8-0.5-2.7c0.1-1.5-0.6-2.5-1.8-3.2c-0.7-0.4-1.5-0.3-2.1,0.3
		c-1.1,1.1-1.5,2.3-0.9,3.8c0.4,1.1,1,2.2,0.3,3.4c-0.2,0.3-0.5,0.3-0.8,0.1c-0.8-2.4-2.7-3.6-4.9-4.5c-0.7-0.3-1.6-0.4-1.6-1.4
		c0-0.8,0.9-0.9,1.4-1.1c1.5-0.7,4.3-0.6,4.4-2.2c0.1-1.9-2.7-2.2-4.2-3C247.6,165,245.8,163.2,245.5,160.1z"/>
	<path class="st15" d="M255.5,178.6c0-1,0.1-1.9-0.6-2.8c-1.6-2.1-0.6-3.9,0.9-5.4c0.7-0.8,1.8-1.4,2.9-0.5c1.7,1.4,3.5,2.8,2.1,5.4
		c-0.2,0.4,0,1.1,0,1.6c-0.2,0.6-0.4,1.2-0.7,1.8C258.5,180.1,257.1,180.1,255.5,178.6z"/>
	<path class="st16" d="M255.5,178.6c1.6,0.8,3.1,0.9,4.7,0c0.7-0.3,1.5-0.6,2.4-0.9c-2.5,3.9-5.9,4.7-8.1,2.2
		c-0.8-0.9-0.5-1.2,0.5-1.4C255.2,178.5,255.4,178.5,255.5,178.6z"/>
	<path class="st17" d="M233.2,90.9c-0.1-1.2-0.2-2.4-0.3-3.9c3.2,1.3,4.2,4,5.5,6.6c0.8,5.2-2.6,7.4-6.6,9.2
		c-0.9,0.4-2.2,0.7-2.2,1.7c0,1.3,1.6,1.2,2.5,1.6c0.4,0.2,0.8,0.2,1.2,0.4c0.8,0.4,2.2,0.2,2.2,1.5c0,1-1.2,1.1-2,1.4
		c-1.7,0.8-3.2,1.8-4.3,3.3c-0.7-0.6-0.7-1.3-0.6-2.1c0.4-1.8,0.5-3.5-1.3-4.6c-0.8-0.5-1.4-0.3-2.1,0.2c-1.6,1.4-1.3,3-0.5,4.8
		c0.4,1,0.8,2.1-0.1,3c-1.3-2.2-3-4-5.5-4.8c-0.7-0.2-1.7-0.5-1.6-1.4c0.1-0.8,1.1-1,1.8-1.3c1.4-0.7,3.3-0.5,4.5-2.2
		c-3.8-2.9-10.3-3.6-9.1-10.7c0.9-2.7,2.4-5,4.8-6.5c1.1,1.1,0.1,2.2,0.4,3.1c-0.7,2.2,0.9,4.1,0.6,6.3c-0.3,3.3,0.2,4,3.9,5.1
		c1.4,0.2,2.9,0.1,4.3,0.4c4.3-1.3,5.1-2.6,4.4-7.2C232.7,93.5,233.9,92.2,233.2,90.9z"/>
	<path class="st18" d="M224.6,114.1c-0.3-1.2-0.2-2.6-0.9-3.4c-1.9-2.4,0-3.8,1.1-5.4c0.8-1.1,1.9-0.8,2.9-0.1
		c1.8,1.3,2.7,2.8,1.8,5c-0.3,0.8-0.2,1.7-0.3,2.6C228.3,115.5,226.4,114.5,224.6,114.1z"/>
	<path class="st19" d="M264.7,156.8c0.1,0.7,0.2,1.5,0.2,2.2c0.4,1.3-0.2,2.6-0.4,3.8c-0.4,1-1,1.7-2.2,1.8c-0.9,0-1.6-0.2-2-1.2
		c-0.1-0.3-0.1-0.6,0-0.9c0.2-1,0.5-2.1-1.1-2.1c-0.3-0.1-0.5-0.2-0.7-0.5c-0.3-1.5,0.1-2.7,1.2-3.8c0.1-0.1,0.3-0.1,0.4-0.2
		C261.7,156.3,263.2,156.6,264.7,156.8z"/>
	<path class="st20" d="M254.8,151.6c2.4-2.8,3.1-2.7,6.6,0c0,1.6,0.5,3.4-1.2,4.5c-0.1,0.1-0.2,0.1-0.2,0.3
		c-0.4,0.2-0.9,0.3-1.3-0.1c-0.2-0.4-0.1-0.8-0.1-1.3c0.1-0.8,0.3-1.6-0.9-1.7c-0.8-0.1-1.1,0.5-1.2,1.2c-0.1,0.4-0.1,0.8-0.4,1.2
		c-0.5,0.2-0.9,0.2-1.3-0.1C253.6,154.3,254.3,152.9,254.8,151.6z"/>
	<path class="st21" d="M219.9,96.8c-0.4-2.2-1-4.4,0-6.6c0.7,3.3,2.6,1.2,4,0.8c0.6-0.2,0.9,0.1,1.2,0.6c0.5,1.2,1,2.4,0.5,3.7
		c-1.4,0.7-2.2,1.8-1.9,3.4C221.7,100.5,220.8,100,219.9,96.8z"/>
	<path class="st22" d="M224.6,91.6c-0.2-0.2-0.4-0.4-0.6-0.6c-2.4-1-1.2-2.5-0.7-4c2.4-2.8,4.4-2.6,7.2,0.6c0.2,1.3-0.1,2.5-1.2,3.3
		c0.2,0.6-0.2,0.9-0.7,1.1c-0.5,0.1-0.9,0-1.4-0.3c-0.1-0.2-0.2-0.4-0.2-0.6c-0.1-0.8,0.8-2.1-0.3-2.2c-1.6,0-0.4,1.5-0.6,2.3
		c-0.1,0.2-0.1,0.4-0.3,0.6C225.4,92.1,224.9,92.1,224.6,91.6z"/>
	<path class="st23" d="M177.2,75.2c1-0.7,2.2-0.8,3.3-0.9c3.6,2.8-0.5,3.3-1.4,4.7C178.1,78,177.5,76.7,177.2,75.2z"/>
	<path class="st19" d="M254.9,155.6c0.4,0,0.8,0,1.2,0c0.2,0.2,0.4,0.5,0.5,0.8c0.2,1.3,0.7,2.7-0.2,4c-0.7,0.5-1.3,1-1.3,2.1
		c0.1,2.8-1.4,2.7-3.3,1.8c-1.1-2.6-1.3-5.3-0.9-8.1C252.4,157.6,253.6,156.1,254.9,155.6z"/>
	<path class="st21" d="M228.5,91.7c0.2-0.2,0.5-0.5,0.7-0.7c1.3,0.1,2.7,2.5,4-0.1c0.9,1.2,0.3,2.6,0.5,3.9c0,1.4-0.2,2.8-0.9,4.1
		c-1,1.7-2.5,1.6-3.8-0.3c0.6-1.6-0.7-2.3-1.5-3.2C227,93.9,227.4,92.7,228.5,91.7z"/>
	<path class="st24" d="M139,62.7c-0.1-3.9,1.5-6.8,5.1-9c-0.1,1.9-0.2,3.4-0.4,5c1.2,1.8,0.7,4.1,1.7,6c0.5,1.5,1.4,2.5,3.1,2.4
		c0.9,0,1.9,0,2.8,0.3c0.6,0.2,1.2,0.5,1.7,1c0.2,0.3,0.2,0.6-0.1,0.9c-0.1,1.7,1.4,1.6,2.4,2c1.1,0.5,2.3,0.6,3.2,1.8
		c-1.9,1.2-3.8,2.3-5.6,3.5c-1-0.8-0.7-2-0.9-3c-0.3-1.1-0.7-2.2-2-2.2c-1.4,0-2.1,1-2.2,2.4c-0.1,0.9,0.1,2-0.7,2.7
		c-1.9-1.1-3.7-2.2-5.6-3.3c0.7-1.4,2.1-1.1,3.1-1.7c0.8-0.5,2.2-0.4,2.3-1.5c0.1-1.2-1.2-1.4-2-1.8C142.2,67,140,65.6,139,62.7z"/>
	<path class="st25" d="M152.9,69.4c0-0.2,0-0.5,0-0.7c0.1-1.8,2.9-2.1,2.2-4.2c0.9-1.8-0.4-4,1.1-5.6c-0.1-1.5-0.2-3-0.3-5
		c2.8,1.5,4.1,3.7,4.9,6.3C161.7,66.2,156.7,67.2,152.9,69.4z"/>
	<path class="st15" d="M147,76.5c-0.1-1.1-0.4-2.2-0.2-3.2c0.2-1.7,1.5-3.1,3.1-3.2c1.6-0.1,2.7,1.3,2.9,2.9
		c0.2,1.1,0.1,2.4,0.1,3.5c-0.6,1.4-1.2,2.2-3.1,2.2C147.6,79,147.8,77.5,147,76.5z"/>
	<path class="st21" d="M144.8,65.5c-1-2.1-1.4-4.4-1.1-6.7c1.3-0.2,2.6-0.5,3.9-0.7c0.3-0.1,0.6-0.1,0.9,0.1c0.7,0.9,1,2,0.7,3.1
		c-1.3,0.9-1.8,2.1-1.8,3.6C146.8,66,145.9,66,144.8,65.5z"/>
	<path class="st26" d="M148.2,58.2c-0.2,0-0.4-0.1-0.6-0.1c-0.9-1.2-0.6-2.5-0.7-3.8c1.7-2.7,3.7-2.6,6-0.6c1.1,1.5,0.4,3,0,4.5
		c-0.3,0.4-0.8,0.5-1.3,0.5c-0.3-0.1-0.6-0.2-0.8-0.4c-0.3-0.7,0.5-2-0.7-2.1c-1.4-0.1-0.6,1.5-1.1,2.2
		C148.7,58.4,148.5,58.4,148.2,58.2z"/>
	<path class="st27" d="M104.9,61.3c-0.2,0-0.5,0.1-0.7,0.1c-0.5-0.9-1-1.8-1.5-2.7c-1-2-2.9-2.8-4.7-3.8c2.6-2.2,3-2.1,5.7,1.9
		C104.3,58.3,105.1,59.6,104.9,61.3z"/>
	<path class="st21" d="M151.7,58.2c0.4,0,0.8,0,1.2-0.1c1.1,0.2,2.2,0.5,3.4,0.7c-0.1,2,0.8,4.1-0.7,5.9c-0.7,1.3-1.6,1.6-2.8,0.5
		c-0.1-1.6-0.4-3.1-2-3.9C150.5,60.1,150.7,59,151.7,58.2z"/>
	<path class="st28" d="M40.3,109.4c-0.4,0.1-0.7,0.1-1.1,0.2c-4.9-0.1-7.4-5.9-8-10.3C31,97.2,31,95,31.8,92.9
		c0.6-1.5,1.5-2.6,3.3-2.5c0.7-0.5,1.3-1.4,2.4-1c1.2,0.8,2.8,0.9,3.6,2.2c2.7,4.1,2.5,8.7,2.1,13.2C43,106.8,42,108.4,40.3,109.4z"
		/>
	<path class="st29" d="M65.3,93.8c-0.1-0.1-0.2-0.1-0.3-0.2c-3.9-2.5-3.9-2.5,0.5-4.9c-2.8-2.1-7.1-2.9-6.2-7.6
		c0.7-1.7,1.7-3.2,3.4-4.5c0.8,1.4-0.4,2.7,0.1,3.8c0.6,0.8,0.7,1.8,0.7,2.7c-0.1,1.6,0.4,2.8,2.1,3.2c1,0.4,2,0.5,3.1,0.3
		c0.9-0.1,1.9-0.5,2.8,0.3c-0.6,0.6-1.3,1.1-1.9,1.7c1,1.4,2.8,1,4.1,2.2c-0.9,1.4-2.7,1.6-3.8,2.6c-1.2-1-0.5-3.5-2.3-3.6
		C65.5,90,66.8,92.9,65.3,93.8z"/>
	<path class="st30" d="M31.8,92.9c0.1,2.3-0.2,4.6,0.3,6.9c0.8,4.4,3,7.9,7.2,9.9c-1.4,1.8-2.8,1.2-4.2,0c-1.5-1.3-2.3-3.1-3.3-4.8
		c-1-3.7-2.1-7.4-0.8-11.2C31.2,93.4,31.5,93.1,31.8,92.9z"/>
	<path class="st31" d="M40.3,109.4c3.1-5.8,2.5-11.8,0.7-17.8c1.1,0.2,1,1.6,2,2c1.7,4.4,2.2,8.9,0.7,13.4
		C43.2,108.6,42.6,110.3,40.3,109.4z"/>
	<path class="st21" d="M62.8,83.5c0-1,0-2,0.1-3c1.1-0.2,2.2-0.4,3.2-0.6c0.7,0.7,1.3,1.5,0.8,2.6c-0.3,0.5-0.7,0.8-1,1.3
		C64.5,86.1,64.4,86.1,62.8,83.5z"/>
	<path class="st32" d="M46.3,95.1c-1.5,0.2-1.8-1.4-2.7-2c0.3-0.4-0.8-1.8,0.9-1.3c1,0.3,2.1,0.7,2.5,1.9
		C46.7,94.1,46.5,94.6,46.3,95.1z"/>
	<path class="st33" d="M66,79.2c0.1-3,1.7-2,3.3-1.3c0,0.4-0.1,0.8-0.1,1.2c-0.1,0.5-0.3,1-0.8,1.2c-0.7,0.2-1.3,0.2-1.8-0.5
		C66.4,79.6,66.2,79.4,66,79.2z"/>
	<path class="st34" d="M66.6,79.8c0.6,0,1.2,0,1.9,0.1c1,0.7,0.9,1.6,0.6,2.6c-0.8,0.7-1.6,2-2.4,0c-0.2-0.8-0.3-1.7-0.5-2.5
		C66.3,79.9,66.4,79.8,66.6,79.8z"/>
	<path class="st35" d="M37.5,89.4c-0.6,0.8-1.3,1.3-2.4,1c0.2-0.7,0.4-1.4,0.7-2.1c0.2-0.6,0.6-1.2,1.4-0.9
		C38.2,87.9,38.2,88.6,37.5,89.4z"/>
	<path class="st36" d="M66.6,82.4c0.7,1.1,1.3,0.5,1.9,0c1.5,0.3,3.2,0,4.6,0.8c0.4,1.3,0.3,2.5-0.6,3.5c-0.3,0.1-0.6,0.3-0.9,0.4
		c-1,0.2-2,0.3-3,0.5c-0.8-1.9-1.9-1.5-3.1-0.5c-2-0.4-3.1-1.4-2.7-3.6c0.5,0.7,0.9,1.4,1.6,2.4C65.6,84.4,64,81.9,66.6,82.4z"/>
	<path class="st37" d="M65.3,93.8c0-0.1,0-0.2,0-0.3c0.1-2-0.5-4.9,2.3-4.8c2.3,0.1,2.5,2.8,2.3,4.9C68,96.5,67.2,96.5,65.3,93.8z"
		/>
	<path class="st38" d="M72.6,86.7c0-1.4,0-2.9,0-4.3c-0.9-1,0.2-2.3-0.5-3.3c0.1-0.7-0.4-1.5,0.3-2.2c2.5,1.6,3.6,3.9,3.5,6.9
		C75,85,74.3,86.4,72.6,86.7z"/>
	<path class="st21" d="M72.1,79.1c0.8,1,0.3,2.2,0.5,3.3c-0.8,0.8-0.6,2.3-2.2,2.7c-1-0.5,0.5-3-1.8-2.7c-0.1-0.9,0.4-1.7-0.1-2.6
		c0.2-0.3,0.5-0.5,0.7-0.8C70.2,79.1,71.1,83.1,72.1,79.1z"/>
	<path class="st39" d="M72.6,75.4c0.7-2.9,1.1-3.3,2.8-3.4C74.5,73.1,73.6,74.2,72.6,75.4z"/>
	<path class="st40" d="M251.7,164.2c0.8-0.1,1.7-0.1,2.8-0.2c0-1.6-1.8-4.2,1.9-4c0.8-0.1,1,1.5,2.1,0.8c0.7,0.9,1.9,1.2,2.5,2.1
		c-0.1,0.9,0.2,1.4,1.2,1.3c0.7,1.1,0,1.4-0.9,1.8c-1.3,0.3-2.4-1-3.6-0.3c-0.5-0.3-0.4,0.5-0.3,0.1c0,0,0.1,0,0.2,0
		c0.8,0.1,1.4,0.4,1.4,1.4C256,167.4,253.1,167.7,251.7,164.2z"/>
	<path class="st41" d="M260.8,165.4c0.8,0,1.2-0.4,1.3-1.2c0.7-0.4,1.6-0.5,2-1.4c0.6-0.1,1,0.1,0.8,0.8c-0.3,3.4-2.7,3.7-5.4,3.7
		C258.6,165.6,260.3,166,260.8,165.4z"/>
	<path class="st42" d="M260.8,165.4c-0.2,0.8-1.5,0.8-1.4,1.8c0,0-0.3,0-0.3,0s-0.3-0.1-0.3-0.1c-0.8-1.7-3,0.2-3.8-1.6
		C257,164.3,258.9,164.7,260.8,165.4z"/>
	<path class="st43" d="M264.8,163.5c-0.3-0.3-0.5-0.5-0.8-0.8c0.3-1.2,0.6-2.5,0.9-3.7C265.8,160.5,265.7,162,264.8,163.5z"/>
	<path class="st44" d="M229.8,98.3c0.1,0.5-0.4,1.2,0.5,1.2c0.9,0,1.8-0.2,2.2-1.1c0.5-1.2,0.9-2.4,1.3-3.6c1.3,5.1-0.6,7.5-5.3,7.9
		c0.3-1.1-0.1-2-0.8-2.9C227.6,98.2,228,97.3,229.8,98.3z"/>
	<path class="st45" d="M219.9,96.8c0.6,1,1.2,2,2.3,2.5c1.2,0.6,1.1-0.3,1.1-1c1.7-1,2.2-0.2,2.3,1.4c-0.4,0.9-1.2,1.6-1,2.7
		C220.2,101.6,219,100.1,219.9,96.8z"/>
	<path class="st46" d="M224.6,102.4c-0.1-1.1-1.3-0.9-1.7-1.8c0.5-0.8,2.3,0.7,2.1-1.2c1-0.2,2.1-0.2,3.1,0c0,1.8,1.4,0.6,2.1,1
		c-0.2,1.1-1.9,1-1.9,2.2C227.1,102.6,225.9,102.5,224.6,102.4z"/>
	<path class="st47" d="M258.1,160.9c-1,0.5-1.3-0.3-1.8-0.9c0.3-1.3-0.9-2.5-0.1-3.8c0.8-0.6,1.7-0.7,2.6,0c0.4,0.1,0.8,0.1,1.2,0.2
		c-0.4,1.2-0.8,2.5-1.1,3.7C258.8,160.5,258.6,160.7,258.1,160.9z"/>
	<path class="st48" d="M258.1,160.9c0.2-0.3,0.5-0.6,0.7-0.8c0.2,0,0.3,0.1,0.5,0.1c3-0.5,0.8,1.9,1.6,2.7c0,0,0,0,0,0
		C259.6,162.8,258.3,162.5,258.1,160.9z"/>
	<path class="st49" d="M260.9,162.8c-1.3-0.4,0.2-2.5-1.6-2.7c0.6-0.4,1.3-1,1.9-0.2C261.8,160.9,261.7,162,260.9,162.8z"/>
	<path class="st50" d="M258.8,156.1c-0.9,0-1.7,0-2.6,0c0-0.2,0-0.4-0.1-0.5c0-1.1-1.2-2.3,0.4-3.1c1-0.5,2.2-0.6,3,0.3
		C260.9,154.2,259.1,155,258.8,156.1z"/>
	<path class="st51" d="M228.2,99.5c-1,1.1-2.1,1.4-3.1,0c0.1-1.4-0.9-1.1-1.7-1.2c-0.6-1.8-1.5-3.8,2-2.8c0.9-0.3,1.7-0.3,2.6,0
		c2,0,3.1,0.7,2,2.9C228.9,98.2,228.2,98.4,228.2,99.5z"/>
	<path class="st52" d="M227.8,95.5c-0.8,0.8-1.7,0.8-2.6,0c-0.2-1.3-0.5-2.6-0.7-3.9c0.4,0,0.7,0,1.1,0c0.6-0.4,1.2-0.4,1.8,0
		c0.3,0,0.7,0.1,1,0.1C228.3,93,228.1,94.2,227.8,95.5z"/>
	<path class="st53" d="M227.5,91.6c-0.6,0-1.2,0-1.8,0c-0.6-1.4-2.5-3.1,0.7-3.8c0.7-0.2,1.6,0,2,0.7
		C229.3,89.9,227.9,90.6,227.5,91.6z"/>
	<path class="st54" d="M152.8,64.6c0.9,1.5,1.8,0.3,2.7,0.1c2,3.2-2,2.5-2.6,3.9c-0.4-0.2-0.9-0.3-1.3-0.5c-0.6-0.5,0.9-1.7-0.5-1.7
		c-1.1,0-2.7-0.4-2.8,1.6c-1.8,0.1-3-0.6-3.4-2.4c0.8-0.4,2.3,0.3,2.2-1.4c0.7-0.8,1.7-1.4,2.5-2.1c0.3-0.1,0.5-0.1,0.8,0
		C151.2,62.8,152.3,63.5,152.8,64.6z"/>
	<path class="st55" d="M148.3,68c-0.5-0.5-1.1-1-1.8-1.7c1.4-0.2,2.8,0.1,3.5-0.5c1.5-1.1,2.2,0.6,3.3,0.6c-0.1,1-1.4,1-1.7,1.8
		C150.4,68.1,149.4,68,148.3,68z"/>
	<path class="st56" d="M150.2,62.3l-0.3-0.1l-0.3,0c-0.6,0-0.9-0.2-0.7-0.8c-0.2-1.1-0.5-2.2-0.7-3.3c0.3,0,0.5-0.1,0.8-0.1
		c0.7-0.5,1.3-0.6,2,0c0.2,0,0.4,0.1,0.7,0.1c-0.2,1.1-0.4,2.2-0.6,3.3C151.1,62.1,150.8,62.3,150.2,62.3z"/>
	<path class="st57" d="M148.9,61.4c0.2,0.3,0.5,0.5,0.7,0.8c-0.2,1.6-1.3,1.9-2.6,1.8C146.3,62.2,146.6,61.1,148.9,61.4z"/>
	<path class="st58" d="M151,58.1c-0.7,0-1.3,0-2,0c-0.4-1-1.7-2.1-0.2-3.1c0.8-0.5,2-0.5,2.8,0.3C152.8,56.4,151.4,57.2,151,58.1z"
		/>
	<path class="st59" d="M150.2,62.3c0.3-0.3,0.5-0.5,0.8-0.8c3.2-0.4,2.7,1.3,1.8,3.2C151.8,64.1,150.4,63.9,150.2,62.3z"/>
	<path class="st60" d="M65.5,87.1c-0.7-0.9-0.2-1.5,0.7-1.5c1.1,0,2.5-0.6,3.3,0.4c0.4,0.5-0.6,1-0.9,1.5
		C67.6,87.7,66.5,87.8,65.5,87.1z"/>
</g>
<path class="st0" d="M340.2,111.7L340.2,111.7c-1.8,0.5-2.7,2.6-1.7,4.2l0,0l0,0c36.7,2.4,52.8,17,56.7,23.4l0,0l4.8,10.4l0,0
	c0.1,0-2-9-3.5-13.8c0-0.1-0.1-0.3-0.2-0.4c-3.7-8-13.7-17.7-23.7-21.9l0,0C362.5,109.4,351.2,108.7,340.2,111.7z"/>
<path class="st0" d="M313.4,138.1L313.4,138.1c-1.8,0.5-2.7,2.6-1.7,4.2l0,0l0,0c36.7,2.4,52.8,17,56.7,23.4l0,0l4.8,10.4l0,0
	c0.1,0-2-9-3.5-13.8c0-0.1-0.1-0.3-0.2-0.4c-3.7-8-13.7-17.7-23.7-21.9l0,0C335.7,135.7,324.4,135.1,313.4,138.1z"/>
<path class="st0" d="M241.3,261.8L241.3,261.8c-2.4,2.4-2.6,5.3-0.4,5.9l0,0l0,0c54.7-35.9,85.5-38.5,94.4-36.4l0,0l12.2,5.1l0,0
	c0.1-0.1-7.5-6.6-12-9.8c-0.1-0.1-0.3-0.2-0.5-0.3c-9.3-3.9-28.9-2.9-45.6,3.6l0,0C272.7,236.3,255.9,247.5,241.3,261.8z"/>
<path class="st0" d="M366.4,79.7L366.4,79.7c1.4-10.7-2.2-24.3-7.3-31.4c-0.1-0.1-0.2-0.3-0.3-0.4c-3.5-3.6-10.2-9.9-10.3-9.9l0,0
	l6.7,9.3l0,0c3.6,6.6,8.3,27.8-7.7,60.9l0,0l0,0c0.9,1.6,3.2,1.9,4.5,0.6l0,0C360,100.7,365,90.6,366.4,79.7z"/>
<path class="st0" d="M340.6,94.3L340.6,94.3c-0.2-10.8-5.7-23.7-11.9-30c-0.1-0.1-0.2-0.2-0.4-0.3c-4-3.1-11.6-8.3-11.7-8.2l0,0
	l8,8.2l0,0c4.5,5.9,12.3,26.2,1.4,61.3l0,0l0,0c1.2,1.5,3.4,1.4,4.5-0.1l0,0C337.4,116,340.9,105.2,340.6,94.3z"/>
<g>
	<polygon class="st61" points="289.4,434.7 181.6,434.7 145.6,317.7 325.3,317.7 	"/>
	<path class="st62" d="M325.9,317.7H145c-2.1,0-3.9-5.6-3.9-12.6V301c0-6.9,1.7-12.6,3.9-12.6h180.9c2.1,0,3.9,5.6,3.9,12.6v4.1
		C329.8,312,328.1,317.7,325.9,317.7z"/>
</g>
</svg>
