<?xml version="1.0" encoding="utf-8"?>
<!-- Generator: Adobe Illustrator 23.0.1, SVG Export Plug-In . SVG Version: 6.00 Build 0)  -->
<svg version="1.1" id="Layer_1" xmlns="http://www.w3.org/2000/svg" xmlns:xlink="http://www.w3.org/1999/xlink" x="0px" y="0px"
	width="400" height="400" viewBox="0 0 400 400" style="enable-background:new 0 0 205.18 325.88;" xml:space="preserve">
<style type="text/css">
	.st0{fill:#704826;stroke:#603813;stroke-width:2;stroke-miterlimit:10;}
	.st1{fill:#91D896;stroke:#0D5907;stroke-width:0.25;stroke-miterlimit:10;}
	.st2{fill:#A67C52;stroke:#603813;stroke-width:2;stroke-miterlimit:10;}
	.st3{fill:#B2967D;stroke:#603813;stroke-width:2;stroke-miterlimit:10;}
</style>
<g>
	<path class="st0" d="M65.35,244.1l35.91-28.73c4.99-3.99,5.73-11.3,1.64-16.21l-26.59-31.91c-6.35-7.62-6.35-18.68,0-26.3
		l29.46-35.36c2.46-2.95,10.5-8.83,10.24-12.54c-0.08-1.18-0.19-2.35-0.03-3.52l3.13-22.79l1.18,22.94
		c-0.24,9.65-5.48,15.86-11.41,22.97l-26.54,31.85c-4.63,5.56-4.63,13.62,0,19.18l27.03,32.44c6.45,7.74,9.98,17.49,9.98,27.56
		v20.41H65.35z"/>
	<polygon class="st0" points="76.31,140.95 75.06,108.86 60.06,75.51 79.65,106.04 82.62,133.37 	"/>
	<path class="st0" d="M107.59,193.99l12.7-20.01L140,146.1l-19.26,19.95c-2.57,2.66-4.97,5.48-7.19,8.44l-10.5,14.05L107.59,193.99z
		"/>
	<path class="st1" d="M65.95,93.58l-4.65-1.2c-11.38-2.95-22.05-8.17-31.36-15.35l-14.3-11.02l3.51,0.85
		c12.16,2.94,23.54,8.46,33.38,16.18L65.95,93.58z"/>
	<path class="st1" d="M71.34,104.58l-4.8-0.07c-11.76-0.17-23.36-2.71-34.11-7.47l-16.5-7.31l3.61-0.01
		c12.51-0.03,24.88,2.63,36.27,7.8L71.34,104.58z"/>
	<path class="st1" d="M140,145.66l2.97-3.77c7.28-9.23,16.35-16.9,26.67-22.54l15.84-8.66l-2.19,2.87
		c-7.58,9.95-17.22,18.15-28.25,24.05L140,145.66z"/>
	<path class="st1" d="M136.39,146.1l-0.32-4.79c-0.77-11.73,0.83-23.5,4.72-34.59l5.97-17.03l0.3,3.6
		c1.03,12.47-0.64,25.01-4.88,36.78L136.39,146.1z"/>
	<path class="st1" d="M133.63,149.48L133.63,149.48c-4.17-8.25-6.64-17.25-7.24-26.48l-0.54-8.19v0c4.3,8.16,6.79,17.14,7.31,26.35
		L133.63,149.48z"/>
	<path class="st1" d="M128.08,155.42L128.08,155.42c-5.96-8.08-9.81-17.51-11.2-27.45l-0.87-6.22l0,0
		c6.11,7.99,10.01,17.46,11.28,27.44L128.08,155.42z"/>
	<path class="st1" d="M122.58,162.01L122.58,162.01c-3-4.47-4.89-9.58-5.53-14.92l-0.44-3.74l0,0c3.08,4.42,5,9.54,5.57,14.9
		L122.58,162.01z"/>
	<path class="st1" d="M141.52,148.14l4.23-2.26c10.37-5.55,21.75-8.94,33.46-9.98l17.98-1.6l-3.15,1.75
		c-10.93,6.08-23.04,9.74-35.51,10.73L141.52,148.14z"/>
	<path class="st1" d="M138.52,153.43l1.6-0.52c8.01-2.59,16.35-4.02,24.76-4.22l12.18-0.3l-0.69,0.23
		c-8.5,2.88-17.4,4.43-26.38,4.59L138.52,153.43z"/>
	<path class="st1" d="M133.59,159.95l1.65-0.29c8.29-1.48,16.74-1.75,25.1-0.81l12.11,1.36l-0.72,0.14
		c-8.82,1.69-17.84,2.02-26.76,0.96L133.59,159.95z"/>
	<path class="st1" d="M127.89,166.39L127.89,166.39c5.17-1.42,10.55-1.92,15.89-1.49l5.35,0.43h0c-5.12,1.49-10.48,2.01-15.79,1.54
		L127.89,166.39z"/>
	<path class="st1" d="M74.03,116.27L74.03,116.27c-8.74-0.12-17.37-2.01-25.36-5.55l-7.1-3.14h0c8.72-0.02,17.34,1.83,25.28,5.44
		L74.03,116.27z"/>
	<path class="st1" d="M58.91,74.67l-3.27-3.51c-8.01-8.61-14.19-18.75-18.19-29.8l-6.13-16.98l2.5,2.6
		c8.67,9.02,15.3,19.79,19.44,31.6L58.91,74.67z"/>
	<path class="st1" d="M71.04,22.64l0.99,5.66c2.05,11.74,1.67,23.78-1.11,35.37l-4.55,18.95l-0.85-4.46
		c-2.39-12.45-2.03-25.28,1.04-37.58L71.04,22.64z"/>
	<path class="st1" d="M123.92,6.77l0.99,5.66c2.05,11.74,1.67,23.78-1.11,35.37l-4.55,18.95l-0.85-4.46
		c-2.39-12.45-2.03-25.28,1.04-37.58L123.92,6.77z"/>
	<path class="st1" d="M146.47,17.77l-1.07,5.64c-2.22,11.71-6.81,22.85-13.49,32.71l-10.93,16.14l0.77-4.48
		c2.15-12.5,7-24.37,14.2-34.81L146.47,17.77z"/>
	<path class="st1" d="M96.05,16.55l3.15,4.8c6.54,9.96,10.97,21.16,13.02,32.9l3.35,19.2l-2.56-3.76
		c-7.13-10.48-11.9-22.39-13.96-34.9L96.05,16.55z"/>
	<path class="st1" d="M89.53,35.62l-0.08,5.74c-0.17,11.92-2.79,23.67-7.68,34.54l-8,17.77l-0.01-4.54
		c-0.03-12.68,2.71-25.21,8.02-36.73L89.53,35.62z"/>
	<path class="st1" d="M94.78,63.09L94.78,63.09c-2.02,10.7-6.22,20.88-12.33,29.89l-5.34,7.89v0c1.84-10.71,6-20.89,12.17-29.83
		L94.78,63.09z"/>
	<path class="st1" d="M146.99,46.66L146.99,46.66c-4.3,10.01-10.61,19.02-18.53,26.5l-6.93,6.54l0,0
		c4.13-10.05,10.4-19.08,18.37-26.47L146.99,46.66z"/>
	<path class="st1" d="M140,69.34L140,69.34c-2.81,7.61-7.7,14.27-14.11,19.24l-2.31,1.79l0,0c2.7-7.71,7.63-14.44,14.17-19.34
		L140,69.34z"/>
	<path class="st1" d="M98.29,70.9L98.29,70.9c6.36,5.03,11.17,11.75,13.9,19.39l0.98,2.75l0,0c-6.49-4.96-11.35-11.74-13.97-19.48
		L98.29,70.9z"/>
	<path class="st1" d="M87.06,51.33L87.06,51.33c9.1,5.98,16.88,13.77,22.86,22.87l5.23,7.97l0,0c-9.18-5.82-16.98-13.57-22.86-22.71
		L87.06,51.33z"/>
	<path class="st1" d="M99.5,87.57L99.5,87.57c-3.08,6.85-7.54,13-13.09,18.07l-4.86,4.43l0,0c2.96-6.89,7.39-13.05,12.98-18.05
		L99.5,87.57z"/>
</g>
<polygon class="st2" points="129.38,325.88 63.09,325.88 41,253.88 151.47,253.88 "/>
<path class="st3" d="M151.86,253.88H40.61c-1.31,0-2.38-3.46-2.38-7.74v-2.53c0-4.27,1.06-7.74,2.38-7.74h111.25
	c1.31,0,2.38,3.46,2.38,7.74v2.53C154.23,250.42,153.17,253.88,151.86,253.88z"/>
</svg>
