<?xml version="1.0" encoding="utf-8"?>
<!-- Generator: Adobe Illustrator 23.0.1, SVG Export Plug-In . SVG Version: 6.00 Build 0)  -->
<svg version="1.1" id="Layer_1" xmlns="http://www.w3.org/2000/svg" xmlns:xlink="http://www.w3.org/1999/xlink" x="0px" y="0px"
	 viewBox="0 0 777 138.9" style="enable-background:new 0 0 777 138.9;" xml:space="preserve">
<style type="text/css">
	.st0{fill:#F0A0A2;}
	.st1{fill:#FFC0EC;}
</style>
<g>
	<path class="st0" d="M55.5,111.1H0v-88c0-12.6,10.4-23,23-23h32.5V111.1z"/>
	<circle class="st0" cx="27.8" cy="111.1" r="27.8"/>
	<rect x="55.5" y="0.1" class="st1" width="55.5" height="111"/>
	<circle class="st1" cx="83.3" cy="111.1" r="27.8"/>
	<rect x="166.5" y="0.1" class="st1" width="55.5" height="111"/>
	<circle class="st1" cx="194.3" cy="111.1" r="27.8"/>
	<path class="st1" d="M333,111.1h-55.5V0.1H333V111.1z"/>
	<circle class="st1" cx="305.3" cy="111.1" r="27.8"/>
	<rect x="111" y="0.1" class="st0" width="55.5" height="111"/>
	<circle class="st0" cx="138.8" cy="111.1" r="27.8"/>
	<rect x="222" y="0.1" class="st0" width="55.5" height="111"/>
	<circle class="st0" cx="249.8" cy="111.1" r="27.8"/>
</g>
<g>
	<path class="st0" d="M388.5,111.3H333V0.3h55.5V111.3z"/>
	<circle class="st0" cx="360.8" cy="111.3" r="27.8"/>
	<rect x="388.5" y="0.3" class="st1" width="55.5" height="111"/>
	<circle class="st1" cx="416.3" cy="111.3" r="27.8"/>
	<rect x="499.5" y="0.3" class="st1" width="55.5" height="111"/>
	<rect x="610.5" class="st1" width="55.5" height="111"/>
	<circle class="st1" cx="527.3" cy="111.3" r="27.8"/>
	<circle class="st1" cx="638.3" cy="111.3" r="27.8"/>
	<path class="st1" d="M721.5,0.3H754c12.7,0,23,10.3,23,23v88h-55.5V0.3z"/>
	<circle class="st1" cx="749.3" cy="111.5" r="27.8"/>
	<rect x="444" y="0.3" class="st0" width="55.5" height="111"/>
	<circle class="st0" cx="471.8" cy="111.3" r="27.8"/>
	<rect x="555" y="0.3" class="st0" width="55.5" height="111"/>
	<circle class="st0" cx="582.8" cy="111.3" r="27.8"/>
	<rect x="666" y="0.3" class="st0" width="55.5" height="111"/>
	<circle class="st0" cx="693.8" cy="111.3" r="27.8"/>
</g>
</svg>
