<?xml version="1.0" encoding="utf-8"?>
<!-- Generator: Adobe Illustrator 23.0.1, SVG Export Plug-In . SVG Version: 6.00 Build 0)  -->
<svg version="1.1" id="Layer_1" xmlns="http://www.w3.org/2000/svg" xmlns:xlink="http://www.w3.org/1999/xlink" x="0px" y="0px"
	 width="150" height="300" viewBox="0 0 150 300" style="enable-background:new 0 0 150 300;" xml:space="preserve">
<style type="text/css">
	.st0{fill:#A8071B;stroke:#5E0202;stroke-miterlimit:10;}
	.st1{fill:none;stroke:#035114;stroke-width:2;stroke-miterlimit:10;}
	.st2{fill:none;stroke:#035B13;stroke-width:2;stroke-miterlimit:10;}
	.st3{fill:#838BC5;}
	.st4{fill:#FBB03B;}
	.st5{fill:#BA9BC9;}

	#petals1{
		animation: fall 5s infinite linear;
		
	}
	#petals{
		animation: fall2 8s infinite linear;
	}
	@keyframes fall{
		0%{transform: rotateX(90);}
		50%{transform:translate(-20px,50px);opacity: .5;}
		100%{transform:translate(20px,100px);opacity: 0;}
	}
	@keyframes fall2{
		0%{transform: rotateX(90);}
		50%{transform:translate(20px,50px);opacity: .5;}
		100%{transform:translate(-20px,100px);opacity: 0;}
	}
</style>
<path id="petals" class="st0" d="M16.4,47.4c-3.7,1.6-7.6,1.1-8.6-1.2c-1-2.3,3.3,0.2,7-1.9c3.1-1.8,5.5-6.3,6.5-4S20.2,45.8,16.4,47.4z"/>
<path id="petals1" class="st0" d="M109.8,45.9c-4.1-0.3-7.3-2.5-7.1-5s2.8,1.7,7.1,1.6c3.6-0.1,7.8-3,7.7-0.6S113.9,46.2,109.8,45.9z"/>
<line class="st1" x1="64.3" y1="106.4" x2="63" y2="23.8"/>
<g id="rose">
	<path class="st2" d="M62.7,109c0-36.3-25.8-61.2-44.1-61.2"/>
	<g>
		<ellipse transform="matrix(0.3999 -0.9166 0.9166 0.3999 -31.5801 42.0983)" class="st0" cx="16.4" cy="45.2" rx="4.5" ry="9"/>
		<ellipse transform="matrix(0.1264 -0.992 0.992 0.1264 -32.5136 55.6947)" class="st0" cx="15.4" cy="46.3" rx="4.5" ry="9"/>
		<ellipse transform="matrix(0.5747 -0.8184 0.8184 0.5747 -28.0776 32.1239)" class="st0" cx="16.9" cy="43.1" rx="4.5" ry="9"/>
		
			<ellipse transform="matrix(0.9995 -3.010143e-02 3.010143e-02 0.9995 -1.4399 0.4775)" class="st0" cx="15.1" cy="48.1" rx="9" ry="4.5"/>
		<ellipse transform="matrix(0.801 -0.5987 0.5987 0.801 -21.8539 19.3417)" class="st0" cx="18.2" cy="42.5" rx="4.5" ry="9"/>
	</g>
</g>
<g>
	<path class="st2" d="M67.8,108.7c0-36.3,20.6-64.1,38.9-64.1"/>
	<g>
		<ellipse transform="matrix(0.9166 -0.3999 0.3999 0.9166 -7.7127 47.0415)" class="st0" cx="108.9" cy="42" rx="9" ry="4.5"/>
		<ellipse transform="matrix(0.992 -0.1264 0.1264 0.992 -4.5721 14.233)" class="st0" cx="109.9" cy="43.1" rx="9" ry="4.5"/>
		<ellipse transform="matrix(0.8184 -0.5747 0.5747 0.8184 -3.2534 69.5253)" class="st0" cx="108.4" cy="39.9" rx="9" ry="4.5"/>
		
			<ellipse transform="matrix(3.010141e-02 -0.9995 0.9995 3.010141e-02 61.888 153.5876)" class="st0" cx="110.1" cy="44.9" rx="4.5" ry="9"/>
		<ellipse transform="matrix(0.5987 -0.801 0.801 0.5987 11.4304 101.5553)" class="st0" cx="107.1" cy="39.4" rx="9" ry="4.5"/>
	</g>
</g>
<path class="st2" d="M65.9,107.6c0-36.3,19.8-59.6,30.6-76.8"/>
<g>
	<ellipse transform="matrix(0.4958 -0.8684 0.8684 0.4958 29.2429 98.626)" class="st0" cx="99.6" cy="24.1" rx="9" ry="4.5"/>
	<ellipse transform="matrix(0.7198 -0.6942 0.6942 0.7198 11.3409 76.997)" class="st0" cx="101" cy="24.5" rx="9" ry="4.5"/>
	<ellipse transform="matrix(0.3126 -0.9499 0.9499 0.3126 45.6901 108.638)" class="st0" cx="97.9" cy="22.8" rx="9" ry="4.5"/>
	<ellipse transform="matrix(0.8194 -0.5733 0.5733 0.8194 3.7298 63.2803)" class="st0" cx="102.3" cy="25.7" rx="9" ry="4.5"/>
	<ellipse transform="matrix(1.304841e-03 -1 1 1.304841e-03 73.3231 119.6211)" class="st0" cx="96.6" cy="23.1" rx="9" ry="4.5"/>
</g>
<path class="st2" d="M64.3,106.4c0-36.3-23.1-61.5-33.9-78.8"/>
<g>
	<ellipse transform="matrix(0.8684 -0.4958 0.4958 0.8684 -7.4046 16.5454)" class="st0" cx="27.5" cy="22.2" rx="4.5" ry="9"/>
	<ellipse transform="matrix(0.6942 -0.7198 0.7198 0.6942 -8.2809 25.6067)" class="st0" cx="26" cy="22.5" rx="4.5" ry="9"/>
	<ellipse transform="matrix(0.9499 -0.3126 0.3126 0.9499 -5.0599 10.1511)" class="st0" cx="29.1" cy="20.9" rx="4.5" ry="9"/>
	<ellipse transform="matrix(0.5733 -0.8194 0.8194 0.5733 -8.9524 30.4601)" class="st0" cx="24.8" cy="23.8" rx="4.5" ry="9"/>
	
		<ellipse transform="matrix(1 -1.304770e-03 1.304770e-03 1 -2.764172e-02 3.980052e-02)" class="st0" cx="30.5" cy="21.2" rx="4.5" ry="9"/>
</g>
<g>
	
		<ellipse transform="matrix(2.670116e-02 -0.9996 0.9996 2.670116e-02 44.9757 80.6378)" class="st0" cx="63.9" cy="17.2" rx="9" ry="4.5"/>
	<ellipse transform="matrix(0.9669 -0.2551 0.2551 0.9669 -2.2021 16.4885)" class="st0" cx="62.5" cy="16.7" rx="4.5" ry="9"/>
	<ellipse transform="matrix(0.2255 -0.9742 0.9742 0.2255 34.6581 77.4163)" class="st0" cx="66" cy="16.9" rx="9" ry="4.5"/>
	<ellipse transform="matrix(0.9152 -0.403 0.403 0.9152 -1.7725 25.9413)" class="st0" cx="60.8" cy="17.2" rx="4.5" ry="9"/>
	<ellipse transform="matrix(0.5177 -0.8556 0.8556 0.5177 16.999 65.9682)" class="st0" cx="67" cy="17.9" rx="9" ry="4.5"/>
</g>
<g>
	<path class="st3" d="M78.3,101l12.6,16.9c5.8,7.8,9.1,18.5,9.1,29.6v6.6c0,11.1-3.3,21.7-9.1,29.6l-12.7,32.8H47.4l-12.3-32.8
		c-5.8-7.9-9.1-18.5-9.1-29.6v-6.6c0-11.1,3.3-21.7,9.1-29.6L47.7,101L78.3,101z"/>
	<path class="st4" d="M92.8,134.1c-2.8-2.9-4-6.9-5.4-10.6c-0.7-1.8-1.7-3.9-3.6-4.2c-1.9-0.4-3.7,1.2-4.4,3
		c-0.7,1.8-0.6,3.8-0.8,5.7c-0.3,3.4-1.4,6.7-3.3,9.6c-0.3,0.4-0.6,0.9-1.1,1.1c-0.5,0.2-1,0.1-1.6,0c-3-0.8-5.5-3-7.2-5.7
		c-1.6-2.7-2.5-5.7-3.3-8.8c-0.3-1.1-0.5-2.2-1.4-2.9c-0.7-0.6-1.8-0.7-2.7-0.6c-3.7,0.6-5.5,4.7-6.5,8.3s-2.4,7.7-5.9,8.9
		c-3,1-6.4-0.9-8.3-3.5c-1.9-2.6-2.6-5.8-3.7-8.8c-0.4-1.1-0.8-2.2-1.4-3.3c-2.1,3.8-3.8,8-4.9,12.5c0.8,1.2,1.4,2.4,1.6,3.9
		c0.5,3.4-1.1,7.7,1.5,10c0.7,0.6,1.6,1,2.5,1.3c2.4,0.8,4.8,1.7,7.3,1.7c2.5,0,5.2-0.9,6.6-2.9c1.7-2.4,1.6-6.1,4.3-7.4
		c2.2-1.1,4.9,0.6,6.1,2.8s1.2,4.8,1.7,7.2s1.7,5,4,5.8c2.4,0.9,5.1-0.5,6.8-2.4s2.5-4.5,3.6-6.8c1.1-2.3,2.5-4.7,4.9-5.7
		c2.8-1.3,6.3-0.4,8.9,1.4s4.5,4.4,6.6,6.7c1.7,1.9,3.7,3.7,6.1,4.7c0-0.2,0-0.4,0-0.6v-6.6c0-3.5-0.3-7-1-10.4
		C96.8,136.9,94.4,135.8,92.8,134.1z"/>
	<path class="st5" d="M89.2,187.3c-2.8-2.9-4-6.9-5.4-10.6c-0.7-1.8-1.7-3.9-3.6-4.2c-1.9-0.4-3.7,1.2-4.4,3
		c-0.7,1.8-0.6,3.8-0.8,5.7c-0.3,3.4-1.4,6.7-3.3,9.6c-0.3,0.4-0.6,0.9-1.1,1.1c-0.5,0.2-1,0.1-1.6,0c-3-0.8-5.5-3-7.2-5.7
		c-1.6-2.7-2.5-5.7-3.3-8.8c-0.3-1.1-0.5-2.2-1.4-2.9c-0.7-0.6-1.8-0.7-2.7-0.6c-3.7,0.6-5.5,4.7-6.5,8.3c-1,3.6-2.4,7.7-5.9,8.9
		c-1.5,0.5-3,0.3-4.5-0.4l4.6,12.3c0.4-0.4,0.8-0.8,1.2-1.2c1.7-2.4,1.6-6.1,4.3-7.4c2.2-1.1,4.9,0.6,6.1,2.8s1.2,4.8,1.7,7.2
		s1.7,5,4,5.8c2.4,0.9,5.1-0.5,6.8-2.4s2.5-4.5,3.6-6.8s2.5-4.7,4.9-5.7c2.8-1.3,6.3-0.4,8.9,1.4c0.6,0.4,1.2,0.9,1.7,1.4l4-10.4
		C89.3,187.4,89.3,187.4,89.2,187.3z"/>
</g>
</svg>
