<?xml version="1.0" encoding="utf-8"?>
<!-- Generator: Adobe Illustrator 23.0.1, SVG Export Plug-In . SVG Version: 6.00 Build 0)  -->
<svg version="1.1" id="Layer_1" xmlns="http://www.w3.org/2000/svg" xmlns:xlink="http://www.w3.org/1999/xlink" x="0px" y="0px"
	 width="300" height="300" viewBox="100 0 400 600" style="enable-background:new 0 0 258.35 443.29;" xml:space="preserve">
<style type="text/css">
	.st0{fill:none;stroke:#035114;stroke-width:2;stroke-miterlimit:10;}
	.st1{fill:none;stroke:#035B13;stroke-width:2;stroke-miterlimit:10;}
	.st2{fill:#A8071B;stroke:#5E0202;stroke-miterlimit:10;}
	.st3{fill:#838BC5;}
	.st4{fill:#FBB03B;}
	.st5{fill:#BA9BC9;}
</style>
<line class="st0" x1="128.59" y1="212.82" x2="125.99" y2="47.65"/>
<g>
	<path class="st1" d="M125.41,218c0-72.57-51.69-122.47-88.24-122.47"/>
	<g>
		<ellipse transform="matrix(0.3999 -0.9166 0.9166 0.3999 -63.16 84.1901)" class="st2" cx="32.71" cy="90.33" rx="9" ry="18"/>
		<ellipse transform="matrix(0.1264 -0.992 0.992 0.1264 -65.0255 111.3923)" class="st2" cx="30.73" cy="92.61" rx="9" ry="18"/>
		<ellipse transform="matrix(0.5747 -0.8184 0.8184 0.5747 -56.156 64.2439)" class="st2" cx="33.73" cy="86.15" rx="9" ry="18"/>
		<ellipse transform="matrix(0.9995 -0.0301 0.0301 0.9995 -2.8796 0.955)" class="st2" cx="30.28" cy="96.13" rx="18" ry="9"/>
		<ellipse transform="matrix(0.801 -0.5987 0.5987 0.801 -43.7076 38.6847)" class="st2" cx="36.33" cy="85.08" rx="9" ry="18"/>
	</g>
</g>
<g>
	<path class="st1" d="M135.53,217.41c0-72.57,41.21-128.21,77.75-128.21"/>
	<g>
		<ellipse transform="matrix(0.9166 -0.3999 0.3999 0.9166 -15.4244 94.0868)" class="st2" cx="217.74" cy="84" rx="18" ry="9"/>
		<ellipse transform="matrix(0.992 -0.1264 0.1264 0.992 -9.1435 28.4613)" class="st2" cx="219.73" cy="86.29" rx="18" ry="9"/>
		<ellipse transform="matrix(0.8184 -0.5747 0.5747 0.8184 -6.5103 139.0495)" class="st2" cx="216.73" cy="79.82" rx="18" ry="9"/>
		<ellipse transform="matrix(0.0301 -0.9995 0.9995 0.0301 123.788 307.1747)" class="st2" cx="220.18" cy="89.8" rx="9" ry="18"/>
		<ellipse transform="matrix(0.5987 -0.801 0.801 0.5987 22.8469 203.1118)" class="st2" cx="214.13" cy="78.75" rx="18" ry="9"/>
	</g>
</g>
<path class="st1" d="M131.84,215.24c0-72.57,39.57-119.11,61.26-153.59"/>
<g>
	<ellipse transform="matrix(0.4958 -0.8684 0.8684 0.4958 58.4915 197.2589)" class="st2" cx="199.13" cy="48.25" rx="18" ry="9"/>
	<ellipse transform="matrix(0.7198 -0.6942 0.6942 0.7198 22.6828 153.9938)" class="st2" cx="202.09" cy="48.9" rx="18" ry="9"/>
	<ellipse transform="matrix(0.3126 -0.9499 0.9499 0.3126 91.3677 217.2844)" class="st2" cx="195.82" cy="45.51" rx="18" ry="9"/>
	<ellipse transform="matrix(0.8194 -0.5733 0.5733 0.8194 7.4539 126.5537)" class="st2" cx="204.55" cy="51.45" rx="18" ry="9"/>
	<ellipse transform="matrix(1.304842e-03 -1 1 1.304842e-03 146.6384 239.242)" class="st2" cx="193.1" cy="46.21" rx="18" ry="9"/>
</g>
<path class="st1" d="M128.59,212.82c0-72.57-46.14-123.05-67.82-157.53"/>
<g>
	<ellipse transform="matrix(0.8684 -0.4958 0.4958 0.8684 -14.812 33.0927)" class="st2" cx="54.95" cy="44.45" rx="9" ry="18"/>
	<ellipse transform="matrix(0.6942 -0.7198 0.7198 0.6942 -16.5643 51.2117)" class="st2" cx="51.99" cy="45.1" rx="9" ry="18"/>
	<ellipse transform="matrix(0.9499 -0.3126 0.3126 0.9499 -10.1201 20.3052)" class="st2" cx="58.26" cy="41.71" rx="9" ry="18"/>
	<ellipse transform="matrix(0.5733 -0.8194 0.8194 0.5733 -17.9054 60.9169)" class="st2" cx="49.53" cy="47.65" rx="9" ry="18"/>
	<ellipse transform="matrix(1 -1.304842e-03 1.304842e-03 1 -0.0553 0.0796)" class="st2" cx="60.98" cy="42.41" rx="9" ry="18"/>
</g>
<g>
	<ellipse transform="matrix(0.0267 -0.9996 0.9996 0.0267 89.9577 161.2741)" class="st2" cx="127.8" cy="34.44" rx="18" ry="9"/>
	<ellipse transform="matrix(0.9669 -0.2551 0.2551 0.9669 -4.4019 32.9844)" class="st2" cx="124.93" cy="33.46" rx="9" ry="18"/>
	<ellipse transform="matrix(0.2255 -0.9742 0.9742 0.2255 69.3261 154.8384)" class="st2" cx="132.05" cy="33.81" rx="18" ry="9"/>
	<ellipse transform="matrix(0.9152 -0.403 0.403 0.9152 -3.5434 51.887)" class="st2" cx="121.51" cy="34.36" rx="9" ry="18"/>
	<ellipse transform="matrix(0.5177 -0.8556 0.8556 0.5177 33.9889 131.9375)" class="st2" cx="134.02" cy="35.82" rx="18" ry="9"/>
</g>
<g>
	<path class="st3" d="M156.66,201.91l25.16,33.85c11.66,15.7,18.22,36.98,18.22,59.18v13.21c0,22.2-6.55,43.48-18.22,59.18
		l-25.4,65.55H94.84l-24.68-65.54c-11.66-15.7-18.22-36.98-18.22-59.18v-13.21c0-22.2,6.55-43.48,18.22-59.18l25.16-33.85
		L156.66,201.91z"/>
	<path class="st4" d="M185.6,268.15c-5.51-5.78-7.94-13.73-10.76-21.19c-1.38-3.64-3.46-7.71-7.28-8.44
		c-3.77-0.72-7.35,2.41-8.74,5.98c-1.4,3.57-1.24,7.52-1.59,11.34c-0.61,6.77-2.87,13.39-6.53,19.13c-0.58,0.9-1.24,1.83-2.23,2.25
		c-0.98,0.41-2.09,0.25-3.12-0.01c-6.08-1.53-11.08-6.08-14.35-11.42c-3.28-5.35-5.04-11.47-6.5-17.57
		c-0.52-2.15-1.1-4.47-2.81-5.87c-1.46-1.19-3.5-1.47-5.36-1.17c-7.32,1.17-10.93,9.39-12.97,16.52
		c-2.04,7.13-4.78,15.42-11.82,17.72c-6.1,1.99-12.82-1.82-16.55-7.05c-3.73-5.23-5.28-11.64-7.41-17.69
		c-0.79-2.23-1.7-4.47-2.82-6.58c-4.28,7.53-7.56,15.95-9.73,24.9c1.61,2.33,2.78,4.89,3.2,7.72c1.02,6.89-2.15,15.4,3.08,20
		c1.44,1.27,3.29,1.94,5.1,2.58c4.72,1.68,9.55,3.39,14.57,3.46c5.01,0.08,10.34-1.76,13.19-5.89c3.31-4.79,3.28-12.29,8.55-14.78
		c4.46-2.11,9.86,1.27,12.12,5.66s2.42,9.51,3.46,14.34s3.45,9.94,8.09,11.64c4.82,1.76,10.29-0.95,13.57-4.89s4.96-8.92,7.11-13.58
		c2.15-4.66,5.08-9.33,9.73-11.49c5.7-2.65,12.64-0.79,17.8,2.81c5.16,3.6,9.03,8.7,13.28,13.34c3.48,3.8,7.46,7.43,12.15,9.4
		c0-0.39,0.02-0.78,0.02-1.17v-13.21c0-7.08-0.67-14.07-1.96-20.81C193.51,273.82,188.82,271.53,185.6,268.15z"/>
	<path class="st5" d="M178.37,374.6c-5.51-5.78-7.94-13.73-10.76-21.19c-1.38-3.64-3.46-7.71-7.28-8.44
		c-3.77-0.72-7.35,2.41-8.74,5.98c-1.4,3.57-1.24,7.52-1.59,11.34c-0.61,6.77-2.87,13.39-6.53,19.13c-0.58,0.9-1.24,1.83-2.23,2.25
		c-0.98,0.41-2.09,0.25-3.12-0.01c-6.08-1.53-11.08-6.08-14.35-11.42c-3.28-5.35-5.04-11.47-6.5-17.57
		c-0.52-2.15-1.1-4.47-2.81-5.87c-1.46-1.19-3.5-1.47-5.36-1.17c-7.32,1.17-10.93,9.39-12.97,16.52
		c-2.04,7.13-4.78,15.42-11.82,17.72c-2.98,0.97-6.1,0.55-8.95-0.73l9.28,24.65c0.87-0.71,1.65-1.52,2.3-2.46
		c3.31-4.79,3.28-12.29,8.55-14.78c4.46-2.11,9.86,1.27,12.12,5.66s2.42,9.51,3.46,14.34s3.45,9.94,8.09,11.64
		c4.82,1.76,10.29-0.95,13.57-4.89s4.96-8.92,7.11-13.58s5.08-9.33,9.73-11.49c5.7-2.65,12.64-0.79,17.8,2.81
		c1.21,0.84,2.35,1.78,3.44,2.76l8.04-20.74C178.68,374.9,178.52,374.76,178.37,374.6z"/>
</g>
</svg>
