<?xml version="1.0" encoding="utf-8"?>
<!-- Generator: Adobe Illustrator 23.0.1, SVG Export Plug-In . SVG Version: 6.00 Build 0)  -->
<svg version="1.1" id="Layer_1" xmlns="http://www.w3.org/2000/svg" xmlns:xlink="http://www.w3.org/1999/xlink" x="0px" y="0px"
	width="300" height="50"  viewBox="0 0 280 54" style="enable-background:new 0 0 288 54;" xml:space="preserve">
<style type="text/css">
	.st0{fill:#894B07;}
	.st1{fill:#563F05;}
	.st2{fill:#4C4239;}
</style>
<g>
	<path class="st0" d="M5.35,17.5c-2.68,0-4.85-2.18-4.85-4.85V5.35c0-2.68,2.18-4.85,4.85-4.85h277.29c2.68,0,4.85,2.18,4.85,4.85
		v7.29c0,2.68-2.18,4.85-4.85,4.85H5.35z"/>
	<path class="st1" d="M282.65,1c2.4,0,4.35,1.95,4.35,4.35v7.29c0,2.4-1.95,4.35-4.35,4.35H5.35C2.95,17,1,15.05,1,12.65V5.35
		C1,2.95,2.95,1,5.35,1H282.65 M282.65,0H5.35C2.4,0,0,2.4,0,5.35v7.29C0,15.6,2.4,18,5.35,18h277.29c2.96,0,5.35-2.4,5.35-5.35
		V5.35C288,2.4,285.6,0,282.65,0L282.65,0z"/>
</g>
<g>
	<path class="st0" d="M49.5,53.5c-7.17,0-13-5.83-13-13v-22h26v22C62.5,47.67,56.67,53.5,49.5,53.5z"/>
	<path class="st1" d="M62,19v21.5C62,47.39,56.39,53,49.5,53S37,47.39,37,40.5V19H62 M63,18H36v22.5C36,47.96,42.04,54,49.5,54
		S63,47.96,63,40.5V18L63,18z"/>
</g>
<g>
	<path class="st0" d="M238.5,53.5c-7.17,0-13-5.83-13-13v-22h26v22C251.5,47.67,245.67,53.5,238.5,53.5z"/>
	<path class="st1" d="M251,19v21.5c0,6.89-5.61,12.5-12.5,12.5S226,47.39,226,40.5V19H251 M252,18h-27v22.5
		c0,7.46,6.04,13.5,13.5,13.5S252,47.96,252,40.5V18L252,18z"/>
</g>
<g>
	<circle class="st2" cx="238.5" cy="40.5" r="4.5"/>
</g>
<g>
	<circle class="st2" cx="49.5" cy="40.5" r="4.5"/>
</g>
</svg>
