<?xml version="1.0" encoding="utf-8"?>
<!-- Generator: Adobe Illustrator 23.0.1, SVG Export Plug-In . SVG Version: 6.00 Build 0)  -->
<svg version="1.1" id="Layer_1" xmlns="http://www.w3.org/2000/svg" xmlns:xlink="http://www.w3.org/1999/xlink" x="0px" y="0px"
	 height="100" width="400" viewBox="0 0 290 92" style="enable-background:new 0 0 290 92;" xml:space="preserve">
<g>
	<path d="M269,48.7c-3.8,5.9-7.7,11.8-11.5,17.8c-5,7.9-7,7.9-12,0.3c-3.9-6.1-7.9-12.1-11.9-18.2c-0.5,0.1-0.9,0.2-1.4,0.3
		c0,5.5,0,11.1,0,16.6c0,5.6,0,11.3,0,16.8c-6.4,1.2-6.6,1-6.6-4.6c0-13-0.1-26,0.1-39c0-1.8,0.9-4.6,2.1-5.1c2.6-1.1,5.2-0.3,7,2.8
		c5.1,8.8,10.6,17.3,16.4,26.7c2.5-3.9,4.8-7.2,7-10.6c3.1-4.9,6.4-9.8,9.1-14.9c2.1-3.9,4.7-5.3,9.5-3.5c0,2.2,0,4.7,0,7.1
		c0,12.5-0.1,25-0.1,37.5c0,2.2,0.2,4.4-3.2,4.4c-3.3,0-3.3-1.9-3.3-4.2c0-9.8,0-19.6,0-29.5C269.8,49.1,269.4,48.9,269,48.7z"/>
	<path d="M97.4,57.8c0-13.9,11.4-25.4,25.3-25.4c14.4,0,25.9,11.5,25.8,26c-0.1,13.9-11.6,25.5-25.3,25.5
		C108.9,83.8,97.4,72.3,97.4,57.8z M141.5,58.1c0.1-11.1-7.7-19.5-18.3-19.7c-10.7-0.2-19.2,8.4-19.2,19.4c0,11,7.6,19.2,17.9,19.3
		C133.9,77.2,141.5,69.9,141.5,58.1z"/>
	<path d="M185.2,58.8c-14.1,0-25.8-11.7-25.7-25.6c0-14,12-26,25.7-25.8c14,0.2,26,12.2,25.9,25.8C211,47.2,199.3,58.8,185.2,58.8z
		 M185.4,14c-11.1,0-19.1,8-19.1,19.2c0,10.9,8.6,19.7,19,19.6c10.6-0.1,18.6-8.5,18.7-19.9C204.2,22.1,196.2,14,185.4,14z"/>
	<path d="M9.6,33.2c9.4,0,18.5-0.1,27.6,0.1c1,0,2.9,2.4,2.7,2.8c-0.7,1.4-2.1,3.4-3.4,3.5c-6.6,0.3-13.3,0.2-20.3,0.2
		c0,4.8,0,9.5,0,15c6.4,0,13,0,19.7,0c0,2.3,0,4,0,6.2c-6.7,0-13.3,0-19.9,0c0,5.9,0,11.2,0,16.5c0,5.7-0.1,5.7-6.3,4.9
		C9.6,66.2,9.6,50,9.6,33.2z"/>
	<path d="M63.1,76.2c8.3,0,15.9,0,23.8,0c0,2.3,0,4.2,0,6.7c-9.2,0-18.3,0.1-27.4-0.1c-1,0-2.7-1.6-2.7-2.5
		c-0.2-15.4-0.1-30.9-0.1-46.6c2.3,0,4.2,0,6.5,0C63.1,47.6,63.1,61.5,63.1,76.2z"/>
</g>
</svg>
