<?xml version="1.0" encoding="utf-8"?>
<!-- Generator: Adobe Illustrator 23.0.1, SVG Export Plug-In . SVG Version: 6.00 Build 0)  -->
<svg version="1.1" id="Layer_1" xmlns="http://www.w3.org/2000/svg" xmlns:xlink="http://www.w3.org/1999/xlink" x="0px" y="0px"
	 width="310" height="200" viewBox="0 0 434.87 263.53" style="enable-background:new 0 0 434.87 263.53;" xml:space="preserve">
<style type="text/css">
	.st0{fill:none;stroke:#007205;stroke-width:2;stroke-miterlimit:10;}
	.st1{fill:#F4933B;stroke:#C15C0A;stroke-miterlimit:10;}
	.st2{fill:#F46CF1;stroke:#BA19A7;stroke-miterlimit:10;}
	.st3{fill:#24D8EA;stroke:#075D89;stroke-miterlimit:10;}
	.st4{fill:#F4F4F4;stroke:#C6C5C4;stroke-miterlimit:10;}
	.st5{fill:#0A9311;stroke:#007205;stroke-miterlimit:10;}
	.st6{fill:#A67C52;stroke:#603813;stroke-width:2;stroke-miterlimit:10;}

	.stalk{animation:sway 7s linear infinite;
			transform-origin: 0% bottom;}
	.stalk1{animation:sway 8s linear infinite;
			transform-origin: 0% bottom;}
	.stalk2{animation:sway 9s linear infinite;
			transform-origin: 0% bottom;}
	.stalk3{animation:sway 6s linear infinite;
			transform-origin: 0% bottom;}
	@keyframes sway{
		0%{transform:rotate(0deg);}
		25%{transform: rotate(3deg);}
		50%{transform: rotate(0deg);}
		75%{transform: rotate(-3deg);}
		100%{transform: rotate(0deg);}
	}
</style>
<g class="stalk">
	<line class="st0" x1="79.19" y1="54.43" x2="79.48" y2="180.1"/>
	<g>
		<ellipse class="st1" cx="79.39" cy="30.46" rx="9" ry="27"/>
		<ellipse transform="matrix(0.9844 -0.1761 0.1761 0.9844 -4.3109 13.7623)" class="st1" cx="75.41" cy="31.18" rx="9" ry="27"/>
		<ellipse transform="matrix(0.1761 -0.9844 0.9844 0.1761 38.0047 107.7577)" class="st1" cx="83.37" cy="31.18" rx="27" ry="9"/>
	</g>
</g>
<g class="stalk1">
	<line class="st0" x1="156.88" y1="59.99" x2="157.17" y2="185.66"/>
	<g>
		<ellipse class="st2" cx="157.08" cy="36.03" rx="9" ry="27"/>
		<ellipse transform="matrix(0.9844 -0.1761 0.1761 0.9844 -4.0771 27.5268)" class="st2" cx="153.1" cy="36.74" rx="9" ry="27"/>
		<ellipse transform="matrix(0.1761 -0.9844 0.9844 0.1761 96.5398 188.8192)" class="st2" cx="161.06" cy="36.74" rx="27" ry="9"/>
	</g>
</g>
<g class="stalk2">
	<line class="st0" x1="247.74" y1="59.99" x2="248.03" y2="185.66"/>
	<g>
		<ellipse class="st3" cx="247.94" cy="36.03" rx="9" ry="27"/>
		<ellipse transform="matrix(0.9844 -0.1761 0.1761 0.9844 -2.6579 43.5228)" class="st3" cx="243.96" cy="36.74" rx="9" ry="27"/>
		
			<ellipse transform="matrix(0.1761 -0.9844 0.9844 0.1761 171.4032 278.2595)" class="st3" cx="251.92" cy="36.74" rx="27" ry="9"/>
	</g>
</g>
<g class="stalk3">
	<line class="st0" x1="355.29" y1="59.99" x2="355.57" y2="185.66"/>
	<g>
		<ellipse class="st4" cx="355.48" cy="36.03" rx="9" ry="27"/>
		<ellipse transform="matrix(0.9844 -0.1761 0.1761 0.9844 -0.9782 62.4564)" class="st4" cx="351.5" cy="36.74" rx="9" ry="27"/>
		
			<ellipse transform="matrix(0.1761 -0.9844 0.9844 0.1761 260.0145 384.1246)" class="st4" cx="359.47" cy="36.74" rx="27" ry="9"/>
	</g>
</g>
<g>
	<path class="st5" d="M80.18,181.58L80.18,181.58c-0.43,3.29-3.87,5.27-6.93,4l0,0c0,0,0,0,0,0C60.48,122.14,31.3,97.44,19.28,92.1
		c0,0,0,0,0,0L0,86.13c0,0,0,0,0,0c0.04-0.18,16.19,1.46,24.96,2.86c0.23,0.04,0.59,0.12,0.81,0.19
		c14.75,4.55,34.12,19.8,43.65,36.3l0,0C79.05,142.17,82.8,161.73,80.18,181.58z"/>
	<path class="st5" d="M79.52,176.49L79.52,176.49c-0.48,2.83-2.93,3.6-4.95,1.55l0,0c0,0,0,0,0,0
		C69.5,117.2,51.04,86.36,43.16,78.01c0,0,0,0,0,0L30.38,66.95c0,0,0,0,0,0c0.04-0.15,10.94,6.09,16.83,9.94
		c0.15,0.1,0.39,0.28,0.54,0.41c9.78,8.45,22.1,27.88,27.64,45.55l0,0C81,140.7,82.44,159.41,79.52,176.49z"/>
	<path class="st5" d="M78.6,181.58L78.6,181.58c0.43,3.29,3.87,5.27,6.93,4h0c0,0,0,0,0,0c12.77-63.44,41.95-88.14,53.97-93.48
		c0,0,0,0,0,0l19.28-5.97c0,0,0,0,0,0c-0.04-0.18-16.19,1.46-24.96,2.86c-0.23,0.04-0.59,0.12-0.81,0.19
		c-14.75,4.55-34.12,19.8-43.65,36.3l0,0C79.73,142.17,75.98,161.73,78.6,181.58z"/>
	<path class="st5" d="M78.96,176.06L78.96,176.06c1.25,3.07,5.08,4.11,7.72,2.11v0c0,0,0,0,0,0c-3.77-64.6,18.19-95.91,28.45-104.12
		c0,0,0,0,0,0l17.13-10.67c0,0,0,0,0,0c-0.09-0.16-15.29,5.52-23.41,9.11c-0.21,0.09-0.54,0.26-0.73,0.39
		c-13.11,8.15-27.97,27.81-32.99,46.2l0,0C70.05,137.66,71.38,157.53,78.96,176.06z"/>
</g>
<g>
	<path class="st5" d="M157.87,187.14L157.87,187.14c-0.43,3.29-3.87,5.27-6.93,4h0c0,0,0,0,0,0C138.17,127.7,108.99,103,96.97,97.66
		c0,0,0,0,0,0l-19.28-5.97c0,0,0,0,0,0c0.04-0.18,16.19,1.46,24.96,2.86c0.23,0.04,0.59,0.12,0.81,0.19
		c14.75,4.55,34.12,19.8,43.65,36.3l0,0C156.74,147.73,160.49,167.29,157.87,187.14z"/>
	<path class="st5" d="M157.21,182.06L157.21,182.06c-0.48,2.83-2.93,3.6-4.95,1.55h0c0,0,0,0,0,0
		c-5.08-60.84-23.53-91.68-31.41-100.03c0,0,0,0,0,0l-12.78-11.06c0,0,0,0,0,0c0.04-0.15,10.94,6.09,16.83,9.94
		c0.15,0.1,0.39,0.28,0.54,0.41c9.78,8.45,22.1,27.88,27.64,45.55v0C158.69,146.27,160.13,164.97,157.21,182.06z"/>
	<path class="st5" d="M156.29,187.14L156.29,187.14c0.43,3.29,3.87,5.27,6.93,4h0c0,0,0,0,0,0c12.77-63.44,41.95-88.14,53.97-93.48
		c0,0,0,0,0,0l19.28-5.97c0,0,0,0,0,0c-0.04-0.18-16.19,1.46-24.96,2.86c-0.23,0.04-0.59,0.12-0.81,0.19
		c-14.75,4.55-34.12,19.8-43.65,36.3l0,0C157.42,147.73,153.67,167.29,156.29,187.14z"/>
	<path class="st5" d="M156.65,181.63L156.65,181.63c1.25,3.07,5.08,4.11,7.72,2.11l0,0c0,0,0,0,0,0
		c-3.77-64.6,18.19-95.91,28.45-104.12c0,0,0,0,0,0l17.13-10.67c0,0,0,0,0,0c-0.09-0.16-15.29,5.52-23.41,9.11
		c-0.21,0.09-0.54,0.26-0.73,0.39c-13.11,8.15-27.97,27.81-32.99,46.2l0,0C147.74,143.22,149.07,163.09,156.65,181.63z"/>
</g>
<g>
	<path class="st5" d="M248.73,187.14L248.73,187.14c-0.43,3.29-3.87,5.27-6.93,4l0,0c0,0,0,0,0,0
		c-12.77-63.44-41.95-88.14-53.97-93.48c0,0,0,0,0,0l-19.28-5.97c0,0,0,0,0,0c0.04-0.18,16.19,1.46,24.96,2.86
		c0.23,0.04,0.59,0.12,0.81,0.19c14.75,4.55,34.12,19.8,43.65,36.3l0,0C247.6,147.73,251.35,167.29,248.73,187.14z"/>
	<path class="st5" d="M248.07,182.06L248.07,182.06c-0.48,2.83-2.93,3.6-4.95,1.55l0,0c0,0,0,0,0,0
		c-5.08-60.84-23.53-91.68-31.41-100.03c0,0,0,0,0,0l-12.78-11.06c0,0,0,0,0,0c0.04-0.15,10.94,6.09,16.83,9.94
		c0.15,0.1,0.39,0.28,0.54,0.41c9.78,8.45,22.1,27.88,27.64,45.55l0,0C249.55,146.27,250.99,164.97,248.07,182.06z"/>
	<path class="st5" d="M247.15,187.14L247.15,187.14c0.43,3.29,3.87,5.27,6.93,4l0,0c0,0,0,0,0,0
		c12.77-63.44,41.95-88.14,53.97-93.48c0,0,0,0,0,0l19.28-5.97c0,0,0,0,0,0c-0.04-0.18-16.19,1.46-24.96,2.86
		c-0.23,0.04-0.59,0.12-0.81,0.19c-14.75,4.55-34.12,19.8-43.65,36.3l0,0C248.28,147.73,244.53,167.29,247.15,187.14z"/>
	<path class="st5" d="M247.51,181.63L247.51,181.63c1.25,3.07,5.08,4.11,7.72,2.11l0,0c0,0,0,0,0,0
		c-3.77-64.6,18.19-95.91,28.45-104.12c0,0,0,0,0,0l17.13-10.67c0,0,0,0,0,0c-0.09-0.16-15.29,5.52-23.41,9.11
		c-0.21,0.09-0.54,0.26-0.73,0.39c-13.11,8.15-27.97,27.81-32.99,46.2v0C238.6,143.22,239.93,163.09,247.51,181.63z"/>
</g>
<g>
	<path class="st5" d="M356.28,187.14L356.28,187.14c-0.43,3.29-3.87,5.27-6.93,4h0c0,0,0,0,0,0
		c-12.77-63.44-41.95-88.14-53.97-93.48c0,0,0,0,0,0l-19.28-5.97c0,0,0,0,0,0c0.04-0.18,16.19,1.46,24.96,2.86
		c0.23,0.04,0.59,0.12,0.81,0.19c14.75,4.55,34.12,19.8,43.65,36.3l0,0C355.14,147.73,358.9,167.29,356.28,187.14z"/>
	<path class="st5" d="M355.62,182.06L355.62,182.06c-0.48,2.83-2.93,3.6-4.95,1.55l0,0c0,0,0,0,0,0
		c-5.08-60.84-23.53-91.68-31.41-100.03c0,0,0,0,0,0l-12.78-11.06c0,0,0,0,0,0c0.04-0.15,10.94,6.09,16.83,9.94
		c0.15,0.1,0.39,0.28,0.54,0.41c9.78,8.45,22.1,27.88,27.64,45.55v0C357.09,146.27,358.53,164.97,355.62,182.06z"/>
	<path class="st5" d="M354.69,187.14L354.69,187.14c0.43,3.29,3.87,5.27,6.93,4l0,0c0,0,0,0,0,0
		c12.77-63.44,41.95-88.14,53.97-93.48c0,0,0,0,0,0l19.28-5.97c0,0,0,0,0,0c-0.04-0.18-16.19,1.46-24.96,2.86
		c-0.23,0.04-0.59,0.12-0.81,0.19c-14.75,4.55-34.12,19.8-43.65,36.3v0C355.83,147.73,352.07,167.29,354.69,187.14z"/>
	<path class="st5" d="M355.06,181.63L355.06,181.63c1.25,3.07,5.08,4.11,7.72,2.11l0,0c0,0,0,0,0,0
		c-3.77-64.6,18.19-95.91,28.45-104.12c0,0,0,0,0,0l17.13-10.67c0,0,0,0,0,0c-0.09-0.16-15.29,5.52-23.41,9.11
		c-0.21,0.09-0.54,0.26-0.73,0.39c-13.11,8.15-27.97,27.81-32.99,46.2l0,0C346.14,143.22,347.48,163.09,355.06,181.63z"/>
</g>
<path class="st6" d="M388.79,191.53H26.26c-4.27,0-7.74-3.46-7.74-7.74v-2.53c0-4.27,3.46-7.74,7.74-7.74h362.53
	c4.27,0,7.74,3.46,7.74,7.74v2.53C396.52,188.07,393.06,191.53,388.79,191.53z"/>
<polygon class="st6" points="315.52,263.53 99.52,263.53 27.52,191.53 387.52,191.53 "/>
</svg>
