<?xml version="1.0" encoding="utf-8"?>
<!-- Generator: Adobe Illustrator 23.0.1, SVG Export Plug-In . SVG Version: 6.00 Build 0)  -->
<svg version="1.1" id="Layer_1" xmlns="http://www.w3.org/2000/svg" xmlns:xlink="http://www.w3.org/1999/xlink" x="0px" y="0px"
	 viewBox="0 0 198 234" style="enable-background:new 0 0 198 234;" xml:space="preserve">
<style type="text/css">
	.st0{fill:#9E7A5F;stroke:#75380A;stroke-miterlimit:10;}
	.st1{fill:#F2F1F0;stroke:#75380A;stroke-miterlimit:10;}
	.st2{fill:#F7F4F2;stroke:#75380A;stroke-miterlimit:10;}
	.st3{fill:#F7F4F2;stroke:#000000;stroke-miterlimit:10;}
	.st4{fill:#969392;stroke:#000000;stroke-width:2;stroke-miterlimit:10;}
	.st5{fill:none;stroke:#000000;stroke-width:2;stroke-miterlimit:10;}
</style>
<g>
	<path class="st0" d="M144,198h-9l18,36l-36.41-0.12L81,234H45l18-36h-9l9-90c0-19.88,16.12-36,36-36h0c19.88,0,36,16.12,36,36
		L144,198z"/>
	<path class="st1" d="M108,144H90v-18c0-4.97,4.03-9,9-9h0c4.97,0,9,4.03,9,9V144z"/>
	<path class="st2" d="M108,198H90v-27c0-4.97,4.03-9,9-9h0c4.97,0,9,4.03,9,9V198z"/>
</g>
<g>
	<circle class="st3" cx="99" cy="99" r="6.92"/>
	<g>
		<path class="st4" d="M103.9,103.9l58.74,58.74l-9.79,9.79l-48.95-48.95l6.53-6.53c3.26-3.26,3.26-3.26,3.26-3.26"/>
		<line class="st4" x1="123.43" y1="123.43" x2="111.7" y2="135.16"/>
		<line class="st4" x1="133.27" y1="133.27" x2="121.54" y2="144.99"/>
		<line class="st5" x1="143.06" y1="143.06" x2="131.33" y2="154.78"/>
		<line class="st5" x1="152.85" y1="152.85" x2="141.12" y2="164.58"/>
	</g>
	<g>
		<path class="st4" d="M103.9,94.1l58.74-58.74l9.79,9.79L123.48,94.1l-6.53-6.53c-3.26-3.26-3.26-3.26-3.26-3.26"/>
		<line class="st4" x1="123.43" y1="74.57" x2="135.16" y2="86.3"/>
		<line class="st4" x1="133.27" y1="64.73" x2="144.99" y2="76.46"/>
		<line class="st5" x1="143.06" y1="54.94" x2="154.78" y2="66.67"/>
		<line class="st5" x1="152.85" y1="45.15" x2="164.58" y2="56.88"/>
	</g>
	<g>
		<path class="st4" d="M94.1,94.1L35.36,35.36l9.79-9.79L94.1,74.52l-6.53,6.53c-3.26,3.26-3.26,3.26-3.26,3.26"/>
		<line class="st4" x1="74.57" y1="74.57" x2="86.3" y2="62.84"/>
		<line class="st4" x1="64.73" y1="64.73" x2="76.46" y2="53.01"/>
		<line class="st5" x1="54.94" y1="54.94" x2="66.67" y2="43.22"/>
		<line class="st5" x1="45.15" y1="45.15" x2="56.88" y2="33.42"/>
	</g>
	<g>
		<path class="st4" d="M94.1,103.9l-58.74,58.74l-9.79-9.79l48.95-48.95l6.53,6.53c3.26,3.26,3.26,3.26,3.26,3.26"/>
		<line class="st4" x1="74.57" y1="123.43" x2="62.84" y2="111.7"/>
		<line class="st4" x1="64.73" y1="133.27" x2="53.01" y2="121.54"/>
		<line class="st5" x1="54.94" y1="143.06" x2="43.22" y2="131.33"/>
		<line class="st5" x1="45.15" y1="152.85" x2="33.42" y2="141.12"/>
	</g>
</g>
</svg>
