<svg id="eqfgplrq0hfi1" xmlns="http://www.w3.org/2000/svg" xmlns:xlink="http://www.w3.org/1999/xlink" viewBox="0 0 1000 1000" shape-rendering="geometricPrecision" text-rendering="geometricPrecision"><style><![CDATA[#eqfgplrq0hfi6_tr {animation: eqfgplrq0hfi6_tr__tr 3000ms infinite linear }@keyframes eqfgplrq0hfi6_tr__tr { 0% {transform: translate(98.999996px,98.999992px) rotate(0deg)} 100% {transform: translate(98.999996px,98.999992px) rotate(360deg)} }]]></style><g id="eqfgplrq0hfi2"><path id="eqfgplrq0hfi3" d="M144,198L135,198L153,234L116.590000,233.880000L81,234L45,234L63,198L54,198L63,108C63,88.120000,79.120000,72,99,72L99,72C118.880000,72,135,88.120000,135,108L144,198Z" fill="rgb(158,122,95)" stroke="rgb(117,56,10)" stroke-width="1" stroke-miterlimit="10"/><path id="eqfgplrq0hfi4" d="M108,144L90,144L90,126C90,121.030000,94.030000,117,99,117L99,117C103.970000,117,108,121.030000,108,126L108,144Z" fill="rgb(242,241,240)" stroke="rgb(117,56,10)" stroke-width="1" stroke-miterlimit="10"/><path id="eqfgplrq0hfi5" d="M108,198L90,198L90,171C90,166.030000,94.030000,162,99,162L99,162C103.970000,162,108,166.030000,108,171L108,198Z" fill="rgb(247,244,242)" stroke="rgb(117,56,10)" stroke-width="1" stroke-miterlimit="10"/></g><g id="eqfgplrq0hfi6_tr" transform="translate(98.999996,98.999992) rotate(0)"><g id="eqfgplrq0hfi6" transform="translate(-98.999996,-98.999992)"><circle id="eqfgplrq0hfi7" r="6.920000" transform="matrix(1 0 0 1 99 99)" fill="rgb(247,244,242)" stroke="rgb(0,0,0)" stroke-width="1" stroke-miterlimit="10"/><g id="eqfgplrq0hfi8"><path id="eqfgplrq0hfi9" d="M103.900000,103.900000L162.640000,162.640000L152.850000,172.430000L103.900000,123.480000L110.430000,116.950000C113.690000,113.690000,113.690000,113.690000,113.690000,113.690000" fill="rgb(150,147,146)" stroke="rgb(0,0,0)" stroke-width="2" stroke-miterlimit="10"/><line id="eqfgplrq0hfi10" x1="123.430000" y1="123.430000" x2="111.700000" y2="135.160000" fill="rgb(150,147,146)" stroke="rgb(0,0,0)" stroke-width="2" stroke-miterlimit="10"/><line id="eqfgplrq0hfi11" x1="133.270000" y1="133.270000" x2="121.540000" y2="144.990000" fill="rgb(150,147,146)" stroke="rgb(0,0,0)" stroke-width="2" stroke-miterlimit="10"/><line id="eqfgplrq0hfi12" x1="143.060000" y1="143.060000" x2="131.330000" y2="154.780000" fill="none" stroke="rgb(0,0,0)" stroke-width="2" stroke-miterlimit="10"/><line id="eqfgplrq0hfi13" x1="152.850000" y1="152.850000" x2="141.120000" y2="164.580000" fill="none" stroke="rgb(0,0,0)" stroke-width="2" stroke-miterlimit="10"/></g><g id="eqfgplrq0hfi14"><path id="eqfgplrq0hfi15" d="M103.900000,94.100000L162.640000,35.360000L172.430000,45.150000L123.480000,94.100000L116.950000,87.570000C113.690000,84.310000,113.690000,84.310000,113.690000,84.310000" fill="rgb(150,147,146)" stroke="rgb(0,0,0)" stroke-width="2" stroke-miterlimit="10"/><line id="eqfgplrq0hfi16" x1="123.430000" y1="74.570000" x2="135.160000" y2="86.300000" fill="rgb(150,147,146)" stroke="rgb(0,0,0)" stroke-width="2" stroke-miterlimit="10"/><line id="eqfgplrq0hfi17" x1="133.270000" y1="64.730000" x2="144.990000" y2="76.460000" fill="rgb(150,147,146)" stroke="rgb(0,0,0)" stroke-width="2" stroke-miterlimit="10"/><line id="eqfgplrq0hfi18" x1="143.060000" y1="54.940000" x2="154.780000" y2="66.670000" fill="none" stroke="rgb(0,0,0)" stroke-width="2" stroke-miterlimit="10"/><line id="eqfgplrq0hfi19" x1="152.850000" y1="45.150000" x2="164.580000" y2="56.880000" fill="none" stroke="rgb(0,0,0)" stroke-width="2" stroke-miterlimit="10"/></g><g id="eqfgplrq0hfi20"><path id="eqfgplrq0hfi21" d="M94.100000,94.100000L35.360000,35.360000L45.150000,25.570000L94.100000,74.520000L87.570000,81.050000C84.310000,84.310000,84.310000,84.310000,84.310000,84.310000" fill="rgb(150,147,146)" stroke="rgb(0,0,0)" stroke-width="2" stroke-miterlimit="10"/><line id="eqfgplrq0hfi22" x1="74.570000" y1="74.570000" x2="86.300000" y2="62.840000" fill="rgb(150,147,146)" stroke="rgb(0,0,0)" stroke-width="2" stroke-miterlimit="10"/><line id="eqfgplrq0hfi23" x1="64.730000" y1="64.730000" x2="76.460000" y2="53.010000" fill="rgb(150,147,146)" stroke="rgb(0,0,0)" stroke-width="2" stroke-miterlimit="10"/><line id="eqfgplrq0hfi24" x1="54.940000" y1="54.940000" x2="66.670000" y2="43.220000" fill="none" stroke="rgb(0,0,0)" stroke-width="2" stroke-miterlimit="10"/><line id="eqfgplrq0hfi25" x1="45.150000" y1="45.150000" x2="56.880000" y2="33.420000" fill="none" stroke="rgb(0,0,0)" stroke-width="2" stroke-miterlimit="10"/></g><g id="eqfgplrq0hfi26"><path id="eqfgplrq0hfi27" d="M94.100000,103.900000L35.360000,162.640000L25.570000,152.850000L74.520000,103.900000L81.050000,110.430000C84.310000,113.690000,84.310000,113.690000,84.310000,113.690000" fill="rgb(150,147,146)" stroke="rgb(0,0,0)" stroke-width="2" stroke-miterlimit="10"/><line id="eqfgplrq0hfi28" x1="74.570000" y1="123.430000" x2="62.840000" y2="111.700000" fill="rgb(150,147,146)" stroke="rgb(0,0,0)" stroke-width="2" stroke-miterlimit="10"/><line id="eqfgplrq0hfi29" x1="64.730000" y1="133.270000" x2="53.010000" y2="121.540000" fill="rgb(150,147,146)" stroke="rgb(0,0,0)" stroke-width="2" stroke-miterlimit="10"/><line id="eqfgplrq0hfi30" x1="54.940000" y1="143.060000" x2="43.220000" y2="131.330000" fill="none" stroke="rgb(0,0,0)" stroke-width="2" stroke-miterlimit="10"/><line id="eqfgplrq0hfi31" x1="45.150000" y1="152.850000" x2="33.420000" y2="141.120000" fill="none" stroke="rgb(0,0,0)" stroke-width="2" stroke-miterlimit="10"/></g></g></g></svg>